<?xml version="1.0" encoding="utf-8"?>
<!-- Generator: Adobe Illustrator 15.0.0, SVG Export Plug-In . SVG Version: 6.00 Build 0)  -->
<!DOCTYPE svg PUBLIC "-//W3C//DTD SVG 1.1//EN" "http://www.w3.org/Graphics/SVG/1.1/DTD/svg11.dtd">
<svg version="1.1" id="Capa_1" xmlns="http://www.w3.org/2000/svg" xmlns:xlink="http://www.w3.org/1999/xlink" x="0px" y="0px"
	 width="600px" height="600px" viewBox="0 0 600 600" enable-background="new 0 0 600 600" xml:space="preserve">
<g>
	<path fill="#222221" d="M447.695,179.432H253.626v-12.314c0-10.346-8.416-18.764-18.761-18.764H120.154
		c-10.345,0-18.761,8.418-18.761,18.764v233.621c0,28.072,22.84,50.908,50.914,50.908h295.388c28.074,0,50.912-22.836,50.912-50.908
		V230.34C498.607,202.266,475.77,179.432,447.695,179.432z M228.961,173.018v18.746c0,6.811,5.522,12.332,12.333,12.332h206.401
		c11.846,0,21.766,7.938,25.018,18.734H126.058v-49.812H228.961z M447.695,426.98H152.307c-14.473,0-26.249-11.773-26.249-26.242
		V247.496h347.883v153.242C473.941,415.207,462.169,426.98,447.695,426.98z"/>
	<path fill="#222221" d="M230.596,336.467h-24.668v-24.664c0-6.811-5.521-12.334-12.333-12.334c-6.811,0-12.333,5.523-12.333,12.334
		v24.664h-24.668c-6.811,0-12.333,5.521-12.333,12.332c0,6.812,5.522,12.334,12.333,12.334h24.668v24.67
		c0,6.811,5.522,12.334,12.333,12.334c6.811,0,12.333-5.523,12.333-12.334v-24.67h24.668c6.811,0,12.333-5.521,12.333-12.334
		C242.929,341.988,237.407,336.467,230.596,336.467z"/>
</g>
</svg>
