<?xml version="1.0" encoding="utf-8"?>
<!-- Generator: Adobe Illustrator 15.0.0, SVG Export Plug-In . SVG Version: 6.00 Build 0)  -->
<!DOCTYPE svg PUBLIC "-//W3C//DTD SVG 1.1//EN" "http://www.w3.org/Graphics/SVG/1.1/DTD/svg11.dtd">
<svg version="1.1" id="Capa_1" xmlns="http://www.w3.org/2000/svg" xmlns:xlink="http://www.w3.org/1999/xlink" x="0px" y="0px"
	 width="600px" height="600px" viewBox="0 0 600 600" enable-background="new 0 0 600 600" xml:space="preserve">
<g>
	<path d="M446.225,141.146H231.741c-7.363,0-13.333,5.971-13.333,13.333v291.576c0,7.363,5.97,13.333,13.333,13.333h214.483
		c7.363,0,13.332-5.97,13.332-13.333V154.479C459.557,147.116,453.588,141.146,446.225,141.146z M432.893,432.725H245.072V167.81
		h187.821V432.725z"/>
	<path d="M460.715,89.069H187.612c-31.305,0-56.771,25.472-56.771,56.777v18.702h-11.593c-20.254,0-36.733,16.476-36.733,36.728
		c0,20.258,16.479,36.732,36.733,36.732h11.593v25.258h-11.593c-20.254,0-36.733,16.476-36.733,36.733
		c0,20.252,16.479,36.733,36.733,36.733h11.593v25.257h-11.593c-20.254,0-36.733,16.476-36.733,36.728
		c0,20.258,16.479,36.733,36.733,36.733h11.593v18.709c0,31.304,25.465,56.771,56.771,56.771h273.103
		c31.305,0,56.77-25.467,56.77-56.771V145.847C517.484,114.541,492.02,89.069,460.715,89.069z M109.178,201.276
		c0-5.547,4.518-10.064,10.07-10.064h49.851c5.552,0,10.07,4.518,10.07,10.064c0,5.551-4.518,10.069-10.07,10.069h-49.851
		C113.696,211.346,109.178,206.827,109.178,201.276z M109.178,300c0-5.553,4.518-10.07,10.07-10.07h49.851
		c5.552,0,10.07,4.518,10.07,10.07c0,5.552-4.518,10.07-10.07,10.07h-49.851C113.696,310.07,109.178,305.552,109.178,300z
		 M109.178,398.718c0-5.546,4.518-10.063,10.07-10.063h49.851c5.552,0,10.07,4.518,10.07,10.063c0,5.553-4.518,10.071-10.07,10.071
		h-49.851C113.696,408.789,109.178,404.271,109.178,398.718z M490.822,454.16c0,16.6-13.508,30.106-30.107,30.106H187.612
		c-16.6,0-30.106-13.507-30.106-30.106v-18.709h11.593c20.254,0,36.734-16.476,36.734-36.733c0-20.252-16.48-36.728-36.734-36.728
		h-11.593v-25.257h11.593c20.254,0,36.734-16.481,36.734-36.733c0-20.258-16.48-36.733-36.734-36.733h-11.593v-25.258h11.593
		c20.254,0,36.734-16.475,36.734-36.732c0-20.252-16.48-36.728-36.734-36.728h-11.593v-18.702c0-16.606,13.507-30.114,30.106-30.114
		h273.103c16.6,0,30.107,13.508,30.107,30.114V454.16z"/>
	<path d="M273.435,222.386h131.089c7.362,0,13.331-5.969,13.331-13.331s-5.969-13.332-13.331-13.332H273.435
		c-7.363,0-13.333,5.97-13.333,13.332S266.072,222.386,273.435,222.386z"/>
	<path d="M273.435,262.381h131.089c7.362,0,13.331-5.97,13.331-13.331c0-7.363-5.969-13.332-13.331-13.332H273.435
		c-7.363,0-13.333,5.969-13.333,13.332C260.103,256.411,266.072,262.381,273.435,262.381z"/>
	<path d="M273.435,302.376h131.089c7.362,0,13.331-5.97,13.331-13.332c0-7.361-5.969-13.331-13.331-13.331H273.435
		c-7.363,0-13.333,5.97-13.333,13.331C260.103,296.406,266.072,302.376,273.435,302.376z"/>
	<path d="M273.435,342.371h131.089c7.362,0,13.331-5.969,13.331-13.332c0-7.362-5.969-13.332-13.331-13.332H273.435
		c-7.363,0-13.333,5.97-13.333,13.332C260.103,336.402,266.072,342.371,273.435,342.371z"/>
	<path d="M273.435,382.365h131.089c7.362,0,13.331-5.969,13.331-13.332c0-7.361-5.969-13.33-13.331-13.33H273.435
		c-7.363,0-13.333,5.969-13.333,13.33C260.103,376.396,266.072,382.365,273.435,382.365z"/>
</g>
</svg>
