<?xml version="1.0" encoding="utf-8"?>
<!-- Generator: Adobe Illustrator 15.0.0, SVG Export Plug-In . SVG Version: 6.00 Build 0)  -->
<!DOCTYPE svg PUBLIC "-//W3C//DTD SVG 1.1//EN" "http://www.w3.org/Graphics/SVG/1.1/DTD/svg11.dtd">
<svg version="1.1" id="Capa_1" xmlns="http://www.w3.org/2000/svg" xmlns:xlink="http://www.w3.org/1999/xlink" x="0px" y="0px"
	 width="600px" height="600px" viewBox="0 0 600 600" enable-background="new 0 0 600 600" xml:space="preserve">
<g>
	<path d="M299.619,200.998c-68.625-1.667-124.537,51.668-126.238,120.063c-0.826,32.898,11.207,64.147,33.883,87.991
		c22.68,23.844,53.285,37.43,86.18,38.248c1.041,0.026,2.078,0.039,3.115,0.039c67.35,0,121.443-52.761,123.133-120.11
		C421.389,259.319,367.525,202.69,299.619,200.998z M401.783,326.782c-1.469,58.443-49.197,103.952-107.895,102.609
		c-28.107-0.704-54.262-12.313-73.639-32.688c-19.381-20.375-29.666-47.079-28.961-75.196
		c1.439-57.551,47.648-102.632,105.199-102.632c0.893,0,1.789,0.009,2.686,0.031C357.201,220.358,403.23,268.75,401.783,326.782z"/>
	<path d="M488.658,109.87c-3.498-3.499-9.168-3.499-12.666,0l-15.848,15.849c-8.52-6.221-18.746-9.584-29.496-9.584
		c-13.398,0-25.992,5.214-35.465,14.688c-1.68,1.68-2.625,3.958-2.625,6.334c0,2.375,0.945,4.653,2.625,6.333l24.064,24.065
		l-22.264,21.17c-27.693-20.637-61.003-32.222-96.236-33.105c-1.43-0.039-2.869-0.057-4.291-0.057
		c-37.328,0-71.674,11.852-99.484,32.076L178.5,168.216l24.727-24.727c3.498-3.499,3.498-9.168,0-12.667
		c-9.475-9.475-22.068-14.688-35.467-14.688c-10.361,0-20.234,3.13-28.562,8.926l-15.188-15.19c-3.5-3.499-9.168-3.499-12.668,0
		c-3.5,3.5-3.5,9.169,0,12.668l15.197,15.196c-13.549,19.539-11.641,46.627,5.756,64.021c1.748,1.75,4.041,2.624,6.332,2.624
		c2.293,0,4.586-0.874,6.334-2.624l20.867-20.866l17.207,18.092c-32.894,29.817-53.811,72.637-55.023,120.953
		c-1.129,45.006,15.344,87.764,46.375,120.386c2.618,2.753,5.32,5.396,8.088,7.947l-22.432,21.308
		c-3.59,3.407-3.734,9.076-0.326,12.663c1.762,1.854,4.129,2.791,6.494,2.791c2.219,0,4.436-0.818,6.168-2.463l23.988-22.786
		c27.639,20.501,60.842,32.005,95.947,32.882c1.443,0.039,2.84,0.153,4.322,0.057c36.662,0,70.441-11.441,97.979-31.016
		l25.736,27.057c1.764,1.855,4.125,2.787,6.492,2.787c2.217,0,4.439-0.818,6.172-2.468c3.586-3.411,3.727-9.08,0.318-12.663
		l-24.633-25.897c33.656-29.856,55.107-73.18,56.332-122.138c1.139-45.015-15.326-87.778-46.361-120.409
		c-2.535-2.666-5.15-5.229-7.827-7.705l21.075-20.039l21.527,21.528c1.75,1.75,4.041,2.624,6.334,2.624
		c2.291,0,4.584-0.874,6.334-2.62c9.479-9.475,14.697-22.072,14.697-35.47c0-9.972-2.895-19.498-8.281-27.623l16.127-16.128
		C492.158,119.039,492.158,113.37,488.658,109.87z M139.525,181.856c-6.75-12.248-4.936-27.99,5.436-38.366
		c6.09-6.089,14.186-9.439,22.799-9.439c5.537,0,10.861,1.383,15.576,3.994L139.525,181.856z M447.127,327.928
		c-2.092,83.648-70.316,148.832-154.365,146.824c-40.227-1.006-77.656-17.619-105.393-46.777
		c-27.732-29.158-42.455-67.371-41.449-107.597c2.068-82.371,68.193-146.898,150.537-146.898c1.273,0,2.564,0.017,3.846,0.048
		c40.229,1.01,77.654,17.628,105.387,46.79C433.426,249.477,448.141,287.694,447.127,327.928z M458.896,181.865l-43.824-43.82
		c4.715-2.611,10.039-3.994,15.576-3.994c8.613,0,16.709,3.351,22.799,9.444c6.094,6.089,9.447,14.181,9.447,22.794
		C462.895,171.826,461.508,177.154,458.896,181.865z"/>
	<path d="M311.783,328.083c0.325-1.26,0.516-2.573,0.516-3.934c0-5.781-3.122-10.821-7.764-13.564v-65.589c0-4.418-3.581-8-8-8
		c-4.417,0-8,3.582-8,8v65.588c-4.641,2.743-7.762,7.783-7.762,13.565c0,8.706,7.056,15.763,15.762,15.763
		c1.361,0,2.674-0.19,3.934-0.516l34.35,34.351c1.562,1.562,3.61,2.343,5.658,2.343s4.095-0.781,5.656-2.343
		c3.125-3.125,3.125-8.189,0-11.314L311.783,328.083z"/>
</g>
</svg>
