<?xml version="1.0" encoding="utf-8"?>
<!-- Generator: Adobe Illustrator 15.0.0, SVG Export Plug-In . SVG Version: 6.00 Build 0)  -->
<!DOCTYPE svg PUBLIC "-//W3C//DTD SVG 1.1//EN" "http://www.w3.org/Graphics/SVG/1.1/DTD/svg11.dtd">
<svg version="1.1" id="Capa_1" xmlns="http://www.w3.org/2000/svg" xmlns:xlink="http://www.w3.org/1999/xlink" x="0px" y="0px"
	 width="600px" height="600px" viewBox="0 0 600 600" enable-background="new 0 0 600 600" xml:space="preserve">
<g>
	<path d="M448.121,441.221c-14.176-33.603-62.084-139.134-62.084-139.134c16.688-19.688,26.781-45.129,26.781-72.893
		c0-62.256-50.648-112.906-112.904-112.906s-112.906,50.65-112.906,112.906c0,27.764,10.096,53.205,26.781,72.893l-62.203,140.078
		c-1.396,3.145-0.723,6.828,1.699,9.273c2.422,2.443,6.084,3.162,9.258,1.801l41.352-17.828l14.506,42.633
		c1.109,3.26,4.104,5.506,7.541,5.66c0.127,0.004,0.254,0.008,0.377,0.008c3.295,0,6.297-1.939,7.645-4.969l60.736-136.779
		c1.73,0.082,3.467,0.135,5.215,0.135s3.482-0.053,5.215-0.135l60.736,136.779c1.348,3.029,4.348,4.969,7.645,4.969
		c0.123,0,0.248-0.004,0.375-0.008c3.439-0.154,6.432-2.4,7.543-5.66l14.506-42.633L437,452.956c1.07,0.459,2.193,0.684,3.309,0.684
		c0.033,0,0.074,0,0.086,0c4.623,0,8.391-3.353,8.726-8.051C449.197,444.504,448.954,443.195,448.121,441.221z M227.352,452.419
		l-10.537-30.967c-0.75-2.209-2.393-4.002-4.523-4.949c-1.078-0.477-2.238-0.719-3.395-0.719c-1.127,0-2.254,0.229-3.312,0.682
		l-30.035,12.951l50.891-114.602c14.322,12.305,31.727,21.105,50.908,25.018L227.352,452.419z M203.734,229.194
		c0-53.035,43.145-96.18,96.18-96.18c53.033,0,96.178,43.145,96.178,96.18c0,53.033-43.145,96.178-96.178,96.178
		C246.879,325.372,203.734,282.228,203.734,229.194z M394.242,416.466c-2.141-0.914-4.574-0.902-6.705,0.037
		c-2.133,0.947-3.773,2.74-4.525,4.949l-10.535,30.967L322.48,339.833c19.18-3.912,36.586-12.713,50.906-25.018l50.891,114.602
		L394.242,416.466z"/>
	<path d="M299.914,153.923c-41.502,0-75.271,33.77-75.271,75.271s33.77,75.27,75.271,75.27s75.27-33.768,75.27-75.27
		S341.416,153.923,299.914,153.923z M299.914,287.737c-32.281,0-58.545-26.262-58.545-58.543s26.264-58.543,58.545-58.543
		s58.543,26.262,58.543,58.543S332.195,287.737,299.914,287.737z"/>
</g>
</svg>
