<?xml version="1.0" encoding="utf-8"?>
<!-- Generator: Adobe Illustrator 15.0.0, SVG Export Plug-In . SVG Version: 6.00 Build 0)  -->
<!DOCTYPE svg PUBLIC "-//W3C//DTD SVG 1.1//EN" "http://www.w3.org/Graphics/SVG/1.1/DTD/svg11.dtd">
<svg version="1.1" id="Capa_1" xmlns="http://www.w3.org/2000/svg" xmlns:xlink="http://www.w3.org/1999/xlink" x="0px" y="0px"
	 width="600px" height="600px" viewBox="0 0 600 600" enable-background="new 0 0 600 600" xml:space="preserve">
<g>
	<path d="M438.402,152.818l-64.445-28.617c-1.639-0.725-3.463-0.85-5.186-0.42H231.225c-1.727-0.43-3.547-0.305-5.182,0.42
		l-64.445,28.617c-4.057,1.801-5.885,6.549-4.084,10.604l59.754,134.566c-16.029,18.909-25.727,43.348-25.727,70.02
		c0,59.803,48.656,108.459,108.459,108.459c59.805,0,108.459-48.656,108.459-108.459c0-26.672-9.697-51.111-25.727-70.02
		l59.754-134.566C444.287,159.367,442.459,154.619,438.402,152.818z M300,259.548c-1.68,0-3.35,0.051-5.01,0.129l-24.67-55.555
		h59.359l-24.67,55.555C303.35,259.599,301.68,259.548,300,259.548z M336.812,188.054h-73.625l-21.406-48.205h116.438
		L336.812,188.054z M225.219,142.148l53.1,119.58c-18.422,3.756-35.145,12.209-48.898,24.029l-53.959-121.512L225.219,142.148z
		 M300,460.398c-50.945,0-92.391-41.445-92.391-92.391c0-50.947,41.445-92.391,92.391-92.391c50.947,0,92.391,41.444,92.391,92.391
		C392.391,418.953,350.947,460.398,300,460.398z M370.58,285.757c-13.754-11.82-30.477-20.273-48.898-24.029l53.1-119.58
		l49.758,22.098L370.58,285.757z"/>
	<path d="M300,295.701c-39.867,0-72.307,32.438-72.307,72.307c0,39.867,32.439,72.307,72.307,72.307
		c39.869,0,72.307-32.439,72.307-72.307C372.307,328.139,339.869,295.701,300,295.701z M300,424.246
		c-31.01,0-56.238-25.229-56.238-56.238S268.99,311.77,300,311.77s56.238,25.229,56.238,56.238S331.01,424.246,300,424.246z"/>
</g>
</svg>
