<?xml version="1.0" encoding="utf-8"?>
<!-- Generator: Adobe Illustrator 15.0.0, SVG Export Plug-In . SVG Version: 6.00 Build 0)  -->
<!DOCTYPE svg PUBLIC "-//W3C//DTD SVG 1.1//EN" "http://www.w3.org/Graphics/SVG/1.1/DTD/svg11.dtd">
<svg version="1.1" id="Capa_1" xmlns="http://www.w3.org/2000/svg" xmlns:xlink="http://www.w3.org/1999/xlink" x="0px" y="0px"
	 width="600px" height="600px" viewBox="0 0 600 600" enable-background="new 0 0 600 600" xml:space="preserve">
<g>
	<path d="M418.829,213.079c0-65.523-53.308-118.829-118.829-118.829c-65.522,0-118.829,53.305-118.829,118.829
		c0,32.282,12.958,61.583,33.928,83.022V468.34c0,3.693,2.308,6.994,5.771,8.266l35.987,13.187c0.004,0,0.004,0,0.008,0.004
		l42.076,15.416c0.98,0.357,2.008,0.538,3.031,0.538c0.004,0,0.004,0,0.004,0c1.074,0,2.148-0.198,3.168-0.59l74.121-28.606
		c3.396-1.311,5.634-4.572,5.634-8.214V296.101C405.87,274.662,418.829,245.36,418.829,213.079z M300,111.854
		c55.817,0,101.225,45.406,101.225,101.225c0,55.816-45.407,101.225-101.225,101.225s-101.225-45.409-101.225-101.225
		C198.775,157.26,244.183,111.854,300,111.854z M232.704,462.19V310.942c5.781,3.982,11.935,7.465,18.391,10.387V468.93
		L232.704,462.19z M301.896,487.543l-33.197-12.164V327.689c9.979,2.735,20.466,4.218,31.302,4.218
		c12.267,0,24.103-1.87,35.243-5.334v148.098L301.896,487.543z M352.847,467.88V319.463c5.029-2.509,9.855-5.354,14.45-8.521v151.36
		L352.847,467.88z"/>
	<path d="M300,292.296c43.68,0,79.219-35.538,79.219-79.218s-35.539-79.22-79.219-79.22c-43.68,0-79.219,35.54-79.219,79.22
		S256.32,292.296,300,292.296z M300,151.463c33.976,0,61.614,27.641,61.614,61.616c0,33.976-27.639,61.614-61.614,61.614
		s-61.615-27.638-61.615-61.614C238.385,179.104,266.024,151.463,300,151.463z"/>
</g>
</svg>
