<?xml version="1.0" encoding="utf-8"?>
<!-- Generator: Adobe Illustrator 15.0.0, SVG Export Plug-In . SVG Version: 6.00 Build 0)  -->
<!DOCTYPE svg PUBLIC "-//W3C//DTD SVG 1.1//EN" "http://www.w3.org/Graphics/SVG/1.1/DTD/svg11.dtd">
<svg version="1.1" id="Capa_1" xmlns="http://www.w3.org/2000/svg" xmlns:xlink="http://www.w3.org/1999/xlink" x="0px" y="0px"
	 width="600px" height="600px" viewBox="0 0 600 600" enable-background="new 0 0 600 600" xml:space="preserve">
<g>
	<path fill="#222221" d="M441.719,211.455c0-78.144-63.576-141.72-141.718-141.72c-78.143,0-141.719,63.576-141.719,141.72
		c0,47.74,23.752,90.01,60.035,115.7v191.3c0,4.637,2.711,8.838,6.932,10.754c1.562,0.709,3.224,1.056,4.878,1.056
		c2.804,0,5.583-1.003,7.779-2.924l62.1-54.362l62.094,54.362c3.484,3.044,8.43,3.782,12.658,1.868
		c4.221-1.916,6.932-6.117,6.932-10.754v-191.3C417.965,301.459,441.719,259.191,441.719,211.455z M241.936,340.683
		c3.114,1.407,6.269,2.733,9.498,3.915v139.505l-9.498,8.315V340.683z M292.227,448.396l-17.173,15.034v-112.5
		c8.103,1.448,16.429,2.244,24.946,2.244c8.511,0,16.837-0.796,24.939-2.244v112.488l-17.154-15.022
		C303.332,444.497,296.679,444.497,292.227,448.396z M358.07,492.418l-9.51-8.328V344.598c3.229-1.182,6.389-2.512,9.51-3.92
		V492.418z M300,329.554c-65.121,0-118.099-52.978-118.099-118.099c0-65.123,52.978-118.1,118.099-118.1
		c65.121,0,118.097,52.977,118.097,118.1C418.098,276.576,365.121,329.554,300,329.554z"/>
	<path fill="#222221" d="M300,106.723c-57.752,0-104.732,46.979-104.732,104.732c0,57.752,46.98,104.73,104.732,104.73
		c57.751,0,104.732-46.979,104.732-104.73C404.732,153.702,357.752,106.723,300,106.723z M300,292.566
		c-44.726,0-81.113-36.385-81.113-81.111c0-44.725,36.388-81.112,81.113-81.112c44.724,0,81.113,36.388,81.113,81.112
		C381.113,256.182,344.725,292.566,300,292.566z"/>
	<path fill="#222221" d="M300,174.422c-6.522,0-11.81,5.289-11.81,11.811v53.271c0,6.521,5.287,11.81,11.81,11.81
		c6.521,0,11.81-5.288,11.81-11.81v-53.271C311.811,179.711,306.521,174.422,300,174.422z"/>
</g>
</svg>
