<?xml version="1.0" encoding="utf-8"?>
<!-- Generator: Adobe Illustrator 15.0.0, SVG Export Plug-In . SVG Version: 6.00 Build 0)  -->
<!DOCTYPE svg PUBLIC "-//W3C//DTD SVG 1.1//EN" "http://www.w3.org/Graphics/SVG/1.1/DTD/svg11.dtd">
<svg version="1.1" id="Capa_1" xmlns="http://www.w3.org/2000/svg" xmlns:xlink="http://www.w3.org/1999/xlink" x="0px" y="0px"
	 width="600px" height="600px" viewBox="0 0 600 600" enable-background="new 0 0 600 600" xml:space="preserve">
<path d="M480.963,295.587l-55.256-22.091c-0.004,0-0.004-0.004-0.006-0.004l-159.725-63.861c-0.009-0.004-0.019-0.008-0.026-0.012
	l-93.958-37.568c-8.48-3.391-17.375-5.106-26.437-5.106c-29.332,0-55.316,17.594-66.2,44.83
	c-7.067,17.674-6.827,37.049,0.673,54.544c7.503,17.498,21.368,31.026,39.043,38.089l308.967,123.537
	c8.481,3.391,17.378,5.109,26.44,5.109c29.327,0,55.314-17.598,66.203-44.83C535.271,351.732,517.451,310.176,480.963,295.587z
	 M506.177,382.424c-8.503,21.268-28.798,35.01-51.698,35.01c-7.067,0-14.013-1.344-20.642-3.994L124.87,289.905
	c-13.799-5.516-24.625-16.076-30.483-29.742c-5.856-13.661-6.043-28.788-0.526-42.591c8.499-21.267,28.792-35.005,51.695-35.005
	c7.067,0,14.011,1.343,20.637,3.989l11.231,4.493l24.007,54.235c1.291,2.914,4.149,4.649,7.146,4.649
	c1.057,0,2.13-0.214,3.158-0.672c3.943-1.743,5.727-6.357,3.979-10.302l-17.535-39.612l59.111,23.632l24.008,54.243
	c1.293,2.917,4.149,4.649,7.147,4.649c1.057,0,2.13-0.214,3.158-0.668c3.943-1.747,5.727-6.361,3.981-10.306l-17.535-39.616
	l59.111,23.632l24.008,54.24c1.291,2.914,4.149,4.648,7.146,4.648c1.057,0,2.13-0.213,3.157-0.672
	c3.944-1.742,5.728-6.357,3.98-10.301l-17.535-39.616l59.115,23.639l24.007,54.239c1.293,2.918,4.15,4.65,7.147,4.65
	c1.057,0,2.131-0.215,3.158-0.668c3.944-1.748,5.727-6.361,3.982-10.307l-17.533-39.615l37.367,14.939
	C503.654,321.484,517.565,353.934,506.177,382.424z"/>
</svg>
