<?xml version="1.0" encoding="utf-8"?>
<!-- Generator: Adobe Illustrator 15.0.0, SVG Export Plug-In . SVG Version: 6.00 Build 0)  -->
<!DOCTYPE svg PUBLIC "-//W3C//DTD SVG 1.1//EN" "http://www.w3.org/Graphics/SVG/1.1/DTD/svg11.dtd">
<svg version="1.1" id="Capa_1" xmlns="http://www.w3.org/2000/svg" xmlns:xlink="http://www.w3.org/1999/xlink" x="0px" y="0px"
	 width="600px" height="600px" viewBox="0 0 600 600" enable-background="new 0 0 600 600" xml:space="preserve">
<path d="M308.376,130.243v-24.98c0-4.621-3.751-8.377-8.376-8.377c-4.626,0-8.376,3.756-8.376,8.377v24.98
	c-73.705,4.352-132.342,65.668-132.342,140.449c0,4.629,3.75,8.377,8.376,8.377h123.966v182.533c0,0.285,0.055,0.547,0.082,0.818
	c0.865,22.576,19.45,40.693,42.237,40.693c23.333,0,42.314-18.984,42.314-42.322c0-4.621-3.751-8.375-8.376-8.375
	c-4.626,0-8.377,3.754-8.377,8.375c0,14.102-11.466,25.57-25.562,25.57c-14.099,0-25.566-11.469-25.566-25.57V279.069h123.966
	c4.626,0,8.377-3.748,8.377-8.377C440.719,195.911,382.08,134.595,308.376,130.243z M176.314,262.315
	c4.323-64.457,58.146-115.59,123.686-115.59c65.539,0,119.362,51.133,123.686,115.59H176.314z"/>
</svg>
