<?xml version="1.0" encoding="utf-8"?>
<!-- Generator: Adobe Illustrator 15.0.0, SVG Export Plug-In . SVG Version: 6.00 Build 0)  -->
<!DOCTYPE svg PUBLIC "-//W3C//DTD SVG 1.1//EN" "http://www.w3.org/Graphics/SVG/1.1/DTD/svg11.dtd">
<svg version="1.1" id="Capa_1" xmlns="http://www.w3.org/2000/svg" xmlns:xlink="http://www.w3.org/1999/xlink" x="0px" y="0px"
	 width="600px" height="600px" viewBox="0 0 600 600" enable-background="new 0 0 600 600" xml:space="preserve">
<g>
	<path d="M285.602,216.555c6.89,0,13.815-0.793,20.587-2.371c48.658-11.317,79.042-60.111,67.73-108.771
		c-9.602-41.279-45.863-70.105-88.182-70.105c-6.893,0-13.822,0.805-20.594,2.373c-48.658,11.314-79.043,60.11-67.73,108.768
		c9.597,41.273,45.863,70.107,88.186,70.107H285.602z M224.606,87.906c10.159-16.307,26.054-27.686,44.771-32.037
		c5.385-1.249,10.891-1.887,16.361-1.887c30.428,0,56.852,18.82,67.236,46.716L214.146,132.97
		C212.57,117.25,216.119,101.538,224.606,87.906z M218.364,151.172l138.818-32.281c3.501,35.383-19.682,68.839-55.225,77.1
		c-5.385,1.26-10.887,1.889-16.355,1.889h-0.003C255.172,197.879,228.748,179.057,218.364,151.172z"/>
	<path d="M402.32,471.991c3.547-10.487,3.508-23.79-0.119-39.548l-34.783-207.965c-0.035-0.191-0.068-0.383-0.115-0.574
		c-0.807-3.457-1.982-6.939-3.496-10.359c-1.195-2.699-3.598-4.669-6.473-5.317c-2.885-0.655-5.896,0.083-8.136,2.006
		c-11.413,9.767-24.64,16.451-39.312,19.86c-14.519,3.385-29.66,3.213-44.045-0.474c-2.854-0.729-5.887-0.072-8.178,1.78
		c-2.295,1.851-3.582,4.678-3.471,7.623c0.141,3.703,0.623,7.358,1.436,10.852c0.045,0.182,0.096,0.373,0.15,0.565l60.533,201.964
		c9.101,38.764,29.276,46.917,44.618,46.917c0.629,0,1.293-0.091,1.937-0.118l13.551,58.268c1.003,4.314,4.843,7.223,9.089,7.223
		c0.699,0,1.414-0.08,2.123-0.246c5.025-1.166,8.149-6.182,6.98-11.206l-13.549-58.27
		C391.418,490.403,398.727,482.625,402.32,471.991z M384.629,466.009c-2.477,7.323-7.777,11.7-16.693,13.771
		c-2.479,0.573-4.834,0.866-7.006,0.866c-4.668,0-18.881,0-26.494-32.755c-0.047-0.191-0.098-0.383-0.151-0.565l-59.033-196.958
		c12.922,1.586,26.104,0.885,38.866-2.079c12.721-2.954,24.881-8.171,35.787-15.294l33.922,202.814
		c0.031,0.191,0.069,0.382,0.115,0.574C386.836,448.83,387.067,458.796,384.629,466.009z"/>
</g>
</svg>
