<?xml version="1.0" encoding="utf-8"?>
<!-- Generator: Adobe Illustrator 15.0.0, SVG Export Plug-In . SVG Version: 6.00 Build 0)  -->
<!DOCTYPE svg PUBLIC "-//W3C//DTD SVG 1.1//EN" "http://www.w3.org/Graphics/SVG/1.1/DTD/svg11.dtd">
<svg version="1.1" id="Capa_1" xmlns="http://www.w3.org/2000/svg" xmlns:xlink="http://www.w3.org/1999/xlink" x="0px" y="0px"
	 width="600px" height="600px" viewBox="0 0 600 600" enable-background="new 0 0 600 600" xml:space="preserve">
<g>
	<path d="M355.032,125.751c-0.274-0.051-0.543-0.123-0.82-0.152c-17.251-3.543-35.286-5.443-53.856-5.443l-0.977,0.002
		c-58.547,0.203-113.633,18.785-155.115,52.324c-42.267,34.176-65.45,79.736-65.277,128.289
		c0.332,98.736,99.321,179.066,220.661,179.074l0.979-0.002c58.544-0.203,113.631-18.785,155.112-52.324
		c42.264-34.176,65.447-79.736,65.274-128.289C520.733,215.835,450.084,145.581,355.032,125.751z M107.007,313.091l390.003-1.549
		c0.268,13.995-6.344,31.791-6.344,31.791c-9.273-8.878-31.935-26.949-51.01-24.088c-13.568,2.016-21.567,10.463-27.408,16.629
		c-3.742,3.951-6.179,6.291-7.775,6.268c-6.913-0.338-8.666-1.949-13.348-6.256c-3.204-2.947-7.196-6.619-13.258-10.074
		c-23.838-13.6-39.043,2.01-48.12,11.334c-4.381,4.494-8.517,8.74-12.249,9.598c-6.976,1.588-12.679-2.398-22.18-9.588
		c-9.078-6.875-19.371-14.662-33.468-15.561c-18.463-1.23-28.675,11.562-36.128,20.854c-7.781,9.697-11.117,13.006-17.854,11.957
		c-2.979-0.461-4.747-2.666-8.677-8.391c-5.285-7.695-14.154-20.609-33.662-18.848c-13.676,1.199-36.359,30.75-42.644,29.549
		C114.535,355.118,108.969,332.589,107.007,313.091z M159.643,191.505c3.66-2.959,7.474-5.75,11.367-8.447l49.219,57.717
		c2.422,2.838,5.855,4.295,9.313,4.295c2.807,0,5.629-0.963,7.931-2.924c5.139-4.383,5.751-12.102,1.371-17.244l-46.612-54.662
		c16.053-8.396,33.479-14.834,51.828-19.15l74.293,89.24c2.418,2.906,5.9,4.404,9.405,4.404c2.76,0,5.533-0.928,7.821-2.83
		c5.189-4.32,5.894-12.033,1.573-17.227l-65.283-78.422c9.062-1.033,18.271-1.604,27.594-1.637l0.893-0.002
		c15.719,0,30.995,1.514,45.659,4.293l70.285,90.736c2.41,3.111,6.022,4.742,9.678,4.742c2.616,0,5.252-0.836,7.479-2.562
		c5.343-4.135,6.316-11.818,2.181-17.156l-50.037-64.6c61.011,23.398,104.487,71.072,110.241,127.016l-391.781,1.367
		C107.519,252.032,126.903,217.974,159.643,191.505z M440.358,408.493c-37.167,30.053-86.822,46.701-139.814,46.887l-0.894,0.004
		c-70.156-0.004-131.877-29.361-166.575-73.334c8.546-1.822,15.214-10.102,20.837-17.119c3.407-4.256,10.502-13.111,13.763-13.398
		c4.682-0.391,6.047,0.605,11.35,8.326c4.811,7.008,11.397,16.602,25.112,18.721c21.345,3.309,32.969-11.221,40.67-20.826
		c6.9-8.604,10.29-12.064,15.497-11.744c6.749,0.43,13.008,5.166,20.252,10.65c10.689,8.09,23.995,18.152,42.407,13.928
		c10.762-2.465,18.271-10.178,24.306-16.373c9.943-10.209,11.837-10.936,18.483-7.154c3.655,2.088,6.16,4.389,8.812,6.828
		c5.771,5.311,12.953,11.918,28.72,12.686c12.935,0.654,20.923-7.758,26.725-13.879c4.98-5.258,8.283-8.52,13.243-9.258
		c7.488-1.125,29.035,19.297,34.369,24.086C469.119,379.636,452.938,398.323,440.358,408.493z"/>
</g>
</svg>
