<?xml version="1.0" encoding="utf-8"?>
<!-- Generator: Adobe Illustrator 15.0.0, SVG Export Plug-In . SVG Version: 6.00 Build 0)  -->
<!DOCTYPE svg PUBLIC "-//W3C//DTD SVG 1.1//EN" "http://www.w3.org/Graphics/SVG/1.1/DTD/svg11.dtd">
<svg version="1.1" id="Capa_1" xmlns="http://www.w3.org/2000/svg" xmlns:xlink="http://www.w3.org/1999/xlink" x="0px" y="0px"
	 width="600px" height="600px" viewBox="0 0 600 600" enable-background="new 0 0 600 600" xml:space="preserve">
<path d="M300,189.729c-114.559,0-207.766,93.208-207.766,207.765c0,7.056,5.72,12.776,12.773,12.776c0.312,0,1.497,0,1.81,0h94.308
	c0.305,0,1.503,0,1.81,0c7.053,0,12.773-5.721,12.773-12.776c0-46.478,37.814-84.29,84.292-84.29
	c46.477,0,84.292,37.812,84.292,84.29c0,7.056,5.72,12.776,12.773,12.776c0.305,0,1.502,0,1.81,0h94.308c0.312,0,1.495,0,1.81,0
	c7.054,0,12.773-5.721,12.773-12.776C507.766,282.937,414.56,189.729,300,189.729z M300,215.279
	c96.18,0,175.134,74.908,181.718,169.441h-21.342C453.84,301.939,384.436,236.562,300,236.562
	c-84.436,0-153.84,65.377-160.377,148.158h-21.342C124.866,290.188,203.82,215.279,300,215.279z M300,287.658
	c-56.238,0-102.672,42.501-109.033,97.063h-25.703c6.46-68.672,64.396-122.611,134.736-122.611
	c70.339,0,128.275,53.939,134.736,122.611h-25.704C402.673,330.159,356.238,287.658,300,287.658z"/>
</svg>
