<?xml version="1.0" encoding="utf-8"?>
<!-- Generator: Adobe Illustrator 15.0.0, SVG Export Plug-In . SVG Version: 6.00 Build 0)  -->
<!DOCTYPE svg PUBLIC "-//W3C//DTD SVG 1.1//EN" "http://www.w3.org/Graphics/SVG/1.1/DTD/svg11.dtd">
<svg version="1.1" id="Capa_1" xmlns="http://www.w3.org/2000/svg" xmlns:xlink="http://www.w3.org/1999/xlink" x="0px" y="0px"
	 width="600px" height="600px" viewBox="0 0 600 600" enable-background="new 0 0 600 600" xml:space="preserve">
<g>
	<path d="M446.427,102.445H153.57c-28.496,0-51.686,23.186-51.686,51.687v291.736c0,28.501,23.189,51.687,51.686,51.687h292.856
		c28.499,0,51.688-23.186,51.688-51.687V154.132C498.115,125.631,474.926,102.445,446.427,102.445z M477.439,154.132v135.531
		H310.338V123.12h136.089C463.527,123.12,477.439,137.031,477.439,154.132z M153.57,123.12h136.092v166.543H122.561V154.132
		C122.561,137.031,136.469,123.12,153.57,123.12z M122.561,445.868V310.337h167.102V476.88H153.57
		C136.469,476.88,122.561,462.969,122.561,445.868z M446.427,476.88H310.338V310.337h167.102v135.531
		C477.439,462.969,463.527,476.88,446.427,476.88z"/>
	<path d="M344.85,221.183h37.01v37.006c0,5.708,4.623,10.337,10.338,10.337c5.705,0,10.337-4.629,10.337-10.337V221.18h37.009
		c5.705,0,10.338-4.628,10.338-10.337c0-5.708-4.633-10.337-10.338-10.337h-37.009v-37.008c0-5.708-4.632-10.338-10.337-10.338
		c-5.715,0-10.338,4.629-10.338,10.338v37.01h-37.01c-5.701,0-10.334,4.629-10.334,10.338
		C334.516,216.555,339.148,221.183,344.85,221.183z"/>
	<path d="M160.931,257.608c2.019,2.019,4.663,3.029,7.309,3.029c2.644,0,5.29-1.01,7.31-3.029l32.152-32.15l32.152,32.153
		c2.02,2.019,4.663,3.028,7.309,3.028c2.645,0,5.289-1.01,7.309-3.028c4.039-4.036,4.039-10.582,0-14.618l-32.152-32.15
		l32.152-32.147c4.039-4.035,4.039-10.58,0-14.618c-4.038-4.038-10.578-4.038-14.617,0l-32.152,32.147l-32.144-32.147
		c-4.038-4.038-10.579-4.038-14.618,0c-4.038,4.036-4.038,10.583,0,14.618l32.145,32.147l-32.153,32.147
		C156.893,247.026,156.893,253.57,160.931,257.608z"/>
	<path d="M246.406,384.705l-77.4,0.002c-5.713,0-10.336,4.629-10.336,10.338c0,5.708,4.623,10.337,10.336,10.337l77.4-0.003
		c5.711,0,10.335-4.628,10.335-10.336C256.741,389.333,252.117,384.705,246.406,384.705z"/>
	<path d="M430.901,406.666l-77.409,0.003c-5.713,0-10.336,4.628-10.336,10.337s4.623,10.338,10.336,10.338l77.409-0.002
		c5.702,0,10.338-4.629,10.338-10.338S436.604,406.666,430.901,406.666z"/>
	<path d="M430.901,362.738l-77.409,0.002c-5.713,0-10.336,4.629-10.336,10.338s4.623,10.337,10.336,10.337l77.409-0.003
		c5.702,0,10.338-4.629,10.338-10.337S436.604,362.738,430.901,362.738z"/>
</g>
</svg>
