<?xml version="1.0" encoding="utf-8"?>
<!-- Generator: Adobe Illustrator 15.0.0, SVG Export Plug-In . SVG Version: 6.00 Build 0)  -->
<!DOCTYPE svg PUBLIC "-//W3C//DTD SVG 1.1//EN" "http://www.w3.org/Graphics/SVG/1.1/DTD/svg11.dtd">
<svg version="1.1" id="Capa_1" xmlns="http://www.w3.org/2000/svg" xmlns:xlink="http://www.w3.org/1999/xlink" x="0px" y="0px"
	 width="600px" height="600px" viewBox="0 0 600 600" enable-background="new 0 0 600 600" xml:space="preserve">
<g>
	<path d="M388.225,137.714H211.776c-21.268,0-38.568,17.303-38.568,38.567v247.438c0,21.265,17.301,38.567,38.568,38.567h176.448
		c21.267,0,38.567-17.303,38.567-38.567V176.281C426.792,155.017,409.491,137.714,388.225,137.714z M411.365,423.719
		c0,12.76-10.381,23.141-23.141,23.141H211.776c-12.761,0-23.141-10.381-23.141-23.141V176.281c0-12.761,10.38-23.141,23.141-23.141
		h176.448c12.76,0,23.141,10.38,23.141,23.141V423.719z"/>
	<path d="M374.726,172.567H224.311c-10.632,0-19.284,8.647-19.284,19.284v31.818c0,10.629,8.652,19.284,19.284,19.284h150.415
		c10.632,0,19.284-8.655,19.284-19.284v-31.818C394.01,181.215,385.357,172.567,374.726,172.567z M378.582,223.67
		c0,2.124-1.73,3.857-3.856,3.857H224.311c-2.126,0-3.856-1.733-3.856-3.857v-31.818c0-2.132,1.73-3.856,3.856-3.856h150.415
		c2.126,0,3.856,1.725,3.856,3.856V223.67z"/>
	<path d="M212.74,305.627h39.577c4.26,0,7.714-3.458,7.714-7.714v-39.577c0-4.264-3.454-7.714-7.714-7.714H212.74
		c-4.26,0-7.714,3.45-7.714,7.714v39.577C205.026,302.169,208.48,305.627,212.74,305.627z M220.454,266.05h24.15v24.149h-24.15
		V266.05z"/>
	<path d="M279.729,305.627h39.577c4.26,0,7.714-3.458,7.714-7.714v-39.577c0-4.264-3.454-7.714-7.714-7.714h-39.577
		c-4.26,0-7.714,3.45-7.714,7.714v39.577C272.016,302.169,275.47,305.627,279.729,305.627z M287.443,266.05h24.15v24.149h-24.15
		V266.05z"/>
	<path d="M386.296,250.622h-39.577c-4.26,0-7.714,3.45-7.714,7.714v39.577c0,4.256,3.454,7.714,7.714,7.714h39.577
		c4.26,0,7.714-3.458,7.714-7.714v-39.577C394.01,254.072,390.556,250.622,386.296,250.622z M378.582,290.199h-24.15V266.05h24.15
		V290.199z"/>
	<path d="M212.74,371.373h39.577c4.26,0,7.714-3.45,7.714-7.714v-39.577c0-4.256-3.454-7.714-7.714-7.714H212.74
		c-4.26,0-7.714,3.458-7.714,7.714v39.577C205.026,367.923,208.48,371.373,212.74,371.373z M220.454,331.796h24.15v24.15h-24.15
		V331.796z"/>
	<path d="M272.016,363.659c0,4.264,3.454,7.714,7.714,7.714h39.577c4.26,0,7.714-3.45,7.714-7.714v-39.577
		c0-4.256-3.454-7.714-7.714-7.714h-39.577c-4.26,0-7.714,3.458-7.714,7.714V363.659z M287.443,331.796h24.15v24.15h-24.15V331.796z
		"/>
	<path d="M386.296,316.368h-39.577c-4.26,0-7.714,3.458-7.714,7.714v39.577c0,4.264,3.454,7.714,7.714,7.714h39.577
		c4.26,0,7.714-3.45,7.714-7.714v-39.577C394.01,319.826,390.556,316.368,386.296,316.368z M378.582,355.946h-24.15v-24.15h24.15
		V355.946z"/>
	<path d="M386.296,377.294H209.852c-4.26,0-7.714,3.457-7.714,7.714v34.711c0,4.264,3.454,7.713,7.714,7.713h176.444
		c4.26,0,7.714-3.449,7.714-7.713v-34.711C394.01,380.751,390.556,377.294,386.296,377.294z M378.582,412.005H217.565v-19.284
		h161.017V412.005z"/>
</g>
</svg>
