<?xml version="1.0" encoding="utf-8"?>
<!-- Generator: Adobe Illustrator 15.0.0, SVG Export Plug-In . SVG Version: 6.00 Build 0)  -->
<!DOCTYPE svg PUBLIC "-//W3C//DTD SVG 1.1//EN" "http://www.w3.org/Graphics/SVG/1.1/DTD/svg11.dtd">
<svg version="1.1" id="Capa_1" xmlns="http://www.w3.org/2000/svg" xmlns:xlink="http://www.w3.org/1999/xlink" x="0px" y="0px"
	 width="600px" height="600px" viewBox="0 0 600 600" enable-background="new 0 0 600 600" xml:space="preserve">
<g>
	<path fill="#222221" d="M445.309,154.742c-38.804-38.805-90.39-60.172-145.26-60.172c-54.872,0-106.462,21.367-145.262,60.172
		c-38.8,38.797-60.168,90.387-60.168,145.258c-0.004,54.871,21.364,106.461,60.168,145.258
		c38.804,38.805,90.39,60.172,145.262,60.172c54.871,0,106.46-21.367,145.26-60.172
		C525.405,365.164,525.405,234.836,445.309,154.742z M424.138,424.086c-33.146,33.145-77.216,51.402-124.089,51.402
		c-46.871,0-90.941-18.258-124.091-51.402c-33.146-33.145-51.399-77.211-51.396-124.086c0-46.875,18.254-90.941,51.396-124.086
		c33.146-33.145,77.216-51.398,124.091-51.398c46.87,0,90.941,18.254,124.089,51.398C492.556,244.34,492.556,355.66,424.138,424.086
		z"/>
	<path fill="#222221" d="M385.302,194.176c0,0-116.666,69.603-119.72,73.024c-3.521,3.943-71.402,118.12-71.402,118.12
		c-3.546,5.891-2.621,13.445,2.244,18.305c2.888,2.887,6.718,4.387,10.589,4.387c2.653,0,5.322-0.703,7.716-2.141
		c0,0,113.791-67.553,117.945-71.072c4.988-4.225,73.204-120.053,73.204-120.053c3.593-5.891,2.687-13.488-2.201-18.371
		C398.793,191.492,391.205,190.594,385.302,194.176z M310.973,312.992l-60.087,36.164l36.15-60.07l61.206-37.285L310.973,312.992z"
		/>
</g>
</svg>
