<?xml version="1.0" encoding="utf-8"?>
<!-- Generator: Adobe Illustrator 15.0.0, SVG Export Plug-In . SVG Version: 6.00 Build 0)  -->
<!DOCTYPE svg PUBLIC "-//W3C//DTD SVG 1.1//EN" "http://www.w3.org/Graphics/SVG/1.1/DTD/svg11.dtd">
<svg version="1.1" id="Capa_1" xmlns="http://www.w3.org/2000/svg" xmlns:xlink="http://www.w3.org/1999/xlink" x="0px" y="0px"
	 width="600px" height="600px" viewBox="0 0 600 600" enable-background="new 0 0 600 600" xml:space="preserve">
<path d="M429.049,425.337c-0.647-3.021-3.045-5.357-6.077-5.925c-58.351-11.018-104.084-55.646-116.517-113.696
	c-12.433-58.06,11.013-117.502,59.735-151.451c2.532-1.761,3.759-4.876,3.116-7.894c-0.648-3.018-3.046-5.355-6.078-5.933
	c-21.053-3.976-42.94-3.691-64.053,0.824c-42.397,9.078-78.725,34.122-102.286,70.528c-23.559,36.397-31.535,79.792-22.454,122.19
	c15.926,74.376,82.62,128.361,158.58,128.367c0.004,0,0.012,0,0.016,0c11.396,0,22.88-1.221,34.129-3.625
	c21.267-4.554,41.042-13.129,58.773-25.485C428.469,431.47,429.692,428.354,429.049,425.337z M363.947,443.723
	c-10.197,2.179-20.596,3.288-30.916,3.288c-0.004,0-0.007,0-0.012,0c-68.778-0.008-129.162-48.891-143.582-116.244
	c-8.224-38.391-1.004-77.68,20.33-110.642c21.333-32.96,54.227-55.646,92.621-63.861c10.181-2.187,20.581-3.288,30.901-3.288
	c3.119,0,6.245,0.097,9.365,0.299c-43.655,38.534-63.604,97.721-51.202,155.652c12.41,57.93,54.852,103.759,110.464,121.029
	C390.029,436.249,377.315,440.861,363.947,443.723z"/>
</svg>
