<?xml version="1.0" encoding="utf-8"?>
<!-- Generator: Adobe Illustrator 15.0.0, SVG Export Plug-In . SVG Version: 6.00 Build 0)  -->
<!DOCTYPE svg PUBLIC "-//W3C//DTD SVG 1.1//EN" "http://www.w3.org/Graphics/SVG/1.1/DTD/svg11.dtd">
<svg version="1.1" id="Capa_1" xmlns="http://www.w3.org/2000/svg" xmlns:xlink="http://www.w3.org/1999/xlink" x="0px" y="0px"
	 width="600px" height="600px" viewBox="0 0 600 600" enable-background="new 0 0 600 600" xml:space="preserve">
<path fill="#222221" d="M390.201,158.372h-36.08v-47.544c0-6.641-5.385-12.026-12.027-12.026c-6.641,0-12.027,5.386-12.027,12.026
	v47.544h-60.133v-47.544c0-6.641-5.387-12.026-12.027-12.026c-6.643,0-12.028,5.386-12.028,12.026v47.544h-36.079
	c-6.643,0-12.028,5.386-12.028,12.026v67.593c0,52.295,39.487,95.476,90.203,101.455v149.726c0,6.642,5.386,12.026,12.026,12.026
	c6.641,0,12.026-5.385,12.026-12.026V339.446c50.717-5.979,90.205-49.16,90.205-101.455v-67.593
	C402.23,163.758,396.844,158.372,390.201,158.372z M378.174,237.991c0,43.104-35.07,78.177-78.174,78.177
	c-43.104,0-78.175-35.073-78.175-78.177v-55.564h156.349V237.991z"/>
</svg>
