<?xml version="1.0" encoding="utf-8"?>
<!-- Generator: Adobe Illustrator 15.0.0, SVG Export Plug-In . SVG Version: 6.00 Build 0)  -->
<!DOCTYPE svg PUBLIC "-//W3C//DTD SVG 1.1//EN" "http://www.w3.org/Graphics/SVG/1.1/DTD/svg11.dtd">
<svg version="1.1" id="Capa_1" xmlns="http://www.w3.org/2000/svg" xmlns:xlink="http://www.w3.org/1999/xlink" x="0px" y="0px"
	 width="600px" height="600px" viewBox="0 0 600 600" enable-background="new 0 0 600 600" xml:space="preserve">
<g>
	<path fill="#222221" d="M536.043,248.233h-72.266c-5.689-24.035-27.275-41.992-53.025-41.992H105.949
		c-30.076,0-54.54,24.464-54.54,54.54v78.438c0,30.076,24.464,54.54,54.54,54.54h304.803c21.836,0,40.657-12.921,49.362-31.496
		h75.929c6.929,0,12.548-5.618,12.548-12.548v-88.934C548.591,253.851,542.972,248.233,536.043,248.233z M410.752,368.664H105.949
		c-16.235,0-29.444-13.209-29.444-29.445v-78.438c0-16.236,13.208-29.444,29.444-29.444h304.803
		c16.236,0,29.444,13.208,29.444,29.444v78.438C440.196,355.455,426.988,368.664,410.752,368.664z M523.495,337.168h-58.203v-63.839
		h58.203V337.168z"/>
	<path fill="#222221" d="M118.753,242.983c-6.929,0-12.547,5.618-12.547,12.548v88.94c0,6.929,5.618,12.547,12.547,12.547
		c6.93,0,12.548-5.618,12.548-12.547v-88.94C131.301,248.601,125.683,242.983,118.753,242.983z"/>
	<path fill="#222221" d="M166.971,242.983c-6.929,0-12.548,5.618-12.548,12.548v88.94c0,6.929,5.619,12.547,12.548,12.547
		c6.93,0,12.548-5.618,12.548-12.547v-88.94C179.519,248.601,173.901,242.983,166.971,242.983z"/>
	<path fill="#222221" d="M215.194,242.983c-6.93,0-12.548,5.618-12.548,12.548v88.94c0,6.929,5.618,12.547,12.548,12.547
		c6.929,0,12.548-5.618,12.548-12.547v-88.94C227.742,248.601,222.123,242.983,215.194,242.983z"/>
</g>
</svg>
