<?xml version="1.0" encoding="utf-8"?>
<!-- Generator: Adobe Illustrator 15.0.0, SVG Export Plug-In . SVG Version: 6.00 Build 0)  -->
<!DOCTYPE svg PUBLIC "-//W3C//DTD SVG 1.1//EN" "http://www.w3.org/Graphics/SVG/1.1/DTD/svg11.dtd">
<svg version="1.1" id="Capa_1" xmlns="http://www.w3.org/2000/svg" xmlns:xlink="http://www.w3.org/1999/xlink" x="0px" y="0px"
	 width="600px" height="600px" viewBox="0 0 600 600" enable-background="new 0 0 600 600" xml:space="preserve">
<path d="M462.154,278.099c-8.146,0-16.016,1.154-23.554,3.125l-48.444-124.815h60.994c5.93,0,10.736-4.808,10.736-10.736
	c0-5.93-4.807-10.736-10.736-10.736h-75.154c-0.23,0-3.345,0-5.404,0.729c-5.594,1.977-8.273,8.367-6.123,13.893l14.117,36.371
	H243.359l-5.216-16.445h21.431c5.929,0,10.737-4.807,10.737-10.736s-4.808-10.736-10.737-10.736H187.37
	c-5.929,0-10.736,4.807-10.736,10.736s4.807,10.736,10.736,10.736h28.246l9.74,30.705L175.318,286
	c-11.486-5.048-24.146-7.901-37.473-7.901c-51.548,0-93.482,41.934-93.482,93.483s41.934,93.482,93.482,93.482
	c47.91,0,87.464-36.246,92.811-82.746h18.589c4.566,14.363,18.019,24.801,33.876,24.801c19.596,0,35.538-15.941,35.538-35.537
	c0-9.252-3.586-17.666-9.404-24l79.4-135.704l29.913,77.068c-29.636,15.697-49.892,46.83-49.892,82.636
	c0,51.549,41.934,93.482,93.477,93.482c51.548,0,93.482-41.934,93.482-93.482S513.702,278.099,462.154,278.099z M234.116,227.799
	l35.219,111.029c-9.52,4.02-16.933,12.082-20.089,22.018h-18.589c-3.004-26.113-16.823-48.918-36.833-63.952L234.116,227.799z
	 M208.958,360.846h-52.423l26.416-45.311C196.686,326.613,206.217,342.623,208.958,360.846z M137.846,443.592
	c-39.706,0-72.009-32.305-72.009-72.01c0-39.707,32.303-72.01,72.009-72.01c9.384,0,18.333,1.861,26.563,5.143l-35.837,61.457
	c-1.939,3.324-1.95,7.424-0.037,10.758c1.914,3.334,5.463,5.389,9.311,5.389h71.113
	C203.748,416.939,173.893,443.592,137.846,443.592z M283.123,385.646c-7.759,0-14.071-6.311-14.071-14.064
	c0-7.748,6.301-14.051,14.05-14.066c0.005,0,0.011,0.006,0.016,0.006c0.01,0,0.016-0.006,0.021-0.006
	c7.749,0.012,14.05,6.318,14.05,14.066C297.188,379.336,290.876,385.646,283.123,385.646z M291.033,336.217l-40.864-128.816h116.229
	L291.033,336.217z M462.154,443.592c-39.705,0-72.004-32.305-72.004-72.01c0-26.693,14.631-49.986,36.262-62.426l25.734,66.311
	c1.652,4.252,5.709,6.857,10.014,6.857c1.289,0,2.604-0.236,3.879-0.734c5.53-2.145,8.272-8.367,6.123-13.893l-25.745-66.336
	c5.074-1.139,10.327-1.789,15.737-1.789c39.705,0,72.009,32.303,72.009,72.01C534.163,411.287,501.859,443.592,462.154,443.592z"/>
</svg>
