<?xml version="1.0" encoding="utf-8"?>
<!-- Generator: Adobe Illustrator 15.0.0, SVG Export Plug-In . SVG Version: 6.00 Build 0)  -->
<!DOCTYPE svg PUBLIC "-//W3C//DTD SVG 1.1//EN" "http://www.w3.org/Graphics/SVG/1.1/DTD/svg11.dtd">
<svg version="1.1" id="Capa_1" xmlns="http://www.w3.org/2000/svg" xmlns:xlink="http://www.w3.org/1999/xlink" x="0px" y="0px"
	 width="600px" height="600px" viewBox="0 0 600 600" enable-background="new 0 0 600 600" xml:space="preserve">
<path fill="#222221" d="M493.939,258.588l-0.023-0.42c-0.019-0.367-0.037-0.713-0.088-1.013c-0.129-0.728-0.387-1.464-0.684-2.281
	c-0.089-0.236-0.154-0.487-0.214-0.738c-0.015-0.059-0.024-0.118-0.04-0.177c-0.051-0.077-0.107-0.171-0.161-0.282
	c-0.056-0.112-0.104-0.238-0.144-0.368l-65.579-129.813c-2.301-4.554-6.896-7.383-11.993-7.383H184.987
	c-5.098,0-9.692,2.829-11.993,7.383l-65.583,129.817c-0.041,0.131-0.088,0.254-0.146,0.375c-0.048,0.102-0.103,0.194-0.154,0.271
	c-0.017,0.061-0.026,0.118-0.04,0.175c-0.062,0.253-0.126,0.505-0.221,0.757c-0.293,0.806-0.552,1.545-0.679,2.271
	c-0.052,0.298-0.069,0.646-0.088,1.015l-0.021,0.393c-0.066,0.912-0.07,1.575-0.013,2.175c0.042,0.456,0.135,0.912,0.252,1.463
	c0.155,0.741,0.345,1.401,0.579,2.025c0.173,0.451,0.379,0.908,0.627,1.388c0.109,0.217,0.194,0.424,0.275,0.631
	c0.035,0.09,0.064,0.183,0.111,0.267c0.062,0.102,0.18,0.235,0.305,0.374c0.162,0.183,0.322,0.366,0.471,0.564
	c0.147,0.199,0.27,0.406,0.386,0.616c0.033,0.06,0.063,0.121,0.104,0.179l180.637,210.939c2.558,2.986,6.277,4.697,10.205,4.697
	c3.929,0,7.647-1.711,10.203-4.697l180.658-210.963c0.02-0.032,0.05-0.094,0.083-0.153c0.119-0.213,0.243-0.423,0.391-0.62
	c0.144-0.193,0.307-0.381,0.472-0.567c0.124-0.14,0.24-0.271,0.293-0.356c0.053-0.092,0.081-0.184,0.115-0.272
	c0.082-0.21,0.168-0.42,0.271-0.624c0.259-0.502,0.465-0.958,0.635-1.406c0.233-0.617,0.422-1.277,0.577-2.014
	c0.113-0.531,0.209-1.003,0.253-1.464C494.008,260.146,494.004,259.502,493.939,258.588z M323.031,142.986l48.987,103.063H227.98
	l48.987-103.063H323.031z M193.254,142.986h53.961l-48.987,103.063h-57.042L193.254,142.986z M148.54,272.924h49.419l52.456,118.966
	L148.54,272.924z M300,437.727l-72.671-164.802H372.67L300,437.727z M349.584,391.891l52.458-118.966h49.418L349.584,391.891z
	 M401.772,246.049l-48.987-103.063h53.96l52.071,103.063H401.772z"/>
</svg>
