<?xml version="1.0" encoding="utf-8"?>
<!-- Generator: Adobe Illustrator 15.0.0, SVG Export Plug-In . SVG Version: 6.00 Build 0)  -->
<!DOCTYPE svg PUBLIC "-//W3C//DTD SVG 1.1//EN" "http://www.w3.org/Graphics/SVG/1.1/DTD/svg11.dtd">
<svg version="1.1" id="Capa_1" xmlns="http://www.w3.org/2000/svg" xmlns:xlink="http://www.w3.org/1999/xlink" x="0px" y="0px"
	 width="600px" height="600px" viewBox="0 0 600 600" enable-background="new 0 0 600 600" xml:space="preserve">
<g>
	<path d="M458.9,114H141.1c-4.719,0-8.552,3.83-8.552,8.553v317.795c0,4.723,3.833,8.553,8.552,8.553h21.73v28.549
		c0,4.723,3.824,8.551,8.552,8.551h55.544c4.719,0,8.552-3.828,8.552-8.551V448.9h129.053v28.549c0,4.723,3.824,8.551,8.551,8.551
		h55.545c4.719,0,8.551-3.828,8.551-8.551V448.9H458.9c4.719,0,8.551-3.83,8.551-8.553V122.553
		C467.451,117.83,463.619,114,458.9,114z M218.375,468.896h-38.44V448.9h38.44V468.896z M420.074,468.896h-38.439V448.9h38.439
		V468.896z M450.348,431.797h-21.721h-55.545H226.926h-55.544h-21.73V131.104h300.696V431.797z"/>
	<path d="M317.713,327.672c25.488,0,46.225-20.736,46.225-46.225s-20.736-46.225-46.225-46.225
		c-25.488,0-46.224,20.736-46.224,46.225S292.225,327.672,317.713,327.672z M317.713,252.326c16.061,0,29.121,13.066,29.121,29.121
		c0,16.057-13.061,29.121-29.121,29.121c-16.051,0-29.121-13.064-29.121-29.121C288.592,265.393,301.662,252.326,317.713,252.326z"
		/>
	<path d="M185.437,372.029h26.883v28.684c0,4.723,3.833,8.551,8.552,8.551h193.683c4.727,0,8.553-3.828,8.553-8.551V162.184
		c0-4.723-3.826-8.553-8.553-8.553H220.872c-4.719,0-8.552,3.83-8.552,8.553v28.682h-26.883c-4.719,0-8.552,3.83-8.552,8.553v44.357
		c0,4.723,3.833,8.551,8.552,8.551h26.883v58.242h-26.883c-4.719,0-8.552,3.83-8.552,8.553v44.357
		C176.885,368.201,180.718,372.029,185.437,372.029z M229.423,170.734h176.581V392.16H229.423v-28.682v-44.357v-75.346v-44.357
		V170.734z M193.989,235.223v-27.254h18.331v27.254H193.989z M193.989,327.672h18.331v27.256h-18.331V327.672z"/>
</g>
</svg>
