<?xml version="1.0" encoding="utf-8"?>
<!-- Generator: Adobe Illustrator 15.0.0, SVG Export Plug-In . SVG Version: 6.00 Build 0)  -->
<!DOCTYPE svg PUBLIC "-//W3C//DTD SVG 1.1//EN" "http://www.w3.org/Graphics/SVG/1.1/DTD/svg11.dtd">
<svg version="1.1" id="Capa_1" xmlns="http://www.w3.org/2000/svg" xmlns:xlink="http://www.w3.org/1999/xlink" x="0px" y="0px"
	 width="600px" height="600px" viewBox="0 0 600 600" enable-background="new 0 0 600 600" xml:space="preserve">
<path d="M445.631,388.611c-0.027-0.106-59.672-228.413-59.672-228.413c-0.829-3.182-3.084-5.793-6.109-7.081
	c-3.027-1.28-6.476-1.093-9.339,0.513c-4.909,2.754-9.962,4.82-15.028,6.145c-5.324,1.393-10.789,2.1-16.23,2.1
	c-28.989,0-54.376-19.62-61.726-47.711c-3.299-12.596-2.684-25.727,1.785-37.979c1.191-3.271,0.703-6.921-1.305-9.762
	c-2.017-2.845-5.332-4.425-8.776-4.482c-9.823,0.109-19.34,1.349-28.286,3.688c-30.059,7.867-55.256,26.975-70.948,53.798
	c-15.692,26.821-19.999,58.15-12.127,88.209l62.604,239.544c1.797,5.808,5.506,8.316,10.338,8.139
	c4.139-0.153,68.953-17.893,68.953-17.893l18.734,71.578c4.473,17.109,19.942,29.056,37.604,29.056c3.321,0,6.641-0.431,9.875-1.277
	c10.051-2.631,18.477-9.02,23.718-17.985c5.245-8.966,6.687-19.438,4.058-29.491l-18.742-71.578c0,0,61.887-16.019,62.186-16.12
	c4.865-1.655,8.779-5.337,8.779-10.432C445.975,390.842,445.758,389.123,445.631,388.611z M373.226,494.678
	c1.2,4.567,0.541,9.332-1.843,13.403c-2.382,4.079-6.213,6.983-10.781,8.179c-1.48,0.386-2.99,0.582-4.5,0.582
	c-8.021,0-15.047-5.436-17.08-13.207l-18.73-71.583l34.195-8.952L373.226,494.678z M361.6,399.308
	c-2.482,0.6-57.077,14.893-59.174,15.492l-64.105,16.78l-59.93-229.314c-6.432-24.579-2.919-50.193,9.92-72.126
	c12.83-21.929,33.432-37.551,58.004-43.985c2.924-0.767,5.944-1.386,9.025-1.859c-1.93,11.671-1.383,23.631,1.663,35.245
	c9.788,37.415,43.612,63.551,82.249,63.551c7.258,0,14.527-0.94,21.598-2.793c2.609-0.681,5.215-1.504,7.793-2.468l53.732,205.564
	L361.6,399.308z"/>
</svg>
