<?xml version="1.0" encoding="utf-8"?>
<!-- Generator: Adobe Illustrator 15.0.0, SVG Export Plug-In . SVG Version: 6.00 Build 0)  -->
<!DOCTYPE svg PUBLIC "-//W3C//DTD SVG 1.1//EN" "http://www.w3.org/Graphics/SVG/1.1/DTD/svg11.dtd">
<svg version="1.1" id="Capa_1" xmlns="http://www.w3.org/2000/svg" xmlns:xlink="http://www.w3.org/1999/xlink" x="0px" y="0px"
	 width="600px" height="600px" viewBox="0 0 600 600" enable-background="new 0 0 600 600" xml:space="preserve">
<path d="M459.279,186.109c-0.645-0.404-1.33-0.715-2.039-0.935c-0.149-0.07-0.295-0.146-0.449-0.208l-153.553-61.633
	c-2.357-0.938-5.013-0.811-7.264,0.365l-154.036,80.512c-0.135,0.07-0.259,0.152-0.388,0.229c-0.415,0.2-0.82,0.423-1.204,0.691
	c-2.321,1.627-3.703,4.283-3.703,7.117v200.18c0,3.658,2.288,6.922,5.725,8.17l154.665,56.166c0.15,0.054,0.303,0.097,0.455,0.143
	c0.065,0.02,0.128,0.042,0.193,0.061c0.333,0.093,0.67,0.161,1.009,0.214c0.083,0.013,0.165,0.022,0.248,0.033
	c0.354,0.043,0.708,0.073,1.062,0.073c0.393,0,0.785-0.036,1.176-0.089c0.116-0.017,0.23-0.039,0.348-0.06
	c0.286-0.052,0.569-0.117,0.852-0.197c0.113-0.032,0.226-0.061,0.337-0.097c0.365-0.121,0.727-0.258,1.078-0.429l0.038-0.019
	c0.002-0.001,0.004-0.002,0.006-0.002l154.621-74.923c2.998-1.451,4.901-4.49,4.901-7.82v-200.18
	C463.356,190.48,461.816,187.697,459.279,186.109z M300.478,140.961l132.7,53.265l-133.663,64.768L166.839,210.81L300.478,140.961z
	 M154.027,224.654l137.281,49.852v181.684l-137.281-49.852V224.654z M445.973,388.207l-137.281,66.518V273.861l137.281-66.52
	V388.207z"/>
</svg>
