<?xml version="1.0" encoding="utf-8"?>
<!-- Generator: Adobe Illustrator 15.0.0, SVG Export Plug-In . SVG Version: 6.00 Build 0)  -->
<!DOCTYPE svg PUBLIC "-//W3C//DTD SVG 1.1//EN" "http://www.w3.org/Graphics/SVG/1.1/DTD/svg11.dtd">
<svg version="1.1" id="Capa_1" xmlns="http://www.w3.org/2000/svg" xmlns:xlink="http://www.w3.org/1999/xlink" x="0px" y="0px"
	 width="600px" height="600px" viewBox="0 0 600 600" enable-background="new 0 0 600 600" xml:space="preserve">
<path d="M474.47,434.057c-3.71-8.367-11.104-14.277-20.824-16.641c-85.317-20.746-133.284-46.393-142.532-76.152
	c-3.065-12.24,10.944-99.343,27.976-187.577c0.074-0.316,0.137-0.637,0.18-0.963c2.295-11.866,4.645-23.741,7.004-35.459
	c0.643-3.17-0.17-6.462-2.224-8.964c-2.042-2.501-5.108-3.954-8.341-3.954H133.771c-5.898,0-10.711,4.745-10.785,10.648
	c-0.157,12.681,0.137,24.552,0.717,35.848c0,0.08-0.021,0.158-0.021,0.242c0,0.274,0.053,0.532,0.073,0.801
	c3.37,62.818,17.054,105.313,28.429,140.461c6.479,20.024,12.071,37.309,14.979,55.282c2.465,15.268-3.561,61.949-6.09,78.65
	c-0.053,0.32-0.031,0.637-0.053,0.957c-0.01,0.227-0.072,0.449-0.072,0.676l0.062,43.811c0.01,5.951,4.835,10.77,10.787,10.77
	h69.568c5.962,0,10.785-4.828,10.785-10.785v-16.631c8.259,3.738,17.285,8.363,27.313,14.197
	c30.06,17.506,62.871,26.381,97.523,26.381c47.977,0,88.456-18.086,95.238-30.535C477.753,454.992,478.587,443.379,474.47,434.057z
	 M322.542,125.917c-0.875,4.377-1.822,9.228-2.834,14.383H144.799c-0.147-4.676-0.253-9.458-0.272-14.383H322.542z M207.923,441.314
	l22.656,5.957v13.65h-48.01l-0.031-21.209c1.137,0.027,2.285,0.049,3.486,0.068c0.264,0.006,0.548,0.012,0.812,0.016
	L207.923,441.314z M453.518,454.359c-4.203,4.34-33.156,19.723-76.531,19.723c-30.788,0-59.943-7.889-86.665-23.451
	c-16.99-9.891-31.693-16.732-44.46-21.482c-0.558-0.252-1.146-0.469-1.747-0.627l-0.191-0.047
	c-12.818-4.625-23.623-7.131-32.777-8.494c-0.232-0.031-0.441-0.096-0.674-0.111l-0.2-0.016c-9.007-1.285-16.39-1.512-22.478-1.617
	l-3.748-0.268c2.631-19.518,7.066-57.357,4.412-73.783c-3.17-19.602-9.279-38.482-15.758-58.479
	c-10.785-33.341-22.687-70.253-26.732-123.835h169.558c-12.936,67.679-30.554,167.973-25.037,185.717
	c7.553,24.314,32.168,60.18,158.056,90.787c4.751,1.154,5.836,3.607,6.193,4.408C456.078,445.812,455.594,450.309,453.518,454.359z"
	/>
</svg>
