<?xml version="1.0" encoding="utf-8"?>
<!-- Generator: Adobe Illustrator 15.0.0, SVG Export Plug-In . SVG Version: 6.00 Build 0)  -->
<!DOCTYPE svg PUBLIC "-//W3C//DTD SVG 1.1//EN" "http://www.w3.org/Graphics/SVG/1.1/DTD/svg11.dtd">
<svg version="1.1" id="Capa_1" xmlns="http://www.w3.org/2000/svg" xmlns:xlink="http://www.w3.org/1999/xlink" x="0px" y="0px"
	 width="600px" height="600px" viewBox="0 0 600 600" enable-background="new 0 0 600 600" xml:space="preserve">
<g>
	<path d="M308.74,232.119c-2.846-0.365-5.738-0.551-8.593-0.551c-33.943,0-62.853,25.701-67.247,59.793
		c-4.819,37.435,21.36,71.764,58.356,76.534c2.85,0.366,5.745,0.553,8.605,0.553c0,0,0,0,0.002,0
		c33.942,0,62.847-25.707,67.23-59.788c2.334-18.107-2.434-36.033-13.421-50.482C342.648,243.687,326.694,234.433,308.74,232.119z
		 M345.537,305.885c-2.994,23.276-22.63,40.825-45.674,40.825c-1.935,0-3.898-0.128-5.83-0.377
		c-25.109-3.236-42.863-26.65-39.575-52.198c3-23.276,22.644-40.83,45.69-40.83c1.932,0,3.892,0.126,5.821,0.371
		c12.131,1.564,22.931,7.838,30.402,17.661C343.88,281.208,347.136,293.478,345.537,305.885z"/>
	<path d="M319.617,147.745c-6.393-0.823-12.881-1.24-19.283-1.24c-76.026,0-140.783,57.669-150.635,134.146
		c-10.818,83.943,47.807,160.931,130.679,171.607c6.321,0.818,12.752,1.237,19.11,1.237c0.002,0,0,0,0.002,0
		c13.355,0,26.714-1.811,39.703-5.382c3.203-0.881,5.828-3.174,7.125-6.23c1.298-3.057,1.129-6.542-0.464-9.457
		c-1.134-2.08-2.375-5.418-1.85-9.509c1.082-8.369,8.661-14.483,16.989-13.426c2.641,0.344,5.11,1.427,7.343,3.226
		c1.979,1.598,4.396,2.403,6.822,2.403c0.029,0,0.065,0,0.105,0c6.003,0,12.027-4.317,10.869-10.868
		c-0.236-1.332-1.043-7.068-0.84-8.645c1.073-8.363,8.593-14.498,16.98-13.417c2.987,0.389,5.758,1.657,8.01,3.673
		c2.373,2.117,5.555,3.095,8.709,2.671c3.152-0.431,5.959-2.219,7.682-4.893l1.349-2.107c1.544-2.462,2.037-5.439,1.368-8.268
		c-0.668-2.836-2.44-5.276-4.924-6.789c-5.193-3.163-8.035-9.148-7.241-15.263c0.989-7.726,7.467-13.552,15.066-13.552
		c0.634,0,1.273,0.042,1.857,0.147c0.43,0.117,0.862,0.228,1.303,0.329c2.852,0.632,5.847,0.085,8.299-1.519
		c2.452-1.603,4.15-4.122,4.716-6.999l0.331-1.66c0.569-2.835,1.126-5.674,1.504-8.593
		C461.113,235.416,402.489,158.422,319.617,147.745z M428.805,316.096c-16.959,1.623-30.91,14.99-33.139,32.339
		c-0.532,4.119-0.37,8.215,0.415,12.147c-15.016,1.768-27.54,12.748-31.417,27.479c-0.297-0.047-0.596-0.09-0.896-0.126
		c-20.385-2.602-38.727,12.12-41.319,32.201c-0.411,3.189-0.405,6.384,0.006,9.526c-7.595,1.391-15.282,2.096-22.963,2.096h-0.002
		c-5.429,0-10.921-0.355-16.327-1.057c-70.989-9.148-121.19-75.214-111.906-147.274c8.462-65.667,63.95-115.187,129.079-115.187
		c5.479,0,11.033,0.361,16.507,1.062C387.665,178.431,437.799,244.219,428.805,316.096z"/>
</g>
</svg>
