<?xml version="1.0" encoding="utf-8"?>
<!-- Generator: Adobe Illustrator 15.0.0, SVG Export Plug-In . SVG Version: 6.00 Build 0)  -->
<!DOCTYPE svg PUBLIC "-//W3C//DTD SVG 1.1//EN" "http://www.w3.org/Graphics/SVG/1.1/DTD/svg11.dtd">
<svg version="1.1" id="Capa_1" xmlns="http://www.w3.org/2000/svg" xmlns:xlink="http://www.w3.org/1999/xlink" x="0px" y="0px"
	 width="600px" height="600px" viewBox="0 0 600 600" enable-background="new 0 0 600 600" xml:space="preserve">
<g>
	<path fill="#222221" d="M434.856,113.84h-40.095V78.895c0-7.443-6.039-13.485-13.487-13.485c-7.447,0-13.486,6.042-13.486,13.485
		v34.945H228.442V78.895c0-7.443-6.037-13.485-13.484-13.485c-7.449,0-13.486,6.042-13.486,13.485v34.945h-36.33
		c-33.461,0-60.685,27.215-60.685,60.683v299.376c0,33.469,27.224,60.692,60.685,60.692h269.715
		c33.459,0,60.687-27.224,60.687-60.692V174.522C495.543,141.055,468.315,113.84,434.856,113.84z M165.142,140.807h36.33v16.756
		c0,7.443,6.037,13.484,13.486,13.484c7.448,0,13.484-6.041,13.484-13.484v-16.756h139.346v16.756
		c0,7.443,6.039,13.484,13.486,13.484c7.448,0,13.487-6.041,13.487-13.484v-16.756h40.095c18.588,0,33.711,15.127,33.711,33.716
		v33.61H131.429v-33.61C131.429,155.934,146.553,140.807,165.142,140.807z M434.856,507.617H165.142
		c-18.588,0-33.713-15.121-33.713-33.719V235.1h337.139v238.799C468.567,492.496,453.444,507.617,434.856,507.617z"/>
	<path fill="#222221" d="M230.463,272.084h-55.24c-7.445,0-13.482,6.032-13.482,13.482v55.232c0,7.449,6.037,13.482,13.482,13.482
		h55.24c7.452,0,13.486-6.033,13.486-13.482v-55.232C243.949,278.116,237.915,272.084,230.463,272.084z M216.98,327.314h-28.272
		v-28.264h28.272V327.314z"/>
	<path fill="#222221" d="M327.615,273.032h-55.239c-7.45,0-13.482,6.034-13.482,13.484v55.233c0,7.449,6.032,13.482,13.482,13.482
		h55.239c7.448,0,13.484-6.033,13.484-13.482v-55.233C341.1,279.066,335.063,273.032,327.615,273.032z M314.133,328.265H285.86
		v-28.264h28.272V328.265z"/>
	<path fill="#222221" d="M423.817,273.032H368.58c-7.447,0-13.484,6.034-13.484,13.484v55.233c0,7.449,6.037,13.482,13.484,13.482
		h55.237c7.452,0,13.489-6.033,13.489-13.482v-55.233C437.307,279.066,431.27,273.032,423.817,273.032z M410.335,328.265h-28.272
		v-28.264h28.272V328.265z"/>
	<path fill="#222221" d="M230.463,375.171h-55.24c-7.445,0-13.482,6.042-13.482,13.484v55.246c0,7.45,6.037,13.482,13.482,13.482
		h55.24c7.452,0,13.486-6.032,13.486-13.482v-55.246C243.949,381.213,237.915,375.171,230.463,375.171z M216.98,430.417h-28.272
		v-28.271h28.272V430.417z"/>
	<path fill="#222221" d="M326.664,375.171h-55.236c-7.443,0-13.485,6.042-13.485,13.484v55.246c0,7.45,6.042,13.482,13.485,13.482
		h55.236c7.453,0,13.489-6.032,13.489-13.482v-55.246C340.153,381.213,334.117,375.171,326.664,375.171z M313.183,430.417h-28.269
		v-28.271h28.269V430.417z"/>
	<path fill="#222221" d="M422.871,375.171h-55.242c-7.442,0-13.484,6.042-13.484,13.484v55.246c0,7.45,6.042,13.482,13.484,13.482
		h55.242c7.447,0,13.489-6.032,13.489-13.482v-55.246C436.36,381.213,430.318,375.171,422.871,375.171z M409.385,430.417h-28.269
		v-28.271h28.269V430.417z"/>
</g>
</svg>
