<?xml version="1.0" encoding="utf-8"?>
<!-- Generator: Adobe Illustrator 15.0.0, SVG Export Plug-In . SVG Version: 6.00 Build 0)  -->
<!DOCTYPE svg PUBLIC "-//W3C//DTD SVG 1.1//EN" "http://www.w3.org/Graphics/SVG/1.1/DTD/svg11.dtd">
<svg version="1.1" id="Capa_1" xmlns="http://www.w3.org/2000/svg" xmlns:xlink="http://www.w3.org/1999/xlink" x="0px" y="0px"
	 width="600px" height="600px" viewBox="0 0 600 600" enable-background="new 0 0 600 600" xml:space="preserve">
<path d="M300.002,136.245c-90.295,0-163.758,73.461-163.758,163.756s73.463,163.755,163.758,163.755
	c90.294,0,163.754-73.461,163.754-163.755S390.296,136.245,300.002,136.245z M319.59,348.863c-0.016,0-0.039,0.006-0.055,0.006
	h-47.75L243.578,300l28.207-48.87h8.621h47.811L356.426,300l-28.203,48.863H319.59z M164.037,337.746
	c-3.348-12.021-5.172-24.668-5.172-37.746c0-17.175,3.093-33.633,8.732-48.87h78.068l-7.27,12.592L164.037,337.746z
	 M361.479,336.498l74.494-74.234c3.34,12.023,5.162,24.664,5.162,37.736c0,17.175-3.09,33.632-8.73,48.869l-78.066-0.006
	L361.479,336.498z M427.26,239.003l-50.736,50.559l-7.036-12.188V177.228C394.475,191.426,414.748,212.997,427.26,239.003z
	 M346.867,166.895v71.297l-2.326-4.026c-0.076-0.138-0.197-0.237-0.287-0.37c-0.354-0.563-0.756-1.088-1.221-1.591
	c-0.188-0.204-0.365-0.409-0.57-0.602c-0.121-0.11-0.207-0.243-0.336-0.354l-78.487-67.613c11.608-3.098,23.793-4.771,36.362-4.771
	C316.426,158.865,332.193,161.714,346.867,166.895z M239.357,172.583l64.922,55.928h-23.873H265.26h-86.877
	C192.652,204.333,213.898,184.744,239.357,172.583z M172.74,360.996l50.756-50.525l7.013,12.145v100.152
	C205.525,408.568,185.252,386.996,172.74,360.996z M253.13,433.1v-71.303l2.331,4.037c0.076,0.139,0.199,0.238,0.288,0.371
	c0.353,0.562,0.763,1.088,1.22,1.59c0.189,0.205,0.369,0.408,0.57,0.602c0.122,0.111,0.209,0.244,0.336,0.354l78.488,67.613
	c-11.611,3.1-23.793,4.771-36.361,4.771C283.57,441.135,267.806,438.285,253.13,433.1z M360.646,427.416l-64.928-55.926h39.023
	c0.014,0,0.023-0.006,0.039-0.006l86.839,0.006C407.354,395.668,386.104,415.256,360.646,427.416z"/>
</svg>
