<?xml version="1.0" encoding="utf-8"?>
<!-- Generator: Adobe Illustrator 15.0.0, SVG Export Plug-In . SVG Version: 6.00 Build 0)  -->
<!DOCTYPE svg PUBLIC "-//W3C//DTD SVG 1.1//EN" "http://www.w3.org/Graphics/SVG/1.1/DTD/svg11.dtd">
<svg version="1.1" id="Capa_1" xmlns="http://www.w3.org/2000/svg" xmlns:xlink="http://www.w3.org/1999/xlink" x="0px" y="0px"
	 width="600px" height="600px" viewBox="0 0 600 600" enable-background="new 0 0 600 600" xml:space="preserve">
<g>
	<path d="M369.533,191.133h-19.656v-23.251c0-5.799-4.701-10.501-10.5-10.501H310.5V80.715c0-5.799-4.701-10.5-10.5-10.5
		s-10.5,4.701-10.5,10.5v76.666h-28.877c-5.799,0-10.5,4.702-10.5,10.501v23.251h-19.658c-5.799,0-10.5,4.702-10.5,10.501v317.651
		c0,5.799,4.701,10.5,10.5,10.5h46.791c5.799,0,10.5-4.701,10.5-10.5v-80.84h24.498v80.84c0,5.799,4.701,10.5,10.5,10.5h46.779
		c5.799,0,10.502-4.701,10.502-10.5V201.634C380.035,195.835,375.332,191.133,369.533,191.133z M359.033,508.785h-25.779v-80.84
		c0-5.799-4.701-10.5-10.5-10.5h-45.498c-5.799,0-10.5,4.701-10.5,10.5v80.84h-25.789V212.134h19.656c5.799,0,10.5-4.702,10.5-10.5
		v-23.252h57.752v23.252c0,5.798,4.703,10.5,10.502,10.5h19.656V508.785z"/>
	<path d="M300,224.978c-17.863,0-32.393,14.53-32.393,32.388c0,17.858,14.529,32.389,32.393,32.389s32.393-14.53,32.393-32.389
		C332.393,239.508,317.863,224.978,300,224.978z M300,268.753c-6.281,0-11.393-5.109-11.393-11.388s5.111-11.388,11.393-11.388
		s11.393,5.109,11.393,11.388S306.281,268.753,300,268.753z"/>
</g>
</svg>
