<?xml version="1.0" encoding="utf-8"?>
<!-- Generator: Adobe Illustrator 15.0.0, SVG Export Plug-In . SVG Version: 6.00 Build 0)  -->
<!DOCTYPE svg PUBLIC "-//W3C//DTD SVG 1.1//EN" "http://www.w3.org/Graphics/SVG/1.1/DTD/svg11.dtd">
<svg version="1.1" id="Capa_1" xmlns="http://www.w3.org/2000/svg" xmlns:xlink="http://www.w3.org/1999/xlink" x="0px" y="0px"
	 width="600px" height="600px" viewBox="0 0 600 600" enable-background="new 0 0 600 600" xml:space="preserve">
<g>
	<path d="M333.048,217.961c-2.762-5.677-5.778-59.489-5.778-59.489c-0.533-14.933-0.571-30.222,0.107-41.779
		c3.138-2.966,5.102-5.525,5.851-7.621c4.606-12.884,6.729-44.278-3.631-56.902c-2.246-2.741-7.221-6.385-24.399-6.385
		c-1.309,0-5.196-0.04-7.091-0.04c-16.061,0-20.862,3.265-23.254,6.113c-10.489,12.501-8.728,43.915-4.27,56.857
		c0.728,2.109,2.664,4.692,5.77,7.693c0.55,11.639-0.137,42.064-0.137,42.064c-0.976,26.384-3.596,53.507-6.411,59.135
		c-55.531,111.029-59.143,288.535-45.294,311.916c14.462,24.403,71.001,24.686,71.571,24.686c1.283,0,2.436-0.025,3.438-0.073
		c1.299,0.075,2.854,0.119,4.62,0.119c2.292,0,56.315-0.272,70.653-23.877C388.909,507.162,387.318,329.634,333.048,217.961z
		 M285.215,61.105c1.072-0.498,4.868-1.492,12.892-1.492c1.849,0,5.773,0.041,7.091,0.041c8.72,0,12.805,1.099,13.934,1.642
		c5.111,7.009,4.457,30.98,1.182,42.689c-0.281,1.005-0.662,2.46-2.354,2.494c-6.606,0.129-32.072-0.179-32.072-0.179
		c-2.162,0-2.447-1.19-2.713-2.213C280.099,92.242,280.033,68.051,285.215,61.105z M282.277,223.847
		c4.353-8.701,7.595-65.375,7.595-65.375c0.616-13.982,0.777-27.806,0.485-38.279l22.972,0.129
		c-0.409,10.436-0.406,24.208,0.046,38.15c0,0,2.868,56.827,7.13,65.587c5.218,10.737,9.92,22.131,14.149,33.958l-26.536,39.519
		c-2.56-0.884-5.289-1.357-8.117-1.374c-1.69,0-3.342,0.172-4.939,0.499l-25.302-44.347
		C273.583,242.439,277.747,232.904,282.277,223.847z M310.763,320.936c-0.032,5.901-4.859,10.702-10.757,10.702h-0.066
		c-5.934-0.035-10.736-4.892-10.703-10.825c0.033-5.9,4.863-10.702,10.824-10.702c2.878,0.018,5.577,1.153,7.596,3.196
		C309.679,315.35,310.782,318.059,310.763,320.936z M362.873,523.136c-7.193,11.843-38.677,17.172-58.733,17.172
		c-1.604,0-2.994-0.041-4.122-0.114c-0.151-0.01-0.305-0.016-0.458-0.016c-0.126,0-0.252,0.004-0.378,0.011
		c-0.88,0.048-1.922,0.073-3.1,0.073c-19.761,0-52.357-5.673-59.571-17.847c-8.966-15.138-8.293-147.934,27.024-252.864
		l19.212,33.672c-4.562,4.46-7.418,10.66-7.458,17.511c-0.075,13.623,10.946,24.771,24.568,24.852c0.014,0,0.135,0,0.148,0h0
		c13.542,0,24.626-11.021,24.706-24.564c0.033-5.641-1.814-10.997-5.244-15.366l20.768-30.927
		C372.823,379.264,371.876,508.328,362.873,523.136z"/>
	<path d="M253.149,395.46c-1.318,1.306-2.065,3.079-2.076,4.936l-0.407,71.042c-0.022,3.863,3.091,7.012,6.955,7.033l82.941,0.475
		c0.012,0,0.026,0,0.039,0c1.841,0,3.608-0.726,4.917-2.02c1.319-1.305,2.066-3.079,2.078-4.935l0.401-71.043
		c0.023-3.862-3.092-7.011-6.954-7.033l-82.938-0.474C256.35,393.446,254.47,394.156,253.149,395.46z M265.022,407.469l68.948,0.396
		l-0.323,57.055l-68.953-0.397L265.022,407.469z"/>
</g>
</svg>
