<?xml version="1.0" encoding="utf-8"?>
<!-- Generator: Adobe Illustrator 15.0.0, SVG Export Plug-In . SVG Version: 6.00 Build 0)  -->
<!DOCTYPE svg PUBLIC "-//W3C//DTD SVG 1.1//EN" "http://www.w3.org/Graphics/SVG/1.1/DTD/svg11.dtd">
<svg version="1.1" id="Capa_1" xmlns="http://www.w3.org/2000/svg" xmlns:xlink="http://www.w3.org/1999/xlink" x="0px" y="0px"
	 width="600px" height="600px" viewBox="0 0 600 600" enable-background="new 0 0 600 600" xml:space="preserve">
<g>
	<path fill="#222221" d="M539.842,247.399h-73.429c-5.782-24.421-27.714-42.667-53.879-42.667H102.827
		c-30.561,0-55.418,24.857-55.418,55.416v79.703c0,30.559,24.857,55.416,55.418,55.416h309.707
		c22.187,0,41.312-13.129,50.157-32.004h77.15c7.039,0,12.749-5.709,12.749-12.749v-90.366
		C552.591,253.108,546.881,247.399,539.842,247.399z M412.534,369.769H102.827c-16.498,0-29.919-13.421-29.919-29.917v-79.703
		c0-16.496,13.421-29.917,29.919-29.917h309.707c16.497,0,29.919,13.421,29.919,29.917v79.703
		C442.453,356.348,429.031,369.769,412.534,369.769z M527.092,337.766h-59.141v-64.867h59.141V337.766z"/>
	<path fill="#222221" d="M172.345,242.064h-57.372c-7.041,0-12.75,5.709-12.75,12.749v90.372c0,7.041,5.709,12.75,12.75,12.75
		h57.372c7.04,0,12.749-5.709,12.749-12.75v-90.372C185.094,247.773,179.385,242.064,172.345,242.064z M159.595,332.437h-31.873
		v-64.873h31.873V332.437z"/>
	<path fill="#222221" d="M286.366,242.064h-57.372c-7.04,0-12.749,5.709-12.749,12.749v90.372c0,7.041,5.709,12.75,12.749,12.75
		h57.372c7.041,0,12.75-5.709,12.75-12.75v-90.372C299.116,247.773,293.407,242.064,286.366,242.064z M273.617,332.437h-31.874
		v-64.873h31.874V332.437z"/>
	<path fill="#222221" d="M400.389,242.064h-57.373c-7.039,0-12.748,5.709-12.748,12.749v90.372c0,7.041,5.709,12.75,12.748,12.75
		h57.373c7.041,0,12.75-5.709,12.75-12.75v-90.372C413.139,247.773,407.43,242.064,400.389,242.064z M387.639,332.437h-31.873
		v-64.873h31.873V332.437z"/>
</g>
</svg>
