<?xml version="1.0" encoding="utf-8"?>
<!-- Generator: Adobe Illustrator 15.0.0, SVG Export Plug-In . SVG Version: 6.00 Build 0)  -->
<!DOCTYPE svg PUBLIC "-//W3C//DTD SVG 1.1//EN" "http://www.w3.org/Graphics/SVG/1.1/DTD/svg11.dtd">
<svg version="1.1" id="Capa_1" xmlns="http://www.w3.org/2000/svg" xmlns:xlink="http://www.w3.org/1999/xlink" x="0px" y="0px"
	 width="600px" height="600px" viewBox="0 0 600 600" enable-background="new 0 0 600 600" xml:space="preserve">
<g>
	<path fill="#222221" d="M289.955,131.313l-28.478,28.477c-13.282-20.163-36.097-33.514-62.007-33.514
		c-40.944,0-74.254,33.31-74.254,74.252c0,40.944,33.31,74.253,74.254,74.253c40.943,0,74.251-33.309,74.251-74.253
		c0-4.634-0.474-9.155-1.29-13.558l36.586-36.594c5.267-5.267,5.267-13.798,0-19.063
		C303.766,126.047,295.221,126.047,289.955,131.313z M199.471,247.818c-26.082,0-47.293-21.214-47.293-47.29
		c0-26.073,21.211-47.289,47.293-47.289c18.522,0,34.532,10.725,42.301,26.265l-27.017,27.017l-28.884-28.886
		c-5.267-5.267-13.812-5.267-19.064,0c-5.266,5.266-5.266,13.797,0,19.062l38.417,38.417c2.634,2.634,6.081,3.951,9.531,3.951
		c3.449,0,6.899-1.317,9.532-3.951c0.012-0.011,0.012-0.025,0.025-0.039l20.208-20.209
		C238.44,233.949,220.547,247.818,199.471,247.818z"/>
	<path fill="#222221" d="M289.955,328.074l-29.346,29.346c-13.402-19.424-35.796-32.201-61.139-32.201
		c-40.944,0-74.254,33.309-74.254,74.252s33.31,74.253,74.254,74.253c40.943,0,74.251-33.31,74.251-74.253
		c0-5.286-0.564-10.434-1.618-15.409l36.914-36.924c5.267-5.266,5.267-13.797,0-19.063
		C303.766,322.809,295.221,322.809,289.955,328.074z M199.471,446.761c-26.082,0-47.293-21.216-47.293-47.29
		s21.211-47.289,47.293-47.289c17.942,0,33.57,10.039,41.588,24.791l-26.304,26.303l-28.884-28.878
		c-5.267-5.266-13.812-5.266-19.064,0c-5.266,5.267-5.266,13.797,0,19.063l38.417,38.417c2.634,2.633,6.081,3.948,9.531,3.948
		c3.449,0,6.899-1.315,9.532-3.948c0.012-0.014,0.012-0.028,0.025-0.032l21.012-21.014
		C240.217,431.424,221.626,446.761,199.471,446.761z"/>
	<path fill="#222221" d="M400.529,274.781c40.944,0,74.254-33.309,74.254-74.253c0-40.942-33.31-74.252-74.254-74.252
		c-40.943,0-74.25,33.31-74.25,74.252C326.279,241.473,359.586,274.781,400.529,274.781z M400.529,153.239
		c26.082,0,47.293,21.216,47.293,47.289c0,26.076-21.211,47.29-47.293,47.29c-26.066,0-47.287-21.214-47.287-47.29
		C353.242,174.455,374.463,153.239,400.529,153.239z"/>
	<path fill="#222221" d="M400.529,325.219c-40.943,0-74.25,33.309-74.25,74.252s33.307,74.253,74.25,74.253
		c40.944,0,74.254-33.31,74.254-74.253S441.474,325.219,400.529,325.219z M400.529,446.761c-26.066,0-47.287-21.216-47.287-47.29
		s21.221-47.289,47.287-47.289c26.082,0,47.293,21.215,47.293,47.289S426.611,446.761,400.529,446.761z"/>
</g>
</svg>
