<?xml version="1.0" encoding="utf-8"?>
<!-- Generator: Adobe Illustrator 15.0.0, SVG Export Plug-In . SVG Version: 6.00 Build 0)  -->
<!DOCTYPE svg PUBLIC "-//W3C//DTD SVG 1.1//EN" "http://www.w3.org/Graphics/SVG/1.1/DTD/svg11.dtd">
<svg version="1.1" id="Capa_1" xmlns="http://www.w3.org/2000/svg" xmlns:xlink="http://www.w3.org/1999/xlink" x="0px" y="0px"
	 width="600px" height="600px" viewBox="0 0 600 600" enable-background="new 0 0 600 600" xml:space="preserve">
<g>
	<path d="M448.753,369.802l-43.929-109.354c17.442-21.19,22.138-50.375,11.795-76.125c-11.558-28.785-39.065-47.383-70.092-47.383
		c-9.644,0-19.104,1.834-28.117,5.454c-26.009,10.455-43.037,33.853-46.646,59.813c-13.053-10.385-29.477-16.337-47.031-16.337
		c-9.643,0-19.105,1.836-28.131,5.456c-38.619,15.525-57.421,59.583-41.909,98.219c10.348,25.744,33.919,43.57,61.169,46.801
		l43.936,109.341c4.223,10.554,14.306,17.374,25.671,17.374c3.551,0,7.024-0.677,10.322-2.006L433.39,405.79
		C447.544,400.105,454.438,383.963,448.753,369.802z M426.029,387.455l-137.61,55.27c-4.025,1.611-8.697-0.432-10.287-4.394
		l-46.224-115.049c-1.462-3.64-4.935-6.068-8.857-6.191c-22.146-0.695-41.783-14.399-50.023-34.91
		c-11.456-28.527,2.429-61.061,30.938-72.521c6.667-2.677,13.657-4.032,20.768-4.032c22.904,0,43.22,13.73,51.749,34.984
		c2.029,5.062,7.781,7.522,12.851,5.486c3.858-1.547,6.204-5.254,6.204-9.169c0-1.224-0.233-2.472-0.714-3.678
		c-11.456-28.524,2.435-61.061,30.953-72.521c6.662-2.675,13.646-4.03,20.752-4.03c22.906,0,43.224,13.732,51.759,34.987
		c8.241,20.521,3.544,44.006-11.97,59.827c-2.749,2.8-3.574,6.961-2.112,10.6l46.216,115.05
		C432.045,381.213,430.078,385.83,426.029,387.455z"/>
	<path d="M290.77,389.972c-5.422,2.165-8.055,8.34-5.879,13.756c2.185,5.423,8.35,8.06,13.771,5.881
		c5.427-2.185,8.06-8.345,5.875-13.772C302.367,390.415,296.193,387.786,290.77,389.972z"/>
	<path d="M296.524,375.886c5.433-2.181,8.057-8.354,5.881-13.771c-2.186-5.418-8.35-8.051-13.777-5.876
		c-5.421,2.181-8.044,8.347-5.875,13.768C284.933,375.429,291.099,378.065,296.524,375.886z"/>
	<path d="M332.705,361.715c-5.421,2.174-8.058,8.344-5.878,13.771c2.185,5.422,8.346,8.05,13.771,5.875
		c5.423-2.186,8.056-8.351,5.874-13.772C344.294,362.167,338.129,359.533,332.705,361.715z"/>
</g>
</svg>
