<?xml version="1.0" encoding="utf-8"?>
<!-- Generator: Adobe Illustrator 15.0.0, SVG Export Plug-In . SVG Version: 6.00 Build 0)  -->
<!DOCTYPE svg PUBLIC "-//W3C//DTD SVG 1.1//EN" "http://www.w3.org/Graphics/SVG/1.1/DTD/svg11.dtd">
<svg version="1.1" id="Capa_1" xmlns="http://www.w3.org/2000/svg" xmlns:xlink="http://www.w3.org/1999/xlink" x="0px" y="0px"
	 width="600px" height="600px" viewBox="0 0 600 600" enable-background="new 0 0 600 600" xml:space="preserve">
<path d="M458.491,169.644c2.647-3.024,3.282-7.316,1.622-10.977c-1.659-3.659-5.305-6.01-9.324-6.01H335.91l7.795-46.376h78.092
	c5.654,0,10.238-4.585,10.238-10.239c0-5.655-4.584-10.239-10.238-10.239h-86.754c-0.061,0-0.117,0.018-0.178,0.018
	c-0.4,0.005-0.787,0.067-1.178,0.119c-0.282,0.038-0.57,0.053-0.845,0.113c-0.378,0.082-0.732,0.217-1.095,0.34
	c-0.27,0.092-0.545,0.162-0.803,0.274c-0.353,0.155-0.675,0.355-1.005,0.548c-0.237,0.135-0.485,0.252-0.708,0.407
	c-0.324,0.223-0.614,0.492-0.914,0.753c-0.193,0.17-0.4,0.319-0.58,0.505c-0.275,0.279-0.505,0.595-0.745,0.904
	c-0.165,0.21-0.345,0.405-0.495,0.63c-0.189,0.293-0.34,0.613-0.5,0.926c-0.15,0.284-0.312,0.56-0.435,0.862
	c-0.112,0.277-0.181,0.574-0.271,0.867c-0.109,0.365-0.229,0.725-0.303,1.107c-0.01,0.058-0.034,0.11-0.045,0.167l-9.799,58.313
	H149.211c-4.02,0-7.665,2.351-9.324,6.01c-1.66,3.66-1.025,7.952,1.622,10.977l148.252,169.261v154.814h-83.119
	c-5.654,0-10.239,4.584-10.239,10.239c0,5.654,4.585,10.239,10.239,10.239h186.717c5.655,0,10.239-4.585,10.239-10.239
	c0-5.655-4.584-10.239-10.239-10.239h-83.119V338.904L458.491,169.644z M311.704,173.136l-3.957,23.544h-81.417
	c-4.02,0-7.665,2.35-9.325,6.01c-1.66,3.659-1.025,7.951,1.623,10.977l73.67,84.113c1.942,2.221,4.75,3.493,7.702,3.493
	c2.95,0,5.758-1.272,7.702-3.493l73.675-84.113c2.647-3.022,3.282-7.317,1.622-10.977c-1.659-3.66-5.304-6.01-9.324-6.01h-45.161
	l3.954-23.544h95.741L300,319.514L171.792,173.136H311.704z M316.392,217.158c0.01,0,0.021,0.002,0.03,0.002
	s0.018-0.002,0.027-0.002h34.645L300,275.491l-51.091-58.333H316.392z"/>
</svg>
