<?xml version="1.0" encoding="utf-8"?>
<!-- Generator: Adobe Illustrator 15.0.0, SVG Export Plug-In . SVG Version: 6.00 Build 0)  -->
<!DOCTYPE svg PUBLIC "-//W3C//DTD SVG 1.1//EN" "http://www.w3.org/Graphics/SVG/1.1/DTD/svg11.dtd">
<svg version="1.1" id="Capa_1" xmlns="http://www.w3.org/2000/svg" xmlns:xlink="http://www.w3.org/1999/xlink" x="0px" y="0px"
	 width="600px" height="600px" viewBox="0 0 600 600" enable-background="new 0 0 600 600" xml:space="preserve">
<g>
	<path d="M463.635,354.258c0-30.281-22.57-55.324-51.752-59.357v-2.686c0-6.345-5.143-11.487-11.486-11.487H147.853
		c-6.343,0-11.487,5.143-11.487,11.487v83.086c0,75.957,61.799,137.758,137.759,137.758c62.484,0,115.352-41.834,132.156-98.952
		C438.129,412.716,463.635,386.445,463.635,354.258z M388.911,375.301c0,63.294-51.493,114.785-114.786,114.785
		c-63.293,0-114.786-51.491-114.786-114.785v-71.6h229.572V375.301z M411.023,390.527c0.552-5.002,0.859-10.078,0.859-15.227
		v-57.106c16.453,3.757,28.778,18.485,28.778,36.063C440.661,372.137,427.91,387.096,411.023,390.527z"/>
	<path d="M226.799,182.146c13.573,2.04,22.95,14.75,20.909,28.323c-0.99,6.572-4.481,12.366-9.829,16.315
		c-5.35,3.948-11.91,5.569-18.495,4.588c-6.285-0.931-12.12,3.37-13.068,9.646c-0.945,6.27,3.375,12.12,9.647,13.067
		c2.418,0.365,4.834,0.544,7.235,0.544c10.151,0,20.003-3.225,28.324-9.365c10.286-7.589,17-18.732,18.901-31.381
		c3.929-26.097-14.108-50.528-40.203-54.455c-13.573-2.046-22.951-14.75-20.909-28.329c0.99-6.572,4.481-12.366,9.83-16.31
		c5.351-3.955,11.923-5.564,18.495-4.589c6.281,0.937,12.12-3.375,13.067-9.646c0.946-6.27-3.373-12.125-9.646-13.067
		c-12.636-1.912-25.271,1.222-35.558,8.815c-10.286,7.595-17,18.74-18.902,31.382C182.668,153.789,200.705,178.22,226.799,182.146z"
		/>
	<path d="M318.034,182.146c13.573,2.04,22.951,14.75,20.909,28.323c-0.99,6.572-4.481,12.366-9.828,16.315
		c-5.352,3.948-11.914,5.569-18.495,4.588c-6.282-0.931-12.123,3.37-13.068,9.646c-0.945,6.27,3.373,12.12,9.647,13.067
		c2.416,0.365,4.834,0.544,7.234,0.544c10.152,0,20.003-3.225,28.324-9.365c10.285-7.589,17-18.732,18.9-31.381
		c3.929-26.097-14.108-50.528-40.202-54.455c-13.573-2.046-22.95-14.75-20.909-28.329c0.989-6.572,4.481-12.366,9.83-16.31
		c5.353-3.955,11.92-5.564,18.494-4.589c6.256,0.937,12.119-3.375,13.068-9.646c0.944-6.27-3.375-12.125-9.646-13.067
		c-12.652-1.912-25.274,1.222-35.561,8.815c-10.286,7.595-17,18.74-18.9,31.382C273.903,153.789,291.94,178.22,318.034,182.146z"/>
</g>
</svg>
