<?xml version="1.0" encoding="utf-8"?>
<!-- Generator: Adobe Illustrator 15.0.0, SVG Export Plug-In . SVG Version: 6.00 Build 0)  -->
<!DOCTYPE svg PUBLIC "-//W3C//DTD SVG 1.1//EN" "http://www.w3.org/Graphics/SVG/1.1/DTD/svg11.dtd">
<svg version="1.1" id="Capa_1" xmlns="http://www.w3.org/2000/svg" xmlns:xlink="http://www.w3.org/1999/xlink" x="0px" y="0px"
	 width="600px" height="600px" viewBox="0 0 600 600" enable-background="new 0 0 600 600" xml:space="preserve">
<g>
	<path d="M169.354,353.098c-40.868,0-74.114,33.238-74.114,74.099c0,40.868,33.246,74.114,74.114,74.114
		c40.869,0,74.115-33.246,74.115-74.114C243.469,386.336,210.223,353.098,169.354,353.098z M169.354,468.41
		c-22.723,0-41.214-18.49-41.214-41.214c0-22.716,18.491-41.198,41.214-41.198c22.724,0,41.214,18.482,41.214,41.198
		C210.567,449.92,192.077,468.41,169.354,468.41z"/>
	<path d="M118.598,218.299c-9.085,0-16.45,7.366-16.45,16.45c0,9.085,7.365,16.45,16.45,16.45
		c128.831,0,233.652,104.822,233.652,233.661c0,9.085,7.366,16.45,16.451,16.45c9.084,0,16.449-7.365,16.449-16.45
		C385.15,337.877,265.573,218.299,118.598,218.299z"/>
	<path d="M118.598,98.689c-9.085,0-16.45,7.366-16.45,16.45c0,9.085,7.365,16.45,16.45,16.45
		c194.793,0,353.263,158.479,353.263,353.271c0,9.085,7.365,16.45,16.45,16.45c9.084,0,16.45-7.365,16.45-16.45
		C504.761,271.923,331.527,98.689,118.598,98.689z"/>
</g>
</svg>
