<?xml version="1.0" encoding="utf-8"?>
<!-- Generator: Adobe Illustrator 15.0.0, SVG Export Plug-In . SVG Version: 6.00 Build 0)  -->
<!DOCTYPE svg PUBLIC "-//W3C//DTD SVG 1.1//EN" "http://www.w3.org/Graphics/SVG/1.1/DTD/svg11.dtd">
<svg version="1.1" id="Capa_1" xmlns="http://www.w3.org/2000/svg" xmlns:xlink="http://www.w3.org/1999/xlink" x="0px" y="0px"
	 width="600px" height="600px" viewBox="0 0 600 600" enable-background="new 0 0 600 600" xml:space="preserve">
<g>
	<path d="M526.782,224.928c-0.026-0.189-0.052-0.38-0.065-0.573c-1.352-40.839-34.35-72.798-75.126-72.798H148.41
		c-40.777,0-73.775,31.959-75.124,72.758c-0.017,0.233-0.042,0.422-0.068,0.609c-0.029,0.207-0.06,0.413-0.06,0.628v147.638
		c0,41.496,33.758,75.254,75.251,75.254h303.181c41.493,0,75.251-33.758,75.251-75.254V225.552
		C526.842,225.338,526.811,225.133,526.782,224.928z M107.792,208.775c7.172-16.086,23.116-26.48,40.618-26.48h303.181
		c17.5,0,33.442,10.395,40.616,26.48l0.629,1.407H107.165L107.792,208.775z M496.104,373.189c0,24.547-19.969,44.516-44.513,44.516
		H148.41c-24.544,0-44.513-19.969-44.513-44.516v-69.889h392.206V373.189z M496.104,272.562H103.897v-31.642h392.206V272.562z"/>
	<path d="M133.439,380.354h161.885c8.475,0,15.369-6.896,15.369-15.37s-6.895-15.369-15.369-15.369H133.439
		c-8.475,0-15.369,6.895-15.369,15.369S124.964,380.354,133.439,380.354z"/>
</g>
</svg>
