<?xml version="1.0" encoding="utf-8"?>
<!-- Generator: Adobe Illustrator 15.0.0, SVG Export Plug-In . SVG Version: 6.00 Build 0)  -->
<!DOCTYPE svg PUBLIC "-//W3C//DTD SVG 1.1//EN" "http://www.w3.org/Graphics/SVG/1.1/DTD/svg11.dtd">
<svg version="1.1" id="Capa_1" xmlns="http://www.w3.org/2000/svg" xmlns:xlink="http://www.w3.org/1999/xlink" x="0px" y="0px"
	 width="600px" height="600px" viewBox="0 0 600 600" enable-background="new 0 0 600 600" xml:space="preserve">
<path d="M498.209,433.117h-40.793V157.328l42.898-42.9c4.049-4.049,4.049-10.607,0-14.656c-4.043-4.049-10.613-4.049-14.657,0
	l-42.899,42.898H172.431h-5.461v-40.834c0-5.725-4.642-10.365-10.365-10.365c-5.725,0-10.365,4.641-10.365,10.365v40.834h-44.448
	c-5.725,0-10.366,4.643-10.366,10.365c0,5.725,4.642,10.367,10.366,10.367h44.448v9.068v271.012c0,5.725,4.641,10.365,10.365,10.365
	h270.97h9.07v44.316c0,5.725,4.641,10.365,10.365,10.365s10.365-4.641,10.365-10.365v-44.316h40.834
	c5.725,0,10.365-4.641,10.365-10.365S503.934,433.117,498.209,433.117z M172.431,163.402h249.597L166.97,418.459V172.471v-9.068
	H172.431z M427.574,433.117H181.627l255.058-255.059v249.061c-0.005,0.131-0.04,0.264-0.04,0.4v5.598H427.574z"/>
</svg>
