<?xml version="1.0" encoding="utf-8"?>
<!-- Generator: Adobe Illustrator 15.0.0, SVG Export Plug-In . SVG Version: 6.00 Build 0)  -->
<!DOCTYPE svg PUBLIC "-//W3C//DTD SVG 1.1//EN" "http://www.w3.org/Graphics/SVG/1.1/DTD/svg11.dtd">
<svg version="1.1" id="Capa_1" xmlns="http://www.w3.org/2000/svg" xmlns:xlink="http://www.w3.org/1999/xlink" x="0px" y="0px"
	 width="600px" height="600px" viewBox="0 0 600 600" enable-background="new 0 0 600 600" xml:space="preserve">
<path fill="#222221" d="M455.948,176.793h-88.135V80.341c0-6.865-5.566-12.434-12.434-12.434H244.612
	c-6.865,0-12.434,5.568-12.434,12.434v96.452h-88.127c-6.867,0-12.434,5.567-12.434,12.434V300c0,6.867,5.566,12.433,12.434,12.433
	h88.127v207.225c0,6.867,5.568,12.434,12.434,12.434H355.38c6.867,0,12.434-5.566,12.434-12.434V312.434h88.135
	c6.867,0,12.434-5.566,12.434-12.433V189.227C468.382,182.361,462.815,176.793,455.948,176.793z M443.515,287.567H355.38
	c-6.867,0-12.434,5.567-12.434,12.434v207.224h-85.9V300c0-6.867-5.566-12.434-12.434-12.434h-88.127v-85.906h88.127
	c6.867,0,12.434-5.566,12.434-12.434V92.775h85.9v96.452c0,6.867,5.566,12.434,12.434,12.434h88.135V287.567z"/>
</svg>
