<?xml version="1.0" encoding="utf-8"?>
<!-- Generator: Adobe Illustrator 15.0.0, SVG Export Plug-In . SVG Version: 6.00 Build 0)  -->
<!DOCTYPE svg PUBLIC "-//W3C//DTD SVG 1.1//EN" "http://www.w3.org/Graphics/SVG/1.1/DTD/svg11.dtd">
<svg version="1.1" id="Capa_1" xmlns="http://www.w3.org/2000/svg" xmlns:xlink="http://www.w3.org/1999/xlink" x="0px" y="0px"
	 width="600px" height="600px" viewBox="0 0 600 600" enable-background="new 0 0 600 600" xml:space="preserve">
<g>
	<path fill="#222221" d="M439.948,116.584h-75.093C361.109,84.101,333.472,58.785,300,58.785c-33.471,0-61.104,25.315-64.85,57.799
		h-75.098c-30.39,0-55.111,24.728-55.111,55.117v2.828c0,23.223,14.46,43.1,34.83,51.199v260.369
		c0,30.389,24.724,55.117,55.112,55.117h210.236c30.388,0,55.111-24.729,55.111-55.117V225.729c20.37-8.1,34.83-27.977,34.83-51.199
		v-2.828C495.06,141.312,470.338,116.584,439.948,116.584z M300,84.924c19.036,0,34.927,13.645,38.443,31.66h-76.879
		C265.079,98.568,280.97,84.924,300,84.924z M434.091,486.098c0,15.977-13,28.979-28.973,28.979H194.882
		c-15.973,0-28.973-13.002-28.973-28.979V229.646h268.182V486.098z M468.922,174.529c0,15.978-13.001,28.979-28.974,28.979H160.052
		c-15.973,0-28.973-13.001-28.973-28.979v-2.828c0-15.978,13-28.979,28.973-28.979h279.896c15.973,0,28.974,13.001,28.974,28.979
		V174.529z"/>
	<path fill="#222221" d="M229.93,481.648c7.218,0,13.069-5.852,13.069-13.068V321.426c0-7.216-5.852-13.07-13.069-13.07
		s-13.069,5.854-13.069,13.07V468.58C216.86,475.797,222.712,481.648,229.93,481.648z"/>
	<path fill="#222221" d="M300,481.648c7.218,0,13.069-5.852,13.069-13.068V321.426c0-7.216-5.852-13.07-13.069-13.07
		s-13.069,5.854-13.069,13.07V468.58C286.931,475.797,292.782,481.648,300,481.648z"/>
	<path fill="#222221" d="M370.069,481.648c7.218,0,13.069-5.852,13.069-13.068V321.426c0-7.216-5.852-13.07-13.069-13.07
		c-7.217,0-13.069,5.854-13.069,13.07V468.58C357,475.797,362.853,481.648,370.069,481.648z"/>
</g>
</svg>
