<?xml version="1.0" encoding="utf-8"?>
<!-- Generator: Adobe Illustrator 15.0.0, SVG Export Plug-In . SVG Version: 6.00 Build 0)  -->
<!DOCTYPE svg PUBLIC "-//W3C//DTD SVG 1.1//EN" "http://www.w3.org/Graphics/SVG/1.1/DTD/svg11.dtd">
<svg version="1.1" id="Capa_1" xmlns="http://www.w3.org/2000/svg" xmlns:xlink="http://www.w3.org/1999/xlink" x="0px" y="0px"
	 width="600px" height="600px" viewBox="0 0 600 600" enable-background="new 0 0 600 600" xml:space="preserve">
<g>
	<path fill="#222221" d="M492.658,123.466H228.239c-0.761,0-1.542,0.096-2.369,0.29c-7.72-7.124-17.672-11.037-28.123-11.037
		h-59.912c-22.903,0-41.536,18.635-41.536,41.541v291.49c0,22.9,18.633,41.531,41.536,41.531h59.912
		c10.459,0,20.411-3.91,28.12-11.027c0.829,0.194,1.611,0.29,2.373,0.29h264.419c6.09,0,11.043-4.954,11.043-11.044V134.51
		C503.701,128.42,498.748,123.466,492.658,123.466z M481.613,145.554v308.902H239.283V145.554H481.613z M118.386,154.26
		c0-10.726,8.725-19.452,19.448-19.452h59.912c10.724,0,19.448,8.727,19.448,19.452v291.49c0,10.721-8.725,19.443-19.448,19.443
		h-59.912c-10.724,0-19.448-8.723-19.448-19.443V154.26z"/>
	<path fill="#222221" d="M265.824,273.758h181.34c6.09,0,11.043-4.954,11.043-11.044V186.36c0-6.09-4.953-11.045-11.043-11.045
		h-181.34c-6.09,0-11.044,4.955-11.044,11.045v76.354C254.78,268.804,259.734,273.758,265.824,273.758z M276.868,251.669v-54.265
		h159.251v54.265H276.868z"/>
	<path fill="#222221" d="M417.338,288.961H295.65c-6.091,0-11.045,4.954-11.045,11.044v121.688c0,6.09,4.954,11.045,11.045,11.045
		h121.688c6.09,0,11.045-4.955,11.045-11.045V300.005C428.383,293.915,423.428,288.961,417.338,288.961z M406.293,391.765v18.885
		H387.6v-18.885H406.293z M406.293,351.64v18.419H387.6V351.64H406.293z M406.293,311.049v18.885H387.6v-18.885H406.293z
		 M365.512,391.765v18.885H347.48v-18.885H365.512z M365.512,351.64v18.419H347.48V351.64H365.512z M365.512,311.049v18.885H347.48
		v-18.885H365.512z M325.393,391.765v18.885h-18.699v-18.885H325.393z M325.393,351.64v18.419h-18.699V351.64H325.393z
		 M325.393,311.049v18.885h-18.699v-18.885H325.393z"/>
</g>
</svg>
