<?xml version="1.0" encoding="utf-8"?>
<!-- Generator: Adobe Illustrator 15.0.0, SVG Export Plug-In . SVG Version: 6.00 Build 0)  -->
<!DOCTYPE svg PUBLIC "-//W3C//DTD SVG 1.1//EN" "http://www.w3.org/Graphics/SVG/1.1/DTD/svg11.dtd">
<svg version="1.1" id="Capa_1" xmlns="http://www.w3.org/2000/svg" xmlns:xlink="http://www.w3.org/1999/xlink" x="0px" y="0px"
	 width="600px" height="600px" viewBox="0 0 600 600" enable-background="new 0 0 600 600" xml:space="preserve">
<g>
	<path fill="#222221" d="M459.65,126.893h-319.3c-7.434,0-13.461,6.027-13.461,13.461v319.295c0,7.434,6.027,13.459,13.461,13.459
		h319.3c7.434,0,13.461-6.025,13.461-13.459V140.354C473.111,132.92,467.084,126.893,459.65,126.893z M446.189,446.188H153.811
		V153.814h292.379V446.188z"/>
	<path fill="#222221" d="M290.479,364.346c2.524,2.523,5.948,3.943,9.517,3.943s6.994-1.42,9.517-3.943L361,312.857
		c5.258-5.258,5.258-13.777,0-19.035s-13.783-5.258-19.034,0l-28.509,28.512V209.76c0-7.434-6.027-13.461-13.46-13.461
		c-7.434,0-13.46,6.027-13.46,13.461v112.574l-28.512-28.512c-5.251-5.258-13.782-5.258-19.034,0
		c-5.258,5.258-5.258,13.777,0,19.035L290.479,364.346z"/>
	<path fill="#222221" d="M193.285,417.887h213.43c7.434,0,13.461-6.027,13.461-13.461s-6.027-13.461-13.461-13.461h-213.43
		c-7.434,0-13.46,6.027-13.46,13.461S185.852,417.887,193.285,417.887z"/>
</g>
</svg>
