<?xml version="1.0" encoding="utf-8"?>
<!-- Generator: Adobe Illustrator 15.0.0, SVG Export Plug-In . SVG Version: 6.00 Build 0)  -->
<!DOCTYPE svg PUBLIC "-//W3C//DTD SVG 1.1//EN" "http://www.w3.org/Graphics/SVG/1.1/DTD/svg11.dtd">
<svg version="1.1" id="Capa_1" xmlns="http://www.w3.org/2000/svg" xmlns:xlink="http://www.w3.org/1999/xlink" x="0px" y="0px"
	 width="600px" height="600px" viewBox="0 0 600 600" enable-background="new 0 0 600 600" xml:space="preserve">
<g>
	<path fill="#222221" d="M547.457,127.854H52.544c-5.826,0-10.566,4.739-10.566,10.565V461.58c0,5.826,4.74,10.566,10.566,10.566
		h494.913c5.826,0,10.565-4.74,10.565-10.566V138.419C558.022,132.593,553.283,127.854,547.457,127.854z M536.892,148.985v302.031
		H63.109V148.985H536.892z"/>
	<path fill="#222221" d="M172.803,426.959h328.401c5.826,0,10.565-4.74,10.565-10.566V183.598c0-5.826-4.739-10.565-10.565-10.565
		H172.803c-5.826,0-10.565,4.739-10.565,10.565v232.794C162.237,422.219,166.977,426.959,172.803,426.959z M183.368,405.828V194.164
		h307.271v211.665H183.368z"/>
	<path fill="#222221" d="M109.204,338.869c21.433,0,38.869-17.438,38.869-38.87c0-21.432-17.437-38.868-38.869-38.868
		S70.335,278.568,70.335,300C70.335,321.432,87.771,338.869,109.204,338.869z M109.204,282.262c9.781,0,17.738,7.957,17.738,17.737
		c0,9.782-7.957,17.739-17.738,17.739c-9.78,0-17.737-7.957-17.737-17.739C91.467,290.219,99.424,282.262,109.204,282.262z"/>
	<path fill="#222221" d="M80.901,253.155h56.606c5.826,0,10.565-4.739,10.565-10.565v-59.732c0-5.826-4.739-10.565-10.565-10.565
		H80.901c-5.826,0-10.566,4.739-10.566,10.565v59.732C70.335,248.416,75.075,253.155,80.901,253.155z M91.467,232.024v-38.602
		h35.476v38.602H91.467z"/>
	<path fill="#222221" d="M80.901,426.959h56.606c5.826,0,10.565-4.74,10.565-10.566V356.66c0-5.826-4.739-10.564-10.565-10.564
		H80.901c-5.826,0-10.566,4.738-10.566,10.564v59.732C70.335,422.219,75.075,426.959,80.901,426.959z M91.467,405.828v-38.602
		h35.476v38.602H91.467z"/>
	<path fill="#222221" d="M452.583,196.604c-7.022,0-13.618,2.729-18.572,7.683L306.077,332.225
		c-0.089,0.088-0.167,0.184-0.247,0.291c-1.146,1.025-2.03,2.225-2.629,3.57l-17.806,40.02c-1.767,3.967-0.889,8.697,2.185,11.771
		c1.993,1.992,4.646,3.09,7.47,3.09c1.494,0,2.94-0.307,4.301-0.91l40.01-17.814c1.37-0.609,2.588-1.52,3.621-2.703l0.037-0.029
		c0.152-0.113,0.3-0.23,0.421-0.355l127.717-127.722c4.956-4.954,7.686-11.55,7.686-18.572c0-7.023-2.729-13.619-7.686-18.573
		C466.202,199.333,459.606,196.604,452.583,196.604z M452.583,217.729c1.373,0,2.664,0.532,3.632,1.497c2,2.004,2,5.263,0.001,7.266
		L328.984,353.723l-13.094,5.832l5.82-13.088l127.237-127.238C449.919,218.261,451.21,217.729,452.583,217.729z"/>
</g>
</svg>
