<?xml version="1.0" encoding="utf-8"?>
<!-- Generator: Adobe Illustrator 15.0.0, SVG Export Plug-In . SVG Version: 6.00 Build 0)  -->
<!DOCTYPE svg PUBLIC "-//W3C//DTD SVG 1.1//EN" "http://www.w3.org/Graphics/SVG/1.1/DTD/svg11.dtd">
<svg version="1.1" id="Capa_1" xmlns="http://www.w3.org/2000/svg" xmlns:xlink="http://www.w3.org/1999/xlink" x="0px" y="0px"
	 width="600px" height="600px" viewBox="0 0 600 600" enable-background="new 0 0 600 600" xml:space="preserve">
<g>
	<path d="M364.37,363.193c23.618-23.617,36.625-55.018,36.625-88.422s-13.007-64.803-36.625-88.422
		c-23.616-23.619-55.021-36.623-88.422-36.623c-33.402,0-64.806,13.004-88.422,36.623c-48.756,48.756-48.756,128.088,0,176.844
		c23.616,23.619,55.02,36.627,88.422,36.627C309.35,399.82,340.754,386.812,364.37,363.193z M223.456,368.566
		c37.161-3.309,71.126-19.664,96.961-44.223l28.91,28.91c-19.975,18.703-45.881,28.986-73.379,28.986
		C257.261,382.24,239.314,377.473,223.456,368.566z M292.041,271.111l60.248-60.25c-0.093,0.51-0.159,1.033-0.159,1.57
		c0,32.465-12.11,62.744-32.037,86.727L292.041,271.111z M308.052,311.979c-25.365,23.957-59.486,39.078-96.5,39.619l68.059-68.059
		L308.052,311.979z M279.611,258.682l-27.899-27.902c24.215-19.494,54.849-31.473,87.752-31.953L279.611,258.682z M267.182,271.111
		l-68.454,68.451c0.092-0.512,0.159-1.035,0.159-1.57c0-36.494,15.303-70.225,39.822-95.354L267.182,271.111z M361.164,340.232
		l-28.643-28.641c21.191-24.979,34.757-56.225,36.87-89.938c9.134,16.014,14.024,34.186,14.024,53.117
		C383.416,298.768,375.581,321.545,361.164,340.232z M329.7,181.689c-33.942,2.557-65.325,15.986-90.407,36.674l-28.805-28.809
		c18.689-14.416,41.466-22.252,65.46-22.248C295.133,167.303,313.535,172.318,329.7,181.689z M197.533,201.461l28.818,28.816
		c-25.123,25.674-41.655,59.391-44.541,96.195C159.982,286.678,165.247,235.98,197.533,201.461z"/>
	<path d="M449.041,270.213c0-95.443-77.649-173.092-173.093-173.092c-4.854,0-8.79,3.936-8.79,8.789s3.936,8.791,8.79,8.791
		c85.75,0,155.514,69.764,155.514,155.512s-69.764,155.514-155.514,155.514c-4.854,0-8.79,3.936-8.79,8.791v50.781h-44.365
		c-4.854,0-8.79,3.936-8.79,8.789c0,4.855,3.936,8.791,8.79,8.791h106.311c4.854,0,8.79-3.936,8.79-8.791
		c0-4.854-3.936-8.789-8.79-8.789h-44.365v-42.215C376.113,438.49,449.041,362.709,449.041,270.213z"/>
</g>
</svg>
