<?xml version="1.0" encoding="utf-8"?>
<!-- Generator: Adobe Illustrator 15.0.0, SVG Export Plug-In . SVG Version: 6.00 Build 0)  -->
<!DOCTYPE svg PUBLIC "-//W3C//DTD SVG 1.1//EN" "http://www.w3.org/Graphics/SVG/1.1/DTD/svg11.dtd">
<svg version="1.1" id="Capa_1" xmlns="http://www.w3.org/2000/svg" xmlns:xlink="http://www.w3.org/1999/xlink" x="0px" y="0px"
	 width="600px" height="600px" viewBox="0 0 600 600" enable-background="new 0 0 600 600" xml:space="preserve">
<path fill="#222221" d="M300.004,91.869C185.242,91.869,91.869,185.234,91.869,300s93.373,208.131,208.135,208.131
	c114.764,0,208.127-93.365,208.127-208.131S414.768,91.869,300.004,91.869z M477.308,276.748H409.91
	c-4.45-54.305-25.246-107.009-62.391-149.162C415.898,146.451,467.944,204.971,477.308,276.748z M285.373,276.748h-65.662
	c5.549-51.439,27.508-101.594,65.662-140.883V276.748z M285.373,306.008v161.119c-0.496-0.707-1.03-1.4-1.66-2.027
	c-42.943-42.953-64.631-100.66-65.354-159.092H285.373z M314.631,306.008h66.941c-1.655,58.047-24.017,116-66.941,160.197V306.008z
	 M314.631,276.748V134.944c0.494,0.706,1.029,1.399,1.656,2.027c38.203,38.212,59.594,88.094,64.363,139.776H314.631z
	 M253.66,127.248c-36.901,42.947-58.018,95.66-63.184,149.5h-67.781C132.108,204.557,184.707,145.766,253.66,127.248z
	 M121.287,306.008h67.984c0.65,59.832,20.91,119.014,60.889,165.742C177.562,450.646,123.902,384.698,121.287,306.008z
	 M348.684,472.078c39.799-47.612,60.49-106.795,61.992-166.07h68.049C476.096,385.114,421.868,451.348,348.684,472.078z"/>
</svg>
