<?xml version="1.0" encoding="utf-8"?>
<!-- Generator: Adobe Illustrator 15.0.0, SVG Export Plug-In . SVG Version: 6.00 Build 0)  -->
<!DOCTYPE svg PUBLIC "-//W3C//DTD SVG 1.1//EN" "http://www.w3.org/Graphics/SVG/1.1/DTD/svg11.dtd">
<svg version="1.1" id="Capa_1" xmlns="http://www.w3.org/2000/svg" xmlns:xlink="http://www.w3.org/1999/xlink" x="0px" y="0px"
	 width="600px" height="600px" viewBox="0 0 600 600" enable-background="new 0 0 600 600" xml:space="preserve">
<g>
	<path fill="#222221" d="M442.376,235.382c-6.743,0-12.21,5.467-12.21,12.21V470.56c0,23.562-19.174,42.735-42.736,42.735H119.689
		c-23.562,0-42.736-19.174-42.736-42.735V202.817c0-23.562,19.174-42.735,42.736-42.735H387.43c6.743,0,12.21-5.467,12.21-12.21
		s-5.467-12.21-12.21-12.21H119.689c-37.031,0-67.157,30.125-67.157,67.155V470.56c0,37.029,30.126,67.155,67.157,67.155H387.43
		c37.03,0,67.156-30.126,67.156-67.155V247.593C454.586,240.85,449.119,235.382,442.376,235.382z"/>
	<path fill="#222221" d="M536.408,73.323c-14.72-14.72-38.669-14.714-53.377,0L273.884,282.476c-0.28,0.28-3.434,3.559-4.251,5.396
		l-28.963,65.069c-2.057,4.62-1.056,10.028,2.521,13.6c2.337,2.336,5.461,3.576,8.639,3.576c1.675,0,3.362-0.346,4.96-1.056
		l65.07-28.963c1.83-0.816,5.115-3.97,5.396-4.251l209.152-209.146c7.131-7.131,11.06-16.61,11.06-26.692
		C547.468,89.928,543.539,80.447,536.408,73.323z M519.143,109.429L309.989,318.582c-0.035,0.036-0.054,0.078-0.089,0.107
		l-33.989,15.132l15.131-33.989c0.03-0.036,0.071-0.055,0.107-0.09L500.297,90.59c5.038-5.039,13.819-5.033,18.846,0.005
		c2.517,2.51,3.905,5.855,3.905,9.414C523.048,103.568,521.659,106.912,519.143,109.429z"/>
</g>
</svg>
