<?xml version="1.0" encoding="utf-8"?>
<!-- Generator: Adobe Illustrator 15.0.0, SVG Export Plug-In . SVG Version: 6.00 Build 0)  -->
<!DOCTYPE svg PUBLIC "-//W3C//DTD SVG 1.1//EN" "http://www.w3.org/Graphics/SVG/1.1/DTD/svg11.dtd">
<svg version="1.1" id="Capa_1" xmlns="http://www.w3.org/2000/svg" xmlns:xlink="http://www.w3.org/1999/xlink" x="0px" y="0px"
	 width="600px" height="600px" viewBox="0 0 600 600" enable-background="new 0 0 600 600" xml:space="preserve">
<path d="M318.181,135.422c-3.303-2.422-7.688-2.783-11.342-0.936c-3.664,1.85-5.97,5.598-5.97,9.697V355.1
	c-11.117-9.559-25.528-15.379-41.312-15.379c-35.004,0-63.486,28.473-63.486,63.477c0,35.014,28.482,63.486,63.486,63.486
	c35.016,0,63.488-28.473,63.488-63.486c0-3.219-0.427-233.803-0.427-233.803c22.687,24.789,59.56,77.688,59.56,159.578
	c0,6,4.864,10.875,10.874,10.875c6,0,10.876-4.875,10.876-10.875C403.929,199.887,321.686,137.992,318.181,135.422z
	 M259.558,444.934c-23.014,0-41.736-18.723-41.736-41.736c0-23.004,18.723-41.727,41.736-41.727s41.738,18.723,41.738,41.727
	C301.296,426.211,282.571,444.934,259.558,444.934z"/>
</svg>
