<?xml version="1.0" encoding="utf-8"?>
<!-- Generator: Adobe Illustrator 15.0.0, SVG Export Plug-In . SVG Version: 6.00 Build 0)  -->
<!DOCTYPE svg PUBLIC "-//W3C//DTD SVG 1.1//EN" "http://www.w3.org/Graphics/SVG/1.1/DTD/svg11.dtd">
<svg version="1.1" id="Capa_1" xmlns="http://www.w3.org/2000/svg" xmlns:xlink="http://www.w3.org/1999/xlink" x="0px" y="0px"
	 width="600px" height="600px" viewBox="0 0 600 600" enable-background="new 0 0 600 600" xml:space="preserve">
<path fill="#222221" d="M300.001,86.33C182.183,86.33,86.33,182.182,86.33,300c0,117.818,95.853,213.669,213.671,213.669
	c117.817,0,213.669-95.852,213.669-213.669C513.67,182.182,417.818,86.33,300.001,86.33z M369.905,128.63l1.68,0.708
	c44.458,18.719,80.63,54.984,99.241,99.497l0.704,1.684l-108.875,22.193l-0.572-0.737c-4.068-5.25-8.787-9.972-14.025-14.032
	l-0.74-0.574L369.905,128.63z M438.062,266.526v67.265l-15.615-3.248v-60.83L438.062,266.526z M376.122,280.753l-0.385-1.524
	l18.115-3.686v49.06l-18.141-3.762l0.387-1.52c1.663-6.551,2.507-13.051,2.507-19.322
	C378.605,293.753,377.771,287.278,376.122,280.753z M330.546,422.443l3.245,15.619h-67.573l3.246-15.619H330.546z M275.397,393.852
	l3.771-18.133l1.519,0.387c6.522,1.658,13.02,2.5,19.314,2.5c6.272,0,12.773-0.844,19.321-2.508l1.52-0.387l3.762,18.141H275.397z
	 M300.001,350.014c-27.578,0-50.014-22.436-50.014-50.013c0-27.578,22.436-50.014,50.014-50.014
	c27.578,0,50.014,22.436,50.014,50.014C350.015,327.578,327.579,350.014,300.001,350.014z M269.457,177.564l-3.246-15.618h67.58
	l-3.245,15.618H269.457z M324.604,206.155l-3.762,18.133l-1.52-0.386c-6.556-1.663-13.056-2.507-19.321-2.507
	c-6.275,0-12.775,0.844-19.32,2.506l-1.52,0.387l-3.763-18.133H324.604z M258.914,119.57c13.564-3.084,27.388-4.649,41.087-4.649
	c13.714,0,27.536,1.567,41.086,4.658l1.436,0.327l-2.801,13.449h-79.444l-2.8-13.458L258.914,119.57z M129.338,228.422
	c18.655-44.32,54.767-80.435,99.076-99.084l1.679-0.707l22.591,108.737l-0.739,0.574c-5.226,4.053-9.938,8.764-14.004,14.002
	l-0.573,0.739l-108.737-22.581L129.338,228.422z M223.903,319.32l0.387,1.52l-18.135,3.764v-49.199l18.135,3.764l-0.387,1.52
	c-1.664,6.533-2.507,13.031-2.507,19.312C221.396,306.285,222.24,312.785,223.903,319.32z M177.565,269.463v61.08l-15.618,3.248
	v-67.573L177.565,269.463z M119.579,341.088c-3.09-13.578-4.656-27.402-4.656-41.087c0-13.716,1.566-27.537,4.656-41.08l0.327-1.435
	l13.449,2.792v79.453l-13.45,2.793L119.579,341.088z M230.103,471.377l-1.68-0.709c-44.312-18.656-80.427-54.771-99.084-99.082
	l-0.708-1.68l108.737-22.582l0.573,0.738c4.063,5.236,8.774,9.947,14.004,14.004l0.739,0.574L230.103,471.377z M341.081,480.422
	c-13.54,3.09-27.362,4.656-41.08,4.656c-13.707,0-27.528-1.564-41.08-4.648l-1.435-0.328l2.791-13.447h79.444l2.795,13.439
	L341.081,480.422z M470.66,371.586c-18.657,44.312-54.77,80.426-99.075,99.076l-1.68,0.707l-22.588-108.736l0.74-0.572
	c5.229-4.059,9.94-8.77,14.003-13.998l0.573-0.738l108.734,22.582L470.66,371.586z M480.095,342.514l-13.44-2.791v-79.027
	l13.555-2.757l0.321,1.435c3.019,13.438,4.549,27.105,4.549,40.627c0,13.685-1.566,27.505-4.658,41.08L480.095,342.514z"/>
</svg>
