<?xml version="1.0" encoding="utf-8"?>
<!-- Generator: Adobe Illustrator 15.0.0, SVG Export Plug-In . SVG Version: 6.00 Build 0)  -->
<!DOCTYPE svg PUBLIC "-//W3C//DTD SVG 1.1//EN" "http://www.w3.org/Graphics/SVG/1.1/DTD/svg11.dtd">
<svg version="1.1" id="Capa_1" xmlns="http://www.w3.org/2000/svg" xmlns:xlink="http://www.w3.org/1999/xlink" x="0px" y="0px"
	 width="600px" height="600px" viewBox="0 0 600 600" enable-background="new 0 0 600 600" xml:space="preserve">
<g>
	<path d="M391.315,250.283v-82.701c0-50.342-40.967-91.303-91.314-91.303c-50.35,0-91.311,40.961-91.311,91.303v82.695
		c-36.836,27.766-60.697,71.867-60.697,121.436c0,83.822,68.191,152.008,152.008,152.008c83.814,0,152.006-68.186,152.006-152.008
		C452.007,322.145,428.146,278.049,391.315,250.283z M232.858,167.582c0-37.02,30.123-67.135,67.143-67.135
		c37.025,0,67.146,30.115,67.146,67.135v67.807c-20.262-10.018-43.051-15.682-67.146-15.682c-24.092,0-46.879,5.658-67.143,15.682
		V167.582z M300.001,499.553c-70.492,0-127.84-57.342-127.84-127.84c0-70.486,57.348-127.838,127.84-127.838
		s127.838,57.352,127.838,127.838C427.839,442.211,370.493,499.553,300.001,499.553z"/>
	<path d="M300.001,323c-26.859,0-48.715,21.854-48.715,48.713s21.855,48.715,48.715,48.715c26.857,0,48.713-21.855,48.713-48.715
		S326.858,323,300.001,323z M300.001,396.26c-13.537,0-24.547-11.012-24.547-24.547s11.01-24.545,24.547-24.545
		c13.535,0,24.545,11.01,24.545,24.545S313.536,396.26,300.001,396.26z"/>
</g>
</svg>
