<?xml version="1.0" encoding="utf-8"?>
<!-- Generator: Adobe Illustrator 15.0.0, SVG Export Plug-In . SVG Version: 6.00 Build 0)  -->
<!DOCTYPE svg PUBLIC "-//W3C//DTD SVG 1.1//EN" "http://www.w3.org/Graphics/SVG/1.1/DTD/svg11.dtd">
<svg version="1.1" id="Capa_1" xmlns="http://www.w3.org/2000/svg" xmlns:xlink="http://www.w3.org/1999/xlink" x="0px" y="0px"
	 width="600px" height="600px" viewBox="0 0 600 600" enable-background="new 0 0 600 600" xml:space="preserve">
<path fill="#222221" d="M476.402,165.51H123.598c-7.8,0-14.124,6.323-14.124,14.123v240.733c0,7.799,6.324,14.124,14.124,14.124
	h352.804c7.799,0,14.123-6.325,14.123-14.124V179.633C490.525,171.833,484.201,165.51,476.402,165.51z M137.721,206.376
	l95.947,65.465l-95.947,110.672V206.376z M300.003,282.903l-130.649-89.147h261.29L300.003,282.903z M257.164,287.869l34.875,23.799
	c2.407,1.634,5.187,2.454,7.965,2.454c2.78,0,5.559-0.82,7.958-2.454l34.881-23.799l102.631,118.372H154.542L257.164,287.869z
	 M366.338,271.841l95.941-65.465v176.123L366.338,271.841z"/>
</svg>
