<?xml version="1.0" encoding="utf-8"?>
<!-- Generator: Adobe Illustrator 15.0.0, SVG Export Plug-In . SVG Version: 6.00 Build 0)  -->
<!DOCTYPE svg PUBLIC "-//W3C//DTD SVG 1.1//EN" "http://www.w3.org/Graphics/SVG/1.1/DTD/svg11.dtd">
<svg version="1.1" id="Capa_1" xmlns="http://www.w3.org/2000/svg" xmlns:xlink="http://www.w3.org/1999/xlink" x="0px" y="0px"
	 width="600px" height="600px" viewBox="0 0 600 600" enable-background="new 0 0 600 600" xml:space="preserve">
<path fill="#222221" d="M526.811,227.424c-0.022-0.028-0.034-0.058-0.057-0.087l-50.184-62.48c-0.563-0.701-1.201-1.305-1.879-1.845
	c-2.16-2.563-5.355-4.225-8.965-4.225H134.273c-3.615,0-6.804,1.661-8.965,4.225c-0.678,0.54-1.316,1.138-1.885,1.845l-50.178,62.48
	c-0.023,0.029-0.034,0.059-0.057,0.087c-2.552,2.16-4.207,5.345-4.207,8.948v193.07c0,6.5,5.27,11.771,11.77,11.771h438.496
	c6.5,0,11.77-5.271,11.77-11.771v-193.07C531.018,232.769,529.362,229.584,526.811,227.424z M477.496,203.597l16.873,21.005h-16.873
	V203.597z M453.956,182.327v42.274H365.82c-2.512,0-4.954,0.805-6.978,2.293l-58.837,43.299l-58.849-43.305
	c-2.023-1.482-4.466-2.287-6.978-2.287h-88.136v-42.274H453.956z M122.504,224.602h-16.873l16.873-21.005V224.602z M507.479,417.673
	H92.521V248.142h137.796l62.711,46.148c4.15,3.046,9.804,3.052,13.954-0.005l62.699-46.144h137.797V417.673z"/>
</svg>
