<?xml version="1.0" encoding="utf-8"?>
<!-- Generator: Adobe Illustrator 15.0.0, SVG Export Plug-In . SVG Version: 6.00 Build 0)  -->
<!DOCTYPE svg PUBLIC "-//W3C//DTD SVG 1.1//EN" "http://www.w3.org/Graphics/SVG/1.1/DTD/svg11.dtd">
<svg version="1.1" id="Capa_1" xmlns="http://www.w3.org/2000/svg" xmlns:xlink="http://www.w3.org/1999/xlink" x="0px" y="0px"
	 width="600px" height="600px" viewBox="0 0 600 600" enable-background="new 0 0 600 600" xml:space="preserve">
<g>
	<path d="M314.094,293.916c0.852,0,1.709-0.11,2.551-0.337l63.845-17.107c3.403-0.91,6.06-3.566,6.97-6.97
		c0.912-3.4-0.061-7.031-2.551-9.52l-16.398-16.398l127.463-127.463c3.851-3.849,3.851-10.091,0-13.938
		c-3.846-3.851-10.093-3.851-13.938,0L354.571,229.646l-16.397-16.397c-2.491-2.493-6.118-3.468-9.521-2.552
		c-3.4,0.91-6.06,3.567-6.97,6.97l-17.109,63.842c-0.912,3.4,0.06,7.03,2.551,9.521
		C308.997,292.903,311.514,293.916,314.094,293.916z"/>
	<path d="M368.51,356.413l16.396-16.396c2.491-2.488,3.463-6.12,2.551-9.521c-0.909-3.4-3.566-6.06-6.97-6.969l-63.84-17.11
		c-3.388-0.914-7.026,0.056-9.52,2.551c-2.49,2.488-3.463,6.117-2.551,9.521l17.105,63.845c0.91,3.402,3.566,6.06,6.969,6.969
		c0.843,0.227,1.699,0.337,2.551,0.337c2.58,0,5.098-1.013,6.97-2.888l16.4-16.4l127.46,127.466c1.926,1.925,4.447,2.888,6.97,2.888
		s5.046-0.963,6.97-2.888c3.85-3.849,3.85-10.091,0-13.938L368.51,356.413z"/>
	<path d="M278.316,217.666c-0.91-3.402-3.569-6.06-6.969-6.97c-3.389-0.911-7.032,0.059-9.52,2.552l-16.398,16.397L117.966,102.183
		c-3.846-3.851-10.093-3.851-13.938,0c-3.851,3.848-3.851,10.09,0,13.938L231.49,243.584l-16.397,16.398
		c-2.491,2.488-3.463,6.119-2.551,9.52c0.91,3.403,3.566,6.06,6.969,6.97l63.845,17.107c0.842,0.227,1.699,0.337,2.551,0.337
		c2.58,0,5.097-1.016,6.969-2.888c2.491-2.49,3.463-6.12,2.551-9.521L278.316,217.666z"/>
	<path d="M283.353,306.418l-63.84,17.11c-3.403,0.909-6.06,3.568-6.969,6.969c-0.912,3.4,0.06,7.032,2.551,9.521l16.396,16.396
		L104.03,483.879c-3.85,3.848-3.85,10.09,0,13.938c1.925,1.925,4.447,2.888,6.969,2.888s5.046-0.963,6.969-2.888l127.46-127.466
		l16.4,16.4c1.873,1.875,4.39,2.888,6.969,2.888c0.852,0,1.708-0.11,2.551-0.337c3.402-0.909,6.06-3.566,6.969-6.969l17.105-63.845
		c0.912-3.403-0.06-7.032-2.551-9.521C290.382,306.479,286.746,305.506,283.353,306.418z"/>
</g>
</svg>
