<?xml version="1.0" encoding="utf-8"?>
<!-- Generator: Adobe Illustrator 15.0.0, SVG Export Plug-In . SVG Version: 6.00 Build 0)  -->
<!DOCTYPE svg PUBLIC "-//W3C//DTD SVG 1.1//EN" "http://www.w3.org/Graphics/SVG/1.1/DTD/svg11.dtd">
<svg version="1.1" id="Capa_1" xmlns="http://www.w3.org/2000/svg" xmlns:xlink="http://www.w3.org/1999/xlink" x="0px" y="0px"
	 width="600px" height="600px" viewBox="0 0 600 600" enable-background="new 0 0 600 600" xml:space="preserve">
<g>
	<path d="M410.705,492.375H82.428v-384.75h328.277c6.438,0,11.658-5.221,11.658-11.66c0-6.438-5.221-11.658-11.658-11.658H70.77
		c-6.439,0-11.66,5.221-11.66,11.658v408.068c0,6.439,5.221,11.66,11.66,11.66h339.936c6.438,0,11.658-5.221,11.658-11.66
		C422.363,497.596,417.143,492.375,410.705,492.375z"/>
	<path d="M537.475,284.584l-71.891-71.902c-4.555-4.555-11.932-4.555-16.486,0c-4.555,4.549-4.555,11.932,0,16.486l51.988,52
		H283.217c-6.438,0-11.658,5.221-11.658,11.658c0,6.439,5.221,11.66,11.658,11.66h217.869l-51.988,51.986
		c-4.555,4.555-4.555,11.934,0,16.488c2.277,2.275,5.26,3.414,8.244,3.414c2.982,0,5.965-1.139,8.242-3.414l71.891-71.891
		C542.029,296.516,542.029,289.137,537.475,284.584z"/>
</g>
</svg>
