<?xml version="1.0" encoding="utf-8"?>
<!-- Generator: Adobe Illustrator 15.0.0, SVG Export Plug-In . SVG Version: 6.00 Build 0)  -->
<!DOCTYPE svg PUBLIC "-//W3C//DTD SVG 1.1//EN" "http://www.w3.org/Graphics/SVG/1.1/DTD/svg11.dtd">
<svg version="1.1" id="Capa_1" xmlns="http://www.w3.org/2000/svg" xmlns:xlink="http://www.w3.org/1999/xlink" x="0px" y="0px"
	 width="600px" height="600px" viewBox="0 0 600 600" enable-background="new 0 0 600 600" xml:space="preserve">
<g>
	<path d="M296.605,293.346H181.045c-5.549,0-10.049,4.5-10.049,10.049v115.56c0,5.549,4.5,10.048,10.049,10.048h115.561
		c5.549,0,10.047-4.499,10.047-10.048v-115.56C306.652,297.846,302.154,293.346,296.605,293.346z M286.555,408.905h-95.461v-95.462
		h95.461V408.905z"/>
	<path d="M418.954,170.997H181.045c-5.549,0-10.049,4.499-10.049,10.048v93.312c0,5.55,4.5,10.05,10.049,10.05
		c5.55,0,10.049-4.5,10.049-10.05v-83.263h217.811v217.811H325.99c-5.55,0-10.05,4.5-10.05,10.05c0,5.549,4.5,10.048,10.05,10.048
		h92.964c5.55,0,10.05-4.499,10.05-10.048v-237.91C429.004,175.496,424.504,170.997,418.954,170.997z"/>
	<path d="M325.346,277.872c1.965,1.961,4.534,2.942,7.105,2.942c2.57,0,5.142-0.981,7.105-2.942l31.755-31.757v14.451
		c0,5.549,4.499,10.047,10.049,10.047c5.549,0,10.048-4.498,10.048-10.047v-36.516c0-0.365-0.068-0.713-0.107-1.068
		c0.329-2.933-0.588-5.979-2.837-8.229c-2.147-2.148-5.024-3.079-7.831-2.873c-0.234-0.017-0.461-0.072-0.697-0.072h-36.512
		c-5.551,0-10.051,4.5-10.051,10.05c0,5.549,4.5,10.049,10.051,10.049h13.678l-31.756,31.754
		C321.422,267.585,321.422,273.948,325.346,277.872z"/>
</g>
</svg>
