<?xml version="1.0" encoding="utf-8"?>
<!-- Generator: Adobe Illustrator 15.0.0, SVG Export Plug-In . SVG Version: 6.00 Build 0)  -->
<!DOCTYPE svg PUBLIC "-//W3C//DTD SVG 1.1//EN" "http://www.w3.org/Graphics/SVG/1.1/DTD/svg11.dtd">
<svg version="1.1" id="Capa_1" xmlns="http://www.w3.org/2000/svg" xmlns:xlink="http://www.w3.org/1999/xlink" x="0px" y="0px"
	 width="600px" height="600px" viewBox="0 0 600 600" enable-background="new 0 0 600 600" xml:space="preserve">
<path d="M475.933,397.238c-1.217-4.555-4.772-8.109-9.326-9.327c-4.541-1.218-9.407,0.077-12.741,3.413l-21.948,21.945
	L318.653,300.006l113.277-113.274l21.941,21.945c2.506,2.509,5.874,3.865,9.327,3.865c1.14,0,2.286-0.148,3.413-0.451
	c4.554-1.217,8.109-4.773,9.327-9.327l22.892-85.442c1.221-4.554-0.08-9.41-3.414-12.74c-3.333-3.336-8.196-4.635-12.74-3.414
	l-85.436,22.898c-4.554,1.217-8.109,4.776-9.326,9.327c-1.221,4.551,0.08,9.411,3.414,12.741l21.947,21.945L300,281.352
	L186.727,168.079l21.944-21.945c3.334-3.33,4.635-8.19,3.414-12.741c-1.217-4.551-4.772-8.109-9.327-9.327l-85.435-22.898
	c-4.538-1.224-9.41,0.078-12.74,3.414c-3.334,3.33-4.635,8.187-3.414,12.74l22.892,85.442c1.218,4.554,4.773,8.109,9.327,9.327
	c1.127,0.303,2.273,0.451,3.413,0.451c3.453,0,6.821-1.356,9.327-3.865l21.945-21.945l113.273,113.274L168.082,413.27
	l-21.947-21.945c-3.33-3.336-8.203-4.627-12.741-3.413c-4.554,1.218-8.109,4.772-9.326,9.327l-22.898,85.441
	c-1.221,4.551,0.08,9.406,3.414,12.74c2.505,2.509,5.874,3.864,9.326,3.864c1.141,0,2.287-0.147,3.414-0.45l85.444-22.898
	c4.555-1.218,8.109-4.776,9.327-9.327c1.221-4.554-0.08-9.41-3.414-12.74l-21.944-21.944L300,318.659l113.264,113.265
	l-21.944,21.944c-3.334,3.33-4.635,8.187-3.414,12.74c1.218,4.551,4.772,8.109,9.327,9.327l85.444,22.898
	c1.127,0.303,2.273,0.45,3.414,0.45c3.452,0,6.821-1.355,9.326-3.864c3.334-3.334,4.635-8.189,3.414-12.74L475.933,397.238z"/>
</svg>
