<?xml version="1.0" encoding="utf-8"?>
<!-- Generator: Adobe Illustrator 15.0.0, SVG Export Plug-In . SVG Version: 6.00 Build 0)  -->
<!DOCTYPE svg PUBLIC "-//W3C//DTD SVG 1.1//EN" "http://www.w3.org/Graphics/SVG/1.1/DTD/svg11.dtd">
<svg version="1.1" id="Capa_1" xmlns="http://www.w3.org/2000/svg" xmlns:xlink="http://www.w3.org/1999/xlink" x="0px" y="0px"
	 width="600px" height="600px" viewBox="0 0 600 600" enable-background="new 0 0 600 600" xml:space="preserve">
<path d="M459.279,232.205c-0.645-0.404-1.33-0.715-2.039-0.935c-0.149-0.07-0.295-0.146-0.45-0.208l-148.805-59.728v-67.468
	l35.591,35.591c1.557,1.559,3.602,2.338,5.644,2.338s4.086-0.779,5.644-2.338c3.118-3.118,3.118-8.169,0-11.287l-49.216-49.216
	c-3.118-3.118-8.169-3.118-11.287,0l-49.224,49.216c-3.118,3.113-3.118,8.169-0.002,11.287c3.118,3.117,8.171,3.117,11.288,0
	l35.6-35.592v67.994l-150.084,78.446c-0.135,0.07-0.259,0.152-0.388,0.229c-0.415,0.2-0.82,0.423-1.204,0.691
	c-2.321,1.627-3.703,4.283-3.703,7.117v200.18c0,3.658,2.288,6.922,5.725,8.17l154.665,56.166c0.15,0.054,0.303,0.097,0.455,0.143
	c0.065,0.02,0.128,0.042,0.193,0.061c0.333,0.093,0.67,0.161,1.009,0.214c0.083,0.013,0.165,0.022,0.248,0.033
	c0.354,0.043,0.708,0.073,1.062,0.073c0.393,0,0.785-0.036,1.175-0.089c0.117-0.017,0.231-0.039,0.348-0.06
	c0.287-0.052,0.57-0.117,0.853-0.197c0.113-0.032,0.226-0.061,0.337-0.097c0.365-0.121,0.727-0.258,1.078-0.429l0.038-0.019
	c0.002-0.001,0.004-0.002,0.006-0.002l154.621-74.923c2.998-1.451,4.901-4.49,4.901-7.82v-200.18
	C463.356,236.576,461.816,233.793,459.279,232.205z M291.308,502.285l-137.28-49.852V270.75l137.28,49.852V502.285z
	 M299.515,305.089l-132.676-48.184l125.184-65.43v61.543c0,4.408,3.573,7.982,7.981,7.982c4.407,0,7.981-3.574,7.981-7.982V190.07
	l125.192,50.251L299.515,305.089z M445.973,434.303L308.691,500.82V319.957l137.281-66.52V434.303z"/>
</svg>
