<?xml version="1.0" encoding="utf-8"?>
<!-- Generator: Adobe Illustrator 15.0.0, SVG Export Plug-In . SVG Version: 6.00 Build 0)  -->
<!DOCTYPE svg PUBLIC "-//W3C//DTD SVG 1.1//EN" "http://www.w3.org/Graphics/SVG/1.1/DTD/svg11.dtd">
<svg version="1.1" id="Capa_1" xmlns="http://www.w3.org/2000/svg" xmlns:xlink="http://www.w3.org/1999/xlink" x="0px" y="0px"
	 width="600px" height="600px" viewBox="0 0 600 600" enable-background="new 0 0 600 600" xml:space="preserve">
<g>
	<path fill="#222221" d="M516.994,290.877c-1.03-1.656-25.683-40.974-65.189-79.166c-34.989-33.826-89.729-74.148-151.805-74.148
		c-62.077,0-116.816,40.322-151.806,74.148c-39.609,38.293-64.156,77.511-65.182,79.161c-3.466,5.545-3.467,12.707-0.005,18.248
		c1.028,1.654,25.603,40.9,65.187,79.169c34.989,33.826,89.729,74.148,151.806,74.148c120.236,0,213.097-147.053,216.993-153.312
		C520.452,303.581,520.453,296.42,516.994,290.877z M480.386,301.736c-11.508,16.268-35.521,47.647-67.053,75.038
		C374.232,410.74,336.102,427.963,300,427.963c-36.103,0-74.232-17.223-113.332-51.188c-31.527-27.388-55.545-58.77-67.056-75.038
		l-1.226-1.732l1.226-1.732c11.506-16.268,35.519-47.647,67.056-75.046c39.101-33.967,77.23-51.189,113.332-51.189
		c36.101,0,74.232,17.223,113.333,51.189c31.542,27.403,55.55,58.78,67.053,75.046l1.226,1.732L480.386,301.736z"/>
	<path fill="#222221" d="M300,186.637c-62.509,0-113.364,50.856-113.364,113.367c0,62.509,50.855,113.363,113.364,113.363
		c62.508,0,113.364-50.854,113.364-113.363C413.363,237.493,362.508,186.637,300,186.637z M300,378.889
		c-43.5,0-78.891-35.387-78.891-78.885c0-43.502,35.391-78.893,78.891-78.893c43.5,0,78.889,35.391,78.889,78.893
		C378.889,343.502,343.499,378.889,300,378.889z"/>
	<path fill="#222221" d="M300,262.521c-20.664,0-37.475,16.814-37.475,37.482c0,20.662,16.811,37.473,37.475,37.473
		c20.665,0,37.476-16.811,37.476-37.473C337.476,279.336,320.664,262.521,300,262.521z"/>
</g>
</svg>
