<?xml version="1.0" encoding="utf-8"?>
<!-- Generator: Adobe Illustrator 15.0.0, SVG Export Plug-In . SVG Version: 6.00 Build 0)  -->
<!DOCTYPE svg PUBLIC "-//W3C//DTD SVG 1.1//EN" "http://www.w3.org/Graphics/SVG/1.1/DTD/svg11.dtd">
<svg version="1.1" id="Capa_1" xmlns="http://www.w3.org/2000/svg" xmlns:xlink="http://www.w3.org/1999/xlink" x="0px" y="0px"
	 width="600px" height="600px" viewBox="0 0 600 600" enable-background="new 0 0 600 600" xml:space="preserve">
<path d="M536.113,289.294L312.395,160.123c-3.828-2.212-8.541-2.212-12.371,0c-3.83,2.207-6.185,6.293-6.185,10.712V285.75
	L76.258,160.123c-3.829-2.212-8.541-2.212-12.371,0c-3.828,2.207-6.185,6.293-6.185,10.712v258.33c0,4.419,2.356,8.505,6.185,10.714
	c1.914,1.105,4.047,1.657,6.188,1.657c2.137,0,4.27-0.552,6.184-1.657l217.581-125.617v114.903c0,4.419,2.354,8.505,6.185,10.714
	c1.914,1.105,4.046,1.657,6.185,1.657s4.271-0.552,6.186-1.657L536.113,310.72c3.828-2.208,6.184-6.295,6.184-10.713
	C542.297,295.587,539.941,291.504,536.113,289.294z M82.444,407.739V192.264l186.605,107.743L82.444,407.739z M318.58,407.739
	V192.264l186.605,107.743L318.58,407.739z"/>
</svg>
