<?xml version="1.0" encoding="utf-8"?>
<!-- Generator: Adobe Illustrator 15.0.0, SVG Export Plug-In . SVG Version: 6.00 Build 0)  -->
<!DOCTYPE svg PUBLIC "-//W3C//DTD SVG 1.1//EN" "http://www.w3.org/Graphics/SVG/1.1/DTD/svg11.dtd">
<svg version="1.1" id="Capa_1" xmlns="http://www.w3.org/2000/svg" xmlns:xlink="http://www.w3.org/1999/xlink" x="0px" y="0px"
	 width="600px" height="600px" viewBox="0 0 600 600" enable-background="new 0 0 600 600" xml:space="preserve">
<path d="M402.674,167.05c-10.844-22.027-29.616-38.518-52.862-46.428c-9.6-3.266-19.567-4.926-29.624-4.926
	c-39.355,0-74.321,25.05-87.012,62.33c-15.117,44.43,5.878,92.526,47.153,112.377l-38.67,113.612l-40.183-13.676
	c-5.805-1.957-12.082,1.13-14.053,6.915c-1.968,5.79,1.128,12.084,6.915,14.052l40.184,13.677l-14.863,43.673
	c-1.968,5.791,1.127,12.085,6.915,14.053c1.185,0.4,2.388,0.595,3.568,0.595c4.609,0,8.916-2.903,10.484-7.51l14.863-43.674
	l40.188,13.677c1.184,0.4,2.387,0.59,3.568,0.59c4.612,0,8.916-2.898,10.483-7.505c1.969-5.791-1.127-12.085-6.915-14.053
	l-40.188-13.677l38.669-113.618c6.224,1.316,12.541,2.057,18.905,2.057c0.003,0,0,0,0.003,0c39.355,0,74.327-25.049,87.017-62.329
	C415.131,214.019,413.517,189.083,402.674,167.05z M386.253,230.125c-9.632,28.305-36.177,47.32-66.052,47.32
	c-7.624,0-15.193-1.26-22.489-3.747c-36.42-12.392-55.966-52.11-43.568-88.536c9.633-28.304,36.174-47.32,66.044-47.32
	c7.624,0,15.19,1.26,22.487,3.747c17.647,6.001,31.897,18.518,40.129,35.242C391.035,193.554,392.26,212.483,386.253,230.125z"/>
</svg>
