<?xml version="1.0" encoding="utf-8"?>
<!-- Generator: Adobe Illustrator 15.0.0, SVG Export Plug-In . SVG Version: 6.00 Build 0)  -->
<!DOCTYPE svg PUBLIC "-//W3C//DTD SVG 1.1//EN" "http://www.w3.org/Graphics/SVG/1.1/DTD/svg11.dtd">
<svg version="1.1" id="Capa_1" xmlns="http://www.w3.org/2000/svg" xmlns:xlink="http://www.w3.org/1999/xlink" x="0px" y="0px"
	 width="600px" height="600px" viewBox="0 0 600 600" enable-background="new 0 0 600 600" xml:space="preserve">
<path fill="#222221" d="M533.035,217.916c0-32.526-26.469-58.988-59.004-58.988h-85.344v-15.511
	c0-11.642-9.469-21.112-21.107-21.112H88.074c-11.64,0-21.109,9.471-21.109,21.112v275.291c0,32.525,26.468,58.988,59,58.988
	h348.067c32.535,0,59.004-26.463,59.004-58.988V217.916z M303.682,149.371h57.943v9.557h-57.943V149.371z M244.345,149.371h32.271
	v9.557h-32.271V149.371z M94.032,149.371h123.251v23.089c0,7.462,6.069,13.532,13.532,13.532h243.216
	c14.105,0,26.344,9.157,30.449,22.787l0.387,1.289H94.032V149.371z M505.973,418.707c0,17.604-14.328,31.924-31.941,31.924H125.964
	c-17.607,0-31.933-14.32-31.933-31.924V237.131h411.941V418.707z"/>
</svg>
