<?xml version="1.0" encoding="utf-8"?>
<!-- Generator: Adobe Illustrator 15.0.0, SVG Export Plug-In . SVG Version: 6.00 Build 0)  -->
<!DOCTYPE svg PUBLIC "-//W3C//DTD SVG 1.1//EN" "http://www.w3.org/Graphics/SVG/1.1/DTD/svg11.dtd">
<svg version="1.1" id="Capa_1" xmlns="http://www.w3.org/2000/svg" xmlns:xlink="http://www.w3.org/1999/xlink" x="0px" y="0px"
	 width="600px" height="600px" viewBox="0 0 600 600" enable-background="new 0 0 600 600" xml:space="preserve">
<g>
	<path d="M271.014,261.167v77.667c0,4.926,3.992,8.919,8.918,8.919h40.136c4.925,0,8.919-3.993,8.919-8.919v-77.667
		c0-4.925-3.994-8.919-8.919-8.919h-40.136C275.006,252.248,271.014,256.242,271.014,261.167z M288.851,270.086h22.298v20.996
		h-22.298V270.086z M288.851,308.92h22.298v20.995h-22.298V308.92z"/>
	<path d="M427.781,69.447H300.43h-0.859H172.219c-4.926,0-8.919,3.994-8.919,8.92v59.057c-0.001,4.515,2.953,10.288,4.981,13.766
		c16.522,28.323,70.877,108.353,70.877,108.353l0.262,212.515v49.576c0,4.926,3.994,8.92,8.919,8.92h0.062h51.17h0.859h51.17h0.061
		c4.926,0,8.92-3.994,8.92-8.92v-49.576l0.262-212.515c0,0,54.354-80.029,70.877-108.353c2.028-3.478,4.982-9.251,4.981-13.766
		V78.367C436.7,73.441,432.707,69.447,427.781,69.447z M342.742,473.624l-0.048,39.09H300.43h-0.859h-42.265l-0.048-39.09v-0.622
		h42.312h0.859h42.312V473.624z M344.458,252.004c-0.945,1.445-1.45,3.14-1.45,4.864l-0.244,198.295H300.43h-0.859h-42.334
		l-0.244-198.295c0-1.725-0.505-3.419-1.45-4.864l-66.845-102.338H299.57h0.859h110.873L344.458,252.004z M418.861,131.814H300.43
		h-0.859H181.139V87.286H299.57h0.859h118.432V131.814z"/>
</g>
</svg>
