<?xml version="1.0" encoding="utf-8"?>
<!-- Generator: Adobe Illustrator 15.0.0, SVG Export Plug-In . SVG Version: 6.00 Build 0)  -->
<!DOCTYPE svg PUBLIC "-//W3C//DTD SVG 1.1//EN" "http://www.w3.org/Graphics/SVG/1.1/DTD/svg11.dtd">
<svg version="1.1" id="Capa_1" xmlns="http://www.w3.org/2000/svg" xmlns:xlink="http://www.w3.org/1999/xlink" x="0px" y="0px"
	 width="600px" height="600px" viewBox="0 0 600 600" enable-background="new 0 0 600 600" xml:space="preserve">
<g>
	<path d="M429.101,121.638h-46.35H217.248h-46.352c-21.354,0-38.729,17.381-38.729,38.73v279.264
		c0,21.352,17.375,38.73,38.729,38.73h75.041h108.125h75.038c21.357,0,38.732-17.379,38.732-38.73V160.368
		C467.833,139.019,450.458,121.638,429.101,121.638z M373.067,141.003v121.922H226.932V141.003H373.067z M255.618,458.997v-93.592
		h88.761v93.592H255.618z M448.467,439.632c0,10.676-8.686,19.365-19.366,19.365h-65.356V355.722c0-5.352-4.334-9.682-9.682-9.682
		H245.938c-5.348,0-9.684,4.33-9.684,9.682v103.275h-65.357c-10.681,0-19.366-8.689-19.366-19.365V160.368
		c0-10.674,8.686-19.365,19.366-19.365h36.669v131.604c0,5.344,4.335,9.684,9.683,9.684h165.503c5.346,0,9.682-4.34,9.682-9.684
		V141.003h36.668c10.681,0,19.366,8.691,19.366,19.365V439.632z"/>
	<path d="M248.68,245.536H351.32c5.347,0,9.681-4.34,9.681-9.684c0-5.351-4.334-9.682-9.681-9.682H248.68
		c-5.348,0-9.684,4.331-9.684,9.682C238.996,241.196,243.332,245.536,248.68,245.536z"/>
	<path d="M248.68,211.647H351.32c5.347,0,9.681-4.34,9.681-9.684c0-5.352-4.334-9.682-9.681-9.682H248.68
		c-5.348,0-9.684,4.33-9.684,9.682C238.996,207.308,243.332,211.647,248.68,211.647z"/>
	<path d="M248.68,177.757H351.32c5.347,0,9.681-4.339,9.681-9.682c0-5.352-4.334-9.682-9.681-9.682H248.68
		c-5.348,0-9.684,4.33-9.684,9.682C238.996,173.418,243.332,177.757,248.68,177.757z"/>
	<path d="M325.417,375.079c-5.35,0-9.684,4.34-9.684,9.682V412.2c0,5.344,4.334,9.684,9.684,9.684c5.347,0,9.683-4.34,9.683-9.684
		v-27.439C335.1,379.419,330.764,375.079,325.417,375.079z"/>
</g>
</svg>
