<?xml version="1.0" encoding="utf-8"?>
<!-- Generator: Adobe Illustrator 15.0.0, SVG Export Plug-In . SVG Version: 6.00 Build 0)  -->
<!DOCTYPE svg PUBLIC "-//W3C//DTD SVG 1.1//EN" "http://www.w3.org/Graphics/SVG/1.1/DTD/svg11.dtd">
<svg version="1.1" id="Capa_1" xmlns="http://www.w3.org/2000/svg" xmlns:xlink="http://www.w3.org/1999/xlink" x="0px" y="0px"
	 width="600px" height="600px" viewBox="0 0 600 600" enable-background="new 0 0 600 600" xml:space="preserve">
<path d="M457.648,352.986c0-0.458-0.066-0.899-0.113-1.341V290.06c0-2.155-0.598-4.264-1.729-6.097l-41.322-66.75v-76.126
	c0.24-0.928,0.408-1.878,0.408-2.879v-28.144c0-1.001-0.168-1.951-0.408-2.879V79.762c0-6.397-5.189-11.583-11.582-11.583H197.588
	c-6.392,0-11.586,5.186-11.586,11.583v136.473l-41.918,67.729c-1.133,1.833-1.732,3.941-1.732,6.097v62.927
	c0,5.175,3.441,9.722,8.417,11.142c0.044,0.018,0.089,0.006,0.146,0.022l59.498,44.681l-5.973,4.315
	c-5.179,3.749-6.343,10.989-2.6,16.175c2.262,3.134,5.802,4.796,9.4,4.796c2.352,0,4.719-0.711,6.776-2.193l11.796-8.529
	l51.537,38.708l-65.076,48.871c-5.114,3.847-6.143,11.103-2.296,16.221c2.272,3.032,5.746,4.627,9.264,4.627
	c2.422,0,4.863-0.759,6.944-2.319l70.461-52.909l70.46,52.909c2.079,1.561,4.522,2.319,6.942,2.319c3.52,0,6.994-1.595,9.268-4.627
	c3.845-5.118,2.815-12.374-2.297-16.221l-65.078-48.871l50.971-38.278l11.098,8.076c2.059,1.499,4.443,2.217,6.811,2.217
	c3.572,0,7.102-1.65,9.365-4.768c3.766-5.175,2.625-12.42-2.547-16.181l-5.348-3.892l61.928-46.513
	C455.478,360.711,457.648,357.115,457.648,352.986z M175.938,341.402l28.164-46.383h192.342l28.719,46.383H175.938z
	 M391.317,126.625H209.578v-4.977h181.739V126.625z M391.317,149.791v70.72v51.343H209.17V149.791H391.317z M434.371,293.357v18.251
	l-19.887-32.735v-17.641L434.371,293.357z M391.317,91.345v7.137H209.17v-7.137H391.317z M165.518,293.357l19.885-32.125v18.907
	l-19.885,32.125V293.357z M190.064,364.568h81.602l-41.592,30.056L190.064,364.568z M300.646,447.618l-51.172-38.432l50.82-36.729
	l51.014,37.114L300.646,447.618z M328.822,364.568h82.414l-40.551,30.451L328.822,364.568z"/>
</svg>
