<?xml version="1.0" encoding="utf-8"?>
<!-- Generator: Adobe Illustrator 15.0.0, SVG Export Plug-In . SVG Version: 6.00 Build 0)  -->
<!DOCTYPE svg PUBLIC "-//W3C//DTD SVG 1.1//EN" "http://www.w3.org/Graphics/SVG/1.1/DTD/svg11.dtd">
<svg version="1.1" id="Capa_1" xmlns="http://www.w3.org/2000/svg" xmlns:xlink="http://www.w3.org/1999/xlink" x="0px" y="0px"
	 width="600px" height="600px" viewBox="0 0 600 600" enable-background="new 0 0 600 600" xml:space="preserve">
<g>
	<path d="M580.611,435.67l-37.247-183.318c-0.446-2.201-1.77-4.127-3.662-5.336c-1.896-1.205-4.196-1.586-6.385-1.072
		l-160.669,38.447l-46.052-11.019c16.577-31.364,34.579-69.958,34.579-89.692c0-37.687-30.662-68.351-68.351-68.351
		c-37.688,0-68.351,30.664-68.351,68.351c0,15.996,11.831,44.387,25.143,71.273c0,0-37.737-9.019-37.784-9.029
		c-0.243-0.057-1.458-0.316-1.825-0.314c-0.312,0.003-1.538,0.252-1.825,0.322c-0.03,0.006-162.688,38.92-162.688,38.92
		c-3.406,0.818-5.932,3.682-6.309,7.165L19.272,475.334c-0.288,2.639,0.707,5.252,2.673,7.035c1.539,1.393,3.526,2.145,5.563,2.145
		c0.565,0,1.136-0.057,1.7-0.18l183.652-38.527c0,0,162.128,38.863,162.711,38.863c0.507,0,198.526-39.223,198.526-39.223
		c2.165-0.43,4.068-1.699,5.29-3.535C580.608,440.078,581.05,437.828,580.611,435.67z M36.976,465.775L55.029,299.61l146.874-35.146
		l2.672,166.153L36.976,465.775z M241.044,183.68c0-28.551,23.229-51.779,51.78-51.779c28.553,0,51.781,23.229,51.781,51.779
		c0,22.203-32.696,83.389-51.781,116.408C273.739,267.073,241.044,205.89,241.044,183.68z M221.177,430.758l-2.673-166.212
		l41.083,9.83c12.192,22.998,23.501,41.925,26.145,46.306c1.499,2.484,4.19,4.006,7.093,4.006c2.904,0,5.596-1.521,7.095-4.006
		c2.076-3.445,9.518-15.893,18.525-32.224l46.025,11.016l2.674,166.212L221.177,430.758z M383.723,466.18l-2.684-166.759
		l147.795-35.365l33.88,166.751L383.723,466.18z"/>
	<path d="M309.605,231.793c1.496,1.172,3.303,1.764,5.113,1.764c0.028,0,0.055,0,0.082,0c4.575,0,8.286-3.709,8.286-8.285
		c0-1.197-0.255-2.338-0.713-3.366l-21.578-75.657c-1.015-3.556-4.264-6.012-7.966-6.012c-3.699,0-6.952,2.456-7.968,6.012
		l-21.897,76.75c-0.985,3.451,0.366,7.148,3.346,9.15c2.975,2.003,6.907,1.861,9.735-0.355l16.779-13.16L309.605,231.793z
		 M285.9,203.006l6.928-24.28l6.926,24.28l-1.814-1.424c-1.503-1.178-3.307-1.764-5.114-1.764c-1.805,0-3.609,0.586-5.113,1.764
		L285.9,203.006z"/>
</g>
</svg>
