<?xml version="1.0" encoding="utf-8"?>
<!-- Generator: Adobe Illustrator 15.0.0, SVG Export Plug-In . SVG Version: 6.00 Build 0)  -->
<!DOCTYPE svg PUBLIC "-//W3C//DTD SVG 1.1//EN" "http://www.w3.org/Graphics/SVG/1.1/DTD/svg11.dtd">
<svg version="1.1" id="Capa_1" xmlns="http://www.w3.org/2000/svg" xmlns:xlink="http://www.w3.org/1999/xlink" x="0px" y="0px"
	 width="600px" height="600px" viewBox="0 0 600 600" enable-background="new 0 0 600 600" xml:space="preserve">
<g>
	<path d="M302.881,254.39c-34.301,0-62.209,27.908-62.209,62.21c0,34.301,27.908,62.205,62.209,62.205
		c34.302,0,62.209-27.904,62.209-62.205C365.09,282.298,337.183,254.39,302.881,254.39z M302.881,362.051
		c-25.063,0-45.455-20.391-45.455-45.451c0-25.063,20.392-45.454,45.455-45.454c25.062,0,45.454,20.391,45.454,45.454
		C348.335,341.66,327.943,362.051,302.881,362.051z"/>
	<path d="M470.521,244.679c-11.412-25.709-30.804-30.787-44.961-34.495c-6.959-1.82-12.968-3.396-16.883-6.771
		c-5.266-4.54-10.145-15.927-14.445-25.971c-4.837-11.292-9.406-21.958-15.976-28.569c-17.392-17.491-42.028-27.523-67.595-27.523
		c-17.913,0-36.31,4.676-54.678,13.902c-39.425,19.799-46.625,45.618-51.883,64.47c-1.824,6.543-3.399,12.191-5.958,16.262
		c-3.392,5.397-9.973,8.122-18.306,11.57c-9.84,4.074-22.089,9.145-32.816,20.776c-31.565,34.224-39.059,81.709-20.562,130.279
		c10.236,26.869,28.552,44.062,59.391,55.75c14.131,5.355,27.814,6.311,41.047,7.234c7.67,0.533,14.915,1.039,22.241,2.35
		c8.574,1.535,20.438,7.082,33,12.955c21.803,10.195,46.514,21.752,71.112,21.752l0.507-0.002
		c38.804-0.254,73.842-21.568,98.659-60.014C485.672,367.117,493.117,295.584,470.521,244.679z M438.338,409.549
		c-21.649,33.537-51.728,52.127-84.691,52.344l-0.396,0.002c-20.874,0-43.794-10.717-64.015-20.172
		c-14.174-6.629-26.415-12.352-37.148-14.271c-8.212-1.469-16.25-2.029-24.024-2.572c-12.574-0.877-24.453-1.707-36.273-6.186
		c-26.323-9.979-41.178-23.748-49.672-46.049c-16.389-43.031-10.273-83.147,17.219-112.955c8.227-8.92,17.725-12.853,26.91-16.655
		c9.758-4.037,19.847-8.216,26.081-18.133c3.855-6.136,5.827-13.2,7.911-20.678c4.907-17.592,10.466-37.529,43.262-54
		c16.015-8.042,31.882-12.118,47.16-12.118c21.138,0,41.443,8.229,55.711,22.582c4.312,4.338,8.453,14.004,12.458,23.353
		c5.263,12.286,10.703,24.991,18.907,32.062c6.855,5.91,15.355,8.138,23.576,10.289c13.243,3.47,25.75,6.744,33.893,25.086
		C475.64,297.509,468.704,362.51,438.338,409.549z"/>
</g>
</svg>
