<?xml version="1.0" encoding="utf-8"?>
<!-- Generator: Adobe Illustrator 15.0.0, SVG Export Plug-In . SVG Version: 6.00 Build 0)  -->
<!DOCTYPE svg PUBLIC "-//W3C//DTD SVG 1.1//EN" "http://www.w3.org/Graphics/SVG/1.1/DTD/svg11.dtd">
<svg version="1.1" id="Capa_1" xmlns="http://www.w3.org/2000/svg" xmlns:xlink="http://www.w3.org/1999/xlink" x="0px" y="0px"
	 width="600px" height="600px" viewBox="0 0 600 600" enable-background="new 0 0 600 600" xml:space="preserve">
<g>
	<path d="M484.281,443.408h-23.033V239.223c13.442-6.108,22.818-19.652,22.818-35.353v-99.769c0-5.669-4.598-10.266-10.266-10.266
		H125.195c-5.67,0-10.266,4.597-10.266,10.266v99.769c0,15.7,9.375,29.243,22.816,35.352v204.187h-23.027
		c-5.668,0-10.266,4.596-10.266,10.266v42.225c0,5.67,4.598,10.266,10.266,10.266h369.562c5.668,0,10.266-4.596,10.266-10.266
		v-42.225C494.547,448.004,489.949,443.408,484.281,443.408z M426.963,114.367h36.572v89.503c0,10.083-8.201,18.286-18.287,18.286
		c-10.084,0-18.285-8.203-18.285-18.286V114.367z M368.662,114.367h36.572v89.503c0,10.083-8.201,18.286-18.287,18.286
		c-10.084,0-18.285-8.203-18.285-18.286V114.367z M310.361,114.367h36.572v89.503c0,10.083-8.201,18.286-18.285,18.286
		c-10.086,0-18.287-8.203-18.287-18.286V114.367z M252.062,114.367h36.57v89.503c0,10.083-8.201,18.286-18.285,18.286
		c-10.086,0-18.285-8.203-18.285-18.286V114.367z M193.762,114.367h36.57v89.503c0,10.083-8.199,18.286-18.285,18.286
		s-18.285-8.203-18.285-18.286V114.367z M135.461,114.367h36.57v89.503c0,10.083-8.199,18.286-18.285,18.286
		c-10.084,0-18.285-8.203-18.285-18.286V114.367z M158.277,242.419c9.769-1.142,18.439-5.917,24.617-12.942
		c7.123,8.096,17.549,13.211,29.152,13.211s22.029-5.115,29.152-13.211c7.117,8.096,17.545,13.211,29.148,13.211
		s22.029-5.115,29.152-13.211c7.117,8.096,17.543,13.211,29.148,13.211c11.604,0,22.029-5.115,29.152-13.211
		c7.117,8.096,17.543,13.211,29.146,13.211c11.605,0,22.031-5.115,29.154-13.211c6.177,7.025,14.848,11.801,24.615,12.942v200.989
		H158.277V242.419z M474.016,485.633H124.984v-21.693h23.027h302.971h23.033V485.633z"/>
	<path d="M411.023,272.467H187.973c-5.67,0-10.266,4.596-10.266,10.266v100.946c0,5.669,4.596,10.266,10.266,10.266h223.051
		c5.67,0,10.266-4.597,10.266-10.266V282.732C421.289,277.062,416.693,272.467,411.023,272.467z M198.238,292.998h33.293v80.415
		h-33.293V292.998z M400.758,373.413H252.062v-80.415h148.695V373.413z"/>
</g>
</svg>
