<?xml version="1.0" encoding="utf-8"?>
<!-- Generator: Adobe Illustrator 15.0.0, SVG Export Plug-In . SVG Version: 6.00 Build 0)  -->
<!DOCTYPE svg PUBLIC "-//W3C//DTD SVG 1.1//EN" "http://www.w3.org/Graphics/SVG/1.1/DTD/svg11.dtd">
<svg version="1.1" id="Capa_1" xmlns="http://www.w3.org/2000/svg" xmlns:xlink="http://www.w3.org/1999/xlink" x="0px" y="0px"
	 width="600px" height="600px" viewBox="0 0 600 600" enable-background="new 0 0 600 600" xml:space="preserve">
<g>
	<path d="M300,304.602c41.805,0,75.814-34.01,75.814-75.814c0-41.804-34.01-75.813-75.814-75.813
		c-41.804,0-75.813,34.01-75.813,75.813C224.187,270.592,258.196,304.602,300,304.602z M300,178.072
		c27.965,0,50.716,22.751,50.716,50.716c0,27.966-22.751,50.716-50.716,50.716c-27.965,0-50.716-22.75-50.716-50.716
		C249.284,200.823,272.035,178.072,300,178.072z"/>
	<path d="M300,265.907c20.469,0,37.119-16.651,37.119-37.12s-16.65-37.119-37.119-37.119s-37.12,16.651-37.12,37.119
		S279.531,265.907,300,265.907z"/>
	<path d="M520.156,216.239h-70.134C443.619,139.059,378.804,78.202,300,78.202s-143.619,60.857-150.021,138.037H79.844
		c-6.93,0-12.549,5.619-12.549,12.548c0,6.931,5.619,12.549,12.549,12.549h17.794c4.859,90.749,70.774,165.659,157.666,185.129
		c-29.396,15.935-49.402,47.063-49.402,82.783c0,6.931,5.619,12.549,12.549,12.549h163.098c6.93,0,12.549-5.618,12.549-12.549
		c0-35.72-20.006-66.849-49.401-82.783c86.892-19.47,152.807-94.38,157.665-185.129h17.795c6.93,0,12.549-5.619,12.549-12.549
		C532.705,221.858,527.086,216.239,520.156,216.239z M300,103.3c69.193,0,125.488,56.295,125.488,125.488
		c0,69.194-56.295,125.488-125.488,125.488s-125.488-56.294-125.488-125.488C174.512,159.595,230.807,103.3,300,103.3z
		 M367.857,496.7H232.143c5.919-32.077,34.096-56.451,67.857-56.451S361.938,464.623,367.857,496.7z M300,406.352
		c-94.254,0-171.557-73.086-177.2-165.015h27.179c6.402,77.18,71.218,138.036,150.021,138.036s143.619-60.856,150.022-138.036H477.2
		C471.557,333.266,394.254,406.352,300,406.352z"/>
</g>
</svg>
