<?xml version="1.0" encoding="utf-8"?>
<!-- Generator: Adobe Illustrator 15.0.0, SVG Export Plug-In . SVG Version: 6.00 Build 0)  -->
<!DOCTYPE svg PUBLIC "-//W3C//DTD SVG 1.1//EN" "http://www.w3.org/Graphics/SVG/1.1/DTD/svg11.dtd">
<svg version="1.1" id="Capa_1" xmlns="http://www.w3.org/2000/svg" xmlns:xlink="http://www.w3.org/1999/xlink" x="0px" y="0px"
	 width="600px" height="600px" viewBox="0 0 600 600" enable-background="new 0 0 600 600" xml:space="preserve">
<g>
	<path d="M428.966,237.071H309.879c4.507-32.38,32.362-57.394,65.964-57.394c5.096,0,9.225-4.13,9.225-9.225
		c0-5.094-4.129-9.225-9.225-9.225c-43.789,0-79.945,33.26-84.56,75.843H171.034c-55.611,0-100.852,45.241-100.852,100.851
		c0,55.609,45.24,100.851,100.852,100.851c42.141,0,80.068-26.769,94.553-65.897h68.826c14.486,39.129,52.412,65.897,94.553,65.897
		c55.611,0,100.852-45.241,100.852-100.851C529.817,282.312,484.577,237.071,428.966,237.071z M428.966,420.322
		c-36.34,0-68.842-24.367-79.041-59.26c-1.148-3.935-4.756-6.637-8.855-6.637h-82.139c-4.1,0-7.707,2.702-8.855,6.637
		c-10.197,34.893-42.701,59.26-79.041,59.26c-45.436,0-82.402-36.964-82.402-82.4c0-45.438,36.967-82.401,82.402-82.401h257.932
		c45.436,0,82.401,36.964,82.401,82.401C511.367,383.358,474.401,420.322,428.966,420.322z"/>
	<path d="M169.864,263.272c-41.16,0-74.648,33.487-74.648,74.65c0,41.162,33.488,74.649,74.648,74.649s74.65-33.487,74.65-74.649
		C244.515,296.759,211.024,263.272,169.864,263.272z M169.864,394.121c-30.99,0-56.199-25.21-56.199-56.199
		c0-30.99,25.209-56.2,56.199-56.2s56.199,25.21,56.199,56.2C226.063,368.911,200.854,394.121,169.864,394.121z"/>
	<path d="M200.228,323.039h-15.477v-15.48c0-2.548-2.062-4.613-4.613-4.613h-20.547c-2.551,0-4.613,2.065-4.613,4.613v15.48h-15.477
		c-2.549,0-4.613,2.065-4.613,4.613V348.2c0,2.548,2.064,4.612,4.613,4.612h15.477v15.477c0,2.547,2.062,4.613,4.613,4.613h20.547
		c2.551,0,4.613-2.066,4.613-4.613v-15.477h15.477c2.549,0,4.613-2.064,4.613-4.612v-20.548
		C204.841,325.104,202.776,323.039,200.228,323.039z"/>
	<path d="M430.136,263.272c-41.16,0-74.65,33.487-74.65,74.65c0,41.162,33.49,74.649,74.65,74.649s74.647-33.487,74.647-74.649
		C504.783,296.759,471.296,263.272,430.136,263.272z M430.136,394.121c-30.99,0-56.201-25.21-56.201-56.199
		c0-30.99,25.211-56.2,56.201-56.2c30.988,0,56.199,25.21,56.199,56.2C486.335,368.911,461.124,394.121,430.136,394.121z"/>
	<circle cx="430.136" cy="303.82" r="15.531"/>
	<path d="M464.241,322.396c-8.58,0-15.535,6.954-15.535,15.526c0,8.576,6.955,15.53,15.535,15.53c8.576,0,15.531-6.954,15.531-15.53
		C479.772,329.35,472.817,322.396,464.241,322.396z"/>
	<path d="M430.136,356.492c-8.572,0-15.531,6.955-15.531,15.535c0,8.581,6.959,15.531,15.531,15.531
		c8.58,0,15.529-6.95,15.529-15.531C445.665,363.447,438.716,356.492,430.136,356.492z"/>
	<path d="M396.034,322.396c-8.576,0-15.537,6.954-15.537,15.526c0,8.58,6.961,15.53,15.537,15.53c8.58,0,15.529-6.95,15.529-15.53
		C411.563,329.35,404.614,322.396,396.034,322.396z"/>
	<path d="M285.042,325.305h-23.125c-3.486,0-6.311,2.824-6.311,6.311s2.824,6.311,6.311,6.311h23.125
		c3.486,0,6.311-2.824,6.311-6.311S288.528,325.305,285.042,325.305z"/>
	<path d="M338.083,325.305h-23.125c-3.486,0-6.311,2.824-6.311,6.311s2.824,6.311,6.311,6.311h23.125
		c3.486,0,6.311-2.824,6.311-6.311S341.569,325.305,338.083,325.305z"/>
</g>
</svg>
