<?xml version="1.0" encoding="utf-8"?>
<!-- Generator: Adobe Illustrator 15.0.0, SVG Export Plug-In . SVG Version: 6.00 Build 0)  -->
<!DOCTYPE svg PUBLIC "-//W3C//DTD SVG 1.1//EN" "http://www.w3.org/Graphics/SVG/1.1/DTD/svg11.dtd">
<svg version="1.1" id="Capa_1" xmlns="http://www.w3.org/2000/svg" xmlns:xlink="http://www.w3.org/1999/xlink" x="0px" y="0px"
	 width="600px" height="600px" viewBox="0 0 600 600" enable-background="new 0 0 600 600" xml:space="preserve">
<g>
	<path d="M394.282,317.398c-6.061-15.481-11.292-28.851-9.45-60.554c2.763-47.456,30.771-96.711,31.056-97.202
		c1.64-2.857,1.636-6.373-0.014-9.225c-1.651-2.851-4.695-4.608-7.989-4.608H274.992l-19.307-71.328
		c-1.331-4.921-6.398-7.831-11.323-6.499c-4.922,1.332-7.831,6.402-6.499,11.321l18.001,66.505h-63.748
		c-3.138,0-6.059,1.593-7.758,4.228c-1.701,2.636-1.945,5.953-0.651,8.812c9.057,19.994,32.796,76.319,33.852,96.541
		c0.726,13.958-6.547,37.855-12.966,58.937c-4.335,14.247-8.432,27.706-10.1,37.988c-3.894,24.016,3.276,48.186,20.183,68.056
		c18.531,21.777,47.042,36.054,76.091,38.596v54.912H240.82c-5.097,0-9.23,4.133-9.23,9.23c0,5.099,4.133,9.23,9.23,9.23h118.362
		c5.097,0,9.23-4.132,9.23-9.23c0-5.098-4.134-9.23-9.23-9.23h-49.953v-54.943c29.438-2.75,58.21-18.371,76.763-42.221
		c17.289-22.219,23.223-48.603,16.71-74.284C400.167,332.43,397.176,324.788,394.282,317.398z M392.705,164.271
		c-9.206,19.074-24.188,55.143-26.302,91.501c-1.921,33.057,3.241,49.091,9.223,64.586h-53.387l-42.25-156.087H392.705z
		 M206.268,164.271h54.596l42.25,156.087h-81.057c0.069-0.219,0.132-0.435,0.199-0.654c7.195-23.635,14.634-48.078,13.737-65.273
		C234.887,233.182,216.187,187.287,206.268,164.271z M371.422,405.381c-16.815,21.608-44.85,35.574-71.423,35.574
		c-26.872,0-54.179-12.471-71.262-32.549c-13.344-15.68-19.034-34.553-16.021-53.137c0.75-4.619,2.144-10.244,3.875-16.451h165.848
		c0.827,2.578,1.633,5.245,2.371,8.152C389.891,367.01,385.136,387.753,371.422,405.381z"/>
</g>
</svg>
