<?xml version="1.0" encoding="utf-8"?>
<!-- Generator: Adobe Illustrator 15.0.0, SVG Export Plug-In . SVG Version: 6.00 Build 0)  -->
<!DOCTYPE svg PUBLIC "-//W3C//DTD SVG 1.1//EN" "http://www.w3.org/Graphics/SVG/1.1/DTD/svg11.dtd">
<svg version="1.1" id="Capa_1" xmlns="http://www.w3.org/2000/svg" xmlns:xlink="http://www.w3.org/1999/xlink" x="0px" y="0px"
	 width="600px" height="600px" viewBox="0 0 600 600" enable-background="new 0 0 600 600" xml:space="preserve">
<g>
	<path fill="#222221" d="M300,101.101c-84.73,0-153.66,68.934-153.66,153.666v220.448c0,4.026,0.188,8.242,0.578,12.884
		c0.516,6.154,5.66,10.801,11.719,10.801c0.219,0,0.426-0.011,0.645-0.022c3.809,0.161,7.629-1.524,10.031-4.843l37.57-51.73
		l37.559,51.736c0.102,0.144,0.242,0.247,0.355,0.385c0.348,0.438,0.727,0.846,1.152,1.236c0.25,0.242,0.504,0.489,0.781,0.708
		c0.113,0.086,0.207,0.189,0.32,0.276c0.312,0.229,0.656,0.385,0.992,0.58c0.297,0.173,0.574,0.368,0.883,0.513
		c0.68,0.321,1.371,0.563,2.07,0.747c0.117,0.029,0.219,0.081,0.324,0.104c0.805,0.19,1.621,0.271,2.438,0.288
		c0.07,0,0.152,0.022,0.219,0.022c0.141,0,0.277-0.058,0.426-0.062c0.91-0.035,1.816-0.179,2.691-0.42
		c0.219-0.058,0.438-0.093,0.645-0.167c1.012-0.34,1.957-0.834,2.852-1.443c0.094-0.069,0.207-0.087,0.301-0.155
		c0.184-0.133,0.32-0.306,0.496-0.443c0.297-0.241,0.586-0.489,0.852-0.759c0.32-0.322,0.609-0.65,0.883-0.995
		c0.129-0.149,0.266-0.265,0.383-0.42l37.555-51.73l37.57,51.736c0.105,0.149,0.254,0.253,0.367,0.396
		c0.336,0.426,0.715,0.828,1.129,1.214c0.266,0.247,0.527,0.5,0.805,0.719c0.117,0.086,0.195,0.195,0.312,0.276
		c0.309,0.224,0.656,0.379,0.977,0.569c0.301,0.178,0.586,0.379,0.898,0.523c0.676,0.321,1.367,0.563,2.07,0.747
		c0.113,0.029,0.207,0.081,0.32,0.104c0.805,0.19,1.621,0.271,2.438,0.288c0.07,0,0.152,0.022,0.219,0.022
		c0.141,0,0.277-0.058,0.426-0.062c0.91-0.035,1.809-0.179,2.691-0.42c0.219-0.058,0.438-0.093,0.645-0.167
		c1.016-0.34,1.957-0.834,2.855-1.443c0.09-0.069,0.207-0.087,0.297-0.155c0.184-0.133,0.324-0.3,0.496-0.443
		c0.297-0.241,0.586-0.495,0.863-0.765c0.309-0.311,0.598-0.639,0.863-0.973c0.125-0.155,0.273-0.275,0.391-0.437l37.578-51.765
		l36.641,50.206c2.91,3.997,8.004,5.739,12.758,4.383c4.738-1.357,8.145-5.527,8.512-10.457c0.242-3.284,0.48-7.184,0.48-11.187
		V254.767C453.66,170.034,384.734,101.101,300,101.101z M430.102,450.04l-25.34-34.729c-2.219-3.043-5.75-4.837-9.512-4.837
		c-0.012,0-0.012,0-0.012,0c-3.773,0.006-7.305,1.812-9.527,4.86l-37.559,51.735l-37.555-51.735c-2.223-3.055-5.766-4.86-9.539-4.86
		s-7.316,1.806-9.523,4.86l-37.57,51.735l-37.547-51.735c-2.219-3.055-5.762-4.86-9.535-4.86s-7.316,1.806-9.535,4.86
		l-27.449,37.811V254.767c0-71.739,58.371-130.107,130.102-130.107c71.746,0,130.102,58.368,130.102,130.107V450.04z"/>
	<path fill="#222221" d="M234.836,216.853c-18.855,0-34.199,15.339-34.199,34.198c0,18.86,15.344,34.199,34.199,34.199
		s34.199-15.339,34.199-34.199C269.035,232.191,253.691,216.853,234.836,216.853z M234.836,261.691
		c-5.867,0-10.641-4.773-10.641-10.641c0-5.866,4.773-10.64,10.641-10.64s10.641,4.773,10.641,10.64
		C245.477,256.918,240.703,261.691,234.836,261.691z"/>
	<path fill="#222221" d="M367.297,216.853c-18.855,0-34.199,15.339-34.199,34.198c0,18.86,15.344,34.199,34.199,34.199
		c18.852,0,34.199-15.339,34.199-34.199C401.496,232.191,386.148,216.853,367.297,216.853z M367.297,261.691
		c-5.867,0-10.641-4.773-10.641-10.641c0-5.866,4.773-10.64,10.641-10.64s10.641,4.773,10.641,10.64
		C377.938,256.918,373.164,261.691,367.297,261.691z"/>
</g>
</svg>
