<?xml version="1.0" encoding="utf-8"?>
<!-- Generator: Adobe Illustrator 15.0.0, SVG Export Plug-In . SVG Version: 6.00 Build 0)  -->
<!DOCTYPE svg PUBLIC "-//W3C//DTD SVG 1.1//EN" "http://www.w3.org/Graphics/SVG/1.1/DTD/svg11.dtd">
<svg version="1.1" id="Capa_1" xmlns="http://www.w3.org/2000/svg" xmlns:xlink="http://www.w3.org/1999/xlink" x="0px" y="0px"
	 width="600px" height="600px" viewBox="0 0 600 600" enable-background="new 0 0 600 600" xml:space="preserve">
<g>
	<path d="M185.224,450.833c-8.396-3.051-17.674,1.28-20.73,9.675c-3.052,8.395,1.279,17.672,9.675,20.729
		c8.394,3.052,17.671-1.279,20.723-9.674C197.948,463.168,193.618,453.891,185.224,450.833z"/>
	<path d="M482.206,137.494l-36.346-13.217c-6.304-2.293-13.261,0.965-15.553,7.257l-3.342,9.189l-60.05-21.837l3.929-10.8
		c2.287-6.297-0.964-13.259-7.263-15.551L278.68,61.656c-1.506-0.539-3.11-0.823-4.711-0.71l-114.914,5.361
		c-5.783,0.272-10.564,4.579-11.434,10.296c-0.872,5.717,2.416,11.25,7.851,13.229l88.367,32.127l-23.414,64.386
		c-2.287,6.298,0.967,13.264,7.263,15.551l9.526,3.465l-14.561,40.049c-21.524,3.413-40.092,18.365-47.657,39.177L113.49,453.736
		c-5.538,15.22-4.811,31.701,2.039,46.381c6.854,14.682,19.011,25.818,34.243,31.358l10.824,3.939
		c7.013,2.548,14.317,3.78,21.725,3.655c24.971-0.408,47.484-16.464,56.019-39.936l61.514-169.141
		c7.802-21.464,2.672-44.522-11.362-60.642l14.561-40.042l9.538,3.465c1.435,0.521,2.903,0.759,4.343,0.735
		c4.882-0.083,9.438-3.134,11.205-7.992l15.515-42.662l60.051,21.837l-2.507,6.902c-1.104,3.027-0.955,6.362,0.407,9.277
		c1.356,2.915,3.821,5.172,6.849,6.274l36.346,13.217c1.435,0.522,2.903,0.759,4.343,0.735c4.882-0.083,9.438-3.134,11.209-7.992
		l29.112-80.062C491.749,146.748,488.502,139.787,482.206,137.494z M277.045,321.694L215.539,490.84
		c-5.124,14.088-18.633,23.722-33.622,23.971c-4.426,0.07-8.815-0.67-13.026-2.204l-10.824-3.94
		c-9.142-3.316-16.434-10-20.545-18.809c-4.111-8.811-4.55-18.691-1.221-27.833l61.499-169.135
		c5.125-14.094,18.639-23.727,33.623-23.976c4.423-0.071,8.808,0.67,13.026,2.204l10.87,3.952
		C274.154,281.947,283.9,302.854,277.045,321.694z M268.27,253.955l-4.687-1.706c-0.005,0-0.01-0.006-0.018-0.006l-3.648-1.327
		l-11.879-4.319l11.979-32.939l20.231,7.358L268.27,253.955z M340.542,155.907c-6.299-2.293-13.26,0.96-15.552,7.258l-15.511,42.655
		l-9.497-3.454c-0.01-0.006-0.022-0.012-0.042-0.018l-43.034-15.646c-0.012-0.006-0.029-0.006-0.041-0.012l-9.484-3.448
		l23.414-64.386c1.096-3.027,0.952-6.363-0.409-9.278c-1.364-2.92-3.829-5.178-6.85-6.274l-42.851-15.581l51.987-2.429
		l71.215,25.901l-3.926,10.8c-2.287,6.297,0.959,13.259,7.256,15.551l71.454,25.978l-4.567,12.566l-2.109,5.8L340.542,155.907z
		 M441.688,213.415l-13.542-4.923l2.511-6.908l0,0l14.973-41.162c0-0.006,0-0.012,0-0.018l3.342-9.178l13.535,4.923L441.688,213.415
		z"/>
</g>
</svg>
