<?xml version="1.0" encoding="utf-8"?>
<!-- Generator: Adobe Illustrator 15.0.0, SVG Export Plug-In . SVG Version: 6.00 Build 0)  -->
<!DOCTYPE svg PUBLIC "-//W3C//DTD SVG 1.1//EN" "http://www.w3.org/Graphics/SVG/1.1/DTD/svg11.dtd">
<svg version="1.1" id="Capa_1" xmlns="http://www.w3.org/2000/svg" xmlns:xlink="http://www.w3.org/1999/xlink" x="0px" y="0px"
	 width="600px" height="600px" viewBox="0 0 600 600" enable-background="new 0 0 600 600" xml:space="preserve">
<path fill="#222221" d="M474.61,281.62c-2.102-5.608-7.283-9.472-13.258-9.875l-59.998-4.097l-76.035-76.034
	c-17.299-17.309-40.306-26.83-64.778-26.83c-20.297,0-39.537,6.639-55.408,18.755l-54.647-54.647
	c-5.966-5.965-15.628-5.965-21.593,0c-5.969,5.965-5.969,15.628,0,21.592l54.652,54.658c-27.306,35.893-24.678,87.432,8.074,120.181
	l76.035,76.029l4.098,60.004c0.402,5.969,4.266,11.154,9.873,13.256c1.744,0.65,3.557,0.971,5.361,0.971
	c3.973,0,7.881-1.561,10.797-4.477l49.348-49.348c9.192,5.893,19.721,8.863,30.264,8.863c14.378,0,28.742-5.467,39.684-16.406
	c18.969-18.971,21.465-48.244,7.543-69.955l46.486-46.482C475.343,293.543,476.716,287.227,474.61,281.62z M395.485,392.621
	c-6.889,6.891-16.74,8.904-25.488,6.264l31.765-31.756C404.39,375.873,402.376,385.732,395.485,392.621z M299.932,425.764
	l-2.202-32.203c-0.243-3.676-1.827-7.141-4.436-9.75l-80.081-80.082c-23.812-23.817-23.812-62.566,0.009-86.398l2.015-2.019
	c0.014-0.009,0.027-0.019,0.041-0.032c0.018-0.014,0.022-0.027,0.031-0.045l2.027-2.02c11.545-11.545,26.881-17.889,43.205-17.889
	c16.314,0,31.649,6.344,43.186,17.88l80.08,80.081c2.609,2.609,6.08,4.193,9.756,4.436l32.207,2.201L299.932,425.764z"/>
</svg>
