<?xml version="1.0" encoding="utf-8"?>
<!-- Generator: Adobe Illustrator 15.0.0, SVG Export Plug-In . SVG Version: 6.00 Build 0)  -->
<!DOCTYPE svg PUBLIC "-//W3C//DTD SVG 1.1//EN" "http://www.w3.org/Graphics/SVG/1.1/DTD/svg11.dtd">
<svg version="1.1" id="Capa_1" xmlns="http://www.w3.org/2000/svg" xmlns:xlink="http://www.w3.org/1999/xlink" x="0px" y="0px"
	 width="600px" height="600px" viewBox="0 0 600 600" enable-background="new 0 0 600 600" xml:space="preserve">
<g>
	<path fill="#222221" d="M300.004,103.933c-108.115,0-196.068,87.953-196.068,196.068s87.953,196.066,196.068,196.066
		c108.107,0,196.061-87.951,196.061-196.066S408.111,103.933,300.004,103.933z M300.004,469.255
		c-93.328,0-169.256-75.928-169.256-169.254c0-93.328,75.928-169.256,169.256-169.256c93.326,0,169.248,75.928,169.248,169.256
		C469.252,393.327,393.33,469.255,300.004,469.255z"/>
	<path fill="#222221" d="M439.52,286.595H160.488c-7.404,0-13.406,6.002-13.406,13.406c0,84.32,68.596,152.922,152.922,152.922
		c84.32,0,152.922-68.602,152.922-152.922C452.926,292.597,446.918,286.595,439.52,286.595z M300.004,426.11
		c-65.01,0-118.688-49.449-125.402-112.703h250.805C418.691,376.661,365.014,426.11,300.004,426.11z"/>
	<path fill="#222221" d="M227.775,257.89c21.51,0,39.008-17.498,39.008-39.008s-17.498-39.008-39.008-39.008
		c-21.504,0-39.002,17.498-39.002,39.008S206.271,257.89,227.775,257.89z M227.775,206.687c6.723,0,12.195,5.473,12.195,12.195
		s-5.473,12.195-12.195,12.195s-12.189-5.473-12.189-12.195S221.053,206.687,227.775,206.687z"/>
	<path fill="#222221" d="M372.227,257.89c21.51,0,39.008-17.498,39.008-39.008s-17.498-39.008-39.008-39.008
		c-21.504,0-39.002,17.498-39.002,39.008S350.723,257.89,372.227,257.89z M372.227,206.687c6.723,0,12.195,5.473,12.195,12.195
		s-5.473,12.195-12.195,12.195s-12.189-5.473-12.189-12.195S365.504,206.687,372.227,206.687z"/>
</g>
</svg>
