<?xml version="1.0" encoding="utf-8"?>
<!-- Generator: Adobe Illustrator 15.0.0, SVG Export Plug-In . SVG Version: 6.00 Build 0)  -->
<!DOCTYPE svg PUBLIC "-//W3C//DTD SVG 1.1//EN" "http://www.w3.org/Graphics/SVG/1.1/DTD/svg11.dtd">
<svg version="1.1" id="Capa_1" xmlns="http://www.w3.org/2000/svg" xmlns:xlink="http://www.w3.org/1999/xlink" x="0px" y="0px"
	 width="600px" height="600px" viewBox="0 0 600 600" enable-background="new 0 0 600 600" xml:space="preserve">
<path fill="#222221" d="M480.184,302.426c-3.109-96.73-82.715-174.475-180.189-174.475s-177.083,77.744-180.189,174.487
	c-24.65,16.679-40.893,44.909-40.893,76.865c0,51.138,41.607,92.745,92.749,92.745c6.212,0,11.248-5.029,11.248-11.244V297.793
	c0-6.204-5.036-11.244-11.248-11.244c-9.972,0-19.556,1.625-28.559,4.543c8.592-78.971,75.668-140.652,156.892-140.652
	c81.227,0,148.3,61.682,156.891,140.652c-9.002-2.918-18.586-4.543-28.551-4.543c-6.209,0-11.244,5.04-11.244,11.244v163.012
	c0,6.215,5.035,11.244,11.244,11.244c51.146,0,92.754-41.607,92.754-92.745C521.088,347.348,504.838,319.117,480.184,302.426z
	 M160.416,448.66c-33.418-5.391-59.016-34.45-59.016-69.356c0-34.92,25.598-63.964,59.016-69.366V448.66z M439.579,448.66V309.938
	c33.415,5.402,59.017,34.446,59.017,69.366C498.596,414.21,472.994,443.27,439.579,448.66z"/>
</svg>
