<?xml version="1.0" encoding="utf-8"?>
<!-- Generator: Adobe Illustrator 15.0.0, SVG Export Plug-In . SVG Version: 6.00 Build 0)  -->
<!DOCTYPE svg PUBLIC "-//W3C//DTD SVG 1.1//EN" "http://www.w3.org/Graphics/SVG/1.1/DTD/svg11.dtd">
<svg version="1.1" id="Capa_1" xmlns="http://www.w3.org/2000/svg" xmlns:xlink="http://www.w3.org/1999/xlink" x="0px" y="0px"
	 width="600px" height="600px" viewBox="0 0 600 600" enable-background="new 0 0 600 600" xml:space="preserve">
<path fill="#222221" d="M458.682,165.044c-19.883-19.884-46.316-30.826-74.435-30.826c-28.124,0-54.559,10.942-74.449,30.826
	l-9.798,9.8l-9.798-9.8c-19.884-19.884-46.325-30.826-74.443-30.826c-28.117,0-54.56,10.942-74.442,30.826
	c-41.049,41.053-41.049,107.848,0,148.884l147.09,147.092c2.405,2.414,5.399,3.891,8.527,4.46c1.049,0.207,2.104,0.303,3.161,0.303
	c4.161,0,8.329-1.587,11.498-4.763l147.09-147.092C499.733,272.892,499.733,206.097,458.682,165.044z M435.686,290.934L300,426.621
	L164.312,290.934c-28.368-28.364-28.368-74.514,0-102.893c13.741-13.739,32.017-21.296,51.446-21.296
	c19.431,0,37.702,7.557,51.438,21.296l21.305,21.312c6.107,6.098,16.898,6.098,23.003,0l21.297-21.312
	c13.737-13.739,32.009-21.296,51.446-21.296c19.431,0,37.701,7.557,51.438,21.296C464.057,216.42,464.057,262.569,435.686,290.934z"
	/>
</svg>
