<?xml version="1.0" encoding="utf-8"?>
<!-- Generator: Adobe Illustrator 15.0.0, SVG Export Plug-In . SVG Version: 6.00 Build 0)  -->
<!DOCTYPE svg PUBLIC "-//W3C//DTD SVG 1.1//EN" "http://www.w3.org/Graphics/SVG/1.1/DTD/svg11.dtd">
<svg version="1.1" id="Capa_1" xmlns="http://www.w3.org/2000/svg" xmlns:xlink="http://www.w3.org/1999/xlink" x="0px" y="0px"
	 width="600px" height="600px" viewBox="0 0 600 600" enable-background="new 0 0 600 600" xml:space="preserve">
<g>
	<path d="M298.723,172.4c-3.753-2.522-8.52-2.999-12.69-1.291l-138.468,56.664H63.521c-7.487,0-13.557,6.071-13.557,13.557v117.332
		c0,7.486,6.07,13.559,13.557,13.559h84.043l138.468,56.67c1.648,0.674,3.396,1.006,5.13,1.006c2.654,0,5.289-0.775,7.56-2.297
		c3.746-2.523,5.997-6.738,5.997-11.26V183.654C304.72,179.139,302.469,174.916,298.723,172.4z M77.079,254.887h59.596v90.218
		H77.079V254.887z M277.606,396.143l-113.817-46.574v-99.136l113.817-46.583V396.143z"/>
	<path d="M377.496,194.027c-5.29-5.295-13.882-5.295-19.171,0c-5.296,5.289-5.296,13.875,0,19.17
		c47.866,47.86,47.866,125.741,0,173.606c-5.296,5.289-5.296,13.875,0,19.17c2.647,2.648,6.116,3.973,9.585,3.973
		s6.944-1.324,9.586-3.973C435.934,347.535,435.934,252.458,377.496,194.027z"/>
	<path d="M425.25,146.287c-5.29-5.296-13.883-5.296-19.171,0c-5.296,5.289-5.296,13.875,0,19.17
		c74.186,74.186,74.186,194.9,0,269.086c-5.296,5.297-5.296,13.883,0,19.17c2.647,2.648,6.116,3.973,9.585,3.973
		s6.944-1.324,9.586-3.973C510.006,368.957,510.006,231.044,425.25,146.287z"/>
	<path d="M468.455,103.074c-5.295-5.295-13.881-5.295-19.17,0c-5.295,5.289-5.295,13.875,0,19.17
		C496.768,169.72,522.921,232.851,522.921,300c0,67.149-26.153,130.274-73.636,177.756c-5.295,5.295-5.295,13.881,0,19.17
		c2.647,2.648,6.116,3.973,9.586,3.973c3.468,0,6.943-1.324,9.584-3.973c52.605-52.6,81.58-122.535,81.58-196.926
		C550.035,225.609,521.061,155.673,468.455,103.074z"/>
</g>
</svg>
