<?xml version="1.0" encoding="utf-8"?>
<!-- Generator: Adobe Illustrator 15.0.0, SVG Export Plug-In . SVG Version: 6.00 Build 0)  -->
<!DOCTYPE svg PUBLIC "-//W3C//DTD SVG 1.1//EN" "http://www.w3.org/Graphics/SVG/1.1/DTD/svg11.dtd">
<svg version="1.1" id="Capa_1" xmlns="http://www.w3.org/2000/svg" xmlns:xlink="http://www.w3.org/1999/xlink" x="0px" y="0px"
	 width="600px" height="600px" viewBox="0 0 600 600" enable-background="new 0 0 600 600" xml:space="preserve">
<g>
	<path d="M243.145,220.076v77.816c0,6.593,5.346,11.938,11.939,11.938h89.831c6.594,0,11.939-5.346,11.939-11.938v-77.816
		c0-6.594-5.346-11.938-11.939-11.938h-89.831C248.491,208.138,243.145,213.482,243.145,220.076z M332.978,285.954h-21.039v-53.939
		h21.039V285.954z M267.022,232.015h21.039v53.939h-21.039V232.015z"/>
	<path d="M530.466,266.805L319.343,96.262l-11.717-9.729c-4.42-3.673-10.833-3.673-15.25,0L176.27,182.951L69.487,270.069
		c-5.105,4.168-5.869,11.688-1.701,16.797c2.361,2.895,5.793,4.393,9.256,4.393c2.652,0,5.322-0.88,7.545-2.688l36.111-29.462
		v245.174c0,6.593,5.346,11.938,11.939,11.938h92.18h35.391h79.584h35.391h92.18c6.594,0,11.939-5.346,11.939-11.938V256.169
		l36.16,29.208c2.209,1.784,4.861,2.652,7.496,2.652c3.48,0,6.938-1.516,9.291-4.437
		C536.394,278.463,535.597,270.946,530.466,266.805z M327.853,492.345h-55.706V364.126h55.706V492.345z M455.425,240.307v252.038
		h-80.242h-23.453V352.188c0-6.593-5.344-11.938-11.938-11.938h-79.584c-6.592,0-11.938,5.346-11.938,11.938v140.157h-23.453h-80.24
		V240.307l46.412-38.544c0,0,107.808-88.835,109.367-90.23L455.425,240.307z"/>
</g>
</svg>
