<?xml version="1.0" encoding="utf-8"?>
<!-- Generator: Adobe Illustrator 15.0.0, SVG Export Plug-In . SVG Version: 6.00 Build 0)  -->
<!DOCTYPE svg PUBLIC "-//W3C//DTD SVG 1.1//EN" "http://www.w3.org/Graphics/SVG/1.1/DTD/svg11.dtd">
<svg version="1.1" id="Capa_1" xmlns="http://www.w3.org/2000/svg" xmlns:xlink="http://www.w3.org/1999/xlink" x="0px" y="0px"
	 width="600px" height="600px" viewBox="0 0 600 600" enable-background="new 0 0 600 600" xml:space="preserve">
<path d="M520.021,290.998L318.465,128.186l-11.186-9.289c-4.219-3.506-10.34-3.506-14.559,0l-58.162,48.301v-20.422
	c0-6.294-5.104-11.397-11.396-11.397h-43.449c-6.293,0-11.396,5.104-11.396,11.397v75.233l-88.381,72.106
	c-4.875,3.979-5.605,11.158-1.625,16.036c2.254,2.763,5.531,4.193,8.836,4.193c2.533,0,5.082-0.841,7.203-2.565l34.477-28.127
	v188.684c0,6.294,5.102,11.397,11.396,11.397h121.789c6.295,0,11.398-5.104,11.398-11.397V383.91h53.18v88.426
	c0,6.294,5.104,11.397,11.398,11.397h121.789c6.295,0,11.398-5.104,11.398-11.397V280.845l34.52,27.885
	c2.109,1.702,4.643,2.532,7.158,2.532c3.322,0,6.623-1.447,8.871-4.235C525.682,302.129,524.918,294.952,520.021,290.998z
	 M191.111,158.173h20.652v27.164l-20.652,16.716V158.173z M448.381,265.702v195.235h-98.994v-88.426
	c0-6.294-5.104-11.397-11.398-11.397h-75.977c-6.295,0-11.396,5.104-11.396,11.397v88.426h-98.994V265.702l44.309-36.798
	c0,0,103.748-85.009,104.41-86.141L448.381,265.702z"/>
</svg>
