<?xml version="1.0" encoding="utf-8"?>
<!-- Generator: Adobe Illustrator 15.0.0, SVG Export Plug-In . SVG Version: 6.00 Build 0)  -->
<!DOCTYPE svg PUBLIC "-//W3C//DTD SVG 1.1//EN" "http://www.w3.org/Graphics/SVG/1.1/DTD/svg11.dtd">
<svg version="1.1" id="Capa_1" xmlns="http://www.w3.org/2000/svg" xmlns:xlink="http://www.w3.org/1999/xlink" x="0px" y="0px"
	 width="600px" height="600px" viewBox="0 0 600 600" enable-background="new 0 0 600 600" xml:space="preserve">
<g>
	<path fill="#222221" d="M491.396,83.229H108.599c-32.122,0-58.255,26.135-58.255,58.26v223.615c0,32.125,26.133,58.26,58.255,58.26
		h127.555v69.72h-29.062c-6.531,0-11.844,5.313-11.844,11.844c0,6.531,5.313,11.845,11.844,11.845h185.815
		c6.53,0,11.845-5.313,11.845-11.845c0-6.53-5.314-11.844-11.845-11.844h-29.056v-69.72h127.545c32.125,0,58.26-26.135,58.26-58.26
		V141.488C549.656,109.363,523.521,83.229,491.396,83.229z M340.163,424.727v68.356h-80.321v-68.356H340.163z M74.031,333.026
		h451.938v32.077c0,19.062-15.51,34.571-34.572,34.571H108.599c-19.061,0-34.567-15.509-34.567-34.571V333.026z M74.031,309.338
		V153.483h451.938v155.854H74.031z M76.091,129.797c4.901-13.568,17.989-22.881,32.508-22.881h382.798
		c14.527,0,27.615,9.312,32.513,22.881H76.091z"/>
	<path fill="#222221" d="M300,392.665c14.15,0,25.662-11.512,25.662-25.662c0-14.151-11.512-25.664-25.662-25.664
		c-14.151,0-25.663,11.513-25.663,25.664C274.337,381.153,285.849,392.665,300,392.665z M300,359.027
		c4.398,0,7.976,3.578,7.976,7.976c0,4.396-3.577,7.974-7.976,7.974c-4.397,0-7.975-3.577-7.975-7.974
		C292.025,362.605,295.603,359.027,300,359.027z"/>
</g>
</svg>
