<?xml version="1.0" encoding="utf-8"?>
<!-- Generator: Adobe Illustrator 15.0.0, SVG Export Plug-In . SVG Version: 6.00 Build 0)  -->
<!DOCTYPE svg PUBLIC "-//W3C//DTD SVG 1.1//EN" "http://www.w3.org/Graphics/SVG/1.1/DTD/svg11.dtd">
<svg version="1.1" id="Capa_1" xmlns="http://www.w3.org/2000/svg" xmlns:xlink="http://www.w3.org/1999/xlink" x="0px" y="0px"
	 width="600px" height="600px" viewBox="0 0 600 600" enable-background="new 0 0 600 600" xml:space="preserve">
<g>
	<path d="M129.223,94.574c-39.232,0-58.844,97.079-58.844,119.992c0,28.895,20.951,52.939,48.449,57.87v222.597
		c0,5.74,4.654,10.395,10.395,10.395s10.395-4.654,10.395-10.395V272.437c27.498-4.931,48.449-28.976,48.449-57.87
		C188.066,191.653,168.455,94.574,129.223,94.574z M129.223,252.622c-20.98,0-38.055-17.071-38.055-38.056
		c0-31.581,23.891-99.203,38.055-99.203c14.166,0,38.057,67.622,38.057,99.203C167.279,235.551,150.205,252.622,129.223,252.622z"/>
	<path d="M292.635,96.957c-3.111-2.57-7.414-3.108-11.049-1.394c-3.645,1.716-5.969,5.38-5.969,9.405v190.959
		c0,0.111,0,0.224,0,0.335v198.771c0,5.74,4.654,10.395,10.395,10.395s10.395-4.654,10.395-10.395V304.424
		c21.703-6.388,51.932-26.349,51.963-70.045C348.445,144.115,294.914,98.84,292.635,96.957z M296.406,282.263V132.592
		c13.893,19.529,31.215,53.556,31.174,101.771C327.559,264.036,309.15,276.908,296.406,282.263z"/>
	<path d="M519.227,94.574c-5.74,0-10.395,4.654-10.395,10.395v51.419h-21.326v-51.419c0-5.74-4.654-10.395-10.395-10.395
		s-10.395,4.654-10.395,10.395v51.419h-21.326v-51.419c0-5.74-4.654-10.395-10.395-10.395s-10.395,4.654-10.395,10.395v61.813
		v32.106c0,25.397,18.123,46.63,42.115,51.47v244.675c0,5.74,4.654,10.395,10.395,10.395s10.395-4.654,10.395-10.395V250.358
		c23.99-4.84,42.115-26.072,42.115-51.47v-32.106v-61.813C529.621,99.229,524.967,94.574,519.227,94.574z M508.832,198.889
		c0,17.492-14.23,31.722-31.721,31.722s-31.721-14.229-31.721-31.722v-21.713h63.441V198.889z"/>
</g>
</svg>
