<?xml version="1.0" encoding="utf-8"?>
<!-- Generator: Adobe Illustrator 15.0.0, SVG Export Plug-In . SVG Version: 6.00 Build 0)  -->
<!DOCTYPE svg PUBLIC "-//W3C//DTD SVG 1.1//EN" "http://www.w3.org/Graphics/SVG/1.1/DTD/svg11.dtd">
<svg version="1.1" id="Capa_1" xmlns="http://www.w3.org/2000/svg" xmlns:xlink="http://www.w3.org/1999/xlink" x="0px" y="0px"
	 width="600px" height="600px" viewBox="0 0 600 600" enable-background="new 0 0 600 600" xml:space="preserve">
<g>
	<path fill="#222221" d="M440.122,80.258H159.878c-32.455,0-58.864,26.396-58.864,58.864v321.756
		c0,32.454,26.409,58.864,58.864,58.864h280.244c32.461,0,58.864-26.41,58.864-58.864V139.122
		C498.986,106.654,472.583,80.258,440.122,80.258z M130.657,467.724c0.365-0.464,0.786-0.844,1.097-1.348l78.66-128.089
		l61.853,88.605l-42.075,64.063h-70.313C145.661,490.956,133.776,481.005,130.657,467.724z M341.088,374.538l74.107,116.418H264.633
		L341.088,374.538z M470.201,460.878c0,13.662-9.222,25.104-21.724,28.744l-95.056-149.326c-2.63-4.118-7.161-6.621-12.039-6.662
		c-4.885,0.016-9.452,2.404-12.138,6.492l-39.967,60.861l-67.83-97.193c-2.775-3.977-7.38-6.27-12.223-6.142
		c-4.848,0.14-9.304,2.714-11.841,6.845L129.8,414.55V139.122c0-16.588,13.493-30.077,30.078-30.077h280.244
		c16.586,0,30.079,13.489,30.079,30.077V460.878z"/>
	<path fill="#222221" d="M366.359,153.628c-34.796,0-63.103,28.309-63.103,63.107c0,34.787,28.307,63.095,63.103,63.095
		c34.801,0,63.108-28.308,63.108-63.095C429.468,181.937,401.16,153.628,366.359,153.628z M366.359,251.043
		c-18.918,0-34.316-15.389-34.316-34.308s15.398-34.324,34.316-34.324c18.926,0,34.323,15.405,34.323,34.324
		S385.285,251.043,366.359,251.043z"/>
</g>
</svg>
