<?xml version="1.0" encoding="utf-8"?>
<!-- Generator: Adobe Illustrator 15.0.0, SVG Export Plug-In . SVG Version: 6.00 Build 0)  -->
<!DOCTYPE svg PUBLIC "-//W3C//DTD SVG 1.1//EN" "http://www.w3.org/Graphics/SVG/1.1/DTD/svg11.dtd">
<svg version="1.1" id="Capa_1" xmlns="http://www.w3.org/2000/svg" xmlns:xlink="http://www.w3.org/1999/xlink" x="0px" y="0px"
	 width="600px" height="600px" viewBox="0 0 600 600" enable-background="new 0 0 600 600" xml:space="preserve">
<path d="M482.686,282.683H159.113l77.209-77.214c6.764-6.76,6.764-17.726,0-24.485c-6.764-6.764-17.73-6.764-24.484,0
	L105.07,287.755c-6.764,6.76-6.764,17.726,0,24.485l106.768,106.776c3.381,3.382,7.812,5.072,12.242,5.072s8.861-1.69,12.242-5.072
	c6.764-6.76,6.764-17.726,0-24.485l-77.209-77.218h323.572c9.562,0,17.316-7.753,17.316-17.315S492.248,282.683,482.686,282.683z"/>
</svg>
