<?xml version="1.0" encoding="utf-8"?>
<!-- Generator: Adobe Illustrator 15.0.0, SVG Export Plug-In . SVG Version: 6.00 Build 0)  -->
<!DOCTYPE svg PUBLIC "-//W3C//DTD SVG 1.1//EN" "http://www.w3.org/Graphics/SVG/1.1/DTD/svg11.dtd">
<svg version="1.1" id="Capa_1" xmlns="http://www.w3.org/2000/svg" xmlns:xlink="http://www.w3.org/1999/xlink" x="0px" y="0px"
	 width="600px" height="600px" viewBox="0 0 600 600" enable-background="new 0 0 600 600" xml:space="preserve">
<path d="M249.154,241.283v-57.09c0-5.277-3.137-10.051-7.984-12.139s-10.471-1.101-14.305,2.524L104.15,290.384
	c-2.646,2.498-4.15,5.978-4.15,9.615c0,3.638,1.504,7.118,4.15,9.616l122.715,115.807c2.498,2.362,5.764,3.605,9.076,3.605
	c1.762,0,3.543-0.355,5.229-1.082c4.848-2.088,7.984-6.861,7.984-12.139v-52.536c10.93-0.177,27.609-0.39,45.355-0.39
	c16.369,0,30.727,0.177,42.668,0.525c65.359,1.908,141.59,51.381,142.352,51.881c4.158,2.721,9.482,2.895,13.795,0.43
	c4.312-2.46,6.889-7.127,6.662-12.088C494.156,276.035,300.932,246.821,249.154,241.283z M337.947,336.979
	c-12.195-0.358-26.809-0.539-43.438-0.539c-30.889,0-58.602,0.633-58.879,0.639c-7.178,0.165-12.916,6.036-12.916,13.218v34.858
	L132.482,300l90.232-85.154v38.499c0,6.946,5.383,12.71,12.316,13.188c2.143,0.149,197.988,14.889,233.24,111.566
	C438.229,361.918,386.555,338.396,337.947,336.979z"/>
</svg>
