<?xml version="1.0" encoding="utf-8"?>
<!-- Generator: Adobe Illustrator 15.0.0, SVG Export Plug-In . SVG Version: 6.00 Build 0)  -->
<!DOCTYPE svg PUBLIC "-//W3C//DTD SVG 1.1//EN" "http://www.w3.org/Graphics/SVG/1.1/DTD/svg11.dtd">
<svg version="1.1" id="Capa_1" xmlns="http://www.w3.org/2000/svg" xmlns:xlink="http://www.w3.org/1999/xlink" x="0px" y="0px"
	 width="600px" height="600px" viewBox="0 0 600 600" enable-background="new 0 0 600 600" xml:space="preserve">
<path d="M458.506,242.208H273.737v-54.871c0-5.134-3.052-9.778-7.768-11.81c-4.705-2.025-10.187-1.074-13.922,2.456L132.664,290.645
	c-2.573,2.431-4.031,5.815-4.031,9.354s1.458,6.923,4.031,9.355l119.383,112.662c2.437,2.299,5.613,3.507,8.83,3.507
	c1.72,0,3.454-0.345,5.092-1.052c4.716-2.031,7.768-6.676,7.768-11.809v-54.871h184.769c7.103,0,12.861-5.76,12.861-12.861v-89.861
	C471.367,247.966,465.608,242.208,458.506,242.208z M445.645,332.067H260.877c-7.103,0-12.863,5.759-12.863,12.862v37.911
	l-87.781-82.842l87.781-82.842v37.912c0,7.103,5.76,12.861,12.863,12.861h184.768V332.067z"/>
</svg>
