<?xml version="1.0" encoding="utf-8"?>
<!-- Generator: Adobe Illustrator 15.0.0, SVG Export Plug-In . SVG Version: 6.00 Build 0)  -->
<!DOCTYPE svg PUBLIC "-//W3C//DTD SVG 1.1//EN" "http://www.w3.org/Graphics/SVG/1.1/DTD/svg11.dtd">
<svg version="1.1" id="Capa_1" xmlns="http://www.w3.org/2000/svg" xmlns:xlink="http://www.w3.org/1999/xlink" x="0px" y="0px"
	 width="600px" height="600px" viewBox="0 0 600 600" enable-background="new 0 0 600 600" xml:space="preserve">
<path d="M497.254,471.764L401.252,300l96.856-173.295c2.938-5.251,2.128-11.802-1.999-16.182
	c-4.131-4.383-10.621-5.585-16.037-2.955L107.786,287.586C103.026,289.888,100,294.712,100,300c0,5.289,3.026,10.112,7.786,12.412
	l372.286,180.027c1.915,0.926,3.965,1.373,5.998,1.373c0.044,0,0.078-0.003,0.142,0c7.614,0,13.788-6.174,13.788-13.788
	C500,476.928,498.977,474.066,497.254,471.764z M145.461,300l307.236-148.566l-79.274,141.841c-2.339,4.178-2.339,9.271,0,13.451
	l79.274,141.845L145.461,300z"/>
</svg>
