<?xml version="1.0" encoding="utf-8"?>
<!-- Generator: Adobe Illustrator 15.0.0, SVG Export Plug-In . SVG Version: 6.00 Build 0)  -->
<!DOCTYPE svg PUBLIC "-//W3C//DTD SVG 1.1//EN" "http://www.w3.org/Graphics/SVG/1.1/DTD/svg11.dtd">
<svg version="1.1" id="Capa_1" xmlns="http://www.w3.org/2000/svg" xmlns:xlink="http://www.w3.org/1999/xlink" x="0px" y="0px"
	 width="600px" height="600px" viewBox="0 0 600 600" enable-background="new 0 0 600 600" xml:space="preserve">
<g>
	<path d="M490.842,288.397c-6.128-100.712-89.884-179.601-190.672-179.601c-3.9,0-7.867,0.123-11.776,0.359
		c-105.222,6.401-185.632,97.223-179.235,202.451c6.119,100.697,89.875,179.586,190.674,179.596h0.01
		c3.898,0,7.857-0.123,11.765-0.359C416.829,484.447,497.239,393.63,490.842,288.397z M310.383,470.668
		c-3.503,0.213-7.058,0.321-10.542,0.321h-0.01c-90.129-0.009-165.022-70.554-170.5-160.606
		c-5.717-94.104,66.186-175.323,160.286-181.052c3.503-0.212,7.056-0.321,10.552-0.321c90.128,0,165.022,70.55,170.5,160.612
		C476.384,383.73,404.481,464.945,310.383,470.668z"/>
	<path d="M315.742,347.33c-4.303-12.179-11.705-14-15.743-14c-4.027,0-11.439,1.821-15.732,14.005l-23.834,67.55
		c-2.734,7.748-1.867,15.634,2.378,21.631c4.243,5.994,11.388,9.434,19.601,9.434h35.187c8.211,0,15.356-3.439,19.6-9.434
		c4.244-5.997,5.104-13.883,2.369-21.626L315.742,347.33z M320.696,424.838c-0.314,0.45-1.402,0.899-3.098,0.899h-35.187
		c-1.706,0-2.781-0.449-3.098-0.899c-0.316-0.449-0.387-1.617,0.177-3.227L300,363.479l20.509,58.138
		C321.083,423.221,321.012,424.389,320.696,424.838z"/>
	<path d="M284.267,254.041c4.293,12.18,11.705,14,15.732,14c4.038,0,11.44-1.82,15.743-14.005l23.825-67.544
		c2.734-7.748,1.875-15.635-2.369-21.63c-4.243-5.996-11.389-9.436-19.6-9.436h-35.187c-8.213,0-15.357,3.439-19.601,9.436
		c-4.245,5.995-5.112,13.882-2.378,21.624L284.267,254.041z M279.314,176.538c0.316-0.448,1.392-0.897,3.098-0.897h35.187
		c1.695,0,2.783,0.449,3.098,0.897c0.315,0.449,0.387,1.619-0.188,3.228L300,237.895l-20.509-58.133
		C278.927,178.157,278.998,176.987,279.314,176.538z"/>
	<path d="M253.366,316.418c12.179-4.298,13.995-11.705,13.995-15.737c0-4.036-1.816-11.443-14.004-15.731l-67.551-23.836
		c-2.97-1.041-5.951-1.574-8.874-1.574c-12.858,0-22.186,9.909-22.186,23.56v35.186c0,13.649,9.327,23.554,22.177,23.554
		c2.932,0,5.913-0.532,8.883-1.578L253.366,316.418z M176.923,321.625c-0.643,0-1.963,0-1.963-3.341v-35.186
		c0-3.347,1.33-3.347,1.972-3.347c0.613,0,1.363,0.147,2.153,0.425l58.121,20.51l-58.133,20.515
		C178.287,321.477,177.545,321.625,176.923,321.625z"/>
	<path d="M423.077,259.539c-2.922,0-5.914,0.533-8.874,1.579l-67.55,23.825c-12.18,4.299-14.005,11.706-14.005,15.737
		c0,4.032,1.825,11.439,14.005,15.737l67.541,23.842c2.969,1.046,5.961,1.578,8.883,1.578c6.297,0,12.012-2.452,16.107-6.913
		c3.977-4.329,6.078-10.082,6.078-16.641v-35.186C445.263,269.448,435.927,259.539,423.077,259.539z M425.05,318.284
		c0,1.589-0.395,2.575-0.75,2.971c-0.098,0.098-0.345,0.37-1.223,0.37c-0.613,0-1.363-0.148-2.153-0.424l-58.122-20.521
		l58.122-20.499c0.79-0.282,1.53-0.43,2.153-0.43c0.643,0,1.973,0,1.973,3.347V318.284z"/>
	<path d="M191.265,247.918l64.637,30.926c3.939,1.885,7.471,2.804,10.787,2.804c5.133,0,9.544-2.315,12.082-6.352
		c2.161-3.425,3.811-9.456-0.623-18.713l-30.914-64.622c-4.162-8.711-11.841-13.912-20.526-13.912
		c-6.119,0-12.151,2.659-16.978,7.49l-24.881,24.877c-5.812,5.81-8.429,13.295-7.195,20.535
		C178.897,238.19,183.863,244.379,191.265,247.918z M199.141,224.708l24.882-24.877c1.162-1.155,2.143-1.569,2.685-1.569
		c0.679,0,1.597,0.973,2.3,2.423l26.6,55.612l-55.619-26.615c-1.537-0.73-2.318-1.603-2.408-2.146
		C197.492,226.997,197.935,225.912,199.141,224.708z"/>
	<path d="M408.735,353.469l-64.608-30.912c-10.007-4.797-18.723-3.068-22.876,3.539c-2.164,3.425-3.811,9.455,0.619,18.713
		l30.914,64.613c4.164,8.715,11.844,13.916,20.529,13.916c6.119,0,12.139-2.659,16.975-7.49l24.863-24.877
		c5.812-5.809,8.429-13.295,7.195-20.535C421.103,363.196,416.138,357.008,408.735,353.469z M400.858,376.679l-24.86,24.878
		c-1.165,1.154-2.142,1.568-2.685,1.568c-0.682,0-1.6-0.973-2.301-2.423L344.415,345.1l55.595,26.604
		c1.54,0.731,2.321,1.604,2.407,2.146C402.508,374.389,402.063,375.475,400.858,376.679z"/>
	<path d="M278.759,326.086c-4.154-6.607-12.879-8.335-22.877-3.543l-64.607,30.912c-7.412,3.543-12.378,9.732-13.621,16.972
		c-1.233,7.239,1.383,14.726,7.195,20.534l24.872,24.876c4.835,4.832,10.855,7.491,16.975,7.491c8.685,0,16.366-5.201,20.53-13.911
		l30.922-64.622C282.568,335.542,280.922,329.512,278.759,326.086z M228.986,400.697c-0.691,1.446-1.608,2.418-2.29,2.418
		c-0.542,0-1.519-0.415-2.685-1.57l-24.87-24.875c-1.206-1.205-1.649-2.291-1.562-2.829c0.09-0.542,0.871-1.417,2.408-2.151
		l55.607-26.604L228.986,400.697z"/>
	<path d="M321.229,275.281c2.547,4.037,6.949,6.352,12.082,6.352c0,0,0,0,0.01,0c3.305,0,6.838-0.918,10.787-2.809l64.627-30.918
		c7.402-3.543,12.367-9.727,13.611-16.971c1.233-7.239-1.383-14.721-7.195-20.528l-24.872-24.877
		c-4.836-4.833-10.856-7.492-16.978-7.492c-8.686,0-16.363,5.201-20.527,13.911l-30.914,64.618
		C317.429,265.82,319.067,271.852,321.229,275.281z M371.005,200.676c0.688-1.452,1.617-2.424,2.297-2.424
		c0.545,0,1.521,0.415,2.685,1.569l24.872,24.877c1.205,1.203,1.649,2.29,1.559,2.827c-0.086,0.543-0.877,1.417-2.407,2.151
		l-55.604,26.6L371.005,200.676z"/>
</g>
</svg>
