<?xml version="1.0" encoding="utf-8"?>
<!-- Generator: Adobe Illustrator 15.0.0, SVG Export Plug-In . SVG Version: 6.00 Build 0)  -->
<!DOCTYPE svg PUBLIC "-//W3C//DTD SVG 1.1//EN" "http://www.w3.org/Graphics/SVG/1.1/DTD/svg11.dtd">
<svg version="1.1" id="Capa_1" xmlns="http://www.w3.org/2000/svg" xmlns:xlink="http://www.w3.org/1999/xlink" x="0px" y="0px"
	 width="600px" height="600px" viewBox="0 0 600 600" enable-background="new 0 0 600 600" xml:space="preserve">
<g>
	<path fill="#222221" d="M491.355,167.49H108.645c-6.557,0-11.883,5.314-11.883,11.883v241.254c0,6.568,5.326,11.883,11.883,11.883
		h382.711c6.562,0,11.883-5.314,11.883-11.883V179.373C503.238,172.805,497.918,167.49,491.355,167.49z M479.473,408.744H120.527
		V191.256h358.945V408.744z"/>
	<path fill="#222221" d="M146.752,296.426h49.018c6.562,0,11.883-5.326,11.883-11.883v-61.91c0-6.566-5.32-11.883-11.883-11.883
		h-49.018c-6.562,0-11.883,5.316-11.883,11.883v61.91C134.869,291.1,140.189,296.426,146.752,296.426z M158.635,234.516h25.252
		v38.145h-25.252V234.516z"/>
	<path fill="#222221" d="M259.641,272.092h173.787c6.561,0,11.883-5.326,11.883-11.883c0-6.568-5.322-11.883-11.883-11.883H259.641
		c-6.562,0-11.883,5.314-11.883,11.883C247.758,266.766,253.078,272.092,259.641,272.092z"/>
	<path fill="#222221" d="M259.641,317.975h173.787c6.561,0,11.883-5.314,11.883-11.883c0-6.557-5.322-11.883-11.883-11.883H259.641
		c-6.562,0-11.883,5.326-11.883,11.883C247.758,312.66,253.078,317.975,259.641,317.975z"/>
	<path fill="#222221" d="M259.641,363.871h96.547c6.562,0,11.883-5.328,11.883-11.883c0-6.568-5.32-11.883-11.883-11.883h-96.547
		c-6.562,0-11.883,5.314-11.883,11.883C247.758,358.543,253.078,363.871,259.641,363.871z"/>
</g>
</svg>
