<?xml version="1.0" encoding="utf-8"?>
<!-- Generator: Adobe Illustrator 15.0.0, SVG Export Plug-In . SVG Version: 6.00 Build 0)  -->
<!DOCTYPE svg PUBLIC "-//W3C//DTD SVG 1.1//EN" "http://www.w3.org/Graphics/SVG/1.1/DTD/svg11.dtd">
<svg version="1.1" id="Capa_1" xmlns="http://www.w3.org/2000/svg" xmlns:xlink="http://www.w3.org/1999/xlink" x="0px" y="0px"
	 width="600px" height="600px" viewBox="0 0 600 600" enable-background="new 0 0 600 600" xml:space="preserve">
<path d="M430.095,295.353c-1.799-3.802-5.629-6.23-9.833-6.23h-69.3v-184.13c0-4.593-2.883-8.688-7.204-10.238
	c-4.316-1.539-9.149-0.213-12.069,3.329L171.341,293.09c-2.672,3.251-3.23,7.748-1.436,11.555c1.801,3.802,5.629,6.228,9.835,6.228
	h69.297v184.132c0,4.594,2.883,8.687,7.204,10.238c1.2,0.43,2.444,0.636,3.669,0.636c3.187,0,6.292-1.406,8.4-3.967l160.35-195.006
	C431.332,303.657,431.89,299.16,430.095,295.353z M270.787,464.658V299.999c0-6.006-4.87-10.876-10.876-10.876h-57.154
	l126.458-153.787v164.663c0,6.004,4.868,10.873,10.874,10.873h57.154L270.787,464.658z"/>
</svg>
