<?xml version="1.0" encoding="utf-8"?>
<!-- Generator: Adobe Illustrator 15.0.0, SVG Export Plug-In . SVG Version: 6.00 Build 0)  -->
<!DOCTYPE svg PUBLIC "-//W3C//DTD SVG 1.1//EN" "http://www.w3.org/Graphics/SVG/1.1/DTD/svg11.dtd">
<svg version="1.1" id="Capa_1" xmlns="http://www.w3.org/2000/svg" xmlns:xlink="http://www.w3.org/1999/xlink" x="0px" y="0px"
	 width="600px" height="600px" viewBox="0 0 600 600" enable-background="new 0 0 600 600" xml:space="preserve">
<g>
	<path fill="#222221" d="M269.836,337.787c-6.603-3.545-14.827-1.08-18.371,5.523c-16.006,29.752-46.918,48.236-80.68,48.236
		c-50.473,0-91.546-41.064-91.546-91.547c0-50.482,41.073-91.546,91.546-91.546c37.668,0,71.045,22.595,85.038,57.56
		c2.788,6.961,10.688,10.344,17.629,7.549c6.953-2.78,10.337-10.673,7.556-17.626c-18.14-45.323-61.402-74.607-110.223-74.607
		c-65.434,0-118.671,53.237-118.671,118.671c0,65.434,53.237,118.672,118.671,118.672c43.762,0,83.825-23.955,104.566-62.516
		C278.9,349.562,276.431,341.338,269.836,337.787z"/>
	<path fill="#222221" d="M429.215,181.329c-48.82,0-92.083,29.284-110.223,74.607c-2.781,6.953,0.603,14.846,7.556,17.626
		c6.948,2.791,14.841-0.596,17.629-7.549c13.993-34.965,47.369-57.56,85.038-57.56c50.473,0,91.546,41.063,91.546,91.546
		c0,50.483-41.073,91.547-91.546,91.547c-33.763,0-64.674-18.484-80.68-48.236c-3.551-6.604-11.762-9.061-18.371-5.523
		c-6.595,3.551-9.064,11.775-5.517,18.369c20.741,38.561,60.806,62.516,104.567,62.516c65.434,0,118.671-53.238,118.671-118.672
		C547.886,234.566,494.648,181.329,429.215,181.329z"/>
	<path fill="#222221" d="M153.481,303.84c0,7.49,6.072,13.562,13.562,13.562h265.912c7.489,0,13.562-6.072,13.562-13.562
		c0-7.49-6.073-13.562-13.562-13.562H167.044C159.554,290.278,153.481,296.35,153.481,303.84z"/>
</g>
</svg>
