<?xml version="1.0" encoding="utf-8"?>
<!-- Generator: Adobe Illustrator 15.0.0, SVG Export Plug-In . SVG Version: 6.00 Build 0)  -->
<!DOCTYPE svg PUBLIC "-//W3C//DTD SVG 1.1//EN" "http://www.w3.org/Graphics/SVG/1.1/DTD/svg11.dtd">
<svg version="1.1" id="Capa_1" xmlns="http://www.w3.org/2000/svg" xmlns:xlink="http://www.w3.org/1999/xlink" x="0px" y="0px"
	 width="600px" height="600px" viewBox="0 0 600 600" enable-background="new 0 0 600 600" xml:space="preserve">
<g>
	<path fill="#222221" d="M233.194,154.885h281.454c6.423,0,11.629-5.208,11.629-11.629c0-6.423-5.206-11.631-11.629-11.631H233.194
		c-6.422,0-11.629,5.208-11.629,11.631C221.565,149.677,226.772,154.885,233.194,154.885z"/>
	<path fill="#222221" d="M514.648,168.171H233.194c-6.422,0-11.629,5.208-11.629,11.629c0,6.424,5.207,11.631,11.629,11.631h281.454
		c6.423,0,11.629-5.207,11.629-11.631C526.277,173.379,521.071,168.171,514.648,168.171z"/>
	<path fill="#222221" d="M514.648,268.383H233.194c-6.422,0-11.629,5.208-11.629,11.629c0,6.423,5.207,11.631,11.629,11.631h281.454
		c6.423,0,11.629-5.208,11.629-11.631C526.277,273.591,521.071,268.383,514.648,268.383z"/>
	<path fill="#222221" d="M514.648,304.94H233.194c-6.422,0-11.629,5.207-11.629,11.629c0,6.423,5.207,11.631,11.629,11.631h281.454
		c6.423,0,11.629-5.208,11.629-11.631C526.277,310.147,521.071,304.94,514.648,304.94z"/>
	<path fill="#222221" d="M172.583,381.519H85.351c-6.42,0-11.628,5.208-11.628,11.629v87.232c0,6.423,5.208,11.629,11.628,11.629
		h87.232c6.424,0,11.629-5.206,11.629-11.629v-87.232C184.212,386.727,179.007,381.519,172.583,381.519z M160.954,468.751H96.983
		v-63.973h63.971V468.751z"/>
	<path fill="#222221" d="M514.648,405.151H233.194c-6.422,0-11.629,5.209-11.629,11.632c0,6.421,5.207,11.629,11.629,11.629h281.454
		c6.423,0,11.629-5.208,11.629-11.629C526.277,410.36,521.071,405.151,514.648,405.151z"/>
	<path fill="#222221" d="M514.648,441.698H233.194c-6.422,0-11.629,5.208-11.629,11.629c0,6.424,5.207,11.631,11.629,11.631h281.454
		c6.423,0,11.629-5.207,11.629-11.631C526.277,446.906,521.071,441.698,514.648,441.698z"/>
	<path fill="#222221" d="M196.001,151.603h-11.789V119.62c0-6.42-5.205-11.629-11.629-11.629H85.351
		c-6.42,0-11.628,5.209-11.628,11.629v87.232c0,6.424,5.208,11.629,11.628,11.629h87.232c6.424,0,11.629-5.205,11.629-11.629V174.86
		h11.789c6.424,0,11.629-5.207,11.629-11.629S202.425,151.603,196.001,151.603z M160.954,195.224H96.983v-63.973h63.971v20.352
		h-31.986c-6.421,0-11.629,5.207-11.629,11.629s5.208,11.629,11.629,11.629h31.986V195.224z"/>
	<path fill="#222221" d="M196.001,288.372h-11.789v-31.994c0-6.42-5.205-11.629-11.629-11.629H85.351
		c-6.42,0-11.628,5.209-11.628,11.629v87.244c0,6.423,5.208,11.629,11.628,11.629h87.232c6.424,0,11.629-5.206,11.629-11.629V311.63
		h11.789c6.424,0,11.629-5.207,11.629-11.629C207.63,293.578,202.425,288.372,196.001,288.372z M160.954,331.993H96.983V268.01
		h63.971v20.362h-31.986c-6.421,0-11.629,5.206-11.629,11.629c0,6.422,5.208,11.629,11.629,11.629h31.986V331.993z"/>
</g>
</svg>
