<?xml version="1.0" encoding="utf-8"?>
<!-- Generator: Adobe Illustrator 15.0.0, SVG Export Plug-In . SVG Version: 6.00 Build 0)  -->
<!DOCTYPE svg PUBLIC "-//W3C//DTD SVG 1.1//EN" "http://www.w3.org/Graphics/SVG/1.1/DTD/svg11.dtd">
<svg version="1.1" id="Capa_1" xmlns="http://www.w3.org/2000/svg" xmlns:xlink="http://www.w3.org/1999/xlink" x="0px" y="0px"
	 width="600px" height="600px" viewBox="0 0 600 600" enable-background="new 0 0 600 600" xml:space="preserve">
<g>
	<path fill="#222221" d="M130.94,141.78c-24.976,0-45.292,20.317-45.292,45.292c0,24.976,20.316,45.295,45.292,45.295
		c24.974,0,45.292-20.319,45.292-45.295C176.232,162.098,155.914,141.78,130.94,141.78z M130.94,210.52
		c-12.927,0-23.444-10.52-23.444-23.447c0-12.927,10.518-23.443,23.444-23.443s23.444,10.517,23.444,23.443
		C154.385,200,143.867,210.52,130.94,210.52z"/>
	<path fill="#222221" d="M212.9,204.424h284.102c9.584,0,17.35-7.77,17.35-17.35c0-9.582-7.766-17.35-17.35-17.35H212.9
		c-9.579,0-17.35,7.768-17.35,17.35C195.551,196.654,203.321,204.424,212.9,204.424z"/>
	<path fill="#222221" d="M130.94,254.708c-24.976,0-45.292,20.317-45.292,45.292s20.316,45.292,45.292,45.292
		c24.974,0,45.292-20.317,45.292-45.292S155.914,254.708,130.94,254.708z M130.94,323.444c-12.927,0-23.444-10.517-23.444-23.444
		c0-12.927,10.518-23.443,23.444-23.443s23.444,10.517,23.444,23.443C154.385,312.928,143.867,323.444,130.94,323.444z"/>
	<path fill="#222221" d="M497.002,282.65H212.9c-9.579,0-17.35,7.769-17.35,17.35s7.771,17.35,17.35,17.35h284.102
		c9.584,0,17.35-7.769,17.35-17.35S506.586,282.65,497.002,282.65z"/>
	<path fill="#222221" d="M130.94,367.633c-24.976,0-45.292,20.32-45.292,45.295s20.316,45.292,45.292,45.292
		c24.974,0,45.292-20.317,45.292-45.292S155.914,367.633,130.94,367.633z M130.94,436.372c-12.927,0-23.444-10.517-23.444-23.444
		s10.518-23.447,23.444-23.447s23.444,10.52,23.444,23.447S143.867,436.372,130.94,436.372z"/>
	<path fill="#222221" d="M497.002,395.576H212.9c-9.579,0-17.35,7.77-17.35,17.351s7.771,17.35,17.35,17.35h284.102
		c9.584,0,17.35-7.769,17.35-17.35S506.586,395.576,497.002,395.576z"/>
</g>
</svg>
