<?xml version="1.0" encoding="utf-8"?>
<!-- Generator: Adobe Illustrator 15.0.0, SVG Export Plug-In . SVG Version: 6.00 Build 0)  -->
<!DOCTYPE svg PUBLIC "-//W3C//DTD SVG 1.1//EN" "http://www.w3.org/Graphics/SVG/1.1/DTD/svg11.dtd">
<svg version="1.1" id="Capa_1" xmlns="http://www.w3.org/2000/svg" xmlns:xlink="http://www.w3.org/1999/xlink" x="0px" y="0px"
	 width="600px" height="600px" viewBox="0 0 600 600" enable-background="new 0 0 600 600" xml:space="preserve">
<g>
	<path d="M300.001,266.675c-18.378,0-33.324,14.945-33.324,33.324c0,18.371,14.946,33.323,33.324,33.323
		c18.371,0,33.324-14.952,33.324-33.323C333.325,281.62,318.372,266.675,300.001,266.675z M300.001,316.662
		c-9.193,0-16.664-7.478-16.664-16.663c0-9.193,7.471-16.66,16.664-16.66c9.186,0,16.66,7.467,16.66,16.66
		C316.661,309.185,309.187,316.662,300.001,316.662z"/>
	<path d="M501.554,291.667h-99.996c-4.035-49.562-43.663-89.189-93.225-93.225V98.445c0-4.597-3.736-8.329-8.332-8.329
		c-4.605,0-8.332,3.732-8.332,8.329v99.997c-49.568,4.035-89.189,43.663-93.227,93.225H98.448c-4.598,0-8.332,3.735-8.332,8.332
		c0,4.605,3.734,8.332,8.332,8.332h99.994c4.037,49.568,43.665,89.189,93.227,93.225v99.996c0,4.598,3.736,8.332,8.332,8.332
		c4.604,0,8.332-3.734,8.332-8.332V401.548c49.562-4.027,89.189-43.655,93.225-93.217h99.996c4.598,0,8.33-3.736,8.33-8.332
		C509.884,295.396,506.151,291.667,501.554,291.667z M300.001,385.262c-47.018,0-85.264-38.256-85.264-85.263
		c0-47.017,38.246-85.261,85.264-85.261c47.008,0,85.261,38.244,85.261,85.261C385.262,347.006,347.009,385.262,300.001,385.262z"/>
</g>
</svg>
