<?xml version="1.0" encoding="utf-8"?>
<!-- Generator: Adobe Illustrator 15.0.0, SVG Export Plug-In . SVG Version: 6.00 Build 0)  -->
<!DOCTYPE svg PUBLIC "-//W3C//DTD SVG 1.1//EN" "http://www.w3.org/Graphics/SVG/1.1/DTD/svg11.dtd">
<svg version="1.1" id="Capa_1" xmlns="http://www.w3.org/2000/svg" xmlns:xlink="http://www.w3.org/1999/xlink" x="0px" y="0px"
	 width="600px" height="600px" viewBox="0 0 600 600" enable-background="new 0 0 600 600" xml:space="preserve">
<g>
	<path fill="#222221" d="M300,107.875c-69.17,0-125.451,56.279-125.451,125.449c0,63.29,100.927,232.376,112.427,251.451
		c2.757,4.557,7.694,7.35,13.024,7.35c5.33,0,10.267-2.793,13.021-7.35c11.504-19.074,112.43-188.161,112.43-251.451
		C425.451,164.155,369.17,107.875,300,107.875z M300,446.975c-35.029-60.594-95.039-172.887-95.039-213.65
		c0-52.404,42.635-95.035,95.039-95.035c52.404,0,95.039,42.631,95.039,95.035C395.039,274.073,335.029,386.373,300,446.975z"/>
	<path fill="#222221" d="M300,161.089c-39.835,0-72.236,32.403-72.236,72.235c0,39.836,32.401,72.236,72.236,72.236
		c39.832,0,72.236-32.4,72.236-72.236C372.236,193.493,339.832,161.089,300,161.089z M300,275.149
		c-23.062,0-41.824-18.762-41.824-41.824c0-23.06,18.762-41.824,41.824-41.824c23.06,0,41.824,18.765,41.824,41.824
		C341.824,256.387,323.061,275.149,300,275.149z"/>
</g>
</svg>
