<?xml version="1.0" encoding="utf-8"?>
<!-- Generator: Adobe Illustrator 15.0.0, SVG Export Plug-In . SVG Version: 6.00 Build 0)  -->
<!DOCTYPE svg PUBLIC "-//W3C//DTD SVG 1.1//EN" "http://www.w3.org/Graphics/SVG/1.1/DTD/svg11.dtd">
<svg version="1.1" id="Capa_1" xmlns="http://www.w3.org/2000/svg" xmlns:xlink="http://www.w3.org/1999/xlink" x="0px" y="0px"
	 width="600px" height="600px" viewBox="0 0 600 600" enable-background="new 0 0 600 600" xml:space="preserve">
<g>
	<path d="M425.438,280.322h-31.006V175.959c0-52.071-42.359-94.432-94.432-94.432s-94.432,42.36-94.432,94.432v104.363h-31.008
		c-6.227,0-11.275,5.045-11.275,11.275v215.6c0,6.221,5.049,11.275,11.275,11.275h250.877c6.23,0,11.277-5.055,11.277-11.275v-215.6
		C436.715,285.367,431.668,280.322,425.438,280.322z M228.119,175.959c0-39.629,32.245-71.881,71.881-71.881
		c39.633,0,71.881,32.252,71.881,71.881v104.363H228.119V175.959z M414.164,495.922H185.836V302.875h31.006h166.314h31.008V495.922z
		"/>
	<path d="M300,338.264c-19.527,0-35.414,15.89-35.414,35.412c0,9.228,3.674,18.058,10.045,24.621v50.96
		c0,6.22,5.048,11.275,11.274,11.275h28.19c6.226,0,11.273-5.056,11.273-11.275v-50.96c6.369-6.563,10.042-15.394,10.042-24.621
		C335.411,354.153,319.528,338.264,300,338.264z M307.488,384.059c-2.936,2.114-4.67,5.518-4.67,9.141v44.781h-5.637v-44.781
		c0-3.623-1.734-7.026-4.669-9.141c-3.413-2.467-5.372-6.254-5.372-10.383c0-7.092,5.768-12.861,12.859-12.861
		c7.09,0,12.86,5.77,12.86,12.861C312.86,377.805,310.9,381.592,307.488,384.059z"/>
</g>
</svg>
