
<?xml version="1.0" encoding="UTF-8" standalone="no"?>
<!-- Created with Inkscape (http://www.inkscape.org/) -->

<svg
   xmlns:dc="http://purl.org/dc/elements/1.1/"
   xmlns:cc="http://creativecommons.org/ns#"
   xmlns:rdf="http://www.w3.org/1999/02/22-rdf-syntax-ns#"
   xmlns:svg="http://www.w3.org/2000/svg"
   xmlns="http://www.w3.org/2000/svg"
   xmlns:sodipodi="http://sodipodi.sourceforge.net/DTD/sodipodi-0.dtd"
   xmlns:inkscape="http://www.inkscape.org/namespaces/inkscape"
   version="1.1"
   width="958.5686"
   height="232.35402"
   id="svg2"
   xml:space="preserve"
   inkscape:version="0.48.2 r9819"
   sodipodi:docname="logo.svg"><sodipodi:namedview
     pagecolor="#ffffff"
     bordercolor="#666666"
     borderopacity="1"
     objecttolerance="10"
     gridtolerance="10"
     guidetolerance="10"
     inkscape:pageopacity="0"
     inkscape:pageshadow="2"
     inkscape:window-width="1310"
     inkscape:window-height="855"
     id="namedview3073"
     showgrid="false"
     inkscape:zoom="0.63432336"
     inkscape:cx="370.86278"
     inkscape:cy="114.06649"
     inkscape:window-x="104"
     inkscape:window-y="0"
     inkscape:window-maximized="0"
     inkscape:current-layer="svg2"
     fit-margin-top="0"
     fit-margin-left="0"
     fit-margin-right="0"
     fit-margin-bottom="0" /><metadata
     id="metadata8"><rdf:RDF><cc:Work
         rdf:about=""><dc:format>image/svg+xml</dc:format><dc:type
           rdf:resource="http://purl.org/dc/dcmitype/StillImage" /></cc:Work></rdf:RDF></metadata><defs
     id="defs6"><clipPath
       id="clipPath16"><path
         d="m 0,595.28 841.89,0 L 841.89,0 0,0 0,595.28 z"
         inkscape:connector-curvature="0"
         id="path18" /></clipPath></defs><g
     transform="matrix(4.8204228,0,0,-4.8204228,-1781.1221,1640.5099)"
     id="g10"><g
       id="g12"><g
         clip-path="url(#clipPath16)"
         id="g14"><g
           transform="translate(417.698,292.4059)"
           id="g20"><path
             d="m 0,0 c 0,-0.156 -0.128,-0.283 -0.283,-0.283 l -47.636,0 c -0.156,0 -0.284,0.127 -0.284,0.283 l 0,47.636 c 0,0.156 0.128,0.283 0.284,0.283 l 47.636,0 C -0.128,47.919 0,47.792 0,47.636 L 0,0 z"
             inkscape:connector-curvature="0"
             id="path22"
             style="fill:#000000;fill-opacity:1;fill-rule:nonzero;stroke:none" /></g><g
           transform="translate(482.8904,301.0747)"
           id="g24"><path
             d="m 0,0 c 0,-0.481 -0.241,-0.915 -0.915,-0.915 l -1.445,0 c -0.674,0 -0.916,0.434 -0.916,0.915 l 0,27.841 c 0,0.29 -0.144,0.386 -0.385,0.386 l -6.214,0 c -0.674,0 -0.915,0.434 -0.915,0.915 l 0,1.156 c 0,0.482 0.241,0.915 0.915,0.915 l 16.474,0 c 0.674,0 0.915,-0.433 0.915,-0.915 l 0,-1.156 c 0,-0.481 -0.241,-0.915 -0.915,-0.915 l -6.213,0 C 0.145,28.227 0,28.131 0,27.841 L 0,0 z"
             inkscape:connector-curvature="0"
             id="path26"
             style="fill:#000000;fill-opacity:1;fill-rule:nonzero;stroke:none" /></g><g
           transform="translate(508.2143,309.1946)"
           id="g28"><path
             d="m 0,0 0,14.059 c 0,3.411 -1.83,6.042 -5.876,6.042 -4.046,0 -5.876,-2.631 -5.876,-6.042 l 0,-14.059 c 0,-3.411 1.83,-6.018 5.876,-6.018 C -1.83,-6.018 0,-3.411 0,0 m -15.028,0 0,14.059 c 0,4.979 2.986,9.034 9.152,9.034 6.165,0 9.152,-4.055 9.152,-9.034 L 3.276,0 c 0,-4.978 -2.987,-9.035 -9.152,-9.035 -6.166,0 -9.152,4.057 -9.152,9.035"
             inkscape:connector-curvature="0"
             id="path30"
             style="fill:#000000;fill-opacity:1;fill-rule:nonzero;stroke:none" /></g><g
           transform="translate(521.0815,324.4847)"
           id="g32"><path
             d="m 0,0 0,-23.41 c 0,-0.481 -0.241,-0.915 -0.915,-0.915 l -1.348,0 c -0.676,0 -0.916,0.434 -0.916,0.915 l 0,30.298 c 0,0.482 0.24,0.915 0.916,0.915 l 1.203,0 c 0.579,0 0.772,-0.337 1.06,-0.867 l 8.911,-17.341 8.864,17.341 c 0.24,0.482 0.481,0.867 1.107,0.867 l 1.252,0 c 0.675,0 0.915,-0.433 0.915,-0.915 l 0,-30.298 c 0,-0.481 -0.24,-0.915 -0.915,-0.915 l -1.445,0 c -0.674,0 -0.914,0.434 -0.914,0.915 l 0,23.506 -7.322,-14.258 c -0.241,-0.433 -0.531,-0.915 -1.205,-0.915 l -0.722,0 c -0.675,0 -0.963,0.482 -1.204,0.915 L 0,0 z"
             inkscape:connector-curvature="0"
             id="path34"
             style="fill:#000000;fill-opacity:1;fill-rule:nonzero;stroke:none" /></g><g
           transform="translate(446.3194,301.1711)"
           id="g36"><path
             d="m 0,0 -7.9,30.202 c -0.144,0.481 -0.53,0.915 -1.204,0.915 l -2.697,0 c -0.675,0 -1.06,-0.434 -1.204,-0.915 L -21.001,0 c -0.145,-0.578 0,-1.011 0.674,-1.011 l 1.638,0 c 0.674,0 0.914,0.433 1.06,0.915 l 1.594,6.089 1.49,5.745 c 10e-4,0.006 -0.003,0.009 -0.002,0.015 l 0.471,1.798 0.212,0.81 0.001,0.006 3.362,12.848 3.241,-12.531 0,-0.004 0.757,-2.927 c 0.001,-0.005 -0.002,-0.007 -10e-4,-0.012 l 0.96,-3.736 C -5.543,8.001 -5.54,8 -5.539,7.996 l 2.07,-8.092 c 0.146,-0.482 0.386,-0.915 1.06,-0.915 l 1.735,0 C 0,-1.011 0.144,-0.578 0,0"
             inkscape:connector-curvature="0"
             id="path38"
             style="fill:#000000;fill-opacity:1;fill-rule:nonzero;stroke:none" /></g><g
           transform="translate(568.3,301.1711)"
           id="g40"><path
             d="m 0,0 -7.9,30.202 c -0.144,0.481 -0.53,0.915 -1.204,0.915 l -2.697,0 c -0.675,0 -1.06,-0.434 -1.204,-0.915 L -21.002,0 c -0.144,-0.578 0,-1.011 0.675,-1.011 l 1.638,0 c 0.674,0 0.914,0.433 1.06,0.915 l 1.594,6.089 1.49,5.745 c 10e-4,0.006 -0.003,0.009 -0.002,0.015 l 0.471,1.798 0.212,0.81 0.001,0.006 3.362,12.848 3.241,-12.531 0,-0.004 0.757,-2.927 c 0.001,-0.005 -0.002,-0.007 -10e-4,-0.012 l 0.96,-3.736 C -5.543,8.001 -5.54,8 -5.539,7.996 l 2.07,-8.092 c 0.146,-0.482 0.386,-0.915 1.06,-0.915 l 1.735,0 C 0,-1.011 0.144,-0.578 0,0"
             inkscape:connector-curvature="0"
             id="path42"
             style="fill:#000000;fill-opacity:1;fill-rule:nonzero;stroke:none" /></g><g
           transform="translate(460.4197,332.288)"
           id="g44"><path
             d="M 0,0 -7.465,0 C -8.14,0 -8.381,-0.434 -8.381,-0.915 l 0,-30.298 c 0,-0.482 0.241,-0.915 0.916,-0.915 l 1.445,0 c 0.674,0 0.915,0.433 0.915,0.915 l 0,11.691 0,0.736 0,3.757 0,1.279 0,10.378 c 0,0.289 0.144,0.386 0.384,0.386 l 4.721,0 c 4.191,0 6.358,-2.361 6.358,-6.215 0,-3.853 -2.167,-6.213 -6.358,-6.213 l -1.037,0 c -0.446,0 -0.437,-0.426 -0.437,-0.426 l 0,-2.163 c 0,0 0.055,-0.397 0.484,-0.397 l 0.99,0 c 5.974,0 9.634,3.516 9.634,9.199 C 9.634,-3.516 5.974,0 0,0"
             inkscape:connector-curvature="0"
             id="path46"
             style="fill:#000000;fill-opacity:1;fill-rule:nonzero;stroke:none" /></g><g
           transform="translate(403.453,328.095)"
           id="g48"><path
             d="m 0,0 c -0.146,0 -0.302,-0.035 -0.45,-0.101 l -18.604,-8.976 c -0.893,-0.406 -1.408,-0.832 -1.408,-1.816 l 0,-1.958 c 0,-0.984 0.515,-1.41 1.403,-1.813 l 18.616,-8.981 c 0.141,-0.063 0.297,-0.097 0.444,-0.097 0.361,0 0.748,0.223 0.748,0.851 l 0,2.041 c 0,0.983 -0.515,1.409 -1.404,1.813 l -15.175,7.165 15.172,7.164 c 0.892,0.407 1.407,0.833 1.407,1.814 l 0,2.041 C 0.749,-0.224 0.362,0 0,0"
             inkscape:connector-curvature="0"
             id="path50"
             style="fill:#ffffff;fill-opacity:1;fill-rule:nonzero;stroke:none" /></g></g></g></g></svg>
