<?xml version="1.0" encoding="utf-8"?>
<!-- Generator: Adobe Illustrator 15.0.0, SVG Export Plug-In . SVG Version: 6.00 Build 0)  -->
<!DOCTYPE svg PUBLIC "-//W3C//DTD SVG 1.1//EN" "http://www.w3.org/Graphics/SVG/1.1/DTD/svg11.dtd">
<svg version="1.1" id="Capa_1" xmlns="http://www.w3.org/2000/svg" xmlns:xlink="http://www.w3.org/1999/xlink" x="0px" y="0px"
	 width="600px" height="600px" viewBox="0 0 600 600" enable-background="new 0 0 600 600" xml:space="preserve">
<path d="M530.565,175.432H311.074l45.896-26.492c6.339-3.656,8.509-11.76,4.85-18.101c-3.655-6.338-11.763-8.518-18.1-4.85
	L255,177.202c-4.099,2.365-6.625,6.738-6.625,11.475c0,4.733,2.526,9.107,6.625,11.476l88.72,51.225
	c2.087,1.206,4.363,1.779,6.612,1.779c4.58,0,9.035-2.378,11.487-6.629c3.659-6.338,1.489-14.442-4.85-18.101l-45.884-26.492
	h206.229V449.29H82.686V201.934h96.729c7.317,0,13.251-5.933,13.251-13.251c0-7.318-5.934-13.251-13.251-13.251H69.435
	c-7.318,0-13.251,5.933-13.251,13.251V462.54c0,7.318,5.933,13.252,13.251,13.252h461.131c7.317,0,13.251-5.934,13.251-13.252
	V188.683C543.816,181.365,537.883,175.432,530.565,175.432z"/>
</svg>
