<?xml version="1.0" encoding="utf-8"?>
<!-- Generator: Adobe Illustrator 15.0.0, SVG Export Plug-In . SVG Version: 6.00 Build 0)  -->
<!DOCTYPE svg PUBLIC "-//W3C//DTD SVG 1.1//EN" "http://www.w3.org/Graphics/SVG/1.1/DTD/svg11.dtd">
<svg version="1.1" id="Capa_1" xmlns="http://www.w3.org/2000/svg" xmlns:xlink="http://www.w3.org/1999/xlink" x="0px" y="0px"
	 width="600px" height="600px" viewBox="0 0 600 600" enable-background="new 0 0 600 600" xml:space="preserve">
<g>
	<path d="M303.062,195.562c-4.724-1.453-9.69,1.21-11.131,5.909l-96.583,315.242c-1.442,4.707,1.204,9.694,5.909,11.13
		c0.87,0.27,1.75,0.4,2.613,0.4c3.814,0,7.342-2.473,8.518-6.311l96.582-315.242C310.412,201.984,307.768,196.996,303.062,195.562z"
		/>
	<path d="M340.873,72.154c-4.713-1.453-9.69,1.199-11.13,5.909l-19.542,63.778c-1.442,4.707,1.203,9.686,5.91,11.13
		c0.869,0.263,1.748,0.394,2.611,0.394c3.814,0,7.344-2.474,8.518-6.301l19.541-63.781
		C348.225,78.576,345.579,73.591,340.873,72.154z"/>
	<path d="M355.447,183.014l58.919-31.287c4.347-2.313,6-7.7,3.692-12.051c-2.307-4.342-7.702-5.986-12.051-3.691l-58.92,31.287
		c-4.347,2.305-6,7.701-3.691,12.043c1.602,3.02,4.688,4.732,7.88,4.732C352.684,184.047,354.115,183.717,355.447,183.014z"/>
	<path d="M422.205,233.67l-63.779-19.538c-4.723-1.452-9.69,1.21-11.131,5.909c-1.442,4.709,1.203,9.688,5.909,11.132l63.779,19.536
		c0.87,0.27,1.749,0.4,2.612,0.4c3.814,0,7.344-2.473,8.518-6.311C429.556,240.092,426.911,235.114,422.205,233.67z"/>
	<path d="M266.698,155.816c1.601,3.013,4.688,4.736,7.88,4.736c1.407,0,2.839-0.339,4.17-1.044c4.347-2.307,6-7.704,3.691-12.046
		l-31.284-58.924c-2.307-4.342-7.699-5.984-12.051-3.689c-4.347,2.307-6,7.701-3.691,12.047L266.698,155.816z"/>
	<path d="M244.188,197.363c3.813,0,7.342-2.471,8.518-6.3c1.442-4.71-1.203-9.694-5.909-11.132l-63.779-19.546
		c-4.714-1.435-9.692,1.211-11.13,5.909c-1.442,4.71,1.204,9.695,5.909,11.133l63.78,19.543
		C242.445,197.233,243.324,197.363,244.188,197.363z"/>
</g>
</svg>
