<?xml version="1.0" encoding="utf-8"?>
<!-- Generator: Adobe Illustrator 15.0.0, SVG Export Plug-In . SVG Version: 6.00 Build 0)  -->
<!DOCTYPE svg PUBLIC "-//W3C//DTD SVG 1.1//EN" "http://www.w3.org/Graphics/SVG/1.1/DTD/svg11.dtd">
<svg version="1.1" id="Capa_1" xmlns="http://www.w3.org/2000/svg" xmlns:xlink="http://www.w3.org/1999/xlink" x="0px" y="0px"
	 width="600px" height="600px" viewBox="0 0 600 600" enable-background="new 0 0 600 600" xml:space="preserve">
<g>
	<path fill="#222221" d="M238.533,118.734c-63.055,0-114.362,51.298-114.362,114.362c0,63.062,51.308,114.361,114.362,114.361
		c63.062,0,114.361-51.3,114.361-114.361C352.895,170.033,301.596,118.734,238.533,118.734z M238.533,318.982
		c-47.357,0-85.886-38.529-85.886-85.886c0-47.359,38.529-85.886,85.886-85.886c47.358,0,85.886,38.526,85.886,85.886
		C324.419,280.453,285.892,318.982,238.533,318.982z"/>
	<path fill="#222221" d="M521.024,506.327L358.777,344.073c26.967-29.199,43.484-68.188,43.484-110.977
		c0-90.28-73.449-163.729-163.729-163.729c-90.28,0-163.729,73.448-163.729,163.729c0,90.279,73.449,163.729,163.729,163.729
		c37.256,0,71.621-12.528,99.165-33.566l163.192,163.202c2.782,2.779,6.424,4.171,10.067,4.171c3.643,0,7.293-1.392,10.066-4.171
		C526.586,520.898,526.586,511.89,521.024,506.327z M103.281,233.097c0-74.582,60.677-135.252,135.252-135.252
		c74.582,0,135.254,60.67,135.254,135.252s-60.672,135.252-135.254,135.252C163.958,368.349,103.281,307.679,103.281,233.097z"/>
</g>
</svg>
