<?xml version="1.0" encoding="utf-8"?>
<!-- Generator: Adobe Illustrator 15.0.0, SVG Export Plug-In . SVG Version: 6.00 Build 0)  -->
<!DOCTYPE svg PUBLIC "-//W3C//DTD SVG 1.1//EN" "http://www.w3.org/Graphics/SVG/1.1/DTD/svg11.dtd">
<svg version="1.1" id="Capa_1" xmlns="http://www.w3.org/2000/svg" xmlns:xlink="http://www.w3.org/1999/xlink" x="0px" y="0px"
	 width="600px" height="600px" viewBox="0 0 600 600" enable-background="new 0 0 600 600" xml:space="preserve">
<path d="M404.395,132.703c-0.393-3.917-2.849-7.329-6.438-8.945c-3.587-1.612-7.765-1.192-10.964,1.105l-56.708,40.829
	c-3.195,2.3-4.92,6.131-4.524,10.049c0.393,3.917,2.849,7.326,6.438,8.942l21.809,9.823l-46.808,103.916
	c-8.796-2.763-17.896-4.216-27.185-4.216c-35.943,0-68.702,21.168-83.456,53.932c-10.035,22.278-10.794,47.133-2.136,69.984
	c8.657,22.85,25.695,40.961,47.978,50.999c11.915,5.364,24.541,8.087,37.52,8.09c0.006,0,0.006,0,0.011,0
	c35.929,0,68.688-21.17,83.447-53.934c10.035-22.279,10.794-47.136,2.139-69.984c-7.339-19.374-20.75-35.279-38.225-45.807
	l46.812-103.927l21.803,9.82c1.447,0.651,2.989,0.971,4.525,0.971c0.038,0,0.078,0,0.11,0c6.086,0,11.02-4.934,11.02-11.02
	C411.562,202.416,404.395,132.703,404.395,132.703z M344.905,361.1c6.572,17.345,5.994,36.213-1.625,53.127
	c-11.203,24.873-36.07,40.945-63.35,40.945c-0.003,0-0.005,0-0.008,0c-9.839-0.003-19.419-2.069-28.473-6.148
	c-16.911-7.616-29.844-21.366-36.417-38.711c-6.572-17.346-5.996-36.213,1.623-53.125c11.2-24.872,36.069-40.941,63.358-40.941
	c9.841,0,19.422,2.068,28.477,6.147C325.402,330.01,338.335,343.758,344.905,361.1z M358.653,172.427l25.725-18.523l3.178,31.542
	L358.653,172.427z"/>
</svg>
