<?xml version="1.0" encoding="utf-8"?>
<!-- Generator: Adobe Illustrator 15.0.0, SVG Export Plug-In . SVG Version: 6.00 Build 0)  -->
<!DOCTYPE svg PUBLIC "-//W3C//DTD SVG 1.1//EN" "http://www.w3.org/Graphics/SVG/1.1/DTD/svg11.dtd">
<svg version="1.1" id="Capa_1" xmlns="http://www.w3.org/2000/svg" xmlns:xlink="http://www.w3.org/1999/xlink" x="0px" y="0px"
	 width="600px" height="600px" viewBox="0 0 600 600" enable-background="new 0 0 600 600" xml:space="preserve">
<path fill="#222221" d="M517.525,314.363V191.087c0-7.584-6.171-13.754-13.756-13.754H96.23c-7.585,0-13.756,6.17-13.756,13.754
	v123.276c0,5.273,3.068,10.145,7.818,12.412l148.528,70.908l0.176,0.172c16.5,16,38.164,24.811,61.003,24.811
	c22.841,0,44.504-8.811,60.998-24.811l0.176-0.172l0.222-0.105l148.296-70.803C514.45,324.502,517.525,319.631,517.525,314.363z
	 M109.98,305.688v-49.475H212.27v78.723c0,5.975,0.611,11.959,1.816,17.789l0.612,2.959L109.98,305.688z M360.223,334.936
	c0,33.207-27.016,60.225-60.223,60.225s-60.225-27.018-60.225-60.225v-78.723h120.447V334.936z M490.016,305.688l-104.711,49.996
	l0.609-2.957c1.205-5.852,1.816-11.836,1.816-17.791v-78.723h102.285V305.688z M490.016,228.704H109.98v-23.863h380.035V228.704z"/>
</svg>
