<?xml version="1.0" encoding="utf-8"?>
<!-- Generator: Adobe Illustrator 15.0.0, SVG Export Plug-In . SVG Version: 6.00 Build 0)  -->
<!DOCTYPE svg PUBLIC "-//W3C//DTD SVG 1.1//EN" "http://www.w3.org/Graphics/SVG/1.1/DTD/svg11.dtd">
<svg version="1.1" id="Capa_1" xmlns="http://www.w3.org/2000/svg" xmlns:xlink="http://www.w3.org/1999/xlink" x="0px" y="0px"
	 width="600px" height="600px" viewBox="0 0 600 600" enable-background="new 0 0 600 600" xml:space="preserve">
<path fill="#222221" d="M476.545,83.995c-3.965-2.982-9.148-3.809-13.842-2.186l-236.115,80.935h-84.95H87.021
	c-8.271,0-14.976,6.705-14.976,14.975v139.429c0,8.271,6.705,14.976,14.976,14.976h12.335v171.908
	c0,8.271,6.703,14.976,14.973,14.976h114.745c8.271,0,14.976-6.705,14.976-14.976v-38.65c0-4.723-2.229-9.176-6.018-11.998
	l-52.477-39.163v-82.097h41.033l236.115,80.927c1.586,0.548,3.225,0.812,4.855,0.812c3.195,0,6.359-1.023,8.986-2.997
	c37.904-28.45,51.41-103.083,51.41-163.435C527.955,187.078,514.449,112.447,476.545,83.995z M214.1,302.175h-43.521h-13.964
	v-109.48H214.1V302.175z M101.993,192.695h24.672v109.48h-12.336h-12.336V192.695z M161.622,433.729l52.479,39.162v16.166h-84.797
	V332.124h12.335h13.968v89.606C155.606,426.454,157.836,430.907,161.622,433.729z M464.129,381.882l-220.08-75.43V188.416
	l220.08-75.436c20.488,21.796,33.877,74.041,33.877,134.451S484.617,360.085,464.129,381.882z"/>
</svg>
