<?xml version="1.0" encoding="utf-8"?>
<!-- Generator: Adobe Illustrator 15.0.0, SVG Export Plug-In . SVG Version: 6.00 Build 0)  -->
<!DOCTYPE svg PUBLIC "-//W3C//DTD SVG 1.1//EN" "http://www.w3.org/Graphics/SVG/1.1/DTD/svg11.dtd">
<svg version="1.1" id="Capa_1" xmlns="http://www.w3.org/2000/svg" xmlns:xlink="http://www.w3.org/1999/xlink" x="0px" y="0px"
	 width="600px" height="600px" viewBox="0 0 600 600" enable-background="new 0 0 600 600" xml:space="preserve">
<path d="M499.902,122.952h-74.938h-249.93h-74.938c-5.572,0-10.098,4.521-10.098,10.098v333.9c0,5.576,4.525,10.098,10.098,10.098
	h74.938h249.93h74.938c5.57,0,10.098-4.521,10.098-10.098v-333.9C510,127.474,505.473,122.952,499.902,122.952z M435.062,279.237
	h54.74v43.617h-54.74V279.237z M489.803,259.04h-54.74v-43.617h54.74V259.04z M435.062,343.05h54.74v43.617h-54.74V343.05z
	 M489.803,195.226h-54.74v-52.078h54.74V195.226z M110.195,279.237h54.742v43.617h-54.742V279.237z M164.938,259.04h-54.742v-43.617
	h54.742V259.04z M110.195,343.05h54.742v43.617h-54.742V343.05z M164.938,143.147v52.078h-54.742v-52.078H164.938z M110.195,406.864
	h54.742v49.986h-54.742V406.864z M185.133,456.851V143.147h229.734v313.703H185.133z M435.062,456.851v-49.986h54.74v49.986H435.062
	z"/>
</svg>
