<?xml version="1.0" encoding="utf-8"?>
<!-- Generator: Adobe Illustrator 15.0.0, SVG Export Plug-In . SVG Version: 6.00 Build 0)  -->
<!DOCTYPE svg PUBLIC "-//W3C//DTD SVG 1.1//EN" "http://www.w3.org/Graphics/SVG/1.1/DTD/svg11.dtd">
<svg version="1.1" id="Capa_1" xmlns="http://www.w3.org/2000/svg" xmlns:xlink="http://www.w3.org/1999/xlink" x="0px" y="0px"
	 width="600px" height="600px" viewBox="0 0 600 600" enable-background="new 0 0 600 600" xml:space="preserve">
<path d="M471.688,156.645c0-5.525-4.484-10.006-10.006-10.006H234.496c-5.531,0-10.006,4.48-10.006,10.006v194.18
	c-10.25-8.871-23.568-14.279-38.156-14.279c-32.205,0-58.412,26.201-58.412,58.406c0,32.209,26.207,58.41,58.412,58.41
	c32.215,0,58.412-26.201,58.412-58.41c0-2.854-0.246-175.924-0.246-175.924h207.176v131.666
	c-10.229-8.795-23.488-14.148-38.008-14.148c-32.217,0-58.412,26.201-58.412,58.406c0,32.209,26.195,58.41,58.412,58.41
	c32.205,0,58.41-26.201,58.41-58.41C472.078,391.99,471.688,156.645,471.688,156.645z M186.334,433.352
	c-21.174,0-38.4-17.227-38.4-38.4c0-21.17,17.227-38.396,38.4-38.396s38.4,17.227,38.4,38.396
	C224.734,416.125,207.508,433.352,186.334,433.352z M244.5,199.016V166.65h207.176v32.365H244.5z M413.668,433.352
	c-21.174,0-38.4-17.227-38.4-38.4c0-21.17,17.227-38.396,38.4-38.396s38.4,17.227,38.4,38.396
	C452.068,416.125,434.842,433.352,413.668,433.352z"/>
</svg>
