<?xml version="1.0" encoding="utf-8"?>
<!-- Generator: Adobe Illustrator 15.0.0, SVG Export Plug-In . SVG Version: 6.00 Build 0)  -->
<!DOCTYPE svg PUBLIC "-//W3C//DTD SVG 1.1//EN" "http://www.w3.org/Graphics/SVG/1.1/DTD/svg11.dtd">
<svg version="1.1" id="Capa_1" xmlns="http://www.w3.org/2000/svg" xmlns:xlink="http://www.w3.org/1999/xlink" x="0px" y="0px"
	 width="600px" height="600px" viewBox="0 0 600 600" enable-background="new 0 0 600 600" xml:space="preserve">
<g>
	<path d="M408.006,293.979c-5.449,0-9.865,4.422-9.865,9.865v141.033c0,17.805-14.482,32.283-32.285,32.283H155.121
		c-17.802,0-32.284-14.479-32.284-32.283V234.143c0-17.795,14.482-32.285,32.284-32.285h141.033c5.448,0,9.866-4.412,9.866-9.865
		c0-5.443-4.418-9.865-9.866-9.865H155.121c-28.681,0-52.015,23.334-52.015,52.016v210.734c0,28.682,23.334,52.014,52.015,52.014
		h210.735c28.682,0,52.016-23.332,52.016-52.014V303.844C417.871,298.401,413.453,293.979,408.006,293.979z"/>
	<path d="M408.006,103.109c-49.016,0-88.895,39.876-88.895,88.884c0,49.02,39.879,88.895,88.895,88.895
		c49.012,0,88.889-39.875,88.889-88.895C496.895,142.985,457.018,103.109,408.006,103.109z M408.006,261.157
		c-38.137,0-69.164-31.021-69.164-69.164c0-38.131,31.027-69.153,69.164-69.153c38.133,0,69.158,31.022,69.158,69.153
		C477.164,230.135,446.139,261.157,408.006,261.157z"/>
</g>
</svg>
