<?xml version="1.0" encoding="utf-8"?>
<!-- Generator: Adobe Illustrator 15.0.0, SVG Export Plug-In . SVG Version: 6.00 Build 0)  -->
<!DOCTYPE svg PUBLIC "-//W3C//DTD SVG 1.1//EN" "http://www.w3.org/Graphics/SVG/1.1/DTD/svg11.dtd">
<svg version="1.1" id="Capa_1" xmlns="http://www.w3.org/2000/svg" xmlns:xlink="http://www.w3.org/1999/xlink" x="0px" y="0px"
	 width="600px" height="600px" viewBox="0 0 600 600" enable-background="new 0 0 600 600" xml:space="preserve">
<path fill="#222221" d="M483.303,496.078c0.193-0.398,0.381-0.795,0.535-1.217c0.166-0.436,0.293-0.869,0.407-1.318
	c0.114-0.408,0.208-0.814,0.281-1.236c0.08-0.492,0.12-0.977,0.147-1.471c0.013-0.266,0.08-0.512,0.08-0.775V256.623
	c0-0.074-0.027-0.146-0.027-0.221c-0.014-0.732-0.107-1.457-0.234-2.18c-0.039-0.201-0.033-0.404-0.08-0.602
	c-0.2-0.91-0.501-1.799-0.896-2.658c-0.087-0.205-0.228-0.381-0.328-0.578c-0.321-0.633-0.669-1.258-1.097-1.84
	c-0.214-0.297-0.481-0.551-0.723-0.83c-0.32-0.367-0.602-0.758-0.963-1.1c-0.08-0.072-0.174-0.117-0.247-0.189
	c-0.073-0.061-0.12-0.137-0.187-0.197L308.914,99.545c-5.129-4.4-12.699-4.4-17.828,0L120.027,246.229
	c-0.066,0.061-0.113,0.137-0.187,0.197c-0.074,0.072-0.168,0.117-0.248,0.189c-0.361,0.342-0.642,0.732-0.963,1.1
	c-0.24,0.279-0.501,0.533-0.722,0.83c-0.429,0.582-0.776,1.207-1.097,1.84c-0.101,0.197-0.241,0.373-0.328,0.578
	c-0.395,0.859-0.695,1.748-0.896,2.658c-0.046,0.197-0.04,0.4-0.08,0.602c-0.127,0.723-0.221,1.447-0.233,2.18
	c0,0.074-0.027,0.146-0.027,0.221v233.438c0,0.256,0.067,0.494,0.08,0.748c0.027,0.498,0.067,0.99,0.147,1.48
	c0.067,0.422,0.167,0.83,0.274,1.238c0.113,0.443,0.24,0.879,0.407,1.314c0.154,0.42,0.342,0.822,0.535,1.227
	c0.194,0.387,0.395,0.77,0.622,1.143c0.254,0.416,0.542,0.799,0.836,1.184c0.16,0.207,0.274,0.436,0.448,0.637
	c0.101,0.113,0.221,0.189,0.321,0.297c0.407,0.441,0.849,0.83,1.311,1.211c0.273,0.234,0.541,0.488,0.836,0.695
	c0.494,0.348,1.022,0.629,1.564,0.908c0.288,0.15,0.555,0.336,0.856,0.465c0.668,0.291,1.377,0.498,2.1,0.684
	c0.187,0.047,0.361,0.129,0.548,0.17c0.91,0.188,1.846,0.295,2.809,0.295h342.117c0.963,0,1.898-0.105,2.809-0.295
	c0.153-0.033,0.294-0.1,0.447-0.141c0.756-0.184,1.498-0.404,2.193-0.709c0.288-0.123,0.549-0.305,0.83-0.447
	c0.548-0.285,1.083-0.568,1.584-0.92c0.295-0.211,0.562-0.465,0.843-0.699c0.455-0.375,0.896-0.756,1.291-1.188
	c0.101-0.105,0.228-0.184,0.321-0.293c0.187-0.211,0.307-0.449,0.475-0.666c0.287-0.375,0.568-0.752,0.822-1.156
	C482.908,496.861,483.108,496.473,483.303,496.078z M142.637,291.34l87.088,93.203l-87.088,75.512V291.34z M300.481,359.439
	L434.52,476.363H165.641L300.481,359.439z M370.57,384.229l86.793-92.893v168.602L370.57,384.229z M300,127.982l151.291,129.734
	L349.913,366.213l-39.896-34.803c-2.568-2.238-5.731-3.287-8.888-3.314c-0.194-0.016-1.01-0.02-1.224,0
	c-3.149,0.02-6.312,1.062-8.881,3.287l-40.591,35.201L148.709,257.717L300,127.982z"/>
</svg>
