<?xml version="1.0" encoding="utf-8"?>
<!-- Generator: Adobe Illustrator 15.0.0, SVG Export Plug-In . SVG Version: 6.00 Build 0)  -->
<!DOCTYPE svg PUBLIC "-//W3C//DTD SVG 1.1//EN" "http://www.w3.org/Graphics/SVG/1.1/DTD/svg11.dtd">
<svg version="1.1" id="Capa_1" xmlns="http://www.w3.org/2000/svg" xmlns:xlink="http://www.w3.org/1999/xlink" x="0px" y="0px"
	 width="600px" height="600px" viewBox="0 0 600 600" enable-background="new 0 0 600 600" xml:space="preserve">
<path fill="#222221" d="M424.354,288.722h-0.743v-97.168c0-6.127-4.968-11.094-11.094-11.094h-53.669v-45.895
	c0-3.473-1.629-6.744-4.396-8.84c-2.774-2.103-6.367-2.796-9.703-1.838l-197.008,55.419c-2.318,0.649-4.24,2.015-5.639,3.765
	c-2.437,2.036-4.025,5.06-4.025,8.482v273.888c0,6.127,4.975,11.094,11.094,11.094h263.347c6.126,0,11.094-4.967,11.094-11.094
	v-97.168h0.743c20.715,0,37.568-16.853,37.568-37.568v-4.415C461.923,305.575,445.069,288.722,424.354,288.722z M336.661,180.46
	H225.569l111.092-31.247V180.46z M401.423,454.347H160.267V202.648h241.156v86.073h-52.086c-20.721,0-37.573,16.854-37.573,37.568
	v4.415c0,20.716,16.853,37.568,37.573,37.568h52.086V454.347z M439.735,330.705c0,8.478-6.904,15.38-15.381,15.38h-75.018
	c-8.484,0-15.385-6.902-15.385-15.38v-4.415c0-8.478,6.9-15.38,15.385-15.38h75.018c8.477,0,15.381,6.902,15.381,15.38V330.705z"/>
</svg>
