<?xml version="1.0" encoding="utf-8"?>
<!-- Generator: Adobe Illustrator 15.0.0, SVG Export Plug-In . SVG Version: 6.00 Build 0)  -->
<!DOCTYPE svg PUBLIC "-//W3C//DTD SVG 1.1//EN" "http://www.w3.org/Graphics/SVG/1.1/DTD/svg11.dtd">
<svg version="1.1" id="Capa_1" xmlns="http://www.w3.org/2000/svg" xmlns:xlink="http://www.w3.org/1999/xlink" x="0px" y="0px"
	 width="600px" height="600px" viewBox="0 0 600 600" enable-background="new 0 0 600 600" xml:space="preserve">
<g>
	<path d="M411.374,227.019c0.03,0,0.057,0,0.087,0c4.746,0,8.596-3.848,8.596-8.595c0-1.467-0.367-2.847-1.014-4.055l-11.785-32.026
		c-1.245-3.38-4.464-5.625-8.068-5.625h-17.463v-19.232c0-4.747-3.85-8.596-8.597-8.596H222.703c-4.748,0-8.595,3.849-8.595,8.596
		v19.232h-13.385c-3.604,0-6.823,2.245-8.067,5.625l-12.185,33.112c-0.969,2.637-0.59,5.583,1.018,7.887
		c1.608,2.306,4.24,3.678,7.05,3.678h14.991l3.634,33.418h-12.396c-2.445,0-4.775,1.042-6.405,2.862
		c-1.63,1.822-2.406,4.25-2.139,6.68l12.185,109.958c0.483,4.356,4.161,7.65,8.543,7.65h14.039l6.074,55.857
		c0.474,4.36,4.158,7.667,8.546,7.667h128.693c4.389,0,8.072-3.307,8.546-7.667l6.074-55.857h14.038c4.383,0,8.062-3.294,8.544-7.65
		l12.185-109.958c0.269-2.43-0.509-4.858-2.139-6.68c-1.631-1.821-3.961-2.862-6.404-2.862h-12.397l3.634-33.418H411.374z
		 M231.299,166.081h133.235v10.636H231.299V166.081z M206.718,193.908h15.985H373.13h20.064l5.857,15.919h-10.38H211.241h-10.38
		L206.718,193.908z M356.592,433.92h-113.27l-5.038-46.333H361.63L356.592,433.92z M385.266,370.396H214.647l-10.279-92.767h191.177
		L385.266,370.396z M375.456,260.437H224.458l-3.634-33.418H379.09L375.456,260.437z"/>
	<path d="M299.957,361.057c20.424,0,37.043-16.619,37.043-37.045s-16.619-37.045-37.043-37.045
		c-20.425,0-37.045,16.619-37.045,37.045S279.532,361.057,299.957,361.057z M299.957,304.16c10.945,0,19.852,8.906,19.852,19.852
		s-8.906,19.853-19.852,19.853c-10.947,0-19.853-8.907-19.853-19.853S289.01,304.16,299.957,304.16z"/>
</g>
</svg>
