<?xml version="1.0" encoding="utf-8"?>
<!-- Generator: Adobe Illustrator 15.0.0, SVG Export Plug-In . SVG Version: 6.00 Build 0)  -->
<!DOCTYPE svg PUBLIC "-//W3C//DTD SVG 1.1//EN" "http://www.w3.org/Graphics/SVG/1.1/DTD/svg11.dtd">
<svg version="1.1" id="Capa_1" xmlns="http://www.w3.org/2000/svg" xmlns:xlink="http://www.w3.org/1999/xlink" x="0px" y="0px"
	 width="600px" height="600px" viewBox="0 0 600 600" enable-background="new 0 0 600 600" xml:space="preserve">
<g>
	<path fill="#222221" d="M379.979,171.794c-22.959,0-41.633,18.676-41.633,41.631c0,22.957,18.674,41.633,41.633,41.633
		c22.949,0,41.621-18.676,41.621-41.633C421.601,190.47,402.929,171.794,379.979,171.794z M379.979,226.44
		c-7.176,0-13.018-5.84-13.018-13.016c0-7.174,5.842-13.014,13.018-13.014c7.172,0,13.008,5.84,13.008,13.014
		C392.987,220.601,387.151,226.44,379.979,226.44z"/>
	<path fill="#222221" d="M505.94,249.362C482.718,155.97,399.226,90.747,302.892,90.747c-115.385,0-209.254,93.867-209.254,209.252
		c0,115.387,93.869,209.254,209.254,209.254c69.598,0,134.451-34.463,173.475-92.197c2.223-3.291,2.977-7.357,2.09-11.229
		c-0.895-3.869-3.352-7.188-6.789-9.18l-100.059-57.77l127.598-73.67C504.733,262.015,507.476,255.554,505.94,249.362z
		 M335.839,326.485c-4.43,2.557-7.154,7.279-7.154,12.393c0,5.115,2.725,9.838,7.154,12.395l107.652,62.156
		c-34.18,42.338-85.682,67.209-140.6,67.209c-99.604,0-180.637-81.035-180.637-180.639s81.033-180.637,180.637-180.637
		c79.572,0,148.994,51.545,172.393,126.613L335.839,326.485z"/>
</g>
</svg>
