<?xml version="1.0" encoding="utf-8"?>
<!-- Generator: Adobe Illustrator 15.0.0, SVG Export Plug-In . SVG Version: 6.00 Build 0)  -->
<!DOCTYPE svg PUBLIC "-//W3C//DTD SVG 1.1//EN" "http://www.w3.org/Graphics/SVG/1.1/DTD/svg11.dtd">
<svg version="1.1" id="Capa_1" xmlns="http://www.w3.org/2000/svg" xmlns:xlink="http://www.w3.org/1999/xlink" x="0px" y="0px"
	 width="600px" height="600px" viewBox="0 0 600 600" enable-background="new 0 0 600 600" xml:space="preserve">
<path fill="#222221" d="M485.349,148.311h-27.837V98.952c0-6.672-5.41-12.084-12.083-12.084H151.521
	c-6.674,0-12.084,5.412-12.084,12.084v49.358h-24.786c-6.673,0-12.083,5.412-12.083,12.084c0,6.673,5.41,12.085,12.083,12.085
	h24.786v49.357c0,6.673,5.41,12.082,12.084,12.082h293.907c6.673,0,12.083-5.409,12.083-12.082v-49.357h15.754v85.135H351.188
	c-6.673,0-12.084,5.41-12.084,12.084v79.549h-18.266c-6.673,0-12.083,5.412-12.083,12.084v139.717
	c0,6.674,5.41,12.084,12.083,12.084h60.698c6.674,0,12.084-5.41,12.084-12.084V361.331c0-6.672-5.41-12.084-12.084-12.084h-18.266
	V281.78h122.077c6.673,0,12.083-5.41,12.083-12.082V160.395C497.432,153.723,492.021,148.311,485.349,148.311z M433.346,209.753
	H163.604v-98.717h269.741V209.753z M369.455,488.966h-36.533V373.415h36.533V488.966z"/>
</svg>
