<?xml version="1.0" encoding="utf-8"?>
<!-- Generator: Adobe Illustrator 15.0.0, SVG Export Plug-In . SVG Version: 6.00 Build 0)  -->
<!DOCTYPE svg PUBLIC "-//W3C//DTD SVG 1.1//EN" "http://www.w3.org/Graphics/SVG/1.1/DTD/svg11.dtd">
<svg version="1.1" id="Capa_1" xmlns="http://www.w3.org/2000/svg" xmlns:xlink="http://www.w3.org/1999/xlink" x="0px" y="0px"
	 width="600px" height="600px" viewBox="0 0 600 600" enable-background="new 0 0 600 600" xml:space="preserve">
<path d="M489.271,336.012L461.795,184.05c-0.684-3.779-3.975-6.527-7.812-6.527c-0.01,0-0.02,0-0.031,0l-335.443,1.287
	c-3.306,0.012-6.258,2.073-7.409,5.174c-1.153,3.098-0.264,6.586,2.232,8.756l48.714,42.332l29.261,180.735
	c0.622,3.846,3.942,6.67,7.835,6.67c0.01,0,0.02,0,0.029,0l170.792-0.646c3.904-0.016,7.219-2.869,7.813-6.729l29.609-192.231
	l16.727-2.659l21.595,125.373c0.373,2.166,1.629,4.082,3.471,5.291c1.837,1.201,4.093,1.592,6.234,1.074l27.929-6.814
	C487.418,344.139,490.018,340.139,489.271,336.012z M459.91,334.508l-21.482-124.714c-0.74-4.282-4.777-7.158-9.069-6.492
	l-30.182,4.799c-3.407,0.542-6.073,3.225-6.599,6.632l-29.459,191.25l-119.881,0.453l-0.078-20.469l19.422-0.074
	c4.384-0.016,7.924-3.584,7.907-7.969c-0.018-4.371-3.568-7.906-7.938-7.906c-0.009,0-0.019,0-0.031,0l-19.422,0.074l-0.064-17.109
	l19.42-0.076c4.384-0.02,7.924-3.586,7.907-7.969c-0.017-4.373-3.568-7.908-7.938-7.908c-0.01,0-0.021,0-0.031,0l-19.42,0.078
	l-0.066-17.111l19.42-0.074c4.384-0.016,7.924-3.584,7.907-7.969c-0.017-4.371-3.568-7.906-7.938-7.906c-0.01,0-0.02,0-0.031,0
	l-19.418,0.074l-0.066-17.113l19.422-0.073c4.384-0.016,7.924-3.586,7.907-7.969c-0.017-4.372-3.568-7.907-7.938-7.907
	c-0.01,0-0.02,0-0.031,0l-19.42,0.074l-0.066-17.104l19.424-0.073c4.384-0.016,7.924-3.586,7.907-7.969
	c-0.017-4.372-3.568-7.907-7.938-7.907c-0.01,0-0.02,0-0.031,0l-19.424,0.073l-0.06-15.806c-0.018-4.372-3.567-7.906-7.938-7.906
	c-0.01,0-0.02,0-0.031,0c-4.384,0.016-7.924,3.585-7.907,7.969l0.597,155.682l0,0l0,0l0.108,28.402l-21.469,0.08L177.257,229.7
	c-0.296-1.833-1.227-3.504-2.627-4.725l-34.949-30.371l307.677-1.178l24.961,138.054L459.91,334.508z"/>
</svg>
