<?xml version="1.0" encoding="utf-8"?>
<!-- Generator: Adobe Illustrator 15.0.0, SVG Export Plug-In . SVG Version: 6.00 Build 0)  -->
<!DOCTYPE svg PUBLIC "-//W3C//DTD SVG 1.1//EN" "http://www.w3.org/Graphics/SVG/1.1/DTD/svg11.dtd">
<svg version="1.1" id="Capa_1" xmlns="http://www.w3.org/2000/svg" xmlns:xlink="http://www.w3.org/1999/xlink" x="0px" y="0px"
	 width="600px" height="600px" viewBox="0 0 600 600" enable-background="new 0 0 600 600" xml:space="preserve">
<g>
	<path d="M401.161,224.386l-216.426-65.452c-2.818-0.841-5.893-0.278-8.215,1.553c-2.318,1.825-3.604,4.67-3.436,7.617
		l18.672,328.791c0.217,3.791,2.777,7.046,6.412,8.146c0.865,0.261,1.744,0.387,2.619,0.387c2.795,0,5.492-1.299,7.232-3.612
		l197.756-263.339c1.771-2.362,2.279-5.44,1.359-8.247C406.218,227.422,403.987,225.241,401.161,224.386z M208.413,471.164
		l-16.533-291.171l191.661,57.964L208.413,471.164z"/>
	<path d="M237.856,303.936c-2.434,8.037-1.594,16.541,2.371,23.942c3.967,7.396,10.572,12.812,18.609,15.244
		c2.969,0.896,6.029,1.35,9.107,1.35c13.941,0,26.033-8.977,30.078-22.339c5.016-16.59-4.402-34.166-20.99-39.178
		c-2.969-0.898-6.033-1.354-9.111-1.354C253.975,281.601,241.893,290.58,237.856,303.936z M255.167,309.176
		c1.691-5.587,6.934-9.486,12.754-9.486c1.303,0,2.605,0.194,3.873,0.578c7.045,2.128,11.045,9.589,8.916,16.625
		c-2.07,6.839-9.723,11.01-16.635,8.916c-3.414-1.033-6.219-3.332-7.9-6.472C254.491,316.197,254.133,312.591,255.167,309.176z"/>
	<path d="M221.706,264.727c2.969,0.896,6.029,1.35,9.107,1.35c13.949,0,26.041-8.979,30.078-22.339
		c2.428-8.035,1.584-16.537-2.377-23.936c-3.961-7.401-10.572-12.816-18.605-15.243c-2.967-0.898-6.031-1.354-9.109-1.354
		c-13.951,0-26.037,8.979-30.074,22.342C195.708,242.132,205.124,259.708,221.706,264.727z M218.036,230.781
		c1.691-5.587,6.938-9.486,12.764-9.486c1.303,0,2.605,0.194,3.873,0.578c3.414,1.031,6.217,3.328,7.896,6.468
		c1.682,3.14,2.039,6.75,1.01,10.164c-2.066,6.832-9.725,11.003-16.635,8.909C219.905,245.283,215.913,237.822,218.036,230.781z"/>
	<path d="M238.29,359.555c-2.439-0.735-4.955-1.108-7.486-1.108c-11.482,0-21.422,7.384-24.748,18.378
		c-4.121,13.646,3.625,28.104,17.268,32.229c2.438,0.74,4.959,1.113,7.494,1.113c11.465,0,21.41-7.384,24.738-18.378
		C259.68,378.145,251.934,363.687,238.29,359.555z M238.245,386.549c-1.205,3.987-5.635,6.425-9.686,5.19
		c-4.098-1.238-6.424-5.584-5.188-9.685c0.984-3.25,4.041-5.52,7.432-5.52c0.756,0,1.516,0.112,2.252,0.333
		C237.153,378.109,239.481,382.455,238.245,386.549z"/>
	<path d="M425.856,164.796c-1.131-2.115-3.057-3.691-5.354-4.388L204.077,94.958c-2.291-0.689-4.773-0.446-6.889,0.685
		c-2.115,1.133-3.691,3.061-4.385,5.354l-10.908,36.071c-0.697,2.296-0.451,4.773,0.684,6.889c1.131,2.115,3.057,3.692,5.354,4.388
		l216.426,65.447c0.875,0.263,1.754,0.389,2.623,0.389c3.883,0,7.473-2.52,8.652-6.428l10.906-36.066
		C427.239,169.389,426.991,166.912,425.856,164.796z M400.94,193.859l-199.116-60.212l5.674-18.757l199.112,60.216L400.94,193.859z"
		/>
	<path d="M319.153,276.208c2.438,0.739,4.959,1.112,7.494,1.112c11.465,0,21.41-7.384,24.74-18.378
		c4.123-13.644-3.623-28.102-17.268-32.233c-2.438-0.735-4.955-1.108-7.486-1.108c-11.482,0-21.422,7.384-24.748,18.378
		C297.766,257.624,305.513,272.083,319.153,276.208z M319.202,249.209c0.984-3.251,4.041-5.521,7.432-5.521
		c0.756,0,1.516,0.112,2.252,0.333c4.1,1.241,6.426,5.587,5.189,9.681c-1.205,3.987-5.631,6.419-9.684,5.191
		C320.292,257.655,317.966,253.309,319.202,249.209z"/>
</g>
</svg>
