<?xml version="1.0" encoding="utf-8"?>
<!-- Generator: Adobe Illustrator 15.0.0, SVG Export Plug-In . SVG Version: 6.00 Build 0)  -->
<!DOCTYPE svg PUBLIC "-//W3C//DTD SVG 1.1//EN" "http://www.w3.org/Graphics/SVG/1.1/DTD/svg11.dtd">
<svg version="1.1" id="Capa_1" xmlns="http://www.w3.org/2000/svg" xmlns:xlink="http://www.w3.org/1999/xlink" x="0px" y="0px"
	 width="600px" height="600px" viewBox="0 0 600 600" enable-background="new 0 0 600 600" xml:space="preserve">
<g>
	<path d="M428.295,99.397h-256.59c-39.873,0-72.308,32.434-72.308,72.307v256.59c0,39.873,32.435,72.309,72.308,72.309h256.59
		c39.873,0,72.309-32.436,72.309-72.309v-256.59C500.604,131.831,468.168,99.397,428.295,99.397z M481.32,428.294
		c0,29.238-23.787,53.027-53.025,53.027h-256.59c-29.238,0-53.025-23.789-53.025-53.027v-256.59
		c0-29.238,23.787-53.025,53.025-53.025h256.59c29.238,0,53.025,23.787,53.025,53.025V428.294z"/>
	<path d="M210.419,154.876h-47.033c-5.324,0-9.641,4.316-9.641,9.641v47.033c0,5.324,4.316,9.641,9.641,9.641h47.033
		c5.324,0,9.642-4.316,9.642-9.641v-47.033C220.061,159.192,215.744,154.876,210.419,154.876z M200.779,201.909h-27.751v-27.752
		h27.751V201.909z"/>
	<path d="M238.783,221.19h47.033c5.324,0,9.641-4.316,9.641-9.641v-47.033c0-5.324-4.316-9.641-9.641-9.641h-47.033
		c-5.324,0-9.642,4.316-9.642,9.641v47.033C229.141,216.874,233.458,221.19,238.783,221.19z M248.423,174.157h27.751v27.752h-27.751
		V174.157z"/>
	<path d="M361.213,154.876H314.18c-5.324,0-9.643,4.316-9.643,9.641v47.033c0,5.324,4.318,9.641,9.643,9.641h47.033
		c5.324,0,9.641-4.316,9.641-9.641v-47.033C370.854,159.192,366.537,154.876,361.213,154.876z M351.57,201.909h-27.75v-27.752h27.75
		V201.909z"/>
	<path d="M436.607,154.876h-47.033c-5.324,0-9.641,4.316-9.641,9.641v47.033c0,5.324,4.316,9.641,9.641,9.641h47.033
		c5.324,0,9.643-4.316,9.643-9.641v-47.033C446.25,159.192,441.932,154.876,436.607,154.876z M426.967,201.909h-27.75v-27.752h27.75
		V201.909z"/>
	<path d="M210.419,378.813h-47.033c-5.324,0-9.641,4.316-9.641,9.641v47.033c0,5.324,4.316,9.641,9.641,9.641h47.033
		c5.324,0,9.642-4.316,9.642-9.641v-47.033C220.061,383.13,215.744,378.813,210.419,378.813z M200.779,425.847h-27.751v-27.752
		h27.751V425.847z"/>
	<path d="M285.816,378.813h-47.033c-5.324,0-9.642,4.316-9.642,9.641v47.033c0,5.324,4.317,9.641,9.642,9.641h47.033
		c5.324,0,9.641-4.316,9.641-9.641v-47.033C295.457,383.13,291.14,378.813,285.816,378.813z M276.174,425.847h-27.751v-27.752
		h27.751V425.847z"/>
	<path d="M361.213,378.813H314.18c-5.324,0-9.643,4.316-9.643,9.641v47.033c0,5.324,4.318,9.641,9.643,9.641h47.033
		c5.324,0,9.641-4.316,9.641-9.641v-47.033C370.854,383.13,366.537,378.813,361.213,378.813z M351.57,425.847h-27.75v-27.752h27.75
		V425.847z"/>
	<path d="M436.607,378.813h-47.033c-5.324,0-9.641,4.316-9.641,9.641v47.033c0,5.324,4.316,9.641,9.641,9.641h47.033
		c5.324,0,9.643-4.316,9.643-9.641v-47.033C446.25,383.13,441.932,378.813,436.607,378.813z M426.967,425.847h-27.75v-27.752h27.75
		V425.847z"/>
	<path d="M263.031,259.901c-2.838,1.756-4.57,4.857-4.57,8.199v63.797c0,3.344,1.732,6.445,4.57,8.201
		c1.549,0.955,3.31,1.439,5.07,1.439c1.474,0,2.952-0.338,4.312-1.016l63.797-31.898c3.266-1.633,5.328-4.971,5.328-8.625
		c0-3.652-2.062-6.99-5.328-8.623l-63.797-31.898C269.424,257.989,265.879,258.146,263.031,259.901z M277.743,283.702l32.599,16.297
		l-32.599,16.299V283.702z"/>
</g>
</svg>
