<?xml version="1.0" encoding="utf-8"?>
<!-- Generator: Adobe Illustrator 15.0.0, SVG Export Plug-In . SVG Version: 6.00 Build 0)  -->
<!DOCTYPE svg PUBLIC "-//W3C//DTD SVG 1.1//EN" "http://www.w3.org/Graphics/SVG/1.1/DTD/svg11.dtd">
<svg version="1.1" id="Capa_1" xmlns="http://www.w3.org/2000/svg" xmlns:xlink="http://www.w3.org/1999/xlink" x="0px" y="0px"
	 width="600px" height="600px" viewBox="0 0 600 600" enable-background="new 0 0 600 600" xml:space="preserve">
<path d="M479.308,142.889c-4.301-2.483-9.592-2.483-13.896,0L233.008,277.071v-122.15c0-7.673-6.229-13.896-13.896-13.896h-91.474
	c-7.665,0-13.894,6.223-13.894,13.896V445.08c0,7.674,6.229,13.895,13.894,13.895h91.474c7.668,0,13.896-6.221,13.896-13.895V322.93
	l232.404,134.184c2.145,1.241,4.547,1.861,6.947,1.861c2.402,0,4.793-0.62,6.948-1.861c4.301-2.48,6.948-7.07,6.948-12.033V154.921
	C486.256,149.958,483.608,145.368,479.308,142.889z M205.216,431.185h-63.683V168.816h63.683V431.185z M458.464,421.011L248.87,300
	l209.594-121.01V421.011z"/>
</svg>
