<?xml version="1.0" encoding="utf-8"?>
<!-- Generator: Adobe Illustrator 15.0.0, SVG Export Plug-In . SVG Version: 6.00 Build 0)  -->
<!DOCTYPE svg PUBLIC "-//W3C//DTD SVG 1.1//EN" "http://www.w3.org/Graphics/SVG/1.1/DTD/svg11.dtd">
<svg version="1.1" id="Capa_1" xmlns="http://www.w3.org/2000/svg" xmlns:xlink="http://www.w3.org/1999/xlink" x="0px" y="0px"
	 width="600px" height="600px" viewBox="0 0 600 600" enable-background="new 0 0 600 600" xml:space="preserve">
<g>
	<path fill="#222221" d="M485.254,214.888L385.106,114.741c-2.963-2.965-7.281-4.139-11.329-3.117l-63.88,16.229
		c-2.075,0.527-3.967,1.602-5.479,3.115L114.746,320.642c-4.644,4.643-4.644,12.164,0,16.807l147.8,147.807
		c2.229,2.229,5.252,3.482,8.403,3.482s6.176-1.254,8.404-3.482l189.672-189.68c1.516-1.508,2.59-3.406,3.117-5.479l16.227-63.881
		C489.402,222.153,488.219,217.849,485.254,214.888z M449.906,281.077L270.949,460.044l-130.989-131l178.956-178.959l54.162-13.754
		l90.588,90.588L449.906,281.077z"/>
	<path fill="#222221" d="M354.208,245.792c7.394,7.389,17.222,11.457,27.674,11.457c10.453,0,20.28-4.074,27.669-11.463
		c15.26-15.258,15.26-40.086,0.004-55.344c-7.393-7.393-17.217-11.461-27.673-11.461c-10.455,0-20.283,4.068-27.677,11.461
		C338.956,205.7,338.956,230.528,354.208,245.792z M371.015,207.251c2.905-2.902,6.762-4.498,10.867-4.498
		c4.104,0,7.96,1.596,10.862,4.498c5.989,5.988,5.989,15.738,0,21.729c-5.804,5.809-15.929,5.785-21.727,0
		C365.031,222.989,365.031,213.239,371.015,207.251z"/>
	<path fill="#222221" d="M300.826,242.456c-4.637-4.645-12.164-4.645-16.807,0l-84.048,84.041c-4.643,4.643-4.643,12.164,0,16.807
		c2.318,2.322,5.362,3.482,8.403,3.482s6.082-1.16,8.403-3.482l84.048-84.041C305.47,254.62,305.47,247.099,300.826,242.456z"/>
	<path fill="#222221" d="M329.183,270.812c-4.643-4.643-12.17-4.643-16.807,0l-84.042,84.047c-4.644,4.645-4.644,12.166,0,16.809
		c2.321,2.32,5.362,3.482,8.403,3.482s6.085-1.162,8.403-3.482l84.042-84.049C333.825,282.976,333.825,275.454,329.183,270.812z"/>
	<path fill="#222221" d="M340.732,299.167l-84.042,84.049c-4.644,4.643-4.644,12.164,0,16.807c2.321,2.322,5.362,3.482,8.403,3.482
		s6.085-1.16,8.403-3.482l84.042-84.047c4.643-4.643,4.643-12.164,0-16.809C352.896,294.524,345.369,294.524,340.732,299.167z"/>
</g>
</svg>
