<?xml version="1.0" encoding="utf-8"?>
<!-- Generator: Adobe Illustrator 15.0.0, SVG Export Plug-In . SVG Version: 6.00 Build 0)  -->
<!DOCTYPE svg PUBLIC "-//W3C//DTD SVG 1.1//EN" "http://www.w3.org/Graphics/SVG/1.1/DTD/svg11.dtd">
<svg version="1.1" id="Capa_1" xmlns="http://www.w3.org/2000/svg" xmlns:xlink="http://www.w3.org/1999/xlink" x="0px" y="0px"
	 width="600px" height="600px" viewBox="0 0 600 600" enable-background="new 0 0 600 600" xml:space="preserve">
<g>
	<path fill="#222221" d="M456.409,157.227h-9.872V67.955c0-6.431-5.215-11.646-11.646-11.646H165.113
		c-6.436,0-11.646,5.215-11.646,11.646v89.271h-9.877c-38.523,0-69.871,31.344-69.871,69.871v144.258
		c0,38.528,31.348,69.871,69.871,69.871h9.877v90.818c0,6.432,5.21,11.646,11.646,11.646h269.778
		c6.431,0,11.646-5.214,11.646-11.646v-90.818h9.872c38.523,0,69.871-31.343,69.871-69.871V227.098
		C526.28,188.57,494.933,157.227,456.409,157.227z M176.758,79.6h246.488v77.627H176.758V79.6z M423.246,520.4H176.758V376.774
		h246.488V520.4z M502.99,371.355c0,25.686-20.896,46.581-46.581,46.581h-9.872v-41.162h25.186c6.435,0,11.645-5.214,11.645-11.646
		c0-6.43-5.21-11.645-11.645-11.645h-36.831H165.113H131.73c-6.431,0-11.646,5.215-11.646,11.645
		c0,6.432,5.215,11.646,11.646,11.646h21.737v41.162h-9.877c-25.685,0-46.581-20.896-46.581-46.581V227.098
		c0-25.685,20.896-46.58,46.581-46.58h21.522h269.778h21.518c25.685,0,46.581,20.896,46.581,46.58V371.355z"/>
	<path fill="#222221" d="M434.892,226.955c-8.773,0-15.893,7.119-15.893,15.893c0,8.774,7.119,15.893,15.893,15.893
		c8.774,0,15.893-7.118,15.893-15.893C450.784,234.074,443.666,226.955,434.892,226.955z"/>
	<path fill="#222221" d="M203.927,417.043h192.146c6.432,0,11.646-5.213,11.646-11.646c0-6.43-5.214-11.645-11.646-11.645H203.927
		c-6.431,0-11.646,5.215-11.646,11.645C192.281,411.83,197.496,417.043,203.927,417.043z"/>
	<path fill="#222221" d="M203.927,460.234h192.146c6.432,0,11.646-5.215,11.646-11.645c0-6.432-5.214-11.646-11.646-11.646H203.927
		c-6.431,0-11.646,5.214-11.646,11.646C192.281,455.02,197.496,460.234,203.927,460.234z"/>
</g>
</svg>
