<?xml version="1.0" encoding="utf-8"?>
<!-- Generator: Adobe Illustrator 15.0.0, SVG Export Plug-In . SVG Version: 6.00 Build 0)  -->
<!DOCTYPE svg PUBLIC "-//W3C//DTD SVG 1.1//EN" "http://www.w3.org/Graphics/SVG/1.1/DTD/svg11.dtd">
<svg version="1.1" id="Capa_1" xmlns="http://www.w3.org/2000/svg" xmlns:xlink="http://www.w3.org/1999/xlink" x="0px" y="0px"
	 width="600px" height="600px" viewBox="0 0 600 600" enable-background="new 0 0 600 600" xml:space="preserve">
<path d="M299.99,100c-110.275,0-199.988,89.72-199.988,200c0,54.818,22.178,104.542,58.02,140.705
	c0.199,0.229,0.359,0.484,0.576,0.701c0.219,0.222,0.475,0.375,0.705,0.576C195.459,477.82,245.18,500,299.99,500
	c110.289,0,200.008-89.72,200.008-200C499.998,189.72,410.279,100,299.99,100z M299.99,126.231
	c43.201,0,82.74,15.882,113.172,42.064l-244.869,244.87c-26.178-30.432-42.061-69.967-42.061-113.165
	C126.232,204.184,204.182,126.231,299.99,126.231z M299.99,473.77c-43.193,0-82.725-15.879-113.15-42.059l244.867-244.873
	c26.18,30.432,42.061,69.963,42.061,113.162C473.768,395.816,395.812,473.77,299.99,473.77z"/>
</svg>
