<?xml version="1.0" encoding="utf-8"?>
<!-- Generator: Adobe Illustrator 15.0.0, SVG Export Plug-In . SVG Version: 6.00 Build 0)  -->
<!DOCTYPE svg PUBLIC "-//W3C//DTD SVG 1.1//EN" "http://www.w3.org/Graphics/SVG/1.1/DTD/svg11.dtd">
<svg version="1.1" id="Capa_1" xmlns="http://www.w3.org/2000/svg" xmlns:xlink="http://www.w3.org/1999/xlink" x="0px" y="0px"
	 width="600px" height="600px" viewBox="0 0 600 600" enable-background="new 0 0 600 600" xml:space="preserve">
<path d="M459.279,217.834c-0.645-0.404-1.33-0.715-2.039-0.935c-0.149-0.07-0.295-0.146-0.45-0.208l-148.813-59.73v-57.99
	c0-4.408-3.572-7.982-7.981-7.982c-4.407,0-7.981,3.574-7.981,7.982v58.523l-150.076,78.441c-0.135,0.07-0.26,0.152-0.389,0.229
	c-0.415,0.2-0.82,0.423-1.204,0.691c-2.322,1.627-3.703,4.283-3.703,7.117v200.18c0,3.658,2.288,6.922,5.725,8.17l154.665,56.166
	c0.15,0.054,0.303,0.097,0.455,0.143c0.065,0.02,0.128,0.042,0.193,0.061c0.333,0.093,0.67,0.161,1.009,0.214
	c0.083,0.013,0.165,0.022,0.248,0.033c0.354,0.043,0.708,0.073,1.062,0.073c0.393,0,0.785-0.036,1.175-0.089
	c0.117-0.017,0.231-0.039,0.348-0.06c0.287-0.052,0.57-0.117,0.853-0.197c0.113-0.032,0.226-0.061,0.337-0.097
	c0.365-0.121,0.727-0.258,1.078-0.429l0.038-0.019c0.002-0.001,0.004-0.002,0.006-0.002l154.621-74.923
	c2.998-1.451,4.901-4.49,4.901-7.82v-200.18C463.356,222.205,461.816,219.422,459.279,217.834z M291.308,487.914l-137.28-49.852
	V256.379l137.28,49.852V487.914z M299.515,290.718l-132.676-48.184l125.175-65.425v71.013l-35.591-35.591
	c-1.556-1.559-3.601-2.338-5.643-2.338s-4.086,0.779-5.644,2.338c-3.119,3.118-3.119,8.169,0,11.287l49.216,49.216
	c3.118,3.118,8.169,3.118,11.287,0l49.225-49.216c3.118-3.113,3.118-8.169,0.002-11.287c-3.119-3.117-8.172-3.117-11.289,0
	l-35.6,35.592v-72.428l125.201,50.255L299.515,290.718z M445.973,419.932l-137.281,66.518V305.586l137.281-66.52V419.932z"/>
</svg>
