<?xml version="1.0" encoding="utf-8"?>
<!-- Generator: Adobe Illustrator 15.0.0, SVG Export Plug-In . SVG Version: 6.00 Build 0)  -->
<!DOCTYPE svg PUBLIC "-//W3C//DTD SVG 1.1//EN" "http://www.w3.org/Graphics/SVG/1.1/DTD/svg11.dtd">
<svg version="1.1" id="Capa_1" xmlns="http://www.w3.org/2000/svg" xmlns:xlink="http://www.w3.org/1999/xlink" x="0px" y="0px"
	 width="600px" height="600px" viewBox="0 0 600 600" enable-background="new 0 0 600 600" xml:space="preserve">
<g>
	<path d="M300,137.043c-89.854,0-162.957,73.104-162.957,162.957c0,89.852,73.104,162.957,162.957,162.957
		c89.852,0,162.957-73.105,162.957-162.957C462.957,210.146,389.852,137.043,300,137.043z M300,443.037
		c-78.873,0-143.039-64.166-143.039-143.037c0-78.873,64.166-143.039,143.039-143.039c78.871,0,143.039,64.166,143.039,143.039
		C443.039,378.871,378.871,443.037,300,443.037z"/>
	<path d="M250.562,235.404c-22.32,0-40.479,18.158-40.479,40.48c0,13.582,6.639,25.875,17.473,33.305l-5.973,20.037
		c-4.328,14.529,3.975,29.883,18.51,34.219c2.557,0.764,5.203,1.148,7.857,1.148c0.006,0,0,0,0.006,0
		c12.064,0,22.898-8.082,26.352-19.65l15.459-51.879c2.947-8.588,2.98-18.779,2.98-19.209
		C292.748,252.295,274.217,235.404,250.562,235.404z M270.803,286.986l-15.586,52.268c-1.152,3.895-5.447,6.271-9.43,5.105
		c-4.016-1.201-6.307-5.438-5.111-9.443l8.287-27.797c1.479-4.955-1.09-10.223-5.904-12.113
		c-7.93-3.117-13.057-10.621-13.057-19.121c0-11.336,9.225-20.561,20.561-20.561c10.947,0,22.268,6.934,22.268,18.531
		C272.83,275.379,272.51,281.996,270.803,286.986z"/>
	<path d="M347.729,235.404c-22.32,0-40.479,18.158-40.479,40.48c0,13.582,6.639,25.875,17.473,33.305l-5.971,20.037
		c-4.328,14.529,3.973,29.883,18.508,34.219c2.559,0.764,5.203,1.148,7.857,1.148h0.006c12.064,0,22.898-8.082,26.352-19.65
		l15.459-51.879c2.947-8.588,2.982-18.779,2.982-19.209C389.916,252.295,371.383,235.404,347.729,235.404z M367.969,286.986
		l-15.586,52.268c-1.152,3.895-5.445,6.271-9.43,5.105c-4.016-1.201-6.307-5.438-5.109-9.443l8.285-27.797
		c1.479-4.955-1.088-10.223-5.902-12.113c-7.932-3.117-13.059-10.621-13.059-19.121c0-11.336,9.227-20.561,20.561-20.561
		c10.947,0,22.268,6.934,22.268,18.531C369.996,275.379,369.676,281.996,367.969,286.986z"/>
</g>
</svg>
