<?xml version="1.0" encoding="utf-8"?>
<!-- Generator: Adobe Illustrator 15.0.0, SVG Export Plug-In . SVG Version: 6.00 Build 0)  -->
<!DOCTYPE svg PUBLIC "-//W3C//DTD SVG 1.1//EN" "http://www.w3.org/Graphics/SVG/1.1/DTD/svg11.dtd">
<svg version="1.1" id="Capa_1" xmlns="http://www.w3.org/2000/svg" xmlns:xlink="http://www.w3.org/1999/xlink" x="0px" y="0px"
	 width="600px" height="600px" viewBox="0 0 600 600" enable-background="new 0 0 600 600" xml:space="preserve">
<g>
	<path d="M516.42,220.938h-75.738L282.048,92.479c-4.804-3.897-11.89-3.162-15.794,1.658c-3.9,4.821-3.157,11.891,1.656,15.795
		l137.074,111.006H83.58c-6.207,0-11.229,5.028-11.229,11.23v266.625c0,6.201,5.021,11.23,11.229,11.23h432.84
		c6.207,0,11.229-5.029,11.229-11.23V232.168C527.648,225.966,522.627,220.938,516.42,220.938z M505.189,487.562H94.811V243.397
		h410.379V487.562z"/>
	<path d="M146.772,265.772c-20.122,0-36.498,16.374-36.498,36.497c0,20.125,16.376,36.498,36.498,36.498
		c20.124,0,36.495-16.373,36.495-36.498C183.268,282.146,166.896,265.772,146.772,265.772z M146.772,316.308
		c-7.743,0-14.038-6.298-14.038-14.038c0-7.739,6.295-14.037,14.038-14.037c7.741,0,14.036,6.298,14.036,14.037
		C160.809,310.01,154.514,316.308,146.772,316.308z"/>
	<path d="M146.772,354.25c-20.122,0-36.498,16.373-36.498,36.498c0,20.123,16.376,36.498,36.498,36.498
		c20.124,0,36.495-16.375,36.495-36.498C183.268,370.623,166.896,354.25,146.772,354.25z M146.772,404.785
		c-7.743,0-14.038-6.298-14.038-14.037c0-7.74,6.295-14.037,14.038-14.037c7.741,0,14.036,6.297,14.036,14.037
		C160.809,398.487,154.514,404.785,146.772,404.785z"/>
	<path d="M355.844,253.358c-61.831,0-112.125,50.297-112.125,112.122c0,61.824,50.294,112.121,112.125,112.121
		c61.82,0,112.115-50.297,112.115-112.121C467.959,303.655,417.664,253.358,355.844,253.358z M355.844,455.143
		c-49.439,0-89.667-40.225-89.667-89.662c0-49.438,40.228-89.663,89.667-89.663c49.438,0,89.652,40.224,89.652,89.663
		C445.496,414.918,405.281,455.143,355.844,455.143z"/>
	<path d="M355.844,291.726c-40.666,0-73.752,33.086-73.752,73.754s33.086,73.754,73.752,73.754
		c40.664,0,73.752-33.086,73.752-73.754S396.508,291.726,355.844,291.726z M355.844,416.774c-28.283,0-51.293-23.011-51.293-51.294
		s23.01-51.295,51.293-51.295c28.285,0,51.291,23.012,51.291,51.295S384.129,416.774,355.844,416.774z"/>
</g>
</svg>
