<?xml version="1.0" encoding="utf-8"?>
<!-- Generator: Adobe Illustrator 15.0.0, SVG Export Plug-In . SVG Version: 6.00 Build 0)  -->
<!DOCTYPE svg PUBLIC "-//W3C//DTD SVG 1.1//EN" "http://www.w3.org/Graphics/SVG/1.1/DTD/svg11.dtd">
<svg version="1.1" id="Capa_1" xmlns="http://www.w3.org/2000/svg" xmlns:xlink="http://www.w3.org/1999/xlink" x="0px" y="0px"
	 width="600px" height="600px" viewBox="0 0 600 600" enable-background="new 0 0 600 600" xml:space="preserve">
<g>
	<path d="M439.328,214.721c0.032-0.883,0.046-1.748,0.046-2.613c0-46.333-37.696-84.036-84.031-84.036
		c-20.359,0-40.038,7.509-55.293,20.871c-14.637-12.469-33.349-19.463-52.641-19.463c-44.747,0-81.162,36.35-81.271,81.064
		c-26.873,12.993-44.495,40.601-44.495,70.747c0,47.89,40.551,76.481,108.47,76.481c2.563,0,4.504-0.055,5.659-0.082l166.198-0.018
		c42.12,0,76.386-34.262,76.386-76.381C478.356,253.601,463.236,228.157,439.328,214.721z M401.971,338.824h-165.44l-1.232,0.029
		c-1.058,0.027-2.835,0.072-5.185,0.072c-26.945,0-89.624-5.623-89.624-57.635c0-24.679,15.554-47.125,38.697-55.858
		c3.929-1.482,6.406-5.394,6.065-9.57c-0.134-1.693-0.268-3.387-0.268-5.117c0-34.417,28.003-62.42,62.425-62.42
		c17.54,0,33.805,7.142,45.799,20.126c1.787,1.934,4.293,3.028,6.921,3.028c0.014,0,0.027,0,0.045,0
		c2.64-0.019,5.157-1.142,6.935-3.092c12.372-13.647,29.953-21.47,48.233-21.47c35.945,0,65.186,29.244,65.186,65.19
		c0,2.272-0.134,4.61-0.413,7.15c-0.443,4.059,1.771,7.931,5.488,9.616c20.594,9.305,33.905,29.88,33.905,52.417
		C459.509,313.012,433.696,338.824,401.971,338.824z"/>
	<path d="M214.891,370.177c-3.248-0.828-6.676,0.103-9.046,2.468c-8.98,8.998-38.599,39.551-42.565,54.8
		c-4.933,18.957,6.479,38.393,25.445,43.332c2.935,0.766,5.95,1.151,8.959,1.151c16.167,0,30.302-10.941,34.37-26.596
		c3.966-15.247-7.012-56.354-10.467-68.593C220.675,373.519,218.125,371.023,214.891,370.177z M213.815,440.595
		c-1.909,7.353-8.544,12.487-16.131,12.487c-1.414,0-2.835-0.184-4.215-0.542c-8.903-2.32-14.265-11.448-11.949-20.357
		c1.421-5.467,13.173-20.097,26.134-34.178C212.108,416.612,215.24,435.108,213.815,440.595z"/>
	<path d="M317.352,370.177c-3.248-0.828-6.678,0.103-9.046,2.468c-8.982,8.998-38.601,39.551-42.567,54.8
		c-4.933,18.957,6.479,38.393,25.444,43.332c2.936,0.766,5.95,1.151,8.96,1.151c16.169,0,30.302-10.941,34.37-26.596
		c3.966-15.247-7.012-56.354-10.467-68.593C323.134,373.519,320.587,371.023,317.352,370.177z M316.273,440.595
		c-1.909,7.353-8.544,12.487-16.13,12.487c-1.412,0-2.835-0.184-4.215-0.542c-8.903-2.32-14.263-11.448-11.949-20.357
		c1.421-5.467,13.173-20.097,26.135-34.178C314.566,416.612,317.701,435.108,316.273,440.595z"/>
	<path d="M419.811,370.177c-3.253-0.828-6.681,0.103-9.046,2.468c-8.982,8.998-38.599,39.551-42.567,54.8
		c-4.93,18.957,6.479,38.393,25.447,43.332c2.935,0.766,5.947,1.151,8.957,1.151c16.17,0,30.305-10.941,34.37-26.596
		c3.968-15.247-7.012-56.354-10.467-68.593C425.595,373.519,423.046,371.023,419.811,370.177z M418.734,440.595
		c-1.911,7.353-8.546,12.487-16.133,12.487c-1.412,0-2.835-0.184-4.215-0.542c-8.903-2.32-14.263-11.448-11.949-20.357
		c1.423-5.467,13.175-20.097,26.134-34.178C417.027,416.612,420.16,435.108,418.734,440.595z"/>
</g>
</svg>
