<?xml version="1.0" encoding="utf-8"?>
<!-- Generator: Adobe Illustrator 15.0.0, SVG Export Plug-In . SVG Version: 6.00 Build 0)  -->
<!DOCTYPE svg PUBLIC "-//W3C//DTD SVG 1.1//EN" "http://www.w3.org/Graphics/SVG/1.1/DTD/svg11.dtd">
<svg version="1.1" id="Capa_1" xmlns="http://www.w3.org/2000/svg" xmlns:xlink="http://www.w3.org/1999/xlink" x="0px" y="0px"
	 width="600px" height="600px" viewBox="0 0 600 600" enable-background="new 0 0 600 600" xml:space="preserve">
<path d="M418.342,303.413c0-5.359-4.345-9.703-9.703-9.703c-0.191,0-0.932,0-1.123,0h-36.713V168.251
	c0-39.039-31.763-70.803-70.803-70.803s-70.802,31.764-70.802,70.803V293.71h-36.463c-0.234,0-1.139,0-1.374,0
	c-5.358,0-9.703,4.344-9.703,9.703c0,61.979,47.909,112.944,108.638,117.899v61.833H242.72c-5.359,0-9.703,4.344-9.703,9.703
	c0,5.358,4.344,9.703,9.703,9.703h114.565c5.358,0,9.703-4.345,9.703-9.703c0-5.359-4.345-9.703-9.703-9.703h-47.582v-61.833
	C370.432,416.357,418.342,365.392,418.342,303.413z M248.604,295.272h102.792v9.902c0,28.346-23.058,51.406-51.396,51.406
	s-51.396-23.061-51.396-51.406V295.272z M300,116.854c28.339,0,51.396,23.053,51.396,51.396v107.615H248.604V168.251
	C248.604,139.907,271.661,116.854,300,116.854z M201.558,313.116h28.114c3.965,35.314,33.975,62.868,70.328,62.868
	s66.363-27.554,70.328-62.868h28.114c-4.892,50.006-47.165,89.221-98.442,89.221C248.722,402.337,206.449,363.122,201.558,313.116z"
	/>
</svg>
