<?xml version="1.0" encoding="utf-8"?>
<!-- Generator: Adobe Illustrator 15.0.0, SVG Export Plug-In . SVG Version: 6.00 Build 0)  -->
<!DOCTYPE svg PUBLIC "-//W3C//DTD SVG 1.1//EN" "http://www.w3.org/Graphics/SVG/1.1/DTD/svg11.dtd">
<svg version="1.1" id="Capa_1" xmlns="http://www.w3.org/2000/svg" xmlns:xlink="http://www.w3.org/1999/xlink" x="0px" y="0px"
	 width="600px" height="600px" viewBox="0 0 600 600" enable-background="new 0 0 600 600" xml:space="preserve">
<g>
	<path d="M467.799,294.311c-2.078-42.422-19.721-82.267-49.669-112.19c-56.927-56.883-148.392-66.149-204.565-23.685v-8.858
		c0-7.27-5.894-13.165-13.172-13.167h-0.006c-7.275,0-13.174,5.891-13.174,13.161l-0.014,40.311c0,3.49,1.387,6.843,3.858,9.311
		c2.472,2.469,5.823,3.857,9.315,3.857l40.356-0.003c7.274,0,13.173-5.895,13.173-13.165c0-7.27-5.898-13.165-13.173-13.165h-7.137
		c42.951-28.229,116.429-25.404,165.903,24.019c25.311,25.294,40.225,58.981,41.98,94.86c1.653,33.767-8.834,64.562-28.777,84.489
		c-5.148,5.139-5.148,13.476,0,18.615c2.572,2.571,5.945,3.856,9.316,3.856c3.369,0,6.742-1.285,9.314-3.856
		C456.527,373.531,469.818,335.483,467.799,294.311z"/>
	<path d="M399.929,397.489h-40.356c-7.273,0-13.174,5.895-13.174,13.165s5.9,13.165,13.174,13.165h6.562
		c-19.119,12.587-43.955,18.995-70.688,17.684c-35.913-1.758-69.635-16.655-94.943-41.943
		c-25.311-25.292-40.225-58.981-41.982-94.86c-1.66-33.765,8.828-64.558,28.773-84.483c5.147-5.139,5.147-13.476,0-18.615
		c-5.148-5.143-13.486-5.143-18.632,0c-25.196,25.167-38.482,63.214-36.462,104.386c2.078,42.423,19.721,82.265,49.668,112.188
		c29.953,29.923,69.83,47.546,112.285,49.626c2.74,0.135,5.463,0.199,8.17,0.199c32.107,0,61.773-9.445,84.414-26.484v9.443
		c0,7.27,5.893,13.165,13.171,13.168c0.007,0,0.007,0,0.007,0c7.274,0,13.174-5.891,13.174-13.162l0.014-40.307
		c0-3.491-1.389-6.84-3.859-9.312C406.773,398.878,403.42,397.489,399.929,397.489z"/>
</g>
</svg>
