<?xml version="1.0" encoding="utf-8"?>
<!-- Generator: Adobe Illustrator 15.0.0, SVG Export Plug-In . SVG Version: 6.00 Build 0)  -->
<!DOCTYPE svg PUBLIC "-//W3C//DTD SVG 1.1//EN" "http://www.w3.org/Graphics/SVG/1.1/DTD/svg11.dtd">
<svg version="1.1" id="Capa_1" xmlns="http://www.w3.org/2000/svg" xmlns:xlink="http://www.w3.org/1999/xlink" x="0px" y="0px"
	 width="600px" height="600px" viewBox="0 0 600 600" enable-background="new 0 0 600 600" xml:space="preserve">
<g>
	<path d="M489.098,143.067H153.966l39.964-23.071c5.519-3.183,7.408-10.237,4.223-15.758c-3.184-5.521-10.239-7.419-15.761-4.226
		l-77.253,44.593c-3.569,2.062-5.77,5.871-5.77,9.995c0,4.118,2.2,7.927,5.77,9.989l77.253,44.604
		c1.816,1.054,3.8,1.549,5.758,1.549c3.988,0,7.868-2.068,10.003-5.769c3.186-5.521,1.296-12.575-4.223-15.764l-39.953-23.065
		H477.56v226.925c0,6.371,5.167,11.537,11.538,11.537c6.372,0,11.539-5.166,11.539-11.537V154.604
		C500.637,148.233,495.47,143.067,489.098,143.067z"/>
	<path d="M494.861,435.413l-77.252-44.604c-5.521-3.194-12.581-1.295-15.762,4.226c-3.186,5.516-1.296,12.575,4.223,15.759
		l39.953,23.07H122.44V206.939c0-6.372-5.167-11.539-11.538-11.539c-6.373,0-11.539,5.167-11.539,11.539v238.463
		c0,6.371,5.166,11.538,11.539,11.538h335.133l-39.965,23.065c-5.519,3.183-7.408,10.242-4.223,15.764
		c2.135,3.701,6.015,5.77,10.003,5.77c1.958,0,3.941-0.496,5.759-1.551l77.252-44.592c3.569-2.057,5.77-5.865,5.77-9.988
		C500.631,441.283,498.431,437.475,494.861,435.413z"/>
</g>
</svg>
