<?xml version="1.0" encoding="utf-8"?>
<!-- Generator: Adobe Illustrator 15.0.0, SVG Export Plug-In . SVG Version: 6.00 Build 0)  -->
<!DOCTYPE svg PUBLIC "-//W3C//DTD SVG 1.1//EN" "http://www.w3.org/Graphics/SVG/1.1/DTD/svg11.dtd">
<svg version="1.1" id="Capa_1" xmlns="http://www.w3.org/2000/svg" xmlns:xlink="http://www.w3.org/1999/xlink" x="0px" y="0px"
	 width="600px" height="600px" viewBox="0 0 600 600" enable-background="new 0 0 600 600" xml:space="preserve">
<g>
	<path d="M445.957,197.842c6.318-5.554,6.93-15.183,1.382-21.493c-2.706-3.079-5.53-6.097-8.491-9.034c0-0.007,0-0.007,0-0.007
		c0-0.008-0.014-0.008-0.014-0.008c0-0.008,0-0.008,0-0.008v-0.007c-35.465-35.456-82.614-54.986-132.768-54.986
		c-45.038,0-87.638,15.798-121.541,44.704l-25.798-25.79c-3.852-3.852-9.456-5.339-14.706-3.941
		c-5.264,1.406-9.367,5.51-10.766,10.766l-26.42,98.612c-1.414,5.257,0.088,10.862,3.939,14.706
		c2.883,2.899,6.779,4.461,10.766,4.461c1.307,0,2.631-0.171,3.939-0.521l98.613-26.423c5.247-1.404,9.351-5.509,10.764-10.765
		c1.412-5.257-0.09-10.862-3.94-14.706l-24.802-24.809c28.088-23.204,63.045-35.843,99.951-35.843
		c42.021,0,81.527,16.371,111.252,46.087c0,0,0,0,0,0.008c0.015,0,0.015,0,0.015,0.007c2.481,2.477,4.847,5.019,7.138,7.606
		c3.004,3.427,7.211,5.174,11.434,5.174C439.473,201.633,443.072,200.384,445.957,197.842z"/>
	<path d="M264.224,451.793c-6.794-1.874-13.528-4.224-19.999-6.981c-7.731-3.286-16.684,0.305-19.984,8.036
		c-3.299,7.74,0.298,16.684,8.047,19.978c7.717,3.293,15.746,6.097,23.863,8.327c1.354,0.371,2.705,0.549,4.044,0.549
		c6.677,0,12.817-4.438,14.677-11.195C277.102,462.401,272.327,454.016,264.224,451.793z"/>
	<path d="M334.229,454.9c-6.928,1.248-14.006,2.052-21.039,2.363c-8.401,0.373-14.9,7.488-14.527,15.889
		c0.357,8.17,7.092,14.549,15.195,14.549c0.224,0,0.461-0.007,0.686-0.015c8.401-0.379,16.846-1.33,25.113-2.825
		c8.281-1.502,13.77-9.42,12.268-17.694C350.437,458.893,342.467,453.369,334.229,454.9z"/>
	<path d="M450.729,238.106c2.766,6.462,5.115,13.182,7.004,19.985c1.859,6.75,7.986,11.174,14.662,11.174
		c1.338,0,2.705-0.179,4.059-0.55c8.104-2.238,12.863-10.624,10.631-18.729c-2.244-8.11-5.055-16.14-8.355-23.857
		c-3.316-7.731-12.254-11.315-19.984-8.015C451.012,221.424,447.428,230.376,450.729,238.106z"/>
	<path d="M398.613,427.362c-5.711,4.163-11.732,7.956-17.902,11.286c-7.406,3.992-10.172,13.226-6.187,20.631
		c2.751,5.1,8.001,8,13.429,8c2.438,0,4.905-0.588,7.209-1.822c7.376-3.984,14.572-8.52,21.397-13.486
		c6.794-4.959,8.282-14.482,3.33-21.277C414.938,423.905,405.406,422.403,398.613,427.362z"/>
	<path d="M465.332,368.384c-7.437-3.985-16.641-1.205-20.624,6.2c-3.333,6.186-7.124,12.215-11.257,17.91
		c-4.951,6.803-3.449,16.326,3.346,21.27c2.707,1.971,5.842,2.915,8.951,2.915c4.699,0,9.339-2.178,12.328-6.274
		c4.949-6.803,9.471-14.007,13.455-21.396C475.502,381.595,472.736,372.368,465.332,368.384z"/>
	<path d="M479.129,292.499c-0.223-0.008-0.447-0.016-0.685-0.016c-8.087,0-14.823,6.387-15.196,14.558
		c-0.312,7.062-1.1,14.147-2.35,21.055c-1.484,8.281,4.016,16.192,12.299,17.687c0.906,0.163,1.814,0.245,2.705,0.245
		c7.227,0,13.651-5.166,14.973-12.535c1.487-8.244,2.424-16.689,2.797-25.105C494.045,299.985,487.531,292.871,479.129,292.499z"/>
	<path d="M194.816,411.348c-5.949-5.947-15.583-5.947-21.531,0c-5.949,5.94-5.949,15.584,0,21.531
		c2.942,2.943,5.977,5.776,9.055,8.482c2.885,2.543,6.468,3.785,10.037,3.785c4.236,0,8.445-1.748,11.449-5.176
		c5.547-6.318,4.922-15.939-1.398-21.492C199.84,416.203,197.298,413.824,194.816,411.348z"/>
</g>
</svg>
