<?xml version="1.0" encoding="utf-8"?>
<!-- Generator: Adobe Illustrator 15.0.0, SVG Export Plug-In . SVG Version: 6.00 Build 0)  -->
<!DOCTYPE svg PUBLIC "-//W3C//DTD SVG 1.1//EN" "http://www.w3.org/Graphics/SVG/1.1/DTD/svg11.dtd">
<svg version="1.1" id="Capa_1" xmlns="http://www.w3.org/2000/svg" xmlns:xlink="http://www.w3.org/1999/xlink" x="0px" y="0px"
	 width="600px" height="600px" viewBox="0 0 600 600" enable-background="new 0 0 600 600" xml:space="preserve">
<g>
	<path d="M369.367,299.999l66.319-66.323c4.745-4.743,4.745-12.437,0-17.179c-4.745-4.746-12.434-4.746-17.179,0l-71.349,71.354
		H82.725l54.172-54.175c4.745-4.743,4.745-12.437,0-17.179c-4.747-4.746-12.434-4.746-17.18,0l-74.908,74.913
		c-4.746,4.743-4.746,12.437,0,17.179l74.908,74.916c2.373,2.373,5.48,3.559,8.59,3.559c3.107,0,6.215-1.186,8.59-3.559
		c4.745-4.742,4.745-12.438,0-17.18l-54.172-54.176h264.435l71.349,71.355c2.373,2.373,5.482,3.559,8.59,3.559
		s6.217-1.186,8.589-3.559c4.745-4.742,4.745-12.438,0-17.18L369.367,299.999z"/>
	<path d="M429.114,299.999l66.319-66.323c4.744-4.743,4.744-12.437,0-17.179c-4.746-4.746-12.434-4.746-17.18,0l-74.907,74.913
		c-4.745,4.743-4.745,12.437,0,17.179l74.907,74.916c2.373,2.373,5.482,3.559,8.59,3.559c3.108,0,6.217-1.186,8.59-3.559
		c4.744-4.742,4.744-12.438,0-17.18L429.114,299.999z"/>
	<path d="M488.861,299.999l66.33-66.323c4.746-4.743,4.746-12.437,0-17.179c-4.744-4.746-12.445-4.746-17.178,0l-74.921,74.913
		c-2.278,2.278-3.56,5.368-3.56,8.589c0,3.22,1.281,6.312,3.56,8.589l74.921,74.916c2.359,2.373,5.48,3.559,8.588,3.559
		c3.109,0,6.218-1.186,8.59-3.559c4.746-4.742,4.746-12.438,0-17.18L488.861,299.999z"/>
</g>
</svg>
