<?xml version="1.0" encoding="utf-8"?>
<!-- Generator: Adobe Illustrator 15.0.0, SVG Export Plug-In . SVG Version: 6.00 Build 0)  -->
<!DOCTYPE svg PUBLIC "-//W3C//DTD SVG 1.1//EN" "http://www.w3.org/Graphics/SVG/1.1/DTD/svg11.dtd">
<svg version="1.1" id="Capa_1" xmlns="http://www.w3.org/2000/svg" xmlns:xlink="http://www.w3.org/1999/xlink" x="0px" y="0px"
	 width="600px" height="600px" viewBox="0 0 600 600" enable-background="new 0 0 600 600" xml:space="preserve">
<path d="M431.113,288.101L182.627,144.636c-4.253-2.455-9.486-2.455-13.74,0c-4.249,2.452-6.871,6.991-6.871,11.898v286.93
	c0,4.908,2.622,9.447,6.871,11.898c2.128,1.229,4.5,1.843,6.87,1.843c2.372,0,4.743-0.614,6.87-1.843l248.486-143.464
	c4.25-2.452,6.871-6.991,6.871-11.898C437.984,295.092,435.363,290.553,431.113,288.101z M189.497,419.663V180.336L396.762,300
	L189.497,419.663z"/>
</svg>
