<?xml version="1.0" encoding="utf-8"?>
<!-- Generator: Adobe Illustrator 15.0.0, SVG Export Plug-In . SVG Version: 6.00 Build 0)  -->
<!DOCTYPE svg PUBLIC "-//W3C//DTD SVG 1.1//EN" "http://www.w3.org/Graphics/SVG/1.1/DTD/svg11.dtd">
<svg version="1.1" id="Capa_1" xmlns="http://www.w3.org/2000/svg" xmlns:xlink="http://www.w3.org/1999/xlink" x="0px" y="0px"
	 width="600px" height="600px" viewBox="0 0 600 600" enable-background="new 0 0 600 600" xml:space="preserve">
<g>
	<path d="M300,59.831c-7.543,0-13.66,6.117-13.66,13.66v13.66c0,7.543,6.116,13.659,13.66,13.659c7.543,0,13.66-6.115,13.66-13.659
		v-13.66C313.66,65.948,307.543,59.831,300,59.831z"/>
	<path d="M300,408.479c-7.543,0-13.66,6.117-13.66,13.66v27.912c0,7.543,6.116,13.66,13.66,13.66c7.543,0,13.66-6.117,13.66-13.66
		v-27.912C313.66,414.596,307.543,408.479,300,408.479z"/>
	<path d="M300,317.752c-7.543,0-13.66,6.117-13.66,13.66v27.912c0,7.543,6.116,13.659,13.66,13.659
		c7.543,0,13.66-6.116,13.66-13.659v-27.912C313.66,323.869,307.543,317.752,300,317.752z"/>
	<path d="M300,136.298c-7.543,0-13.66,6.116-13.66,13.66v27.919c0,7.543,6.116,13.659,13.66,13.659
		c7.543,0,13.66-6.116,13.66-13.659v-27.919C313.66,142.415,307.543,136.298,300,136.298z"/>
	<path d="M300,227.025c-7.543,0-13.66,6.116-13.66,13.66v27.913c0,7.543,6.116,13.659,13.66,13.659
		c7.543,0,13.66-6.116,13.66-13.659v-27.913C313.66,233.141,307.543,227.025,300,227.025z"/>
	<path d="M300,499.205c-7.543,0-13.66,6.117-13.66,13.66v13.66c0,7.543,6.116,13.659,13.66,13.659c7.543,0,13.66-6.116,13.66-13.659
		v-13.66C313.66,505.322,307.543,499.205,300,499.205z"/>
	<path d="M464.379,524.791L406.307,71.757c-0.96-7.484-7.75-12.806-15.287-11.812c-7.482,0.954-12.771,7.804-11.811,15.28
		L437.28,528.26c0.888,6.896,6.763,11.925,13.533,11.925c0.58,0,1.167-0.034,1.754-0.114
		C460.051,539.117,465.34,532.268,464.379,524.791z"/>
	<path d="M208.98,59.945c-7.497-1.041-14.327,4.321-15.287,11.812l-58.072,453.034c-0.961,7.477,4.328,14.326,11.812,15.279
		c0.587,0.08,1.174,0.114,1.754,0.114c6.77,0,12.646-5.028,13.533-11.925l58.072-453.035
		C221.752,67.749,216.463,60.899,208.98,59.945z"/>
</g>
</svg>
