<?xml version="1.0" encoding="utf-8"?>
<!-- Generator: Adobe Illustrator 15.0.0, SVG Export Plug-In . SVG Version: 6.00 Build 0)  -->
<!DOCTYPE svg PUBLIC "-//W3C//DTD SVG 1.1//EN" "http://www.w3.org/Graphics/SVG/1.1/DTD/svg11.dtd">
<svg version="1.1" id="Capa_1" xmlns="http://www.w3.org/2000/svg" xmlns:xlink="http://www.w3.org/1999/xlink" x="0px" y="0px"
	 width="600px" height="600px" viewBox="0 0 600 600" enable-background="new 0 0 600 600" xml:space="preserve">
<g>
	<path d="M299.956,195.45c-25.494,0-46.234,20.742-46.234,46.233c0,25.492,20.74,46.234,46.234,46.234
		c25.494,0,46.235-20.742,46.235-46.234C346.19,216.192,325.449,195.45,299.956,195.45z M299.956,270.021
		c-15.626,0-28.337-12.711-28.337-28.337c0-15.625,12.711-28.336,28.337-28.336c15.625,0,28.336,12.711,28.336,28.336
		C328.292,257.31,315.581,270.021,299.956,270.021z"/>
	<path d="M470.184,527.286l-29.236-121.557c-0.567-2.363-2.071-4.391-4.167-5.623l-45.88-26.951
		c-0.081-147.324-0.192-148.421-0.219-148.596c-0.816-14.445-58.286-116.413-82.958-159.585c-1.593-2.787-4.558-4.509-7.768-4.509
		c-3.212,0-6.177,1.722-7.77,4.509c-24.67,43.167-82.141,145.135-82.927,159.188c-0.055,0.524-0.169,1.665-0.25,148.993
		l-45.88,26.951c-2.095,1.232-3.599,3.26-4.166,5.623l-29.525,122.763c-0.643,2.665-0.026,5.479,1.672,7.634
		c1.695,2.149,4.286,3.408,7.028,3.408h79.788c4.941,0,8.948-4.007,8.948-8.949v-67.194h42.507v67.194
		c0,4.942,4.008,8.949,8.95,8.949h43.245c4.943,0,8.949-4.007,8.949-8.949v-67.194h42.512v67.194c0,4.942,4.006,8.949,8.949,8.949
		h79.787c0.031-0.005,0.059-0.005,0.09,0c4.941,0,8.949-4.007,8.949-8.949C470.812,529.419,470.589,528.309,470.184,527.286z
		 M208.977,521.637h-59.482l25.979-108.024l33.504-19.681V521.637z M312.628,521.637h-25.349v-134.39h25.349V521.637z
		 M330.524,445.493v-67.195c0-4.942-4.006-8.949-8.949-8.949h-43.245c-4.942,0-8.95,4.007-8.95,8.949v67.195h-42.507
		c0-0.022,0-0.044,0-0.062c0.027-72.937,0.106-210.971,0.224-219.692c2.265-10.832,41.565-82.986,72.858-138.226
		c31.317,55.287,70.653,127.512,72.859,138.296c0.116,9.351,0.196,146.869,0.222,219.617c0,0.022,0,0.044,0,0.066H330.524z
		 M390.934,521.637V393.932l33.503,19.681l25.979,108.024H390.934z"/>
</g>
</svg>
