<?xml version="1.0" encoding="utf-8"?>
<!-- Generator: Adobe Illustrator 15.0.0, SVG Export Plug-In . SVG Version: 6.00 Build 0)  -->
<!DOCTYPE svg PUBLIC "-//W3C//DTD SVG 1.1//EN" "http://www.w3.org/Graphics/SVG/1.1/DTD/svg11.dtd">
<svg version="1.1" id="Capa_1" xmlns="http://www.w3.org/2000/svg" xmlns:xlink="http://www.w3.org/1999/xlink" x="0px" y="0px"
	 width="600px" height="600px" viewBox="0 0 600 600" enable-background="new 0 0 600 600" xml:space="preserve">
<g>
	<path d="M300,80.102C178.747,80.102,80.102,178.75,80.102,300S178.747,519.898,300,519.898
		c121.254,0,219.898-98.648,219.898-219.898S421.254,80.102,300,80.102z M300,495.006c-107.527,0-195.005-87.479-195.005-195.006
		S192.473,104.995,300,104.995c107.528,0,195.006,87.478,195.006,195.005S407.528,495.006,300,495.006z"/>
	<path d="M390.891,203.856c-3.449-2.31-7.821-2.753-11.65-1.186l-101.69,41.612h-61.497c-6.874,0-12.446,5.573-12.446,12.447v86.542
		c0,6.873,5.573,12.446,12.446,12.446h61.513l101.675,41.605c1.517,0.62,3.117,0.93,4.713,0.93c2.435,0,4.855-0.717,6.938-2.114
		c3.442-2.31,5.509-6.188,5.509-10.332V214.193C396.399,210.042,394.333,206.171,390.891,203.856z M228.5,269.175h39.06v61.649
		H228.5V269.175z M371.507,367.265l-79.055-32.35v-69.83l79.055-32.35V367.265z"/>
</g>
</svg>
