<?xml version="1.0" encoding="utf-8"?>
<!-- Generator: Adobe Illustrator 15.0.0, SVG Export Plug-In . SVG Version: 6.00 Build 0)  -->
<!DOCTYPE svg PUBLIC "-//W3C//DTD SVG 1.1//EN" "http://www.w3.org/Graphics/SVG/1.1/DTD/svg11.dtd">
<svg version="1.1" id="Capa_1" xmlns="http://www.w3.org/2000/svg" xmlns:xlink="http://www.w3.org/1999/xlink" x="0px" y="0px"
	 width="600px" height="600px" viewBox="0 0 600 600" enable-background="new 0 0 600 600" xml:space="preserve">
<g>
	<path d="M299.996,100C189.719,100,100,189.72,100,300c0,110.279,89.719,200,199.996,200C410.281,500,500,410.279,500,300
		C500,189.72,410.281,100,299.996,100z M299.996,473.77c-95.809,0-173.766-77.953-173.766-173.77s77.957-173.769,173.766-173.769
		c95.816,0,173.773,77.953,173.773,173.769S395.812,473.77,299.996,473.77z"/>
	<path d="M299.996,191.382c-35.176,0-63.789,28.616-63.789,63.793c0,7.243,5.871,13.115,13.113,13.115
		c7.246,0,13.117-5.873,13.117-13.115c0-20.71,16.848-37.562,37.559-37.562c20.719,0,37.566,16.852,37.566,37.562
		c0,20.714-16.848,37.566-37.566,37.566c-7.242,0-13.113,5.873-13.113,13.115v45.683c0,7.243,5.871,13.115,13.113,13.115
		s13.117-5.872,13.117-13.115v-33.938c28.906-6.064,50.68-31.745,50.68-62.426C363.793,219.998,335.176,191.382,299.996,191.382z"/>
	<path d="M300.004,373.738c-9.086,0-16.465,7.371-16.465,16.462s7.379,16.465,16.465,16.465c9.094,0,16.457-7.374,16.457-16.465
		S309.098,373.738,300.004,373.738z"/>
</g>
</svg>
