<?xml version="1.0" encoding="utf-8"?>
<!-- Generator: Adobe Illustrator 15.0.0, SVG Export Plug-In . SVG Version: 6.00 Build 0)  -->
<!DOCTYPE svg PUBLIC "-//W3C//DTD SVG 1.1//EN" "http://www.w3.org/Graphics/SVG/1.1/DTD/svg11.dtd">
<svg version="1.1" id="Capa_1" xmlns="http://www.w3.org/2000/svg" xmlns:xlink="http://www.w3.org/1999/xlink" x="0px" y="0px"
	 width="600px" height="600px" viewBox="0 0 600 600" enable-background="new 0 0 600 600" xml:space="preserve">
<g>
	<path fill="#222221" d="M299.987,101.485c-109.459,0-198.5,89.054-198.5,198.512c0,109.464,89.041,198.519,198.5,198.519
		c109.471,0,198.525-89.055,198.525-198.519C498.513,190.539,409.458,101.485,299.987,101.485z M299.987,472.479
		c-95.092,0-172.463-77.377-172.463-172.482c0-95.105,77.371-172.476,172.463-172.476c95.117,0,172.488,77.37,172.488,172.476
		C472.476,395.102,395.104,472.479,299.987,472.479z"/>
	<path fill="#222221" d="M380.13,202.259l-172.514,92.01c-5.086,2.715-7.781,8.454-6.625,14.106
		c1.17,5.65,5.912,9.865,11.658,10.354l63.26,5.365l5.365,63.266c0.482,5.746,4.703,10.488,10.348,11.652
		c0.877,0.178,1.754,0.266,2.631,0.266c4.73,0,9.18-2.594,11.48-6.891l92.004-172.513c2.695-5.06,1.779-11.283-2.275-15.332
		C391.405,200.486,385.188,199.558,380.13,202.259z"/>
</g>
</svg>
