<?xml version="1.0" encoding="utf-8"?>
<!-- Generator: Adobe Illustrator 15.0.0, SVG Export Plug-In . SVG Version: 6.00 Build 0)  -->
<!DOCTYPE svg PUBLIC "-//W3C//DTD SVG 1.1//EN" "http://www.w3.org/Graphics/SVG/1.1/DTD/svg11.dtd">
<svg version="1.1" id="Capa_1" xmlns="http://www.w3.org/2000/svg" xmlns:xlink="http://www.w3.org/1999/xlink" x="0px" y="0px"
	 width="600px" height="600px" viewBox="0 0 600 600" enable-background="new 0 0 600 600" xml:space="preserve">
<g>
	<path d="M299.992,100C189.719,100,100,189.72,100,300c0,110.28,89.719,200,199.992,200C410.273,500,500,410.28,500,300
		C500,189.72,410.273,100,299.992,100z M299.992,473.77c-95.812,0-173.762-77.953-173.762-173.77s77.949-173.769,173.762-173.769
		c95.824,0,173.777,77.953,173.777,173.769S395.816,473.77,299.992,473.77z"/>
	<path d="M296.293,225.97c9.656,0,17.488-7.832,17.488-17.489s-7.832-17.489-17.488-17.489c-9.664,0-17.488,7.832-17.488,17.489
		S286.629,225.97,296.293,225.97z"/>
	<path d="M324.09,379.586h-10.969V254.564c0-7.243-5.871-13.116-13.113-13.116h-24.094c-7.242,0-13.113,5.873-13.113,13.116
		c0,7.243,5.871,13.115,13.113,13.115h10.977v111.907h-10.977c-7.242,0-13.113,5.872-13.113,13.115
		c0,7.242,5.871,13.115,13.113,13.115h48.176c7.246,0,13.117-5.873,13.117-13.115C337.207,385.458,331.336,379.586,324.09,379.586z"
		/>
</g>
</svg>
