<?xml version="1.0" encoding="utf-8"?>
<!-- Generator: Adobe Illustrator 15.0.0, SVG Export Plug-In . SVG Version: 6.00 Build 0)  -->
<!DOCTYPE svg PUBLIC "-//W3C//DTD SVG 1.1//EN" "http://www.w3.org/Graphics/SVG/1.1/DTD/svg11.dtd">
<svg version="1.1" id="Capa_1" xmlns="http://www.w3.org/2000/svg" xmlns:xlink="http://www.w3.org/1999/xlink" x="0px" y="0px"
	 width="600px" height="600px" viewBox="0 0 600 600" enable-background="new 0 0 600 600" xml:space="preserve">
<path fill="#222221" d="M552.104,286.621h-41.04c-6.506-44.167-44.554-78.224-90.506-78.224c-43.012,0-79.098,29.85-88.886,69.89
	l-24.929-14.554c-4.167-2.43-9.321-2.43-13.488,0l-24.929,14.554c-9.788-40.04-45.874-69.89-88.886-69.89
	c-45.952,0-84,34.057-90.506,78.224h-41.04c-7.388,0-13.377,5.997-13.377,13.378c0,7.393,5.989,13.377,13.377,13.377h41.04
	c6.509,44.17,44.554,78.227,90.506,78.227c47.836,0,87.161-36.879,91.194-83.688L300,290.774l29.364,17.141
	c4.033,46.809,43.358,83.688,91.194,83.688c45.952,0,83.997-34.057,90.506-78.227h41.04c7.388,0,13.378-5.984,13.378-13.377
	C565.482,292.618,559.492,286.621,552.104,286.621z M179.441,364.849c-35.756,0-64.842-29.095-64.842-64.85
	c0-35.756,29.086-64.848,64.842-64.848s64.842,29.092,64.842,64.848C244.283,335.754,215.197,364.849,179.441,364.849z
	 M420.559,364.849c-35.755,0-64.842-29.095-64.842-64.85c0-35.756,29.087-64.848,64.842-64.848
	c35.756,0,64.842,29.092,64.842,64.848C485.4,335.754,456.314,364.849,420.559,364.849z"/>
</svg>
