<?xml version="1.0" encoding="utf-8"?>
<!-- Generator: Adobe Illustrator 15.0.0, SVG Export Plug-In . SVG Version: 6.00 Build 0)  -->
<!DOCTYPE svg PUBLIC "-//W3C//DTD SVG 1.1//EN" "http://www.w3.org/Graphics/SVG/1.1/DTD/svg11.dtd">
<svg version="1.1" id="Capa_1" xmlns="http://www.w3.org/2000/svg" xmlns:xlink="http://www.w3.org/1999/xlink" x="0px" y="0px"
	 width="600px" height="600px" viewBox="0 0 600 600" enable-background="new 0 0 600 600" xml:space="preserve">
<g>
	<path d="M300.001,109.302c-105.15,0-190.699,85.547-190.699,190.697s85.549,190.699,190.699,190.699
		s190.697-85.549,190.697-190.699S405.151,109.302,300.001,109.302z M338.565,139.169l-13.826,57.686
		c-7.957-1.91-16.209-3.029-24.738-3.029c-8.543,0-16.801,1.123-24.764,3.037l-13.801-57.693
		c12.381-2.969,25.281-4.586,38.564-4.586C313.282,134.583,326.183,136.2,338.565,139.169z M134.585,299.999
		c0-13.344,1.629-26.312,4.629-38.748l58.006,12.584c-2.135,8.389-3.395,17.123-3.395,26.164c0,9.053,1.26,17.795,3.406,26.189
		l-58.018,12.566C136.214,326.315,134.585,313.347,134.585,299.999z M219.106,299.999c0-44.604,36.287-80.893,80.895-80.893
		c44.605,0,80.893,36.289,80.893,80.893s-36.287,80.895-80.893,80.895C255.394,380.894,219.106,344.603,219.106,299.999z
		 M237.302,146.962l14.055,58.77c-19.066,9.881-34.799,25.318-44.951,44.227l-59.354-12.879
		C163.878,196.331,196.517,163.731,237.302,146.962z M300.001,465.415c-68.945,0-128.137-42.402-152.949-102.49l59.365-12.855
		c17.924,33.357,53.137,56.105,93.584,56.105c58.543,0,106.174-47.631,106.174-106.176c0-41.02-23.424-76.609-57.562-94.281
		l14.086-58.76c60.203,24.758,102.719,84.018,102.719,153.041C465.417,391.21,391.214,465.415,300.001,465.415z"/>
	<path d="M300.001,351.13c28.193,0,51.131-22.936,51.131-51.131c0-28.193-22.938-51.131-51.131-51.131
		c-28.195,0-51.131,22.938-51.131,51.131C248.87,328.194,271.806,351.13,300.001,351.13z M300.001,274.149
		c14.252,0,25.85,11.596,25.85,25.85c0,14.256-11.598,25.85-25.85,25.85s-25.85-11.594-25.85-25.85
		C274.151,285.745,285.749,274.149,300.001,274.149z"/>
</g>
</svg>
