<?xml version="1.0" encoding="utf-8"?>
<!-- Generator: Adobe Illustrator 15.0.0, SVG Export Plug-In . SVG Version: 6.00 Build 0)  -->
<!DOCTYPE svg PUBLIC "-//W3C//DTD SVG 1.1//EN" "http://www.w3.org/Graphics/SVG/1.1/DTD/svg11.dtd">
<svg version="1.1" id="Capa_1" xmlns="http://www.w3.org/2000/svg" xmlns:xlink="http://www.w3.org/1999/xlink" x="0px" y="0px"
	 width="600px" height="600px" viewBox="0 0 600 600" enable-background="new 0 0 600 600" xml:space="preserve">
<g>
	<path d="M299.991,100c-110.276,0-199.989,89.72-199.989,200c0,110.279,89.713,200,199.989,200
		c110.281,0,200.007-89.721,200.007-200C499.998,189.72,410.272,100,299.991,100z M299.991,473.77
		c-95.81,0-173.759-77.953-173.759-173.77c0-95.817,77.949-173.77,173.759-173.77c95.821,0,173.776,77.953,173.776,173.77
		C473.768,395.816,395.812,473.77,299.991,473.77z"/>
	<path d="M379.476,286.884l-158.958,0.003c-7.242,0-13.115,5.873-13.115,13.115c0,7.243,5.873,13.116,13.115,13.116l158.958-0.004
		c7.243,0,13.115-5.873,13.115-13.115C392.591,292.757,386.719,286.884,379.476,286.884z"/>
</g>
</svg>
