<?xml version="1.0" encoding="utf-8"?>
<!-- Generator: Adobe Illustrator 15.0.0, SVG Export Plug-In . SVG Version: 6.00 Build 0)  -->
<!DOCTYPE svg PUBLIC "-//W3C//DTD SVG 1.1//EN" "http://www.w3.org/Graphics/SVG/1.1/DTD/svg11.dtd">
<svg version="1.1" id="Capa_1" xmlns="http://www.w3.org/2000/svg" xmlns:xlink="http://www.w3.org/1999/xlink" x="0px" y="0px"
	 width="600px" height="600px" viewBox="0 0 600 600" enable-background="new 0 0 600 600" xml:space="preserve">
<g>
	<path d="M299.996,100C189.713,100,100,189.72,100,300c0,110.28,89.713,200,199.996,200S500,410.28,500,300
		C500,189.72,410.279,100,299.996,100z M299.996,473.77c-95.816,0-173.766-77.953-173.766-173.77s77.949-173.769,173.766-173.769
		S473.768,204.184,473.768,300S395.812,473.77,299.996,473.77z"/>
	<path d="M372.406,234.526L269.275,337.652l-41.689-41.68c-5.123-5.117-13.422-5.12-18.545,0.003
		c-5.125,5.124-5.125,13.426,0,18.549l50.963,50.954c2.561,2.558,5.916,3.838,9.271,3.838s6.719-1.28,9.279-3.842
		c0.008-0.01,0.014-0.022,0.027-0.035l112.369-112.368c5.125-5.12,5.125-13.426,0-18.546
		C385.828,229.402,377.523,229.402,372.406,234.526z"/>
</g>
</svg>
