<?xml version="1.0" encoding="utf-8"?>
<!-- Generator: Adobe Illustrator 15.0.0, SVG Export Plug-In . SVG Version: 6.00 Build 0)  -->
<!DOCTYPE svg PUBLIC "-//W3C//DTD SVG 1.1//EN" "http://www.w3.org/Graphics/SVG/1.1/DTD/svg11.dtd">
<svg version="1.1" id="Capa_1" xmlns="http://www.w3.org/2000/svg" xmlns:xlink="http://www.w3.org/1999/xlink" x="0px" y="0px"
	 width="600px" height="600px" viewBox="0 0 600 600" enable-background="new 0 0 600 600" xml:space="preserve">
<g>
	<path d="M299.995,100C189.716,100,100,189.72,100,300c0,110.279,89.716,200,199.995,200C410.277,500,500,410.279,500,300
		C500,189.72,410.277,100,299.995,100z M299.995,473.77c-95.813,0-173.765-77.953-173.765-173.77
		c0-95.817,77.951-173.77,173.765-173.77c95.818,0,173.773,77.953,173.773,173.77C473.769,395.816,395.813,473.77,299.995,473.77z"
		/>
	<path d="M379.478,286.884h-66.364V220.52c0-7.243-5.872-13.115-13.115-13.115s-13.115,5.873-13.115,13.115v66.368h-66.361
		c-7.242,0-13.115,5.873-13.115,13.115c0,7.243,5.873,13.115,13.115,13.115h66.358v66.362c0,7.242,5.872,13.115,13.115,13.115
		c7.242,0,13.115-5.873,13.115-13.115v-66.365h66.367c7.242,0,13.115-5.873,13.115-13.115
		C392.593,292.757,386.72,286.884,379.478,286.884z"/>
</g>
</svg>
