<?xml version="1.0" encoding="utf-8"?>
<!-- Generator: Adobe Illustrator 15.0.0, SVG Export Plug-In . SVG Version: 6.00 Build 0)  -->
<!DOCTYPE svg PUBLIC "-//W3C//DTD SVG 1.1//EN" "http://www.w3.org/Graphics/SVG/1.1/DTD/svg11.dtd">
<svg version="1.1" id="Capa_1" xmlns="http://www.w3.org/2000/svg" xmlns:xlink="http://www.w3.org/1999/xlink" x="0px" y="0px"
	 width="600px" height="600px" viewBox="0 0 600 600" enable-background="new 0 0 600 600" xml:space="preserve">
<path d="M461.797,309.654c-7.887,0-14.279,6.393-14.279,14.275c0,81.342-66.172,147.518-147.52,147.518
	c-81.342,0-147.515-66.176-147.515-147.518c0-76.52,58.575-139.584,133.239-146.795v32.863c0,5.099,2.725,9.811,7.137,12.362
	c2.21,1.275,4.677,1.914,7.139,1.914c2.467,0,4.928-0.638,7.137-1.914l82.904-47.857c4.42-2.548,7.137-7.26,7.137-12.362
	c0-5.099-2.717-9.815-7.137-12.363l-82.904-47.864c-4.418-2.551-9.856-2.551-14.276,0c-4.412,2.548-7.137,7.264-7.137,12.363v34.212
	c-90.426,7.298-161.791,83.167-161.791,175.441c0,97.085,78.984,176.07,176.066,176.07c97.088,0,176.071-78.985,176.071-176.07
	C476.068,316.047,469.68,309.654,461.797,309.654z"/>
</svg>
