<?xml version="1.0" encoding="utf-8"?>
<!-- Generator: Adobe Illustrator 15.0.0, SVG Export Plug-In . SVG Version: 6.00 Build 0)  -->
<!DOCTYPE svg PUBLIC "-//W3C//DTD SVG 1.1//EN" "http://www.w3.org/Graphics/SVG/1.1/DTD/svg11.dtd">
<svg version="1.1" id="Capa_1" xmlns="http://www.w3.org/2000/svg" xmlns:xlink="http://www.w3.org/1999/xlink" x="0px" y="0px"
	 width="600px" height="600px" viewBox="0 0 600 600" enable-background="new 0 0 600 600" xml:space="preserve">
<g>
	<path fill="#222221" d="M299.999,97.653c-111.568,0-202.346,90.77-202.346,202.346c0,111.578,90.777,202.348,202.346,202.348
		c111.578,0,202.348-90.77,202.348-202.348C502.347,188.423,411.577,97.653,299.999,97.653z M299.999,474.675
		c-96.314,0-174.674-78.359-174.674-174.676c0-96.314,78.359-174.674,174.674-174.674c96.316,0,174.676,78.359,174.676,174.674
		C474.675,396.315,396.315,474.675,299.999,474.675z"/>
	<path fill="#222221" d="M225.464,256.54c22.193,0,40.25-18.059,40.25-40.258c0-22.197-18.057-40.256-40.25-40.256
		c-22.199,0-40.256,18.059-40.256,40.256C185.208,238.481,203.265,256.54,225.464,256.54z M225.464,203.698
		c6.939,0,12.58,5.646,12.58,12.584c0,6.939-5.641,12.586-12.58,12.586c-6.938,0-12.586-5.646-12.586-12.586
		C212.878,209.345,218.526,203.698,225.464,203.698z"/>
	<path fill="#222221" d="M374.542,176.026c-22.199,0-40.258,18.059-40.258,40.256c0,22.199,18.059,40.258,40.258,40.258
		c22.193,0,40.25-18.059,40.25-40.258C414.792,194.085,396.735,176.026,374.542,176.026z M374.542,228.868
		c-6.938,0-12.586-5.646-12.586-12.586c0-6.938,5.648-12.584,12.586-12.584s12.58,5.646,12.58,12.584
		C387.122,223.222,381.479,228.868,374.542,228.868z"/>
	<path fill="#222221" d="M299.999,273.28c-63.293,0-114.791,51.5-114.791,114.793c0,7.641,6.193,13.836,13.836,13.836
		c7.641,0,13.834-6.195,13.834-13.836c0-48.039,39.082-87.121,87.121-87.121c48.041,0,87.123,39.082,87.123,87.121
		c0,7.641,6.193,13.836,13.834,13.836s13.836-6.195,13.836-13.836C414.792,324.78,363.294,273.28,299.999,273.28z"/>
</g>
</svg>
