<?xml version="1.0" encoding="utf-8"?>
<!-- Generator: Adobe Illustrator 15.0.0, SVG Export Plug-In . SVG Version: 6.00 Build 0)  -->
<!DOCTYPE svg PUBLIC "-//W3C//DTD SVG 1.1//EN" "http://www.w3.org/Graphics/SVG/1.1/DTD/svg11.dtd">
<svg version="1.1" id="Capa_1" xmlns="http://www.w3.org/2000/svg" xmlns:xlink="http://www.w3.org/1999/xlink" x="0px" y="0px"
	 width="600px" height="600px" viewBox="0 0 600 600" enable-background="new 0 0 600 600" xml:space="preserve">
<g>
	<path fill="#222221" d="M300,238.165c-34.1,0-61.842,27.74-61.842,61.838c0,34.099,27.742,61.841,61.842,61.841
		c34.099,0,61.841-27.742,61.841-61.841C361.842,265.905,334.1,238.165,300,238.165z M300,331.613
		c-17.429,0-31.608-14.182-31.608-31.611c0-17.428,14.18-31.605,31.608-31.605c17.429,0,31.607,14.178,31.607,31.605
		C331.607,317.432,317.43,331.613,300,331.613z"/>
	<path fill="#222221" d="M490.398,255.952c-2.816-2.812-6.713-4.427-10.688-4.427l-49.715,0.015l-3.799-9.194l35.15-35.155
		c5.891-5.894,5.891-15.483,0-21.377l-47.166-47.162c-2.689-2.691-6.586-4.235-10.688-4.235s-7.996,1.544-10.686,4.235
		l-35.158,35.155l-9.188-3.797v-49.726c0-8.335-6.781-15.115-15.115-15.115h-66.694c-8.335,0-15.116,6.78-15.116,15.115V170
		l-9.194,3.801l-35.151-35.135c-2.855-2.854-6.65-4.426-10.686-4.426c-4.036,0-7.832,1.572-10.688,4.427l-47.172,47.172
		c-2.813,2.814-4.427,6.711-4.427,10.688c0,3.984,1.613,7.882,4.427,10.693l35.151,35.127l-3.811,9.188l-49.697,0.005
		c-8.338,0-15.119,6.781-15.119,15.116v66.708c0,4.035,1.573,7.832,4.431,10.689c2.817,2.816,6.713,4.432,10.688,4.432l49.708-0.02
		l3.799,9.195l-35.133,35.15c-5.894,5.895-5.894,15.484,0,21.377l47.161,47.172c2.692,2.691,6.591,4.234,10.693,4.234
		c4.105,0,8.002-1.543,10.69-4.234l35.136-35.162l9.186,3.816l0.008,49.691c0,8.338,6.781,15.121,15.116,15.121l66.708,0.006h0.162
		c8.336,0,15.117-6.781,15.117-15.117c0-0.721-0.049-1.445-0.148-2.152l-0.014-0.207L348.463,430l9.195-3.801l35.15,35.139
		c2.855,2.857,6.65,4.432,10.688,4.432c4.035,0,7.83-1.574,10.686-4.432l47.172-47.166c2.855-2.854,4.428-6.65,4.428-10.688
		c0-4.045-1.572-7.846-4.428-10.699l-35.158-35.125l3.809-9.195h49.707c8.336,0,15.119-6.781,15.119-15.115v-66.708
		C494.83,262.606,493.256,258.809,490.398,255.952z M464.596,318.232h-44.697c-6.133,0-11.615,3.662-13.965,9.328l-11.535,27.865
		c-2.35,5.672-1.062,12.141,3.275,16.482l31.609,31.58l-25.789,25.789l-31.605-31.602c-2.854-2.852-6.65-4.422-10.691-4.422
		c-1.992,0-3.938,0.387-5.785,1.148l-27.854,11.537c-5.666,2.348-9.328,7.832-9.328,13.971l0.008,44.689l-36.468-0.01l-0.008-44.686
		c0-6.135-3.661-11.615-9.328-13.965L244.579,394.4c-1.854-0.768-3.806-1.156-5.802-1.156c-4.036,0-7.829,1.572-10.677,4.43
		l-31.586,31.615l-25.787-25.791l31.592-31.605c4.339-4.342,5.625-10.809,3.275-16.477l-11.536-27.855
		c-2.352-5.666-7.833-9.328-13.965-9.328l-44.688,0.01v-36.466l44.688-0.01c6.134,0,11.615-3.662,13.965-9.328l11.536-27.854
		c2.349-5.676,1.063-12.146-3.275-16.482l-31.603-31.575l25.79-25.796l31.599,31.582c2.856,2.857,6.658,4.43,10.704,4.43
		c1.988,0,3.928-0.385,5.764-1.144l27.861-11.524c5.671-2.351,9.336-7.834,9.336-13.97V135.4h36.46v44.705
		c0,6.137,3.662,11.618,9.328,13.965l27.855,11.534c1.848,0.766,3.795,1.153,5.789,1.153c4.039,0,7.832-1.572,10.684-4.429
		l31.607-31.617l25.789,25.789l-31.609,31.607c-4.336,4.339-5.621,10.806-3.275,16.478l11.535,27.858
		c2.35,5.669,7.832,9.332,13.965,9.332l44.697-0.01V318.232z"/>
</g>
</svg>
