<?xml version="1.0" encoding="utf-8"?>
<!-- Generator: Adobe Illustrator 15.0.0, SVG Export Plug-In . SVG Version: 6.00 Build 0)  -->
<!DOCTYPE svg PUBLIC "-//W3C//DTD SVG 1.1//EN" "http://www.w3.org/Graphics/SVG/1.1/DTD/svg11.dtd">
<svg version="1.1" id="Capa_1" xmlns="http://www.w3.org/2000/svg" xmlns:xlink="http://www.w3.org/1999/xlink" x="0px" y="0px"
	 width="600px" height="600px" viewBox="0 0 600 600" enable-background="new 0 0 600 600" xml:space="preserve">
<path d="M398.388,338.497c-22.712,0-42.777,11.521-54.68,29.02l-83.612-46.309c4.839-9.184,7.609-19.611,7.609-30.691
	c0-10.775-2.645-20.926-7.238-29.922l63.471-27.617c11.941,17.215,31.818,28.523,54.308,28.523
	c36.445,0,66.097-29.652,66.097-66.098s-29.651-66.096-66.097-66.096c-36.443,0-66.093,29.65-66.093,66.096
	c0,7.488,1.309,14.658,3.613,21.373l-65.93,28.688c-12.072-12.91-29.198-21.045-48.228-21.045
	c-36.443,0-66.093,29.652-66.093,66.098s29.649,66.098,66.093,66.098c18.812,0,35.772-7.939,47.821-20.6l86.269,47.777
	c-2.179,6.551-3.403,13.531-3.403,20.803c0,36.445,29.649,66.098,66.093,66.098c36.445,0,66.097-29.652,66.097-66.098
	S434.833,338.497,398.388,338.497z M378.245,147.423c26.456,0,47.98,21.523,47.98,47.98c0,26.459-21.524,47.98-47.98,47.98
	c-26.454,0-47.977-21.521-47.977-47.98C330.269,168.946,351.791,147.423,378.245,147.423z M201.608,338.497
	c-26.454,0-47.977-21.523-47.977-47.98c0-26.459,21.522-47.98,47.977-47.98c26.456,0,47.98,21.521,47.98,47.98
	C249.589,316.974,228.064,338.497,201.608,338.497z M398.388,452.575c-26.454,0-47.977-21.523-47.977-47.98
	c0-26.459,21.522-47.98,47.977-47.98c26.456,0,47.98,21.521,47.98,47.98C446.368,431.052,424.844,452.575,398.388,452.575z"/>
</svg>
