<?xml version="1.0" encoding="utf-8"?>
<!-- Generator: Adobe Illustrator 15.0.0, SVG Export Plug-In . SVG Version: 6.00 Build 0)  -->
<!DOCTYPE svg PUBLIC "-//W3C//DTD SVG 1.1//EN" "http://www.w3.org/Graphics/SVG/1.1/DTD/svg11.dtd">
<svg version="1.1" id="Capa_1" xmlns="http://www.w3.org/2000/svg" xmlns:xlink="http://www.w3.org/1999/xlink" x="0px" y="0px"
	 width="600px" height="600px" viewBox="0 0 600 600" enable-background="new 0 0 600 600" xml:space="preserve">
<g>
	<path fill="#222221" d="M300,215.446c-46.623,0-84.561,37.931-84.561,84.554c0,46.631,37.938,84.561,84.561,84.561
		c46.624,0,84.561-37.93,84.561-84.561C384.561,253.376,346.623,215.446,300,215.446z M300,356.502
		c-31.155,0-56.502-25.348-56.502-56.502c0-31.148,25.347-56.495,56.502-56.495c31.155,0,56.502,25.347,56.502,56.495
		C356.502,331.154,331.154,356.502,300,356.502z"/>
	<path fill="#222221" d="M300,195.641c7.749,0,14.03-6.282,14.03-14.029v-70.531c0-7.748-6.281-14.029-14.03-14.029
		c-7.748,0-14.029,6.281-14.029,14.029v70.531C285.97,189.359,292.251,195.641,300,195.641z"/>
	<path fill="#222221" d="M383.711,230.325c3.59,0,7.186-1.37,9.926-4.11l49.871-49.878c5.473-5.479,5.473-14.365-0.008-19.838
		c-5.479-5.48-14.357-5.48-19.838,0l-49.871,49.877c-5.48,5.48-5.48,14.365,0,19.839
		C376.531,228.955,380.121,230.325,383.711,230.325z"/>
	<path fill="#222221" d="M488.918,285.97l-70.531,0.007c-7.754,0-14.029,6.281-14.029,14.029c0,7.748,6.283,14.029,14.029,14.029
		l70.531-0.006c7.748,0,14.031-6.281,14.031-14.03C502.949,292.251,496.666,285.97,488.918,285.97z"/>
	<path fill="#222221" d="M393.623,373.799c-5.48-5.48-14.357-5.48-19.838,0s-5.48,14.365,0,19.838l49.877,49.871
		c2.74,2.74,6.33,4.109,9.92,4.109s7.186-1.369,9.926-4.109c5.473-5.48,5.473-14.365-0.008-19.838L393.623,373.799z"/>
	<path fill="#222221" d="M299.986,404.357c-7.748,0-14.022,6.283-14.022,14.029l0.007,70.531c0,7.748,6.281,14.031,14.036,14.031
		c7.748,0,14.023-6.283,14.023-14.031l-0.008-70.531C314.021,410.641,307.74,404.357,299.986,404.357z"/>
	<path fill="#222221" d="M206.355,373.791l-49.863,49.879c-5.474,5.479-5.474,14.365,0.007,19.838
		c2.74,2.74,6.329,4.109,9.919,4.109s7.18-1.369,9.919-4.109l49.864-49.877c5.48-5.48,5.48-14.365,0-19.84
		C220.72,368.311,211.835,368.311,206.355,373.791z"/>
	<path fill="#222221" d="M195.641,300c0-7.748-6.282-14.029-14.029-14.029h-70.531c-7.748,0-14.029,6.281-14.029,14.029
		c0,7.749,6.281,14.03,14.029,14.03h70.531C189.359,314.029,195.641,307.748,195.641,300z"/>
	<path fill="#222221" d="M206.369,226.201c2.74,2.74,6.33,4.11,9.92,4.11c3.589,0,7.179-1.37,9.919-4.11
		c5.48-5.48,5.48-14.365,0-19.839l-49.871-49.863c-5.479-5.48-14.365-5.48-19.845,0c-5.474,5.479-5.474,14.365,0.007,19.838
		L206.369,226.201z"/>
</g>
</svg>
