<?xml version="1.0" encoding="utf-8"?>
<!-- Generator: Adobe Illustrator 15.0.0, SVG Export Plug-In . SVG Version: 6.00 Build 0)  -->
<!DOCTYPE svg PUBLIC "-//W3C//DTD SVG 1.1//EN" "http://www.w3.org/Graphics/SVG/1.1/DTD/svg11.dtd">
<svg version="1.1" id="Capa_1" xmlns="http://www.w3.org/2000/svg" xmlns:xlink="http://www.w3.org/1999/xlink" x="0px" y="0px"
	 width="600px" height="600px" viewBox="0 0 600 600" enable-background="new 0 0 600 600" xml:space="preserve">
<path fill="#222221" d="M498.6,534.592l-32.375-327.956c-0.682-6.923-6.508-12.195-13.465-12.195h-60.545v-53.509
	c0-50.895-41.4-92.289-92.281-92.289c-50.887,0-92.282,41.395-92.282,92.289v53.509H147.1c-6.956,0-12.776,5.272-13.464,12.195
	l-32.561,329.858c-0.377,3.805,0.872,7.587,3.436,10.412c2.563,2.84,6.209,4.451,10.027,4.451h370.791c0.04,0,0.085,0,0.132,0
	c7.473,0,13.529-6.062,13.529-13.527C498.99,536.707,498.858,535.625,498.6,534.592z M234.711,140.932
	c0-35.963,29.259-65.23,65.223-65.23c35.963,0,65.222,29.268,65.222,65.23v53.509H234.711V140.932z M159.361,221.5h48.291v27.376
	c0,7.464,6.059,13.528,13.53,13.528c7.472,0,13.529-6.064,13.529-13.528V221.5h130.445v27.376c0,7.464,6.058,13.528,13.529,13.528
	c7.471,0,13.529-6.064,13.529-13.528V221.5H440.5l24.62,249.37H134.74L159.361,221.5z M129.468,524.303l2.603-26.373h335.726
	l2.602,26.373H129.468z"/>
</svg>
