<?xml version="1.0" encoding="utf-8"?>
<!-- Generator: Adobe Illustrator 15.0.0, SVG Export Plug-In . SVG Version: 6.00 Build 0)  -->
<!DOCTYPE svg PUBLIC "-//W3C//DTD SVG 1.1//EN" "http://www.w3.org/Graphics/SVG/1.1/DTD/svg11.dtd">
<svg version="1.1" id="Capa_1" xmlns="http://www.w3.org/2000/svg" xmlns:xlink="http://www.w3.org/1999/xlink" x="0px" y="0px"
	 width="600px" height="600px" viewBox="0 0 600 600" enable-background="new 0 0 600 600" xml:space="preserve">
<g>
	<path d="M531.09,416.881l-72.67-41.957c-5.188-3.003-11.832-1.217-14.825,3.972c-2.998,5.191-1.219,11.828,3.972,14.826
		l37.58,21.699h-97.793L201.289,167.214c-2.049-2.734-5.267-4.343-8.685-4.343H74.338c-5.994,0-10.854,4.86-10.854,10.853
		c0,5.994,4.859,10.854,10.854,10.854h112.838l186.066,248.207c2.047,2.734,5.265,4.343,8.683,4.343H485.16l-37.594,21.699
		c-5.19,2.995-6.97,9.633-3.972,14.826c2.009,3.482,5.657,5.43,9.41,5.43c1.841,0,3.706-0.469,5.415-1.457l72.67-41.947
		c3.357-1.938,5.426-5.52,5.426-9.398C536.516,422.403,534.447,418.82,531.09,416.881z"/>
	<path d="M302.104,279.641c1.956,1.476,4.248,2.186,6.524,2.186c3.29,0,6.542-1.492,8.676-4.322l70.032-92.927h97.811l-37.58,21.699
		c-5.19,2.998-6.97,9.635-3.972,14.827c2.011,3.481,5.657,5.429,9.41,5.429c1.841,0,3.706-0.469,5.415-1.458l72.67-41.958
		c3.357-1.939,5.426-5.522,5.426-9.399c0-3.879-2.068-7.462-5.426-9.399l-72.67-41.947c-5.188-3-11.832-1.216-14.825,3.972
		c-2.998,5.193-1.219,11.831,3.972,14.826l37.594,21.7H381.925c-3.408,0-6.616,1.601-8.667,4.322l-73.289,97.249
		C296.358,269.227,297.316,276.035,302.104,279.641z"/>
	<path d="M272.458,319.759c-4.797-3.596-11.602-2.621-15.194,2.173l-70.088,93.489H74.338c-5.994,0-10.854,4.859-10.854,10.854
		s4.859,10.854,10.854,10.854h118.267c3.418,0,6.636-1.608,8.685-4.343l73.342-97.832
		C278.227,330.157,277.254,323.354,272.458,319.759z"/>
</g>
</svg>
