<?xml version="1.0" encoding="utf-8"?>
<!-- Generator: Adobe Illustrator 15.0.0, SVG Export Plug-In . SVG Version: 6.00 Build 0)  -->
<!DOCTYPE svg PUBLIC "-//W3C//DTD SVG 1.1//EN" "http://www.w3.org/Graphics/SVG/1.1/DTD/svg11.dtd">
<svg version="1.1" id="Capa_1" xmlns="http://www.w3.org/2000/svg" xmlns:xlink="http://www.w3.org/1999/xlink" x="0px" y="0px"
	 width="600px" height="600px" viewBox="0 0 600 600" enable-background="new 0 0 600 600" xml:space="preserve">
<g>
	<path d="M498.277,293.552c-2.305-3.992-6.562-6.448-11.172-6.448h-35.848c-6.629-90.987-82.719-163.003-175.367-163.003
		C178.902,124.102,100,203.012,100,300s78.902,175.898,175.891,175.898c7.121,0,12.895-5.774,12.895-12.896
		c0-7.121-5.773-12.895-12.895-12.895c-82.766,0-150.102-67.338-150.102-150.107c0-82.77,67.336-150.107,150.102-150.107
		c78.418,0,142.941,60.461,149.508,137.211h-34.727c-4.602,0-8.859,2.456-11.164,6.448c-2.305,3.986-2.305,8.904,0,12.895
		l48.207,83.52c2.305,3.986,6.562,6.448,11.172,6.448s8.863-2.462,11.168-6.448l48.223-83.52
		C500.574,302.456,500.574,297.538,498.277,293.552z"/>
	<path d="M329.891,288.219h-12.637v-50.556c0-22.807-18.559-41.363-41.363-41.363c-22.809,0-41.363,18.556-41.363,41.363v50.556
		h-12.637c-7.121,0-12.895,5.774-12.895,12.896v74.887c0,7.122,5.773,12.896,12.895,12.896h108c7.121,0,12.895-5.773,12.895-12.896
		v-74.887C342.785,293.993,337.012,288.219,329.891,288.219z M260.32,237.663c0-8.588,6.988-15.572,15.57-15.572
		c8.59,0,15.57,6.983,15.57,15.572v50.556H260.32V237.663z M316.996,363.105h-82.211V314.01h12.637h56.934h12.641V363.105z"/>
</g>
</svg>
