<?xml version="1.0" encoding="utf-8"?>
<!-- Generator: Adobe Illustrator 15.0.0, SVG Export Plug-In . SVG Version: 6.00 Build 0)  -->
<!DOCTYPE svg PUBLIC "-//W3C//DTD SVG 1.1//EN" "http://www.w3.org/Graphics/SVG/1.1/DTD/svg11.dtd">
<svg version="1.1" id="Capa_1" xmlns="http://www.w3.org/2000/svg" xmlns:xlink="http://www.w3.org/1999/xlink" x="0px" y="0px"
	 width="600px" height="600px" viewBox="0 0 600 600" enable-background="new 0 0 600 600" xml:space="preserve">
<g>
	<path fill="#222221" d="M541.395,247.06h-73.902c-5.82-24.581-27.893-42.944-54.227-42.944H101.549
		c-30.757,0-55.776,25.019-55.776,55.775v80.218c0,30.756,25.019,55.775,55.776,55.775h311.716c22.33,0,41.576-13.215,50.48-32.211
		h77.648c7.086,0,12.832-5.746,12.832-12.832v-90.951C554.227,252.805,548.48,247.06,541.395,247.06z M413.266,370.221H101.549
		c-16.604,0-30.112-13.508-30.112-30.111v-80.218c0-16.604,13.509-30.112,30.112-30.112h311.716
		c16.604,0,30.111,13.508,30.111,30.112v80.218C443.377,356.713,429.869,370.221,413.266,370.221z M528.562,338.01h-59.521v-65.287
		h59.521V338.01z"/>
	<path fill="#222221" d="M284.101,296.4l-66.189,16.497V270.68c0-4.029-1.892-7.818-5.106-10.243
		c-3.208-2.425-7.381-3.202-11.253-2.093l-89.823,25.664c-6.811,1.948-10.757,9.047-8.809,15.864
		c1.949,6.81,9.035,10.771,15.864,8.808l73.463-20.988v41.626c0,3.949,1.817,7.684,4.931,10.113
		c2.281,1.781,5.069,2.721,7.901,2.721c1.034,0,2.081-0.125,3.102-0.383l82.122-20.469c6.879-1.711,11.065-8.68,9.348-15.553
		C297.936,298.863,290.956,294.653,284.101,296.4z"/>
</g>
</svg>
