<?xml version="1.0" encoding="utf-8"?>
<!-- Generator: Adobe Illustrator 15.0.0, SVG Export Plug-In . SVG Version: 6.00 Build 0)  -->
<!DOCTYPE svg PUBLIC "-//W3C//DTD SVG 1.1//EN" "http://www.w3.org/Graphics/SVG/1.1/DTD/svg11.dtd">
<svg version="1.1" id="Capa_1" xmlns="http://www.w3.org/2000/svg" xmlns:xlink="http://www.w3.org/1999/xlink" x="0px" y="0px"
	 width="600px" height="600px" viewBox="0 0 600 600" enable-background="new 0 0 600 600" xml:space="preserve">
<g>
	<path d="M430.688,95.674c-2.656-3.476-6.97-5.259-11.294-4.741c-4.342,0.537-8.07,3.331-9.812,7.343l-23.425,54.048l-29.027,6.752
		l-18.865-28.087l23.214-53.566c1.734-4.012,1.224-8.644-1.354-12.173c-2.571-3.53-6.848-5.463-11.18-5.005
		c-33.189,3.283-62.03,24.292-75.262,54.837c-9.754,22.498-10.157,47.447-1.145,70.245c3.373,8.529,7.915,16.378,13.455,23.372
		l-15.912,36.725c-0.061,0.138-0.085,0.283-0.141,0.421c-18.377,4.572-33.988,17.312-41.741,35.207l-72.763,167.891
		c-6.553,15.112-6.824,31.875-0.771,47.199c6.06,15.323,17.722,27.37,32.835,33.917l10.745,4.663
		c7.806,3.385,16.053,5.102,24.504,5.102c24.61,0,46.831-14.589,56.618-37.17l72.765-167.897
		c7.932-18.305,6.202-38.363-2.832-54.572c0.055-0.12,0.14-0.229,0.193-0.349l15.931-36.767
		c33.563-2.753,63.161-23.702,76.708-54.982C455.373,157.546,450.987,122.135,430.688,95.674z M297.618,243.91l7.477-17.245
		c5.066,3.548,10.511,6.632,16.312,9.144c5.794,2.512,11.744,4.397,17.815,5.668l-7.463,17.227L297.618,243.91z M329.495,324.949
		l-72.762,167.896c-5.873,13.547-19.217,22.305-33.984,22.305c-5.056,0-10-1.037-14.686-3.066l-10.752-4.662
		c-9.071-3.934-16.064-11.161-19.703-20.353c-3.633-9.192-3.469-19.251,0.465-28.322l72.762-167.89
		c5.874-13.547,19.209-22.305,33.978-22.305c5.056,0,9.993,1.037,14.681,3.06l10.777,4.668c9.059,3.939,16.052,11.161,19.683,20.347
		C333.585,305.818,333.421,315.878,329.495,324.949z M419.497,178.279c-10.65,24.569-34.84,40.447-61.625,40.447
		c-9.18,0-18.149-1.867-26.654-5.554c-16.449-7.132-29.142-20.239-35.739-36.912c-6.589-16.679-6.287-34.917,0.838-51.374
		c6.475-14.938,18.06-26.756,32.293-33.665l-15.668,36.146c-1.669,3.855-1.266,8.295,1.078,11.782l27.376,40.748
		c2.856,4.247,8.03,6.289,13.036,5.138l43.367-10.089c3.807-0.885,6.969-3.523,8.523-7.113l15.668-36.141
		C426.677,146.801,425.973,163.341,419.497,178.279z"/>
	<path d="M228.409,450.393c-8.336-3.614-18.016,0.211-21.623,8.547c-3.613,8.337,0.211,18.016,8.547,21.624
		c8.33,3.614,18.016-0.21,21.625-8.547C240.572,463.681,236.747,454,228.409,450.393z"/>
</g>
</svg>
