<?xml version="1.0" encoding="utf-8"?>
<!-- Generator: Adobe Illustrator 15.0.0, SVG Export Plug-In . SVG Version: 6.00 Build 0)  -->
<!DOCTYPE svg PUBLIC "-//W3C//DTD SVG 1.1//EN" "http://www.w3.org/Graphics/SVG/1.1/DTD/svg11.dtd">
<svg version="1.1" id="Capa_1" xmlns="http://www.w3.org/2000/svg" xmlns:xlink="http://www.w3.org/1999/xlink" x="0px" y="0px"
	 width="600px" height="600px" viewBox="0 0 600 600" enable-background="new 0 0 600 600" xml:space="preserve">
<g>
	<path d="M439.645,96.771H160.355c-45.089,0-81.772,36.68-81.772,81.771v170.041c0,45.092,36.683,81.773,81.772,81.773h192.803
		l69.686,69.677c2.084,2.087,4.873,3.194,7.711,3.194c1.402,0,2.822-0.268,4.168-0.83c4.076-1.683,6.732-5.666,6.732-10.072v-61.99
		c44.256-0.969,79.961-37.268,79.961-81.752V178.543C521.416,133.451,484.734,96.771,439.645,96.771z M499.611,348.584
		c0,33.06-26.9,59.967-59.967,59.967h-9.094c-6.021,0-10.902,4.877-10.902,10.902v46.553l-54.266-54.262
		c-2.043-2.044-4.818-3.193-7.707-3.193h-197.32c-33.065,0-59.967-26.907-59.967-59.967V178.543
		c0-33.07,26.902-59.967,59.967-59.967h279.289c33.066,0,59.967,26.896,59.967,59.967V348.584z"/>
	<path d="M197.782,239.83c-13.549,0-24.531,10.988-24.531,24.532c0,13.554,10.982,24.532,24.531,24.532
		c13.543,0,24.532-10.979,24.532-24.532C222.314,250.818,211.325,239.83,197.782,239.83z"/>
	<path d="M299.998,239.83c-13.549,0-24.532,10.988-24.532,24.532c0,13.554,10.983,24.532,24.532,24.532
		c13.543,0,24.532-10.979,24.532-24.532C324.529,250.818,313.541,239.83,299.998,239.83z"/>
	<path d="M402.215,239.83c-13.549,0-24.533,10.988-24.533,24.532c0,13.554,10.984,24.532,24.533,24.532
		c13.543,0,24.529-10.979,24.529-24.532C426.744,250.818,415.758,239.83,402.215,239.83z"/>
</g>
</svg>
