<?xml version="1.0" encoding="utf-8"?>
<!-- Generator: Adobe Illustrator 15.0.0, SVG Export Plug-In . SVG Version: 6.00 Build 0)  -->
<!DOCTYPE svg PUBLIC "-//W3C//DTD SVG 1.1//EN" "http://www.w3.org/Graphics/SVG/1.1/DTD/svg11.dtd">
<svg version="1.1" id="Capa_1" xmlns="http://www.w3.org/2000/svg" xmlns:xlink="http://www.w3.org/1999/xlink" x="0px" y="0px"
	 width="600px" height="600px" viewBox="0 0 600 600" enable-background="new 0 0 600 600" xml:space="preserve">
<path fill="#222221" d="M375.006,90.594H224.995c-84.94,0-154.036,69.104-154.036,154.035v6.698
	c0,75.437,54.282,139.123,127.705,151.729l36.274,95.873c2.156,5.7,7.622,9.477,13.718,9.477c6.103,0,11.562-3.776,13.725-9.477
	l35.4-93.566h77.227c84.939,0,154.035-69.102,154.035-154.036v-6.698C529.041,159.697,459.945,90.594,375.006,90.594z
	 M499.701,251.327c0,68.761-55.937,124.696-124.695,124.696h-87.362c-6.096,0-11.562,3.776-13.717,9.477l-25.271,66.783
	l-25.623-67.721c-1.948-5.151-6.612-8.773-12.084-9.383c-63.079-7.078-110.649-60.322-110.649-123.853v-6.698
	c0-68.758,55.937-124.695,124.696-124.695h150.011c68.759,0,124.695,55.938,124.695,124.695V251.327z"/>
</svg>
