<?xml version="1.0" encoding="utf-8"?>
<!-- Generator: Adobe Illustrator 15.0.0, SVG Export Plug-In . SVG Version: 6.00 Build 0)  -->
<!DOCTYPE svg PUBLIC "-//W3C//DTD SVG 1.1//EN" "http://www.w3.org/Graphics/SVG/1.1/DTD/svg11.dtd">
<svg version="1.1" id="Capa_1" xmlns="http://www.w3.org/2000/svg" xmlns:xlink="http://www.w3.org/1999/xlink" x="0px" y="0px"
	 width="600px" height="600px" viewBox="0 0 600 600" enable-background="new 0 0 600 600" xml:space="preserve">
<g>
	<path d="M433.934,484.117c-2.934,0-5.816-1.146-7.971-3.303l-62.241-62.236H118.183c-6.223,0-11.27-5.053-11.27-11.272V127.152
		c0-6.219,5.047-11.27,11.27-11.27h363.633c6.225,0,11.271,5.051,11.271,11.27v280.153c0,6.22-5.046,11.272-11.271,11.272h-36.615
		v54.271c0,4.554-2.746,8.66-6.959,10.409C436.85,483.83,435.383,484.117,433.934,484.117z M129.453,396.037h238.938
		c2.988,0,5.855,1.189,7.969,3.302l46.301,46.301v-38.334c0-6.228,5.047-11.269,11.271-11.269h36.616V138.423H129.453V396.037z"/>
</g>
</svg>
