<?xml version="1.0" encoding="utf-8"?>
<!-- Generator: Adobe Illustrator 15.0.0, SVG Export Plug-In . SVG Version: 6.00 Build 0)  -->
<!DOCTYPE svg PUBLIC "-//W3C//DTD SVG 1.1//EN" "http://www.w3.org/Graphics/SVG/1.1/DTD/svg11.dtd">
<svg version="1.1" id="Capa_1" xmlns="http://www.w3.org/2000/svg" xmlns:xlink="http://www.w3.org/1999/xlink" x="0px" y="0px"
	 width="600px" height="600px" viewBox="0 0 600 600" enable-background="new 0 0 600 600" xml:space="preserve">
<path d="M431.046,262.183c-7.531-79.561-74.617-142.028-156.11-142.028c-86.523,0-156.914,70.394-156.914,156.913
	c0,53.751,26.667,102.617,71.601,131.709l0.286,62.225c0.018,3.625,2.231,6.876,5.595,8.213c1.066,0.424,2.182,0.632,3.284,0.632
	c2.381,0,4.715-0.963,6.424-2.748l43.324-45.336c8.7,1.474,17.557,2.22,26.4,2.22c16.276,0,31.953-2.559,46.721-7.19
	c16.861,13.244,38.086,21.173,61.14,21.173c4.973,0,9.951-0.375,14.854-1.11l25.177,26.349c1.708,1.787,4.041,2.741,6.423,2.741
	c1.104,0,2.219-0.199,3.285-0.625c3.363-1.343,5.577-4.597,5.594-8.214l0.164-36.108c27.45-18.499,43.686-48.865,43.686-82.207
	C481.979,311.605,461.4,279.158,431.046,262.183z M247.193,413.441c-2.99-0.624-6.076,0.374-8.181,2.567l-31.441,32.909
	l-0.207-45.112c-0.015-3.097-1.639-5.968-4.287-7.564c-42.136-25.465-67.292-70.011-67.292-119.174
	c0-76.726,62.421-139.149,139.15-139.149c68.873,0,126.164,50.323,137.178,116.112c-9.27-2.871-19.115-4.423-29.317-4.423
	c-54.687,0-99.178,44.496-99.178,99.183c0,24.234,8.754,46.465,23.25,63.708c-10.257,2.42-20.945,3.722-31.933,3.722
	C265.619,416.219,256.286,415.281,247.193,413.441z M424.839,418.516c-2.648,1.604-4.271,4.467-4.286,7.564l-0.088,18.942
	l-13.25-13.87c-1.691-1.769-4.02-2.748-6.421-2.748c-0.586,0-1.173,0.061-1.759,0.181c-5.319,1.068-10.78,1.613-16.239,1.613
	c-44.892,0-81.413-36.524-81.413-81.409c0-44.894,36.521-81.42,81.413-81.42c44.896,0,81.419,36.526,81.419,81.42
	C464.215,377.551,449.495,403.615,424.839,418.516z"/>
</svg>
