<?xml version="1.0" encoding="utf-8"?>
<!-- Generator: Adobe Illustrator 15.0.0, SVG Export Plug-In . SVG Version: 6.00 Build 0)  -->
<!DOCTYPE svg PUBLIC "-//W3C//DTD SVG 1.1//EN" "http://www.w3.org/Graphics/SVG/1.1/DTD/svg11.dtd">
<svg version="1.1" id="Capa_1" xmlns="http://www.w3.org/2000/svg" xmlns:xlink="http://www.w3.org/1999/xlink" x="0px" y="0px"
	 width="600px" height="600px" viewBox="0 0 600 600" enable-background="new 0 0 600 600" xml:space="preserve">
<path fill="#222221" d="M420.109,276.714c45.922-5.264,81.727-44.328,81.727-91.645c0-46.922-35.223-85.691-80.602-91.471
	c-0.902-5.668-5.77-10.01-11.695-10.01H190.453c-5.918,0-10.793,4.342-11.699,10.01c-45.371,5.779-80.59,44.549-80.59,91.471
	c0,47.316,35.801,86.381,81.73,91.645c5.5,39.191,29.676,72.447,63.32,90.332v89.062h-21.949c-6.562,0-11.883,5.32-11.883,11.885
	v36.535c0,6.562,5.32,11.883,11.883,11.883h157.469c6.562,0,11.883-5.32,11.883-11.883v-36.535c0-6.564-5.32-11.885-11.883-11.885
	h-21.953v-89.062C390.426,349.161,414.602,315.911,420.109,276.714z M366.848,492.644H233.152v-12.768h133.695V492.644z
	 M478.066,185.069c0,33.727-24.512,61.771-56.641,67.424V117.646C453.555,123.298,478.066,151.343,478.066,185.069z
	 M121.934,185.069c0-33.727,24.512-61.771,56.637-67.424v134.848C146.445,246.841,121.934,218.796,121.934,185.069z M202.34,259.786
	V107.358h195.316v152.428c0,53.852-43.805,97.662-97.656,97.662S202.34,313.638,202.34,259.786z M333.012,454.425H266.98v-77.891
	c10.516,2.977,21.566,4.684,33.02,4.684c11.457,0,22.496-1.707,33.012-4.678V454.425z"/>
</svg>
