<?xml version="1.0" encoding="utf-8"?>
<!-- Generator: Adobe Illustrator 15.0.0, SVG Export Plug-In . SVG Version: 6.00 Build 0)  -->
<!DOCTYPE svg PUBLIC "-//W3C//DTD SVG 1.1//EN" "http://www.w3.org/Graphics/SVG/1.1/DTD/svg11.dtd">
<svg version="1.1" id="Capa_1" xmlns="http://www.w3.org/2000/svg" xmlns:xlink="http://www.w3.org/1999/xlink" x="0px" y="0px"
	 width="600px" height="600px" viewBox="0 0 600 600" enable-background="new 0 0 600 600" xml:space="preserve">
<path d="M405.043,267.949c-0.42,0.078-0.895,0.17-1.42,0.271c7.254-23.343,12.107-47.808,13.512-55.281
	c0.633-3.359-0.439-6.817-2.855-9.233c-2.416-2.422-5.885-3.501-9.236-2.854c-7.668,1.443-33.232,6.512-57.113,14.082
	c4.129-7.682,6.484-16.46,6.484-25.782c0-26.267-38.207-83.505-45.865-94.712c-1.932-2.823-5.131-4.512-8.549-4.512
	s-6.617,1.688-8.549,4.512c-7.658,11.207-45.865,68.445-45.865,94.712c0,9.322,2.355,18.101,6.484,25.782
	c-23.881-7.57-49.445-12.639-57.113-14.082c-3.357-0.642-6.824,0.436-9.236,2.854c-2.416,2.416-3.488,5.874-2.855,9.233
	c1.404,7.474,6.258,31.938,13.512,55.281c-0.525-0.101-1-0.192-1.42-0.271c-3.357-0.635-6.824,0.433-9.236,2.854
	c-2.416,2.417-3.488,5.874-2.855,9.233c2.512,13.341,15.969,80.834,34.543,99.404c10.312,10.315,24.018,15.994,38.592,15.994
	c0,0,0,0,0.004,0c12.371,0,24.094-4.135,33.643-11.692V499.72c0,5.718,4.637,10.354,10.354,10.354s10.354-4.636,10.354-10.354
	v-115.98c9.549,7.561,21.271,11.695,33.646,11.695c14.574,0,28.279-5.679,38.592-15.994c18.574-18.57,32.031-86.063,34.543-99.404
	c0.633-3.359-0.439-6.816-2.855-9.233C411.863,268.382,408.395,267.312,405.043,267.949z M380.111,273.265
	c-19.873,4.691-46.15,12.02-62.867,21.081c-4.465-5.834-6.9-12.922-6.891-20.406c0.01-9.025,3.539-17.516,9.928-23.908
	c9.141-9.138,45.18-19.442,73.367-25.696C390.115,240.254,385.287,258.604,380.111,273.265z M300,119.105
	c16.055,25.248,33.709,57.688,33.709,70.045c0,18.651-15.121,33.825-33.709,33.825s-33.709-15.174-33.709-33.825
	C266.291,176.227,284.49,143.459,300,119.105z M206.352,224.335c28.188,6.254,64.227,16.559,73.367,25.696
	c6.389,6.393,9.918,14.883,9.928,23.908c0.01,7.484-2.426,14.569-6.885,20.406c-16.723-9.062-43-16.39-62.873-21.081
	C214.713,258.604,209.885,240.254,206.352,224.335z M279.799,364.881c-6.35,6.353-14.801,9.848-23.799,9.848
	c-9.045,0-17.547-3.525-23.953-9.929c-9.135-9.137-19.441-45.179-25.695-73.366c28.188,6.253,64.227,16.559,73.367,25.695
	c6.389,6.393,9.918,14.883,9.928,23.909C289.656,350.054,286.164,358.52,279.799,364.881z M367.953,364.8
	c-6.406,6.403-14.908,9.929-23.953,9.929c-8.998,0-17.449-3.498-23.799-9.85c-6.365-6.359-9.857-14.825-9.848-23.841
	c0.01-9.026,3.539-17.517,9.928-23.909c9.141-9.137,45.18-19.442,73.367-25.695C387.395,319.621,377.088,355.663,367.953,364.8z"/>
</svg>
