<?xml version="1.0" encoding="utf-8"?>
<!-- Generator: Adobe Illustrator 15.0.0, SVG Export Plug-In . SVG Version: 6.00 Build 0)  -->
<!DOCTYPE svg PUBLIC "-//W3C//DTD SVG 1.1//EN" "http://www.w3.org/Graphics/SVG/1.1/DTD/svg11.dtd">
<svg version="1.1" id="Capa_1" xmlns="http://www.w3.org/2000/svg" xmlns:xlink="http://www.w3.org/1999/xlink" x="0px" y="0px"
	 width="600px" height="600px" viewBox="0 0 600 600" enable-background="new 0 0 600 600" xml:space="preserve">
<path d="M534.732,437.331h-49.694v-98.657c0-4.555-3.689-8.24-8.24-8.24h-51.786c-4.551,0-8.24,3.686-8.24,8.24v98.657h-30.511
	V172.985c0-4.547-3.69-8.24-8.24-8.24h-51.787c-4.55,0-8.24,3.693-8.24,8.24v264.346h-30.51V277.508c0-4.546-3.689-8.239-8.24-8.239
	h-51.787c-4.551,0-8.24,3.693-8.24,8.239v159.823h-30.51V213.075c0-4.546-3.689-8.24-8.24-8.24h-51.787
	c-4.551,0-8.24,3.694-8.24,8.24v224.256H73.508V154.429c0-4.547-3.689-8.24-8.24-8.24c-4.55,0-8.24,3.693-8.24,8.24v291.143
	c0,4.546,3.69,8.24,8.24,8.24h63.411h51.787h46.991h51.787h46.991h51.787h46.991h51.786h57.935c4.551,0,8.24-3.694,8.24-8.24
	C542.973,441.017,539.283,437.331,534.732,437.331z M136.918,437.331V221.315h35.307v216.016H136.918z M235.696,437.331V285.748
	h35.306v151.583H235.696z M334.474,437.331V181.226h35.307v256.105H334.474z M433.252,437.331v-90.417h35.306v90.417H433.252z"/>
</svg>
