<?xml version="1.0" encoding="utf-8"?>
<!-- Generator: Adobe Illustrator 15.0.0, SVG Export Plug-In . SVG Version: 6.00 Build 0)  -->
<!DOCTYPE svg PUBLIC "-//W3C//DTD SVG 1.1//EN" "http://www.w3.org/Graphics/SVG/1.1/DTD/svg11.dtd">
<svg version="1.1" id="Capa_1" xmlns="http://www.w3.org/2000/svg" xmlns:xlink="http://www.w3.org/1999/xlink" x="0px" y="0px"
	 width="600px" height="600px" viewBox="0 0 600 600" enable-background="new 0 0 600 600" xml:space="preserve">
<g>
	<path fill="#222221" d="M323.794,154.466l-31.934,31.933L180.072,298.187l-25.607,25.607c-33.562,33.562-33.565,88.176,0,121.74
		c33.565,33.566,88.179,33.563,121.741,0l169.33-169.328c33.562-33.562,33.567-88.177,0.001-121.743
		C411.972,120.898,357.356,120.903,323.794,154.466z M300.297,211.712l86.284,86.283l-94.915,94.914l-86.283-86.283L300.297,211.712
		z M171.337,428.663c-24.26-24.26-24.257-63.734,0.001-87.994l17.172-17.17l87.992,87.992l-17.171,17.172
		C235.073,452.921,195.598,452.924,171.337,428.663z M428.662,259.333l-23.497,23.497l-87.993-87.993l23.497-23.497
		c24.262-24.261,63.734-24.261,87.993-0.003C452.923,195.6,452.923,235.072,428.662,259.333z"/>
	<circle fill="#222221" cx="247.725" cy="308.186" r="7.952"/>
	<path fill="#222221" d="M280.417,286.742c3.105-3.105,3.105-8.137,0-11.242c-3.107-3.107-8.141-3.107-11.246-0.004
		c-3.108,3.109-3.108,8.141,0,11.249C272.276,289.85,277.307,289.85,280.417,286.742z"/>
	<path fill="#222221" d="M307.481,259.677c3.105-3.105,3.107-8.141,0-11.244c-3.105-3.108-8.141-3.107-11.247-0.002
		s-3.107,8.141,0,11.248C299.34,262.786,304.376,262.783,307.481,259.677z"/>
	<circle fill="#222221" cx="268.918" cy="329.377" r="7.953"/>
	<circle fill="#222221" cx="295.984" cy="302.311" r="7.954"/>
	<circle fill="#222221" cx="323.05" cy="275.247" r="7.953"/>
	<path fill="#222221" d="M295.731,356.192c3.109-3.107,3.106-8.143,0-11.248c-3.105-3.105-8.139-3.106-11.246,0
		c-3.105,3.105-3.104,8.141,0.001,11.245C287.592,359.296,292.625,359.298,295.731,356.192z"/>
	<path fill="#222221" d="M322.8,329.124c3.105-3.105,3.104-8.139-0.003-11.245c-3.104-3.104-8.14-3.106-11.245-0.001
		c-3.107,3.107-3.106,8.141,0,11.248C314.657,332.23,319.691,332.233,322.8,329.124z"/>
	<circle fill="#222221" cx="344.24" cy="296.437" r="7.953"/>
</g>
</svg>
