<?xml version="1.0" encoding="utf-8"?>
<!-- Generator: Adobe Illustrator 15.0.0, SVG Export Plug-In . SVG Version: 6.00 Build 0)  -->
<!DOCTYPE svg PUBLIC "-//W3C//DTD SVG 1.1//EN" "http://www.w3.org/Graphics/SVG/1.1/DTD/svg11.dtd">
<svg version="1.1" id="Capa_1" xmlns="http://www.w3.org/2000/svg" xmlns:xlink="http://www.w3.org/1999/xlink" x="0px" y="0px"
	 width="600px" height="600px" viewBox="0 0 600 600" enable-background="new 0 0 600 600" xml:space="preserve">
<g>
	<path fill="#222221" d="M427.89,84.254h-255.78c-5.485,0-9.933,4.441-9.933,9.934v378.762c0,5.489,4.447,9.933,9.933,9.933h23.824
		v22.931c0,5.492,4.448,9.934,9.934,9.934h44.699c5.485,0,9.934-4.441,9.934-9.934v-22.931h78.996v22.931
		c0,5.492,4.447,9.934,9.933,9.934h44.699c5.485,0,9.934-4.441,9.934-9.934v-22.931h23.828c5.485,0,9.934-4.443,9.934-9.933V94.188
		C437.823,88.695,433.375,84.254,427.89,84.254z M240.633,495.879h-24.832v-12.997h24.832V495.879z M384.195,495.879h-24.833
		v-12.997h24.833V495.879z M417.957,463.016h-23.829h-44.699h-98.862h-44.699h-23.824V104.12h235.914V463.016z"/>
	<path fill="#222221" d="M300,332.594c54.087,0,98.091-44.002,98.091-98.092c0-54.089-44.004-98.09-98.091-98.09
		s-98.091,44.001-98.091,98.09C201.909,288.592,245.913,332.594,300,332.594z M300,156.278c43.133,0,78.224,35.086,78.224,78.224
		c0,43.128-35.091,78.225-78.224,78.225s-78.225-35.097-78.225-78.225C221.775,191.364,256.867,156.278,300,156.278z"/>
	<path fill="#222221" d="M300,287.894c29.44,0,53.391-23.95,53.391-53.392c0-29.439-23.95-53.391-53.391-53.391
		s-53.392,23.951-53.392,53.391C246.608,263.943,270.56,287.894,300,287.894z M300,200.979c18.486,0,33.524,15.035,33.524,33.523
		c0,18.479-15.038,33.525-33.524,33.525s-33.524-15.047-33.524-33.525C266.476,216.014,281.514,200.979,300,200.979z"/>
	<path fill="#222221" d="M300,343.76c-21.225,0-38.491,17.266-38.491,38.49c0,21.224,17.267,38.492,38.491,38.492
		s38.491-17.269,38.491-38.492C338.491,361.025,321.225,343.76,300,343.76z M300,400.875c-10.271,0-18.625-8.363-18.625-18.625
		c0-10.274,8.354-18.625,18.625-18.625c10.27,0,18.625,8.351,18.625,18.625C318.625,392.512,310.27,400.875,300,400.875z"/>
</g>
</svg>
