<?xml version="1.0" encoding="utf-8"?>
<!-- Generator: Adobe Illustrator 15.0.0, SVG Export Plug-In . SVG Version: 6.00 Build 0)  -->
<!DOCTYPE svg PUBLIC "-//W3C//DTD SVG 1.1//EN" "http://www.w3.org/Graphics/SVG/1.1/DTD/svg11.dtd">
<svg version="1.1" id="Capa_1" xmlns="http://www.w3.org/2000/svg" xmlns:xlink="http://www.w3.org/1999/xlink" x="0px" y="0px"
	 width="600px" height="600px" viewBox="0 0 600 600" enable-background="new 0 0 600 600" xml:space="preserve">
<g>
	<path fill="#222221" d="M225.887,493.282c-1.848-4.079-5.949-6.913-10.712-6.913c-6.489,0-11.75,5.262-11.75,11.749v5.877
		c0,6.49,5.261,11.752,11.75,11.752h5.875c6.489,0,11.751-5.262,11.751-11.752C232.801,499.227,229.96,495.126,225.887,493.282z"/>
	<path fill="#222221" d="M215.175,440.009c6.489,0,11.751-5.262,11.751-11.75v-13.971c0-6.492-5.262-11.75-11.751-11.75
		s-11.75,5.258-11.75,11.75v13.971C203.425,434.747,208.686,440.009,215.175,440.009z"/>
	<path fill="#222221" d="M215.175,356.177c4.763,0,8.864-2.834,10.712-6.916c4.073-1.84,6.914-5.941,6.914-10.709
		c0-6.49-5.262-11.752-11.751-11.752h-5.875c-6.489,0-11.75,5.262-11.75,11.752v5.873
		C203.425,350.916,208.686,356.177,215.175,356.177z"/>
	<path fill="#222221" d="M293.24,326.8h-12.031c-2.949,0-5.611,1.123-7.671,2.914V96.005c0-6.49-5.262-11.752-11.751-11.752H96.343
		c-6.489,0-11.75,5.262-11.75,11.752v288.482c0,6.488,5.261,11.75,11.75,11.75h165.444c6.489,0,11.751-5.262,11.751-11.75v-37.102
		c2.06,1.792,4.722,2.916,7.671,2.916h12.031c6.489,0,11.751-5.262,11.751-11.75C304.991,332.062,299.729,326.8,293.24,326.8z
		 M250.036,372.735H108.094v-264.98h141.942V372.735z"/>
	<path fill="#222221" d="M365.432,326.8H353.4c-6.49,0-11.75,5.262-11.75,11.752c0,6.488,5.26,11.75,11.75,11.75h12.031
		c6.489,0,11.751-5.262,11.751-11.75C377.183,332.062,371.921,326.8,365.432,326.8z"/>
	<path fill="#222221" d="M437.623,326.8h-12.031c-6.49,0-11.752,5.262-11.752,11.752c0,6.488,5.262,11.75,11.752,11.75h12.031
		c6.489,0,11.75-5.262,11.75-11.75C449.373,332.062,444.112,326.8,437.623,326.8z"/>
	<path fill="#222221" d="M503.657,326.8h-5.876c-6.488,0-11.75,5.262-11.75,11.752c0,4.768,2.834,8.869,6.914,10.709
		c1.842,4.082,5.943,6.916,10.712,6.916c6.489,0,11.751-5.261,11.751-11.752v-5.873C515.408,332.062,510.146,326.8,503.657,326.8z"
		/>
	<path fill="#222221" d="M503.657,402.538c-6.489,0-11.75,5.258-11.75,11.75v13.971c0,6.488,5.261,11.75,11.75,11.75
		s11.751-5.262,11.751-11.75v-13.971C515.408,407.796,510.146,402.538,503.657,402.538z"/>
	<path fill="#222221" d="M503.657,486.369c-4.769,0-8.87,2.834-10.712,6.913c-4.08,1.844-6.914,5.944-6.914,10.713
		c0,6.49,5.262,11.752,11.75,11.752h5.876c6.489,0,11.751-5.262,11.751-11.752v-5.877
		C515.408,491.631,510.146,486.369,503.657,486.369z"/>
	<path fill="#222221" d="M293.24,492.245h-12.031c-6.489,0-11.75,5.262-11.75,11.75c0,6.49,5.261,11.752,11.75,11.752h12.031
		c6.489,0,11.751-5.262,11.751-11.752C304.991,497.507,299.729,492.245,293.24,492.245z"/>
	<path fill="#222221" d="M437.623,492.245h-12.031c-6.49,0-11.752,5.262-11.752,11.75c0,6.49,5.262,11.752,11.752,11.752h12.031
		c6.489,0,11.75-5.262,11.75-11.752C449.373,497.507,444.112,492.245,437.623,492.245z"/>
	<path fill="#222221" d="M365.432,492.245H353.4c-6.49,0-11.75,5.262-11.75,11.75c0,6.49,5.26,11.752,11.75,11.752h12.031
		c6.489,0,11.751-5.262,11.751-11.752C377.183,497.507,371.921,492.245,365.432,492.245z"/>
	<path fill="#222221" d="M485.854,224.216c-4.591-4.59-12.032-4.59-16.616,0l-25.177,25.178
		c-2.857-58.689-49.98-105.814-108.671-108.676l25.171-25.172c4.59-4.592,4.59-12.025,0-16.617c-4.584-4.588-12.031-4.588-16.617,0
		l-44.948,44.949c-2.203,2.203-3.442,5.193-3.442,8.31c0,3.113,1.239,6.103,3.442,8.307l44.944,44.942
		c2.294,2.297,5.301,3.442,8.308,3.442c3.006,0,6.019-1.146,8.308-3.442c4.591-4.588,4.591-12.025,0-16.613l-24.574-24.576
		c45.258,3.07,81.475,39.286,84.549,84.545l-24.574-24.576c-4.584-4.59-12.031-4.59-16.615,0c-4.59,4.592-4.59,12.025,0,16.617
		l44.949,44.948c2.202,2.204,5.191,3.442,8.308,3.442s6.104-1.238,8.308-3.442l44.949-44.948
		C490.443,236.241,490.443,228.808,485.854,224.216z"/>
</g>
</svg>
