<?xml version="1.0" encoding="utf-8"?>
<!-- Generator: Adobe Illustrator 15.0.0, SVG Export Plug-In . SVG Version: 6.00 Build 0)  -->
<!DOCTYPE svg PUBLIC "-//W3C//DTD SVG 1.1//EN" "http://www.w3.org/Graphics/SVG/1.1/DTD/svg11.dtd">
<svg version="1.1" id="Capa_1" xmlns="http://www.w3.org/2000/svg" xmlns:xlink="http://www.w3.org/1999/xlink" x="0px" y="0px"
	 width="600px" height="600px" viewBox="0 0 600 600" enable-background="new 0 0 600 600" xml:space="preserve">
<g>
	<path fill="#222221" d="M404.988,76.33H195.012c-38.593,0-69.989,31.397-69.989,69.989v307.36c0,38.593,31.396,69.99,69.989,69.99
		h209.977c38.592,0,69.99-31.397,69.99-69.99v-307.36C474.979,107.728,443.58,76.33,404.988,76.33z M404.988,499.596H195.012
		c-25.318,0-45.916-20.598-45.916-45.916v-307.36c0-25.317,20.598-45.915,45.916-45.915h209.977
		c25.318,0,45.916,20.598,45.916,45.915v307.36C450.904,478.998,430.307,499.596,404.988,499.596z"/>
	<path fill="#222221" d="M409.207,138.419H190.793c-6.637,0-12.037,5.399-12.037,12.037v269.216c0,6.638,5.4,12.037,12.037,12.037
		h218.414c6.637,0,12.037-5.399,12.037-12.037V150.456C421.244,143.818,415.844,138.419,409.207,138.419z M397.17,162.492v245.143
		H202.83V162.492H397.17z"/>
	<path fill="#222221" d="M300.023,446.539c-3.267,0-6.373,1.233-8.522,3.383c-2.255,2.249-3.548,5.344-3.548,8.491
		c0,3.108,1.287,6.216,3.548,8.543c2.226,2.221,5.319,3.494,8.488,3.494c3.189,0,6.218-1.236,8.558-3.511
		c2.244-2.311,3.48-5.339,3.48-8.526c0-3.18-1.275-6.275-3.496-8.49C306.381,447.772,303.279,446.539,300.023,446.539z"/>
</g>
</svg>
