<?xml version="1.0" encoding="utf-8"?>
<!-- Generator: Adobe Illustrator 15.0.0, SVG Export Plug-In . SVG Version: 6.00 Build 0)  -->
<!DOCTYPE svg PUBLIC "-//W3C//DTD SVG 1.1//EN" "http://www.w3.org/Graphics/SVG/1.1/DTD/svg11.dtd">
<svg version="1.1" id="Capa_1" xmlns="http://www.w3.org/2000/svg" xmlns:xlink="http://www.w3.org/1999/xlink" x="0px" y="0px"
	 width="600px" height="600px" viewBox="0 0 600 600" enable-background="new 0 0 600 600" xml:space="preserve">
<path d="M457.256,299.566c-16.197-16.199-41.195-24.41-74.307-24.41c-7.01,0-14.408,0.379-22.047,1.121l-79.728-75.346l19.04-19.035
	c3.529-3.531,3.529-9.252-0.003-12.785l-26.42-26.424c-3.39-3.391-9.394-3.391-12.784,0L142.745,260.959
	c-3.531,3.531-3.531,9.252-0.002,12.783l26.416,26.416c1.697,1.695,3.995,2.648,6.394,2.648c2.397,0,4.697-0.953,6.392-2.648
	l19.042-19.035l75.346,79.725c-3.048,31.352-1.057,72.018,23.284,96.359c1.766,1.766,4.079,2.648,6.392,2.648
	c2.313,0,4.629-0.883,6.393-2.648l66.035-66.041l50.58,50.582c1.767,1.766,4.08,2.648,6.393,2.648c2.313,0,4.629-0.883,6.393-2.648
	c3.531-3.531,3.531-9.254,0-12.785l-50.581-50.58l66.036-66.031C460.787,308.82,460.787,303.1,457.256,299.566z M306.602,437.43
	c-14.614-21.172-14.7-53.803-11.859-78.744c0.3-2.648-0.581-5.297-2.413-7.23l-84.589-89.516c-1.678-1.775-4.002-2.791-6.443-2.826
	c-0.042,0-0.086,0-0.128,0c-2.397,0-4.697,0.953-6.392,2.648l-19.225,19.221l-13.632-13.631l105.479-105.488l13.636,13.641
	l-19.223,19.221c-1.726,1.73-2.68,4.078-2.646,6.525c0.035,2.436,1.057,4.768,2.832,6.443l89.507,84.582
	c1.936,1.836,4.575,2.719,7.23,2.41c8.456-0.963,16.603-1.449,24.213-1.449c23.465,0,41.756,4.469,54.539,13.314L306.602,437.43z"/>
</svg>
