<?xml version="1.0" encoding="utf-8"?>
<!-- Generator: Adobe Illustrator 15.0.0, SVG Export Plug-In . SVG Version: 6.00 Build 0)  -->
<!DOCTYPE svg PUBLIC "-//W3C//DTD SVG 1.1//EN" "http://www.w3.org/Graphics/SVG/1.1/DTD/svg11.dtd">
<svg version="1.1" id="Capa_1" xmlns="http://www.w3.org/2000/svg" xmlns:xlink="http://www.w3.org/1999/xlink" x="0px" y="0px"
	 width="600px" height="600px" viewBox="0 0 600 600" enable-background="new 0 0 600 600" xml:space="preserve">
<path fill="#222221" d="M496.62,234.735L366.989,105.114c-2.67-2.671-6.219-4.142-9.991-4.142c-3.773,0-7.322,1.471-9.991,4.142
	l-38.254,38.252c-2.67,2.67-4.141,6.219-4.141,9.992c0,3.774,1.471,7.322,4.141,9.992l5.575,5.562l-95.653,95.653L114.561,290.28
	c-4.944,1.221-8.863,5.025-10.227,9.93c-1.367,4.908,0.021,10.187,3.622,13.777l78.173,78.176l-82.741,82.74
	c-2.67,2.67-4.141,6.219-4.141,9.992s1.471,7.322,4.141,9.992c2.671,2.67,6.219,4.141,9.992,4.141s7.321-1.471,9.992-4.141
	l82.74-82.74l78.188,78.18c3.556,3.562,8.759,5,13.796,3.621c4.892-1.361,8.694-5.281,9.915-10.225l25.704-104.105l0.395-0.395
	l95.257-95.257l9.016,9.016c2.632,2.631,6.274,4.141,9.993,4.141c3.773,0,7.322-1.471,9.991-4.141l38.253-38.262
	C502.13,249.21,502.13,240.246,496.62,234.735z M286.579,452.635l-140.93-140.922l75.883-18.743l83.782,83.79L286.579,452.635z
	 M320.942,352.422l-75.072-75.081l88.441-88.442l75.071,75.08L320.942,352.422z M448.376,263.002L338.731,153.357l18.267-18.266
	l109.646,109.636L448.376,263.002z"/>
</svg>
