<?xml version="1.0" encoding="utf-8"?>
<!-- Generator: Adobe Illustrator 15.0.0, SVG Export Plug-In . SVG Version: 6.00 Build 0)  -->
<!DOCTYPE svg PUBLIC "-//W3C//DTD SVG 1.1//EN" "http://www.w3.org/Graphics/SVG/1.1/DTD/svg11.dtd">
<svg version="1.1" id="Capa_1" xmlns="http://www.w3.org/2000/svg" xmlns:xlink="http://www.w3.org/1999/xlink" x="0px" y="0px"
	 width="600px" height="600px" viewBox="0 0 600 600" enable-background="new 0 0 600 600" xml:space="preserve">
<g>
	<path d="M183.676,139.018c-26.707,0-48.43,21.728-48.43,48.434c0,26.707,21.723,48.433,48.43,48.433s48.434-21.726,48.434-48.433
		C232.109,160.745,210.383,139.018,183.676,139.018z M183.676,212.539c-13.832,0-25.087-11.253-25.087-25.088
		c0-13.836,11.255-25.089,25.087-25.089c13.833,0,25.088,11.253,25.088,25.089C208.764,201.286,197.509,212.539,183.676,212.539z"/>
	<path d="M300,139.018c-26.707,0-48.434,21.728-48.434,48.434c0,26.707,21.727,48.433,48.434,48.433s48.43-21.726,48.43-48.433
		C348.43,160.745,326.707,139.018,300,139.018z M300,212.539c-13.832,0-25.091-11.253-25.091-25.088
		c0-13.836,11.259-25.089,25.091-25.089c13.834,0,25.088,11.253,25.088,25.089C325.088,201.286,313.834,212.539,300,212.539z"/>
	<path d="M416.32,235.884c26.707,0,48.434-21.726,48.434-48.433c0-26.706-21.727-48.434-48.434-48.434s-48.43,21.728-48.43,48.434
		C367.891,214.158,389.613,235.884,416.32,235.884z M416.32,162.362c13.832,0,25.091,11.253,25.091,25.089
		c0,13.835-11.259,25.088-25.091,25.088s-25.087-11.253-25.087-25.088C391.233,173.615,402.488,162.362,416.32,162.362z"/>
	<path d="M183.676,251.568c-26.707,0-48.43,21.725-48.43,48.432s21.723,48.434,48.43,48.434s48.434-21.727,48.434-48.434
		S210.383,251.568,183.676,251.568z M183.676,325.089c-13.832,0-25.087-11.253-25.087-25.089c0-13.835,11.255-25.087,25.087-25.087
		c13.833,0,25.088,11.252,25.088,25.087C208.764,313.836,197.509,325.089,183.676,325.089z"/>
	<path d="M300,251.568c-26.707,0-48.434,21.725-48.434,48.432s21.727,48.434,48.434,48.434s48.43-21.727,48.43-48.434
		S326.707,251.568,300,251.568z M300,325.089c-13.832,0-25.091-11.253-25.091-25.089c0-13.835,11.259-25.087,25.091-25.087
		c13.834,0,25.088,11.252,25.088,25.087C325.088,313.836,313.834,325.089,300,325.089z"/>
	<path d="M416.32,251.568c-26.707,0-48.43,21.725-48.43,48.432s21.723,48.434,48.43,48.434s48.434-21.727,48.434-48.434
		S443.027,251.568,416.32,251.568z M416.32,325.089c-13.832,0-25.087-11.253-25.087-25.089c0-13.835,11.255-25.087,25.087-25.087
		s25.091,11.252,25.091,25.087C441.411,313.836,430.152,325.089,416.32,325.089z"/>
	<path d="M183.676,364.118c-26.707,0-48.43,21.725-48.43,48.432s21.723,48.433,48.43,48.433s48.434-21.726,48.434-48.433
		S210.383,364.118,183.676,364.118z M183.676,437.639c-13.832,0-25.087-11.254-25.087-25.089c0-13.834,11.255-25.089,25.087-25.089
		c13.833,0,25.088,11.255,25.088,25.089C208.764,426.385,197.509,437.639,183.676,437.639z"/>
	<path d="M300,364.118c-26.707,0-48.434,21.725-48.434,48.432s21.727,48.433,48.434,48.433s48.43-21.726,48.43-48.433
		S326.707,364.118,300,364.118z M300,437.639c-13.832,0-25.091-11.254-25.091-25.089c0-13.834,11.259-25.089,25.091-25.089
		c13.834,0,25.088,11.255,25.088,25.089C325.088,426.385,313.834,437.639,300,437.639z"/>
	<path d="M416.32,364.118c-26.707,0-48.43,21.725-48.43,48.432s21.723,48.433,48.43,48.433s48.434-21.726,48.434-48.433
		S443.027,364.118,416.32,364.118z M416.32,437.639c-13.832,0-25.087-11.254-25.087-25.089c0-13.834,11.255-25.089,25.087-25.089
		s25.091,11.255,25.091,25.089C441.411,426.385,430.152,437.639,416.32,437.639z"/>
</g>
</svg>
