<?xml version="1.0" encoding="utf-8"?>
<!-- Generator: Adobe Illustrator 15.0.0, SVG Export Plug-In . SVG Version: 6.00 Build 0)  -->
<!DOCTYPE svg PUBLIC "-//W3C//DTD SVG 1.1//EN" "http://www.w3.org/Graphics/SVG/1.1/DTD/svg11.dtd">
<svg version="1.1" id="Capa_1" xmlns="http://www.w3.org/2000/svg" xmlns:xlink="http://www.w3.org/1999/xlink" x="0px" y="0px"
	 width="600px" height="600px" viewBox="0 0 600 600" enable-background="new 0 0 600 600" xml:space="preserve">
<g>
	<path fill="#222221" d="M466.702,57.91H199.263c-19.038,0-34.531,15.498-34.531,34.531v22.053h-31.435
		c-19.038,0-34.53,15.498-34.53,34.531v358.533c0,19.033,15.492,34.531,34.53,34.531h267.449c19.038,0,34.53-15.498,34.53-34.531
		v-22.053h31.426c19.042,0,34.531-15.498,34.531-34.53V92.441C501.233,73.408,485.744,57.91,466.702,57.91z M407.653,507.559
		c0,3.803-3.104,6.907-6.907,6.907H133.297c-3.802,0-6.907-3.104-6.907-6.907V149.025c0-3.807,3.105-6.907,6.907-6.907h31.435
		v308.857c0,19.032,15.493,34.53,34.531,34.53h208.391V507.559z M473.61,450.976c0,3.802-3.096,6.907-6.908,6.907H199.263
		c-3.811,0-6.906-3.105-6.906-6.907V92.441c0-3.806,3.096-6.907,6.906-6.907h267.439c3.812,0,6.908,3.102,6.908,6.907V450.976z"/>
	<path fill="#222221" d="M434.271,143.696H231.696c-7.628,0-13.813,6.19-13.813,13.811c0,7.636,6.186,13.813,13.813,13.813h202.574
		c7.627,0,13.812-6.178,13.812-13.813C448.083,149.887,441.897,143.696,434.271,143.696z"/>
	<path fill="#222221" d="M434.271,209.439H231.696c-7.628,0-13.813,6.188-13.813,13.811c0,7.634,6.186,13.813,13.813,13.813h202.574
		c7.627,0,13.812-6.18,13.812-13.813C448.083,215.628,441.897,209.439,434.271,209.439z"/>
	<path fill="#222221" d="M434.271,275.18H231.696c-7.628,0-13.813,6.191-13.813,13.814c0,7.633,6.186,13.811,13.813,13.811h202.574
		c7.627,0,13.812-6.178,13.812-13.811C448.083,281.371,441.897,275.18,434.271,275.18z"/>
	<path fill="#222221" d="M434.271,340.924H231.696c-7.628,0-13.813,6.191-13.813,13.811c0,7.637,6.186,13.813,13.813,13.813h202.574
		c7.627,0,13.812-6.177,13.812-13.813C448.083,347.115,441.897,340.924,434.271,340.924z"/>
</g>
</svg>
