<?xml version="1.0" encoding="utf-8"?>
<!-- Generator: Adobe Illustrator 15.0.0, SVG Export Plug-In . SVG Version: 6.00 Build 0)  -->
<!DOCTYPE svg PUBLIC "-//W3C//DTD SVG 1.1//EN" "http://www.w3.org/Graphics/SVG/1.1/DTD/svg11.dtd">
<svg version="1.1" id="Capa_1" xmlns="http://www.w3.org/2000/svg" xmlns:xlink="http://www.w3.org/1999/xlink" x="0px" y="0px"
	 width="600px" height="600px" viewBox="0 0 600 600" enable-background="new 0 0 600 600" xml:space="preserve">
<g>
	<path d="M300,117.973c-100.37,0-182.027,81.656-182.027,182.027c0,100.369,81.657,182.027,182.027,182.027
		c100.369,0,182.027-81.658,182.027-182.027C482.027,199.629,400.369,117.973,300,117.973z M300,463.594
		c-90.206,0-163.595-73.387-163.595-163.594c0-90.209,73.389-163.596,163.595-163.596c90.205,0,163.594,73.387,163.594,163.596
		C463.594,390.207,390.205,463.594,300,463.594z"/>
	<path d="M300,172.592c-70.252,0-127.408,57.154-127.408,127.408c0,5.09,4.127,9.217,9.217,9.217s9.217-4.127,9.217-9.217
		c0-60.088,48.887-108.975,108.975-108.975S408.974,239.912,408.974,300c0,5.09,4.127,9.217,9.217,9.217s9.217-4.127,9.217-9.217
		C427.407,229.746,370.251,172.592,300,172.592z"/>
	<path d="M361.764,235.623c-4.693-1.984-10.099,0.197-12.085,4.883l-41.171,96.959c-2.757-0.537-5.597-0.838-8.508-0.838
		c-24.516,0-44.459,19.945-44.459,44.459c0,24.512,19.943,44.457,44.459,44.457c24.515,0,44.458-19.945,44.458-44.457
		c0-15.041-7.529-28.344-18.998-36.391l41.185-96.99C368.634,243.021,366.448,237.611,361.764,235.623z M300,407.111
		c-14.352,0-26.025-11.674-26.025-26.025s11.674-26.025,26.025-26.025c14.351,0,26.024,11.674,26.024,26.025
		S314.351,407.111,300,407.111z"/>
</g>
</svg>
