<?xml version="1.0" encoding="utf-8"?>
<!-- Generator: Adobe Illustrator 15.0.0, SVG Export Plug-In . SVG Version: 6.00 Build 0)  -->
<!DOCTYPE svg PUBLIC "-//W3C//DTD SVG 1.1//EN" "http://www.w3.org/Graphics/SVG/1.1/DTD/svg11.dtd">
<svg version="1.1" id="Capa_1" xmlns="http://www.w3.org/2000/svg" xmlns:xlink="http://www.w3.org/1999/xlink" x="0px" y="0px"
	 width="600px" height="600px" viewBox="0 0 600 600" enable-background="new 0 0 600 600" xml:space="preserve">
<g>
	<path d="M464.898,208.25c-6.514,0-11.807,5.286-11.807,11.807v215.592c0,22.786-18.539,41.323-41.322,41.323H152.879
		c-22.781,0-41.322-18.537-41.322-41.323V176.76c0-22.786,18.541-41.323,41.322-41.323H411.77c6.525,0,11.807-5.287,11.807-11.807
		s-5.281-11.807-11.807-11.807H152.879c-35.799,0-64.936,29.13-64.936,64.936v258.89c0,35.806,29.137,64.936,64.936,64.936H411.77
		c35.812,0,64.936-29.13,64.936-64.936V220.057C476.705,213.537,471.426,208.25,464.898,208.25z"/>
	<path d="M508.598,102.874c-4.613-4.612-12.096-4.612-16.695,0L254.664,340.102l-59.297-59.291c-4.611-4.612-12.084-4.612-16.695,0
		c-4.611,4.612-4.611,12.086,0,16.695l67.656,67.639c2.307,2.307,5.328,3.459,8.348,3.459c3.021,0,6.043-1.152,8.348-3.459
		c0-0.006,0-0.012,0.012-0.018l245.562-245.558C513.209,114.96,513.209,107.483,508.598,102.874z"/>
</g>
</svg>
