<?xml version="1.0" encoding="utf-8"?>
<!-- Generator: Adobe Illustrator 15.0.0, SVG Export Plug-In . SVG Version: 6.00 Build 0)  -->
<!DOCTYPE svg PUBLIC "-//W3C//DTD SVG 1.1//EN" "http://www.w3.org/Graphics/SVG/1.1/DTD/svg11.dtd">
<svg version="1.1" id="Capa_1" xmlns="http://www.w3.org/2000/svg" xmlns:xlink="http://www.w3.org/1999/xlink" x="0px" y="0px"
	 width="600px" height="600px" viewBox="0 0 600 600" enable-background="new 0 0 600 600" xml:space="preserve">
<g>
	<path d="M414.229,190.752c-0.017-0.2,0.008-0.399-0.024-0.598L402,111.737V63.123c0-4.779-3.871-8.654-8.654-8.654H206.614
		c-4.775,0-8.655,3.875-8.655,8.654v48.857l-12.16,78.174c-0.034,0.199-0.018,0.397-0.034,0.598
		c-0.019,0.248-0.067,0.482-0.067,0.733v345.391c0,4.779,3.869,8.654,8.654,8.654h211.297c4.785,0,8.654-3.875,8.654-8.654V191.486
		C414.303,191.235,414.254,191,414.229,190.752z M214.024,121.315h171.952l9.574,61.517H204.449L214.024,121.315z M215.268,71.777
		h169.424v32.229H215.268V71.777z M396.996,528.223h-193.99V200.14h193.99V528.223z"/>
	<path d="M299.976,126.297c-14.215,0-25.776,11.563-25.776,25.776c0,14.214,11.562,25.776,25.776,25.776
		c14.214,0,25.784-11.562,25.784-25.776C325.76,137.86,314.189,126.297,299.976,126.297z M299.976,160.542
		c-4.665,0-8.468-3.799-8.468-8.469c0-4.669,3.803-8.468,8.468-8.468c4.673,0,8.476,3.799,8.476,8.468
		C308.451,156.743,304.648,160.542,299.976,160.542z"/>
</g>
</svg>
