<?xml version="1.0" encoding="utf-8"?>
<!-- Generator: Adobe Illustrator 15.0.0, SVG Export Plug-In . SVG Version: 6.00 Build 0)  -->
<!DOCTYPE svg PUBLIC "-//W3C//DTD SVG 1.1//EN" "http://www.w3.org/Graphics/SVG/1.1/DTD/svg11.dtd">
<svg version="1.1" id="Capa_1" xmlns="http://www.w3.org/2000/svg" xmlns:xlink="http://www.w3.org/1999/xlink" x="0px" y="0px"
	 width="600px" height="600px" viewBox="0 0 600 600" enable-background="new 0 0 600 600" xml:space="preserve">
<path d="M407.374,90.513c-2.636-1.833-6.039-2.122-8.938-0.76l-51.487,24.154c-2.899,1.36-4.857,4.165-5.129,7.357
	c-0.271,3.193,1.183,6.289,3.811,8.122l15.972,11.13l-53.122,76.235c-12.56-9.649-28.216-15.457-45.243-15.457
	c-41.052,0-74.453,33.401-74.453,74.456c0,38.015,28.654,69.414,65.484,73.863v97.208h-34.382c-4.953,0-8.969,4.017-8.969,8.97
	s4.016,8.969,8.969,8.969h34.382v37.369c0,4.953,4.016,8.969,8.969,8.969s8.969-4.016,8.969-8.969V464.76h34.383
	c4.953,0,8.969-4.016,8.969-8.969s-4.016-8.97-8.969-8.97h-34.383v-97.206c36.835-4.451,65.489-35.85,65.489-73.865
	c0-17.482-6.101-33.546-16.226-46.266l54.847-78.715l15.972,11.128c1.533,1.066,3.324,1.609,5.129,1.609
	c1.296,0,2.597-0.28,3.81-0.85c2.899-1.359,4.853-4.165,5.128-7.357l4.831-56.667C411.456,95.441,410.002,92.345,407.374,90.513z
	 M263.236,332.271c-31.163,0-56.516-25.354-56.516-56.52c0-31.164,25.353-56.518,56.516-56.518
	c31.164,0,56.521,25.354,56.521,56.518C319.757,306.916,294.4,332.271,263.236,332.271z M389.8,138.3l-21.17-14.752l23.359-10.957
	L389.8,138.3z"/>
</svg>
