<?xml version="1.0" encoding="utf-8"?>
<!-- Generator: Adobe Illustrator 15.0.0, SVG Export Plug-In . SVG Version: 6.00 Build 0)  -->
<!DOCTYPE svg PUBLIC "-//W3C//DTD SVG 1.1//EN" "http://www.w3.org/Graphics/SVG/1.1/DTD/svg11.dtd">
<svg version="1.1" id="Capa_1" xmlns="http://www.w3.org/2000/svg" xmlns:xlink="http://www.w3.org/1999/xlink" x="0px" y="0px"
	 width="600px" height="600px" viewBox="0 0 600 600" enable-background="new 0 0 600 600" xml:space="preserve">
<path d="M533.865,330.48c-3.603-3.575-9.426-3.557-12.992,0.045c-38.674,38.953-85.841,48.809-134.524,40.425
	c-9.326-25.938-68.609-169.067-239.394-169.067c-24.158,0-49.823,2.889-76.281,8.591c-2.688,0.579-4.971,2.328-6.231,4.769
	c-1.256,2.437-1.359,5.312-0.278,7.837c61.692,143.842,165.389,174.038,241.507,174.038c0.005,0,0,0,0.005,0
	c34.306,0,60.616-6.271,71.172-9.241c13.548,2.615,26.827,4.001,39.715,4.001c44.78,0,85.07-15.894,117.348-48.404
	C537.485,339.875,537.468,334.057,533.865,330.48z M305.671,378.742c-68.749,0-161.843-26.791-220.001-152.54
	c21.237-3.948,41.807-5.944,61.285-5.944c144.164,0,201.662,106.607,217.96,145.888c-62.424-17.213-125.665-61.554-175.312-110.852
	c-3.598-3.58-9.42-3.553-12.991,0.045c-3.575,3.603-3.558,9.421,0.045,12.996c53.631,53.25,108.576,89.619,160.632,108.465
	C327.932,377.931,317.312,378.742,305.671,378.742z"/>
</svg>
