<?xml version="1.0" encoding="utf-8"?>
<!-- Generator: Adobe Illustrator 15.0.0, SVG Export Plug-In . SVG Version: 6.00 Build 0)  -->
<!DOCTYPE svg PUBLIC "-//W3C//DTD SVG 1.1//EN" "http://www.w3.org/Graphics/SVG/1.1/DTD/svg11.dtd">
<svg version="1.1" id="Capa_1" xmlns="http://www.w3.org/2000/svg" xmlns:xlink="http://www.w3.org/1999/xlink" x="0px" y="0px"
	 width="600px" height="600px" viewBox="0 0 600 600" enable-background="new 0 0 600 600" xml:space="preserve">
<g>
	<path d="M448.328,314.4h-23.006c-5.081,0-9.201,4.121-9.201,9.203s4.12,9.201,9.201,9.201h23.006c5.081,0,9.201-4.119,9.201-9.201
		S453.409,314.4,448.328,314.4z"/>
	<path d="M124.256,401.055c-8.043,0-14.567,6.525-14.567,14.568s6.524,14.566,14.567,14.566c8.042,0,14.566-6.523,14.566-14.566
		S132.298,401.055,124.256,401.055z"/>
	<path d="M550.511,279.894h-47.649l-25.387-68.741c-1.334-3.617-4.781-6.017-8.631-6.017h-43.521h-46.306V146.42
		c0-5.082-4.12-9.202-9.202-9.202H49.489c-5.081,0-9.202,4.121-9.202,9.202v261.263c0,5.08,4.121,9.201,9.202,9.201h27.669
		c0.679,25.418,21.518,45.896,47.098,45.896c25.579,0,46.418-20.479,47.097-45.896h196.314c0.691,0.166,1.401,0.279,2.147,0.279
		h6.672c0.827,25.291,21.6,45.617,47.084,45.617c25.485,0,46.258-20.326,47.084-45.617h79.856c5.082,0,9.202-4.121,9.202-9.203
		V289.096C559.713,284.014,555.593,279.894,550.511,279.894z M483.244,279.894h-48.72v-56.353h27.907L483.244,279.894z
		 M124.256,444.379c-15.856,0-28.757-12.9-28.757-28.756c0-15.857,12.9-28.756,28.757-28.756c15.855,0,28.756,12.898,28.756,28.756
		C153.012,431.479,140.111,444.379,124.256,444.379z M124.256,368.463c-19.954,0-37.011,12.473-43.89,30.018H58.691V155.623h301.922
		v58.716V398.48H168.145C161.266,380.936,144.21,368.463,124.256,368.463z M423.57,444.379c-15.856,0-28.756-12.9-28.756-28.756
		c0-15.857,12.899-28.756,28.756-28.756s28.756,12.898,28.756,28.756C452.326,431.479,439.427,444.379,423.57,444.379z
		 M541.309,398.76h-73.751c-6.802-17.689-23.93-30.297-43.987-30.297c-20.057,0-37.186,12.607-43.987,30.297h-0.566V223.541h37.104
		v65.555c0,5.082,4.12,9.201,9.201,9.201h71.127c0.036,0,0.072,0.004,0.09,0h44.77V398.76z"/>
	<circle cx="423.57" cy="415.622" r="14.567"/>
</g>
</svg>
