<?xml version="1.0" encoding="utf-8"?>
<!-- Generator: Adobe Illustrator 15.0.0, SVG Export Plug-In . SVG Version: 6.00 Build 0)  -->
<!DOCTYPE svg PUBLIC "-//W3C//DTD SVG 1.1//EN" "http://www.w3.org/Graphics/SVG/1.1/DTD/svg11.dtd">
<svg version="1.1" id="Capa_1" xmlns="http://www.w3.org/2000/svg" xmlns:xlink="http://www.w3.org/1999/xlink" x="0px" y="0px"
	 width="600px" height="600px" viewBox="0 0 600 600" enable-background="new 0 0 600 600" xml:space="preserve">
<g>
	<path d="M313.58,416.461L197.121,299.997L313.58,183.541c3.627-3.625,5.625-8.446,5.625-13.574c0-5.128-1.998-9.949-5.625-13.573
		c-3.627-3.628-8.45-5.625-13.578-5.625s-9.948,1.997-13.57,5.624L156.394,286.424c-3.575,3.574-5.626,8.521-5.626,13.573
		c0,5.052,2.051,9.999,5.626,13.573l130.037,130.037c3.623,3.627,8.443,5.625,13.575,5.625c5.13,0,9.95-1.998,13.573-5.625
		c3.628-3.625,5.626-8.445,5.626-13.574S317.207,420.084,313.58,416.461z"/>
	<path d="M443.607,416.461L327.154,299.997l116.453-116.457c3.627-3.625,5.625-8.446,5.625-13.574c0-5.128-1.998-9.949-5.625-13.573
		c-3.627-3.628-8.45-5.625-13.578-5.625c-5.129,0-9.947,1.997-13.57,5.624L286.431,286.424c-3.627,3.625-5.625,8.445-5.625,13.574
		c0,5.127,1.998,9.948,5.625,13.573l130.028,130.037c3.623,3.627,8.443,5.625,13.574,5.625c5.126,0,9.947-1.998,13.574-5.625
		c3.627-3.625,5.625-8.445,5.625-13.574S447.234,420.084,443.607,416.461z"/>
</g>
</svg>
