<?xml version="1.0" encoding="utf-8"?>
<!-- Generator: Adobe Illustrator 15.0.0, SVG Export Plug-In . SVG Version: 6.00 Build 0)  -->
<!DOCTYPE svg PUBLIC "-//W3C//DTD SVG 1.1//EN" "http://www.w3.org/Graphics/SVG/1.1/DTD/svg11.dtd">
<svg version="1.1" id="Capa_1" xmlns="http://www.w3.org/2000/svg" xmlns:xlink="http://www.w3.org/1999/xlink" x="0px" y="0px"
	 width="600px" height="600px" viewBox="0 0 600 600" enable-background="new 0 0 600 600" xml:space="preserve">
<g>
	<path d="M549.59,193.354c-1.945-1.532-4.484-2.077-6.892-1.516l-161.162,38.566l-28.148-6.741
		c10.856-23.008,19.631-45.812,19.631-59.419c0-36.786-29.929-66.717-66.716-66.717c-36.788,0-66.718,29.931-66.718,66.717
		c0,8.54,3.466,20.711,8.724,34.274c0,0-28.026-7.094-29.749-7c-1.368,0.073-165.021,39.336-165.021,39.336
		c-3.639,0.873-6.205,4.126-6.205,7.865v255.664c0,2.476,1.133,4.817,3.078,6.35c1.44,1.138,3.21,1.737,5.009,1.737
		c0.628,0,1.26-0.075,1.881-0.22l161.177-38.572l161.177,38.572c0.622,0.148,1.253,0.22,1.882,0.22c0.628,0,1.259-0.075,1.882-0.22
		l163.044-39.018c3.639-0.873,6.206-4.127,6.206-7.866V199.703C552.668,197.229,551.533,194.887,549.59,193.354z M306.303,113.702
		c27.869,0,50.543,22.673,50.543,50.543c0,21.671-31.916,81.394-50.543,113.623c-18.63-32.225-50.544-91.945-50.544-113.623
		C255.759,136.375,278.432,113.702,306.303,113.702z M210.377,448.987l-146.87,35.147V245.102l146.87-35.146V448.987z
		 M226.578,209.955l29.572,7.075c16.315,35.934,39.344,74.504,43.228,80.94c1.463,2.424,4.091,3.908,6.925,3.908
		c2.833,0,5.461-1.484,6.923-3.908c3.11-5.156,18.493-30.91,32.879-59.412l27.345,6.543v239.033l-146.871-35.147V209.955z
		 M536.493,448.987l-146.87,35.147V245.102l146.87-35.146V448.987z"/>
	<path d="M344.719,164.245c0-21.185-17.234-38.416-38.416-38.416c-21.184,0-38.417,17.231-38.417,38.416
		s17.233,38.417,38.417,38.417C327.484,202.662,344.719,185.43,344.719,164.245z M284.06,164.245
		c0-12.265,9.978-22.243,22.243-22.243c12.264,0,22.242,9.979,22.242,22.243s-9.979,22.243-22.242,22.243
		C294.037,186.488,284.06,176.51,284.06,164.245z"/>
</g>
</svg>
