<?xml version="1.0" encoding="utf-8"?>
<!-- Generator: Adobe Illustrator 15.0.0, SVG Export Plug-In . SVG Version: 6.00 Build 0)  -->
<!DOCTYPE svg PUBLIC "-//W3C//DTD SVG 1.1//EN" "http://www.w3.org/Graphics/SVG/1.1/DTD/svg11.dtd">
<svg version="1.1" id="Capa_1" xmlns="http://www.w3.org/2000/svg" xmlns:xlink="http://www.w3.org/1999/xlink" x="0px" y="0px"
	 width="600px" height="600px" viewBox="0 0 600 600" enable-background="new 0 0 600 600" xml:space="preserve">
<path fill="#222221" d="M556.125,189.095l-122.859-87.322c-2.32-1.646-5.082-2.469-7.83-2.473c-2.727-0.004-5.474,0.809-7.784,2.426
	l-118.423,83.013l-115.04-82.917c-2.342-1.695-5.149-2.529-7.936-2.521c-2.71,0.008-5.444,0.814-7.743,2.426L43.938,189.048
	c-3.22,2.253-5.136,5.939-5.136,9.871v289.723c0,4.499,2.501,8.619,6.493,10.698c1.748,0.911,3.658,1.36,5.562,1.36
	c2.431,0,4.853-0.736,6.919-2.186l118.422-83.012l115.042,82.916c2.092,1.515,4.565,2.281,7.048,2.281c0.289,0,1.425,0,1.711,0
	c2.431,0,4.854-0.736,6.92-2.186l118.463-83.041l116.774,82.995c2.081,1.478,4.526,2.231,6.984,2.231
	c1.889,0,3.787-0.442,5.53-1.344c4.006-2.073,6.525-6.203,6.525-10.715V198.919C561.197,195.017,559.308,191.354,556.125,189.095z
	 M163.373,395.052L62.913,465.466V205.189l100.459-70.417V395.052z M286.234,465.091l-97.04-69.938V135.15l97.04,69.938V465.091z
	 M412.515,395.052l-100.46,70.414V205.189l100.46-70.417V395.052z M537.086,465.284l-98.75-70.184V134.956l98.75,70.185V465.284z"/>
</svg>
