<?xml version="1.0" encoding="utf-8"?>
<!-- Generator: Adobe Illustrator 15.0.0, SVG Export Plug-In . SVG Version: 6.00 Build 0)  -->
<!DOCTYPE svg PUBLIC "-//W3C//DTD SVG 1.1//EN" "http://www.w3.org/Graphics/SVG/1.1/DTD/svg11.dtd">
<svg version="1.1" id="Capa_1" xmlns="http://www.w3.org/2000/svg" xmlns:xlink="http://www.w3.org/1999/xlink" x="0px" y="0px"
	 width="600px" height="600px" viewBox="0 0 600 600" enable-background="new 0 0 600 600" xml:space="preserve">
<g>
	<path d="M417.273,281.603h-28.988v-97.569c0-48.683-39.605-88.285-88.285-88.285s-88.285,39.603-88.285,88.285
		c0,5.826,4.72,10.541,10.542,10.541s10.542-4.715,10.542-10.541c0-37.05,30.147-67.202,67.202-67.202s67.201,30.152,67.201,67.202
		v97.569H222.256h-39.53c-5.822,0-10.542,4.715-10.542,10.543v201.563c0,5.818,4.72,10.543,10.542,10.543h234.547
		c5.822,0,10.542-4.725,10.542-10.543V292.146C427.815,286.318,423.096,281.603,417.273,281.603z M406.732,483.168H193.267v-180.48
		h28.989h155.487h28.989V483.168z"/>
	<path d="M300,335.773c-18.255,0-33.107,14.855-33.107,33.105c0,8.629,3.434,16.883,9.389,23.02v47.643
		c0,5.816,4.72,10.541,10.542,10.541h26.354c5.821,0,10.542-4.725,10.542-10.541v-47.643c5.955-6.137,9.389-14.391,9.389-23.02
		C333.107,350.629,318.255,335.773,300,335.773z M307,378.588c-2.74,1.977-4.365,5.158-4.365,8.545V429h-5.27v-41.867
		c0-3.387-1.624-6.568-4.365-8.545c-3.193-2.305-5.023-5.848-5.023-9.709c0-6.627,5.395-12.021,12.024-12.021
		c6.629,0,12.023,5.395,12.023,12.021C312.023,372.74,310.193,376.283,307,378.588z"/>
</g>
</svg>
