<?xml version="1.0" encoding="utf-8"?>
<!-- Generator: Adobe Illustrator 15.0.0, SVG Export Plug-In . SVG Version: 6.00 Build 0)  -->
<!DOCTYPE svg PUBLIC "-//W3C//DTD SVG 1.1//EN" "http://www.w3.org/Graphics/SVG/1.1/DTD/svg11.dtd">
<svg version="1.1" id="Capa_1" xmlns="http://www.w3.org/2000/svg" xmlns:xlink="http://www.w3.org/1999/xlink" x="0px" y="0px"
	 width="600px" height="600px" viewBox="0 0 600 600" enable-background="new 0 0 600 600" xml:space="preserve">
<g>
	<path fill="#222221" d="M454.47,132.506H145.53c-7.198,0-13.023,5.825-13.023,13.023v308.941c0,7.198,5.825,13.023,13.023,13.023
		H454.47c7.198,0,13.023-5.825,13.023-13.023V145.529C467.493,138.331,461.668,132.506,454.47,132.506z M441.446,441.447H158.554
		V158.553h282.893V441.447z"/>
	<path fill="#222221" d="M228.901,349.362l71.1-71.099l71.109,71.099c2.545,2.543,5.877,3.815,9.209,3.815s6.666-1.272,9.208-3.815
		c5.089-5.088,5.089-13.329,0-18.417l-80.319-80.306c-5.086-5.089-13.328-5.089-18.416,0l-80.308,80.306
		c-5.087,5.088-5.087,13.329,0,18.417C215.572,354.45,223.814,354.45,228.901,349.362z"/>
</g>
</svg>
