<?xml version="1.0" encoding="utf-8"?>
<!-- Generator: Adobe Illustrator 15.0.0, SVG Export Plug-In . SVG Version: 6.00 Build 0)  -->
<!DOCTYPE svg PUBLIC "-//W3C//DTD SVG 1.1//EN" "http://www.w3.org/Graphics/SVG/1.1/DTD/svg11.dtd">
<svg version="1.1" id="Capa_1" xmlns="http://www.w3.org/2000/svg" xmlns:xlink="http://www.w3.org/1999/xlink" x="0px" y="0px"
	 width="600px" height="600px" viewBox="0 0 600 600" enable-background="new 0 0 600 600" xml:space="preserve">
<g>
	<path fill="#222221" d="M457.805,128.894H142.195c-7.348,0-13.305,5.957-13.305,13.305v315.604c0,7.348,5.958,13.305,13.305,13.305
		h315.609c7.348,0,13.305-5.957,13.305-13.305V142.198C471.109,134.851,465.152,128.894,457.805,128.894z M444.5,444.497h-289
		V155.503h289V444.497z"/>
	<path fill="#222221" d="M309.41,236.399c-4.989-4.99-13.825-4.99-18.814,0l-50.891,50.893c-5.197,5.197-5.197,13.617,0,18.814
		c5.197,5.197,13.623,5.197,18.814,0l28.179-28.182v111.273c0,7.348,5.958,13.305,13.305,13.305c7.348,0,13.306-5.957,13.306-13.305
		V277.925l28.182,28.182c2.596,2.6,6.003,3.898,9.407,3.898c3.403,0,6.812-1.299,9.407-3.898c5.197-5.197,5.197-13.617,0-18.814
		L309.41,236.399z"/>
	<path fill="#222221" d="M194.519,210.087h210.963c7.348,0,13.305-5.957,13.305-13.305s-5.957-13.305-13.305-13.305H194.519
		c-7.348,0-13.305,5.957-13.305,13.305S187.171,210.087,194.519,210.087z"/>
</g>
</svg>
