<?xml version="1.0" encoding="utf-8"?>
<!-- Generator: Adobe Illustrator 15.0.0, SVG Export Plug-In . SVG Version: 6.00 Build 0)  -->
<!DOCTYPE svg PUBLIC "-//W3C//DTD SVG 1.1//EN" "http://www.w3.org/Graphics/SVG/1.1/DTD/svg11.dtd">
<svg version="1.1" id="Capa_1" xmlns="http://www.w3.org/2000/svg" xmlns:xlink="http://www.w3.org/1999/xlink" x="0px" y="0px"
	 width="600px" height="600px" viewBox="0 0 600 600" enable-background="new 0 0 600 600" xml:space="preserve">
<g>
	<path fill="#222221" d="M435.434,61.788H276.99c-33.342,0-60.466,27.124-60.466,60.466v76.866
		c0,28.751,20.381,53.034,47.453,59.034v53.989c0,5.409,3.478,10.221,8.63,11.908c1.285,0.416,2.595,0.624,3.905,0.624
		c3.903,0,7.688-1.836,10.099-5.104l44.172-59.988h104.65c33.33,0,60.451-27.122,60.451-60.464v-76.866
		C495.885,88.912,468.764,61.788,435.434,61.788z M470.818,199.12c0,19.523-15.875,35.399-35.385,35.399h-110.99
		c-3.979,0-7.723,1.895-10.086,5.103l-25.312,34.37v-26.965c0-6.867-5.532-12.459-12.41-12.533
		c-19.316-0.184-35.044-16.059-35.044-35.374v-76.866c0-19.523,15.874-35.398,35.398-35.398h158.444
		c19.51,0,35.385,15.875,35.385,35.398V199.12z"/>
	<path fill="#222221" d="M187.271,363.402c32.167,0,58.336-26.167,58.336-58.334c0-32.178-26.169-58.348-58.336-58.348
		c-32.179,0-58.349,26.17-58.349,58.348C128.922,337.235,155.092,363.402,187.271,363.402z M187.271,271.789
		c18.349,0,33.269,14.932,33.269,33.279c0,18.347-14.92,33.27-33.269,33.27s-33.28-14.923-33.28-33.27
		C153.991,286.721,168.922,271.789,187.271,271.789z"/>
	<path fill="#222221" d="M187.271,365.876c-45.862,0-83.156,37.306-83.156,83.159v76.645c0,6.915,5.605,12.532,12.532,12.532
		h141.248c6.915,0,12.535-5.617,12.535-12.532v-76.645C270.43,403.182,233.122,365.876,187.271,365.876z M245.362,513.146H129.18
		v-64.111c0-32.032,26.059-58.092,58.091-58.092s58.091,26.06,58.091,58.092V513.146z"/>
	<path fill="#222221" d="M286.231,145.706c-10.381,0-18.801,8.421-18.801,18.799c0,10.393,8.42,18.802,18.801,18.802
		c10.379,0,18.798-8.409,18.798-18.802C305.029,154.127,296.61,145.706,286.231,145.706z"/>
	<path fill="#222221" d="M356.205,145.706c-10.379,0-18.801,8.421-18.801,18.799c0,10.393,8.422,18.802,18.801,18.802
		c10.391,0,18.799-8.409,18.799-18.802C375.004,154.127,366.596,145.706,356.205,145.706z"/>
	<path fill="#222221" d="M426.193,145.706c-10.393,0-18.801,8.421-18.801,18.799c0,10.393,8.408,18.802,18.801,18.802
		c10.379,0,18.801-8.409,18.801-18.802C444.994,154.127,436.572,145.706,426.193,145.706z"/>
</g>
</svg>
