<?xml version="1.0" encoding="utf-8"?>
<!-- Generator: Adobe Illustrator 15.0.0, SVG Export Plug-In . SVG Version: 6.00 Build 0)  -->
<!DOCTYPE svg PUBLIC "-//W3C//DTD SVG 1.1//EN" "http://www.w3.org/Graphics/SVG/1.1/DTD/svg11.dtd">
<svg version="1.1" id="Capa_1" xmlns="http://www.w3.org/2000/svg" xmlns:xlink="http://www.w3.org/1999/xlink" x="0px" y="0px"
	 width="600px" height="600px" viewBox="0 0 600 600" enable-background="new 0 0 600 600" xml:space="preserve">
<path d="M387.104,334.529V166.07c0-48.029-39.076-87.104-87.104-87.104c-48.028,0-87.103,39.074-87.103,87.104v168.459
	c0,43.971,32.78,80.33,75.166,86.182v76.447h-58.531c-6.592,0-11.937,5.34-11.937,11.938c0,6.586,5.345,11.938,11.937,11.938
	h140.943c6.592,0,11.937-5.352,11.937-11.938c0-6.598-5.345-11.938-11.937-11.938h-58.537v-76.447
	C354.322,414.859,387.104,378.5,387.104,334.529z M236.771,166.07c0-34.867,28.365-63.23,63.229-63.23
	c34.863,0,63.229,28.363,63.229,63.23v146.182H236.771V166.07z M300,397.758c-34.322,0-62.285-27.512-63.147-61.633h126.295
	C362.285,370.246,334.322,397.758,300,397.758z"/>
</svg>
