<?xml version="1.0" encoding="utf-8"?>
<!-- Generator: Adobe Illustrator 15.0.0, SVG Export Plug-In . SVG Version: 6.00 Build 0)  -->
<!DOCTYPE svg PUBLIC "-//W3C//DTD SVG 1.1//EN" "http://www.w3.org/Graphics/SVG/1.1/DTD/svg11.dtd">
<svg version="1.1" id="Capa_1" xmlns="http://www.w3.org/2000/svg" xmlns:xlink="http://www.w3.org/1999/xlink" x="0px" y="0px"
	 width="600px" height="600px" viewBox="0 0 600 600" enable-background="new 0 0 600 600" xml:space="preserve">
<g>
	<path d="M339.546,162.753c-4.037-2.713-9.164-3.226-13.649-1.389l-148.935,60.948H86.564c-8.053,0-14.583,6.529-14.583,14.583
		v126.208c0,8.053,6.529,14.582,14.583,14.582h90.397l148.935,60.951c1.776,0.727,3.652,1.086,5.521,1.086
		c2.852,0,5.689-0.836,8.128-2.475C343.579,434.539,346,430,346,425.14V174.861C346,170,343.579,165.461,339.546,162.753z
		 M101.146,251.477h64.102v97.043h-64.102V251.477z M316.836,403.417l-122.423-50.102v-106.63l122.423-50.102V403.417z"/>
	<path d="M478.396,299.997l45.352-45.348c5.695-5.693,5.695-14.924,0-20.62c-5.689-5.696-14.924-5.696-20.621,0l-45.354,45.348
		l-45.349-45.348c-5.696-5.696-14.931-5.696-20.62,0c-5.696,5.692-5.696,14.927,0,20.62l45.348,45.348l-45.355,45.348
		c-5.695,5.693-5.695,14.924,0,20.619c2.846,2.849,6.58,4.271,10.311,4.271s7.462-1.423,10.311-4.271l45.355-45.352l45.354,45.355
		c2.85,2.848,6.58,4.272,10.311,4.272s7.466-1.425,10.311-4.272c5.695-5.692,5.695-14.928,0-20.619L478.396,299.997z"/>
</g>
</svg>
