<?xml version="1.0" encoding="utf-8"?>
<!-- Generator: Adobe Illustrator 15.0.0, SVG Export Plug-In . SVG Version: 6.00 Build 0)  -->
<!DOCTYPE svg PUBLIC "-//W3C//DTD SVG 1.1//EN" "http://www.w3.org/Graphics/SVG/1.1/DTD/svg11.dtd">
<svg version="1.1" id="Capa_1" xmlns="http://www.w3.org/2000/svg" xmlns:xlink="http://www.w3.org/1999/xlink" x="0px" y="0px"
	 width="600px" height="600px" viewBox="0 0 600 600" enable-background="new 0 0 600 600" xml:space="preserve">
<g>
	<path d="M323.667,202.315l-103.734,42.447h-62.869c-6.188,0-11.207,5.017-11.207,11.206v88.062c0,6.188,5.019,11.206,11.207,11.206
		h62.869l103.734,42.444c1.362,0.559,2.807,0.835,4.241,0.835c2.193,0,4.372-0.643,6.249-1.901c3.097-2.082,4.958-5.571,4.958-9.306
		V212.688c0-3.735-1.861-7.223-4.958-9.306C331.055,201.297,327.114,200.903,323.667,202.315z M168.271,267.176h42.66v65.648h-42.66
		V267.176z M316.701,370.613l-83.356-34.106v-73.014l83.356-34.11V370.613z"/>
	<path d="M372.894,387.6c2.189,2.189,5.056,3.283,7.924,3.283c2.867,0,5.74-1.094,7.923-3.283
		c48.309-48.301,48.309-126.899,0-175.202c-4.371-4.378-11.475-4.378-15.847,0c-4.378,4.375-4.378,11.472,0,15.848
		c39.563,39.565,39.563,103.941,0,143.507C368.516,376.128,368.516,383.225,372.894,387.6z"/>
	<path d="M428.217,172.934c-4.373-4.379-11.475-4.379-15.848,0c-4.378,4.374-4.378,11.471,0,15.847
		c61.326,61.325,61.326,161.112,0,222.437c-4.378,4.375-4.378,11.473,0,15.848c2.189,2.189,5.057,3.283,7.924,3.283
		s5.74-1.094,7.924-3.283C498.281,357,498.281,242.997,428.217,172.934z"/>
	<path d="M463.933,137.211c-4.378-4.377-11.475-4.377-15.847,0c-4.378,4.375-4.378,11.472,0,15.848
		c39.25,39.249,60.871,91.433,60.871,146.938c0,55.509-21.621,107.692-60.871,146.942c-4.378,4.375-4.378,11.473,0,15.847
		c2.189,2.188,5.056,3.282,7.924,3.282c2.867,0,5.734-1.094,7.923-3.282c43.487-43.481,67.438-101.294,67.438-162.789
		C531.371,238.505,507.42,180.692,463.933,137.211z"/>
	<path d="M374.793,495.176c-23.842,9.143-49.008,13.778-74.798,13.778c-115.216,0-208.952-93.733-208.952-208.952
		S184.779,91.046,299.995,91.046c26.506,0,52.323,4.89,76.739,14.534c5.752,2.284,12.264-0.548,14.541-6.304
		c2.275-5.757-0.549-12.267-6.305-14.542c-27.049-10.686-55.641-16.102-84.976-16.102c-127.576,0-231.366,103.791-231.366,231.369
		c0,127.577,103.79,231.365,231.366,231.365c28.542,0,56.411-5.135,82.825-15.268c5.778-2.215,8.662-8.694,6.445-14.476
		C387.051,495.846,380.576,492.951,374.793,495.176z"/>
</g>
</svg>
