<?xml version="1.0" encoding="utf-8"?>
<!-- Generator: Adobe Illustrator 15.0.0, SVG Export Plug-In . SVG Version: 6.00 Build 0)  -->
<!DOCTYPE svg PUBLIC "-//W3C//DTD SVG 1.1//EN" "http://www.w3.org/Graphics/SVG/1.1/DTD/svg11.dtd">
<svg version="1.1" id="Capa_1" xmlns="http://www.w3.org/2000/svg" xmlns:xlink="http://www.w3.org/1999/xlink" x="0px" y="0px"
	 width="600px" height="600px" viewBox="0 0 600 600" enable-background="new 0 0 600 600" xml:space="preserve">
<g>
	<path fill="#222221" d="M300.001,110.845c-104.298,0-189.155,84.858-189.155,189.155c0,104.298,84.857,189.155,189.155,189.155
		c104.305,0,189.153-84.857,189.153-189.155C489.154,195.703,404.306,110.845,300.001,110.845z M300.001,457.988
		c-87.117,0-157.988-70.87-157.988-157.988c0-87.115,70.871-157.988,157.988-157.988c87.116,0,157.986,70.873,157.986,157.988
		C457.987,387.118,387.117,457.988,300.001,457.988z"/>
	<path fill="#222221" d="M315.585,293.808V186.686c0-8.606-6.978-15.584-15.584-15.584c-8.605,0-15.582,6.978-15.582,15.584V300
		c0,4.839,2.25,9.1,5.703,11.962c0.146,0.175,0.245,0.373,0.397,0.546l58.438,66.354c3.083,3.49,7.381,5.28,11.702,5.28
		c3.652,0,7.329-1.277,10.289-3.888c6.46-5.693,7.083-15.537,1.398-21.998L315.585,293.808z"/>
</g>
</svg>
