<?xml version="1.0" encoding="utf-8"?>
<!-- Generator: Adobe Illustrator 15.0.0, SVG Export Plug-In . SVG Version: 6.00 Build 0)  -->
<!DOCTYPE svg PUBLIC "-//W3C//DTD SVG 1.1//EN" "http://www.w3.org/Graphics/SVG/1.1/DTD/svg11.dtd">
<svg version="1.1" id="Capa_1" xmlns="http://www.w3.org/2000/svg" xmlns:xlink="http://www.w3.org/1999/xlink" x="0px" y="0px"
	 width="600px" height="600px" viewBox="0 0 600 600" enable-background="new 0 0 600 600" xml:space="preserve">
<g>
	<path d="M481.715,446.136L307.438,144.282c-1.542-2.674-4.395-4.318-7.479-4.318s-5.938,1.645-7.48,4.318L117.652,447.079
		c-1.543,2.674-1.543,5.965,0,8.639c1.542,2.674,4.395,4.318,7.48,4.318h349.649c0.029,0,0.057,0,0.086,0
		c4.77,0,8.638-3.863,8.638-8.639C483.505,449.415,482.836,447.595,481.715,446.136z M140.094,442.761l159.865-276.885
		l159.863,276.885H140.094z"/>
	<path d="M291.321,253.296v123.893c0,4.773,3.867,8.637,8.638,8.637c4.77,0,8.637-3.863,8.637-8.637V253.296
		c0-4.766-3.867-8.637-8.637-8.637C295.188,244.659,291.321,248.53,291.321,253.296z"/>
	<path d="M299.959,395.888c-5.922,0-10.725,4.799-10.725,10.721s4.803,10.73,10.725,10.73c5.921,0,10.725-4.809,10.725-10.73
		S305.88,395.888,299.959,395.888z"/>
</g>
</svg>
