<?xml version="1.0" encoding="utf-8"?>
<!-- Generator: Adobe Illustrator 15.0.0, SVG Export Plug-In . SVG Version: 6.00 Build 0)  -->
<!DOCTYPE svg PUBLIC "-//W3C//DTD SVG 1.1//EN" "http://www.w3.org/Graphics/SVG/1.1/DTD/svg11.dtd">
<svg version="1.1" id="Capa_1" xmlns="http://www.w3.org/2000/svg" xmlns:xlink="http://www.w3.org/1999/xlink" x="0px" y="0px"
	 width="600px" height="600px" viewBox="0 0 600 600" enable-background="new 0 0 600 600" xml:space="preserve">
<g>
	<path d="M528.27,85.215H189.761c-6.411,0-11.608,5.198-11.608,11.608c0,6.413,5.197,11.61,11.608,11.61H516.66v383.133H189.761
		c-6.411,0-11.608,5.197-11.608,11.612c0,6.408,5.197,11.606,11.608,11.606H528.27c6.41,0,11.607-5.198,11.607-11.606V96.823
		C539.877,90.413,534.68,85.215,528.27,85.215z"/>
	<path d="M236.916,370.532c-4.535,4.537-4.535,11.883,0,16.419c2.268,2.267,5.24,3.401,8.211,3.401c2.969,0,5.938-1.135,8.206-3.401
		l71.589-71.588c4.536-4.535,4.536-11.884,0-16.417l-71.589-71.598c-4.534-4.538-11.882-4.538-16.417,0
		c-4.535,4.528-4.535,11.881,0,16.414l51.771,51.781H71.733c-6.411,0-11.61,5.199-11.61,11.609c0,6.412,5.199,11.611,11.61,11.611
		h216.954L236.916,370.532z"/>
</g>
</svg>
