<?xml version="1.0" encoding="utf-8"?>
<!-- Generator: Adobe Illustrator 15.0.0, SVG Export Plug-In . SVG Version: 6.00 Build 0)  -->
<!DOCTYPE svg PUBLIC "-//W3C//DTD SVG 1.1//EN" "http://www.w3.org/Graphics/SVG/1.1/DTD/svg11.dtd">
<svg version="1.1" id="Capa_1" xmlns="http://www.w3.org/2000/svg" xmlns:xlink="http://www.w3.org/1999/xlink" x="0px" y="0px"
	 width="600px" height="600px" viewBox="0 0 600 600" enable-background="new 0 0 600 600" xml:space="preserve">
<path d="M526.967,161.365l-167.756-48.596c-1.033-0.3-2.098-0.45-3.17-0.45H243.964c-1.074,0-2.142,0.15-3.171,0.45l-167.76,48.596
	c-4.869,1.413-8.224,5.87-8.224,10.944v97.198c0,3.511,1.619,6.833,4.396,8.991c2.771,2.159,6.376,2.927,9.787,2.059l73.95-18.65
	v214.381c0,6.293,5.103,11.395,11.396,11.395h271.328c6.293,0,11.396-5.102,11.396-11.395V261.906l73.945,18.65
	c3.41,0.868,7.021,0.1,9.793-2.059c2.77-2.159,4.389-5.48,4.389-8.991v-97.198C535.189,167.234,531.84,162.778,526.967,161.365z
	 M348.045,135.108c-3.311,23.586-23.564,41.808-48.045,41.808c-24.482,0-44.734-18.222-48.045-41.808H348.045z M512.4,254.879
	l-73.945-18.65c-3.406-0.868-7.023-0.095-9.793,2.059c-2.771,2.159-4.391,5.48-4.391,8.991v217.614H175.733V247.278
	c0-3.511-1.619-6.833-4.396-8.991c-2.771-2.153-6.376-2.927-9.787-2.059l-73.951,18.65v-74.007l142.032-41.146
	c5.481,33.945,34.903,59.98,70.368,59.98c35.471,0,64.887-26.035,70.368-59.98L512.4,180.872V254.879z"/>
</svg>
