<?xml version="1.0" encoding="utf-8"?>
<!-- Generator: Adobe Illustrator 15.0.0, SVG Export Plug-In . SVG Version: 6.00 Build 0)  -->
<!DOCTYPE svg PUBLIC "-//W3C//DTD SVG 1.1//EN" "http://www.w3.org/Graphics/SVG/1.1/DTD/svg11.dtd">
<svg version="1.1" id="Capa_1" xmlns="http://www.w3.org/2000/svg" xmlns:xlink="http://www.w3.org/1999/xlink" x="0px" y="0px"
	 width="600px" height="600px" viewBox="0 0 600 600" enable-background="new 0 0 600 600" xml:space="preserve">
<g>
	<path fill="#222221" d="M548.92,404.418h-29.264V186.497c0-30.037-24.438-54.474-54.479-54.474H134.823
		c-30.04,0-54.479,24.437-54.479,54.474v217.921H51.081c-5.744,0-10.417,4.674-10.417,10.416c0,29.303,23.84,53.143,53.143,53.143
		h412.382c29.305,0,53.146-23.84,53.146-53.143C559.336,409.092,554.664,404.418,548.92,404.418z M134.823,152.854h330.355
		c18.553,0,33.646,15.092,33.646,33.643v217.921H101.175V186.497C101.175,167.946,116.27,152.854,134.823,152.854z M506.189,447.145
		H93.807c-13.854,0-26.16-8.908-30.588-21.895h473.562C532.354,438.236,520.045,447.145,506.189,447.145z"/>
	<path fill="#222221" d="M124.261,383.857h351.483c5.744,0,10.416-4.674,10.416-10.418V183.824c0-5.743-4.672-10.416-10.416-10.416
		H124.261c-5.744,0-10.417,4.673-10.417,10.416v189.616C113.844,379.184,118.517,383.857,124.261,383.857z M134.676,363.023V194.241
		h330.652v168.783H134.676z"/>
</g>
</svg>
