<?xml version="1.0" encoding="utf-8"?>
<!-- Generator: Adobe Illustrator 15.0.0, SVG Export Plug-In . SVG Version: 6.00 Build 0)  -->
<!DOCTYPE svg PUBLIC "-//W3C//DTD SVG 1.1//EN" "http://www.w3.org/Graphics/SVG/1.1/DTD/svg11.dtd">
<svg version="1.1" id="Capa_1" xmlns="http://www.w3.org/2000/svg" xmlns:xlink="http://www.w3.org/1999/xlink" x="0px" y="0px"
	 width="600px" height="600px" viewBox="0 0 600 600" enable-background="new 0 0 600 600" xml:space="preserve">
<g>
	<path fill="#222221" d="M299.997,337.414c-33.646,0-61.018,27.371-61.018,61.016c0,33.646,27.371,61.018,61.018,61.018
		c33.645,0,61.018-27.371,61.018-61.018C361.015,364.785,333.642,337.414,299.997,337.414z M299.997,431.963
		c-18.486,0-33.531-15.045-33.531-33.533c0-18.486,15.045-33.531,33.531-33.531c18.494,0,33.531,15.045,33.531,33.531
		C333.528,416.918,318.491,431.963,299.997,431.963z"/>
	<path fill="#222221" d="M299.997,270.948c-40.578,0-78.727,15.81-107.42,44.503c-5.367,5.367-5.367,14.064,0,19.432
		c2.686,2.686,6.201,4.027,9.717,4.027c3.518,0,7.033-1.342,9.717-4.027c23.5-23.506,54.75-36.45,87.986-36.45
		c33.242,0,64.486,12.944,87.992,36.45c5.361,5.369,14.072,5.369,19.434,0c5.367-5.367,5.367-14.064,0-19.432
		C378.729,286.757,340.581,270.948,299.997,270.948z"/>
	<path fill="#222221" d="M144.177,267.042c-5.369,5.368-5.369,14.064,0,19.433c5.361,5.368,14.064,5.368,19.434,0
		c75.209-75.195,197.572-75.195,272.781,0c2.684,2.685,6.199,4.026,9.717,4.026c3.516,0,7.031-1.342,9.715-4.026
		c5.369-5.368,5.369-14.064,0-19.433C369.905,181.124,230.095,181.124,144.177,267.042z"/>
	<path fill="#222221" d="M499.63,223.244c-53.328-53.326-124.223-82.691-199.633-82.691s-146.305,29.365-199.625,82.691
		c-5.369,5.368-5.369,14.065,0,19.434c5.367,5.368,14.07,5.368,19.432,0c48.135-48.134,112.123-74.639,180.193-74.639
		s132.066,26.505,180.199,74.639c2.684,2.684,6.199,4.026,9.717,4.026c3.516,0,7.031-1.343,9.717-4.026
		C504.997,237.309,504.997,228.612,499.63,223.244z"/>
</g>
</svg>
