<?xml version="1.0" encoding="utf-8"?>
<!-- Generator: Adobe Illustrator 15.0.0, SVG Export Plug-In . SVG Version: 6.00 Build 0)  -->
<!DOCTYPE svg PUBLIC "-//W3C//DTD SVG 1.1//EN" "http://www.w3.org/Graphics/SVG/1.1/DTD/svg11.dtd">
<svg version="1.1" id="Capa_1" xmlns="http://www.w3.org/2000/svg" xmlns:xlink="http://www.w3.org/1999/xlink" x="0px" y="0px"
	 width="600px" height="600px" viewBox="0 0 600 600" enable-background="new 0 0 600 600" xml:space="preserve">
<g>
	<path d="M382.627,249.504v-90.111c0-4.64-3.756-8.402-8.402-8.402h-148.45c-4.645,0-8.402,3.763-8.402,8.402v90.111
		c0,42.728,32.594,77.98,74.225,82.206v68.829c-20.916,2.228-44.33,12.965-51.264,37.807c-0.705,2.533-0.188,5.248,1.404,7.342
		c1.582,2.094,4.062,3.322,6.688,3.322h103.148c2.768,0,5.359-1.359,6.928-3.637c1.566-2.279,1.91-5.183,0.928-7.766
		c-8.592-22.482-25.76-34.923-51.025-37.135V331.71C350.031,327.484,382.627,292.231,382.627,249.504z M234.18,249.504v-81.708
		h131.64v81.708c0,36.296-29.523,65.825-65.821,65.825C263.705,315.329,234.18,285.8,234.18,249.504z M337.494,432.204h-75.585
		c11.733-14.81,34.997-15.317,38.091-15.317C311.678,416.887,327.18,418.711,337.494,432.204z"/>
	<path d="M353.645,249.914v-43.96c0-4.641-3.768-8.403-8.404-8.403h-90.479c-4.637,0-8.404,3.763-8.404,8.403v43.96
		c0,29.579,24.068,53.643,53.643,53.643C329.574,303.557,353.645,279.493,353.645,249.914z M263.164,249.914v-35.557h73.674v35.557
		c0,20.312-16.527,36.838-36.838,36.838C279.689,286.752,263.164,270.227,263.164,249.914z"/>
</g>
</svg>
