<?xml version="1.0" encoding="utf-8"?>
<!-- Generator: Adobe Illustrator 15.0.0, SVG Export Plug-In . SVG Version: 6.00 Build 0)  -->
<!DOCTYPE svg PUBLIC "-//W3C//DTD SVG 1.1//EN" "http://www.w3.org/Graphics/SVG/1.1/DTD/svg11.dtd">
<svg version="1.1" id="Capa_1" xmlns="http://www.w3.org/2000/svg" xmlns:xlink="http://www.w3.org/1999/xlink" x="0px" y="0px"
	 width="600px" height="600px" viewBox="0 0 600 600" enable-background="new 0 0 600 600" xml:space="preserve">
<g>
	<path d="M329.303,184.055V71.587c0-4.916-3.986-8.902-8.902-8.902h-40.796c-4.916,0-8.902,3.986-8.902,8.902V184.05
		c-32.26,12.1-54.257,43.339-54.257,78.198v266.165c0,4.916,3.986,8.902,8.902,8.902h149.305c4.916,0,8.902-3.986,8.902-8.902
		V262.248C383.555,227.391,361.561,196.154,329.303,184.055z M365.75,519.511h-131.5V262.248c0-29.225,19.649-55.212,47.784-63.199
		c3.83-1.087,6.473-4.584,6.473-8.563V80.489h22.991V190.49c0,3.979,2.643,7.477,6.473,8.563
		c28.132,7.987,47.779,33.973,47.779,63.194V519.511z"/>
	<path d="M257.153,268.759c-4.916,0-8.902,3.986-8.902,8.902v182.498c0,4.916,3.986,8.902,8.902,8.902h83.09
		c4.917,0,8.902-3.986,8.902-8.902V277.661c0-4.916-3.985-8.902-8.902-8.902H257.153z M331.341,451.257h-65.285V286.563h65.285
		V451.257z"/>
</g>
</svg>
