<?xml version="1.0" encoding="utf-8"?>
<!-- Generator: Adobe Illustrator 15.0.0, SVG Export Plug-In . SVG Version: 6.00 Build 0)  -->
<!DOCTYPE svg PUBLIC "-//W3C//DTD SVG 1.1//EN" "http://www.w3.org/Graphics/SVG/1.1/DTD/svg11.dtd">
<svg version="1.1" id="Capa_1" xmlns="http://www.w3.org/2000/svg" xmlns:xlink="http://www.w3.org/1999/xlink" x="0px" y="0px"
	 width="600px" height="600px" viewBox="0 0 600 600" enable-background="new 0 0 600 600" xml:space="preserve">
<g>
	<path d="M464.934,300c0-90.393-73.103-164.006-163.289-164.891c-0.531-0.111-1.081-0.17-1.645-0.17
		c-1.644,0-3.246,0.158-4.867,0.25C206.435,137.781,135.066,210.688,135.066,300c0,90.391,73.104,164.004,163.29,164.891
		c0.531,0.109,1.081,0.17,1.644,0.17c1.645,0,3.247-0.158,4.868-0.25C393.566,462.217,464.934,389.312,464.934,300z M151.257,300
		c0-58.072,33.471-108.443,82.117-132.93c-12.098,15.02-19.378,34.166-19.378,55.02c0,47.424,38.581,86.004,86.004,86.004
		c38.497,0,69.815,31.32,69.815,69.814c0,37.467-28.735,68.168-64.973,70.713c-1.613,0.051-3.218,0.123-4.843,0.123
		C217.982,448.744,151.257,382.016,151.257,300z M366.627,432.93c12.098-15.02,19.378-34.166,19.378-55.021
		c0-47.422-38.581-86.004-86.005-86.004c-38.496,0-69.814-31.32-69.814-69.814c0-37.467,28.735-68.166,64.973-70.711
		c1.613-0.053,3.218-0.123,4.842-0.123c82.019,0,148.744,66.727,148.744,148.744C448.744,358.07,415.273,408.443,366.627,432.93z"/>
	<path d="M300,174.869c-12.274,0-22.261,9.988-22.261,22.26c0,12.273,9.986,22.262,22.261,22.262
		c12.275,0,22.262-9.988,22.262-22.262C322.262,184.857,312.275,174.869,300,174.869z M300,203.201c-3.348,0-6.07-2.725-6.07-6.072
		s2.723-6.07,6.07-6.07c3.349,0,6.071,2.723,6.071,6.07S303.349,203.201,300,203.201z"/>
	<path d="M322.262,400.355c0-12.273-9.986-22.26-22.262-22.26c-12.274,0-22.261,9.986-22.261,22.26s9.986,22.262,22.261,22.262
		C312.275,422.617,322.262,412.629,322.262,400.355z M293.93,400.355c0-3.348,2.723-6.07,6.07-6.07c3.349,0,6.071,2.723,6.071,6.07
		s-2.723,6.072-6.071,6.072C296.652,406.428,293.93,403.703,293.93,400.355z"/>
</g>
</svg>
